<?xml version="1.0" encoding="utf-8"?>
<!-- Generator: Adobe Illustrator 16.0.0, SVG Export Plug-In . SVG Version: 6.00 Build 0)  -->
<!DOCTYPE svg PUBLIC "-//W3C//DTD SVG 1.1//EN" "http://www.w3.org/Graphics/SVG/1.1/DTD/svg11.dtd">
<svg version="1.1" id="Layer_1" xmlns="http://www.w3.org/2000/svg" xmlns:xlink="http://www.w3.org/1999/xlink" x="0px" y="0px"
	 width="300px" height="89.083px" viewBox="0 105.458 300 89.083" enable-background="new 0 105.458 300 89.083"
	 xml:space="preserve">
<g>
	<path fill="#015C6C" d="M210.404,127.459c-2.004-8.434-22.086-4.969-22.086-4.969c0.272-4.044-0.264-7.65-0.264-7.65
		c-8.214-11.822-35.271-8.868-47.13-9.111c-12.905-0.266-46.304-1.907-49.854,7.706c-5.795,15.694,2.761,53.364,19.423,73.432
		c0.142,0.17,0.297,0.343,0.45,0.512c0.188,0.207,0.301,0.316,0.301,0.316c0.185,0.199,0.382,0.385,0.583,0.533
		c7.948,5.859,17.938,6.082,27.378,6.299c9.538,0.221,22.715-2.066,29.801-9.217c3.191-3.221,9.306-14.049,9.306-14.049
		C199.141,170.393,213.1,146.783,210.404,127.459 M139.367,121.863c-12.854-0.569-41.218-6.291-41.191-7.925
		c0.042-2.63,29.152-4.782,40.848-4.581c12.068,0.208,41.207,4.459,41.223,5.807C180.277,117.821,151.971,121.621,139.367,121.863
		 M184.741,160.977c2.581-9.666,6.012-20.207,5.423-30.301c0,0,11.596,0.277,11.484,1.457
		C200.622,143.053,195.385,155.441,184.741,160.977"/>
</g>
</svg>
