<?xml version="1.0" encoding="utf-8"?>
<!-- Generator: Adobe Illustrator 16.0.0, SVG Export Plug-In . SVG Version: 6.00 Build 0)  -->
<!DOCTYPE svg PUBLIC "-//W3C//DTD SVG 1.1//EN" "http://www.w3.org/Graphics/SVG/1.1/DTD/svg11.dtd">
<svg version="1.1" id="Layer_1" xmlns="http://www.w3.org/2000/svg" xmlns:xlink="http://www.w3.org/1999/xlink" x="0px" y="0px"
	 width="300px" height="73.248px" viewBox="0 113.377 300 73.248" enable-background="new 0 113.377 300 73.248"
	 xml:space="preserve">
<g>
	<g>
		<g>
			<g>
				<path fill="#333333" d="M182.676,113.377h-65.349c-2.303,0-4.215,1.882-4.215,4.173v64.894c0,2.308,1.912,4.182,4.215,4.182
					h65.349c2.303,0,4.211-1.874,4.211-4.182V117.55C186.887,115.259,184.979,113.377,182.676,113.377z M175.729,154.462H165.6
					v26.935h-10.326v-26.935h-7.162v-9.696h7.162c0,0,0-3.969,0-8.271c0-6.502,4.233-12.488,13.992-12.488
					c3.957,0,6.869,0.379,6.869,0.379l-0.228,9.052c0,0-2.979-0.03-6.222-0.03c-3.533,0-4.086,1.601-4.086,4.287
					c0,0.318,0,0.447,0,0.447c0,0.743,0,2.58,0,6.624h10.58L175.729,154.462z"/>
			</g>
		</g>
	</g>
</g>
</svg>
