<?xml version="1.0" encoding="utf-8"?>
<!-- Generator: Adobe Illustrator 16.0.0, SVG Export Plug-In . SVG Version: 6.00 Build 0)  -->
<!DOCTYPE svg PUBLIC "-//W3C//DTD SVG 1.1//EN" "http://www.w3.org/Graphics/SVG/1.1/DTD/svg11.dtd">
<svg version="1.1" id="Layer_1" xmlns="http://www.w3.org/2000/svg" xmlns:xlink="http://www.w3.org/1999/xlink" x="0px" y="0px"
	 width="300px" height="72.713px" viewBox="0 113.935 300 72.713" enable-background="new 0 113.935 300 72.713"
	 xml:space="preserve">
<path fill="#015C6C" d="M238.986,152.368c-2.967,9.335-6.365,19.665-9.851,23.007c-4.137,3.969-14.094,3.646-23.27,3.8
	c-10.984,0.188-18.386-0.522-23.423-3.88c-4.746-3.166-7.393-10.927-10.827-19.545c-3.101-7.766-6.38-17.954-4.298-22.637
	c2.752-6.189,23.509-10.853,39.275-10.639c15.768,0.212,29.105,0.975,34.168,5.613C244.979,131.949,243.027,139.651,238.986,152.368
	z M259.791,124.264c0.018-4.232-0.617-2.58-8.168-4.628c-7.559-2.043-30.568-9.008-66.014-3.818
	c-29.529,4.324-22.084,14.127-34.221,14.574h-1.837c-12.143-0.447-4.694-10.25-34.22-14.574c-35.445-5.19-58.454,1.775-66.013,3.818
	c-7.553,2.048-8.193,0.396-8.17,4.628c0.021,4.226-0.364,7.642,3.293,7.642c3.652,0,3.652,0,9.387,17.907
	c6.838,21.376,8.669,27.399,15.314,32.387c8.014,6.024,41.82,6.015,52.748-0.562c13.688-8.238,11.875-39.087,28.322-39.581
	c0.09-0.003,0.424-0.003,0.516,0c16.447,0.494,14.629,31.342,28.318,39.581c10.924,6.576,44.736,6.586,52.75,0.562
	c6.646-4.987,8.477-11.011,15.318-32.387c5.725-17.907,5.725-17.907,9.385-17.907C260.158,131.906,259.77,128.489,259.791,124.264z
	 M129.328,155.75c-3.439,8.618-6.084,16.379-10.83,19.545c-5.035,3.357-12.436,4.068-23.423,3.88
	c-9.176-0.153-19.127,0.169-23.272-3.8c-3.484-3.342-6.883-13.672-9.852-23.007c-4.037-12.717-5.988-20.419-1.771-24.28
	c5.067-4.639,18.398-5.401,34.17-5.613c15.765-0.213,36.524,4.449,39.275,10.639C135.705,137.796,132.426,147.984,129.328,155.75z"
	/>
</svg>
