<?xml version="1.0" encoding="utf-8"?>
<!-- Generator: Adobe Illustrator 16.0.0, SVG Export Plug-In . SVG Version: 6.00 Build 0)  -->
<!DOCTYPE svg PUBLIC "-//W3C//DTD SVG 1.1//EN" "http://www.w3.org/Graphics/SVG/1.1/DTD/svg11.dtd">
<svg version="1.1" id="Layer_1" xmlns="http://www.w3.org/2000/svg" xmlns:xlink="http://www.w3.org/1999/xlink" x="0px" y="0px"
	 width="300px" height="75.514px" viewBox="0 119.398 300 75.514" enable-background="new 0 119.398 300 75.514"
	 xml:space="preserve">
<g>
	<path fill="#333333" d="M132.762,194.912c-10.768,0-20.787-3.161-29.227-8.566c1.488,0.18,3.006,0.266,4.544,0.266
		c8.933,0,17.157-3.045,23.681-8.164c-8.345-0.155-15.382-5.662-17.812-13.242c1.169,0.227,2.361,0.35,3.588,0.35
		c1.74,0,3.43-0.231,5.025-0.668c-8.718-1.748-15.293-9.46-15.293-18.694c0-0.086,0-0.171,0-0.241
		c2.57,1.43,5.511,2.284,8.629,2.385c-5.11-3.418-8.474-9.258-8.474-15.868c0-3.487,0.933-6.765,2.578-9.584
		c9.41,11.534,23.453,19.122,39.301,19.922c-0.322-1.397-0.493-2.858-0.493-4.342c0-10.539,8.535-19.067,19.06-19.067
		c5.48,0,10.441,2.314,13.922,6.02c4.338-0.862,8.424-2.447,12.104-4.63c-1.424,4.443-4.444,8.194-8.379,10.54
		c3.853-0.45,7.525-1.476,10.95-2.998c-2.556,3.829-5.794,7.185-9.515,9.88c0.039,0.815,0.055,1.631,0.055,2.462
		C187.006,165.855,167.826,194.912,132.762,194.912"/>
</g>
</svg>
