<?xml version="1.0" encoding="utf-8"?>
<!-- Generator: Adobe Illustrator 16.0.0, SVG Export Plug-In . SVG Version: 6.00 Build 0)  -->
<!DOCTYPE svg PUBLIC "-//W3C//DTD SVG 1.1//EN" "http://www.w3.org/Graphics/SVG/1.1/DTD/svg11.dtd">
<svg version="1.1" id="Layer_1" xmlns="http://www.w3.org/2000/svg" xmlns:xlink="http://www.w3.org/1999/xlink" x="0px" y="0px"
	 width="300px" height="300px" viewBox="0 0 300 300" enable-background="new 0 0 300 300" xml:space="preserve">
<g>
	<g>
		<path fill="#007B9F" d="M141.936,101.845H67.364c-9.287,0-14.493,4.64-15.618,13.924h90.575v17.31
			c0,25.595-13.791,38.388-41.383,38.388H30.657v-21.601h74.968c4.509,0,8.044-1.171,10.606-3.512
			c2.559-2.345,4.186-5.729,4.879-10.153H30.657v-17.439c0-25.591,13.84-38.392,41.518-38.392h69.761V101.845z"/>
		<path fill="#007B9F" d="M158.067,80.37h69.76c27.68,0,41.516,12.801,41.516,38.392v17.439h-90.451
			c0.694,4.424,2.322,7.809,4.883,10.153c2.558,2.341,6.098,3.512,10.606,3.512h74.962v21.601h-70.277
			c-27.594,0-41.385-12.793-41.385-38.388v-17.31h90.577c-1.128-9.284-6.33-13.924-15.613-13.924h-74.577V80.37z"/>
	</g>
	<g>
		<g>
			<path fill="#333333" d="M145.037,194.1l10.058-10.09h3.55v14.951h-4.095v-1.934h-6.457l3.662-3.643h2.795v-3.959l-9.513,9.535
				V194.1z"/>
			<path fill="#333333" d="M159.805,190.275l3.277-3.291v3.107v8.869h-3.277V190.275z M163.082,195.98h4.279v2.98h-4.279V195.98z"/>
			<path fill="#333333" d="M168.225,190.275l3.277-3.291v3.107v8.869h-3.277V190.275z M170.41,191.564h5.372v2.936h-4.28
				L170.41,191.564z M170.594,195.98h5.188v2.98h-4.28L170.594,195.98z M170.685,190.08l0.817-3.096h7.329l-3.095,3.096H170.685z"/>
			<path fill="#333333" d="M210.503,195.07l8.034-8.08h2.821v11.971h-3.277v-1.547h-5.141l2.928-2.914h2.213l-0.007-3.17
				l-7.58,7.623L210.503,195.07z"/>
			<path fill="#333333" d="M222.291,190.275l3.276-3.291v11.977h-3.276V190.275z M233.306,198.938l-7.875-7.832l0.16-4.121
				l4.234,4.309v-4.309h3.48V198.938z"/>
			<path fill="#333333" d="M234.215,190.281l3.255-3.291v11.971h-3.255V190.281z M239.427,195.98c0.728,0,1.363-0.285,1.9-0.852
				c0.538-0.568,0.807-1.244,0.807-2.027c0-0.83-0.299-1.541-0.898-2.141c-0.599-0.598-1.322-0.898-2.172-0.898h-1.594l0.022-3.072
				h1.343c1.744,0,3.254,0.592,4.528,1.775c1.274,1.182,1.912,2.627,1.912,4.336c0,1.619-0.538,2.998-1.615,4.143
				c-1.078,1.145-2.427,1.717-4.051,1.717h-1.526v-2.957L239.427,195.98z"/>
			<path fill="#333333" d="M245.958,190.27l3.253-3.285v11.953h-3.253V190.27z M252.375,186.984c1.198,0,2.162,0.316,2.891,0.949
				c0.727,0.631,1.092,1.572,1.092,2.82c0,1.066-0.357,1.957-1.069,2.672c-0.716,0.717-1.653,1.074-2.821,1.074h-0.251
				c-0.091,0-0.187-0.012-0.285-0.033c-0.098-0.023-0.16-0.043-0.182-0.057c-0.023-0.016-0.034-0.031-0.034-0.047l0.093-0.068
				l0.18-0.09l-1.948-1.51l1.475,0.008c0.483,0,0.854-0.121,1.112-0.361c0.258-0.238,0.385-0.576,0.385-1.01
				c0-0.387-0.117-0.691-0.352-0.914c-0.234-0.227-0.618-0.338-1.148-0.338h-2.3v-3.096H252.375z M256.266,199.023l-6.349-6.32
				l3.897-0.006l2.453,2.506L256.266,199.023z"/>
			<path fill="#333333" d="M269.215,192.93c0,1.896-0.61,3.396-1.832,4.494c-1.222,1.102-2.657,1.65-4.312,1.65
				c-1.686,0-3.129-0.537-4.337-1.615c-1.206-1.076-1.808-2.588-1.808-4.529c0-1.926,0.609-3.432,1.83-4.516
				c1.223-1.086,2.661-1.629,4.314-1.629c1.697,0,3.147,0.539,4.347,1.617C268.615,189.479,269.215,190.988,269.215,192.93z
				 M260.021,192.93c0,0.926,0.299,1.66,0.897,2.197c0.601,0.539,1.303,0.809,2.106,0.809c0.833,0,1.543-0.264,2.128-0.785
				c0.583-0.525,0.876-1.264,0.876-2.221c0-0.924-0.3-1.656-0.898-2.195c-0.601-0.539-1.301-0.809-2.105-0.809
				c-0.835,0-1.545,0.258-2.129,0.773C260.312,191.217,260.021,191.961,260.021,192.93z"/>
			<path fill="#333333" d="M194.236,214.861l9.655-9.709h3.391v14.385h-3.939v-1.859h-6.177l3.519-3.502h2.658l-0.008-3.811
				l-9.11,9.162L194.236,214.861z"/>
			<path fill="#333333" d="M208.239,209.094l3.91-3.949v14.367h-3.91V209.094z M215.952,205.145c1.439,0,2.599,0.379,3.472,1.139
				c0.877,0.76,1.314,1.891,1.314,3.391c0,1.281-0.428,2.354-1.286,3.213c-0.855,0.861-1.987,1.289-3.391,1.289h-0.3
				c-0.11,0-0.225-0.012-0.344-0.041c-0.12-0.025-0.189-0.049-0.218-0.068c-0.026-0.016-0.043-0.035-0.043-0.055l0.111-0.082
				l0.217-0.109l-2.342-1.812l1.773,0.01c0.581,0,1.027-0.145,1.335-0.434c0.312-0.287,0.467-0.693,0.467-1.213
				c0-0.465-0.144-0.832-0.424-1.102c-0.284-0.271-0.745-0.406-1.382-0.406h-2.764v-3.719H215.952z M220.628,219.615l-7.63-7.598
				l4.685-0.008l2.949,3.014L220.628,219.615z"/>
			<path fill="#333333" d="M221.422,209.1l3.938-3.955v14.393h-3.938V209.1z M234.66,219.512l-9.463-9.414l0.191-4.953l5.085,5.176
				v-5.176h4.187V219.512z"/>
			<path fill="#333333" d="M235.78,209.1l3.938-3.955v3.734v10.658h-3.938V209.1z M238.407,210.648h6.455v3.527h-5.144
				L238.407,210.648z M238.626,215.955h6.236v3.582h-5.144L238.626,215.955z M238.735,208.863l0.983-3.719h8.807l-3.718,3.719
				H238.735z"/>
			<path fill="#333333" d="M246.292,208.863l3.692-3.719h8.798l-3.709,3.719H246.292z M249.868,208.869l3.938-3.725v3.734v10.658
				h-3.938V208.869z"/>
			<path fill="#333333" d="M256.575,208.863l3.694-3.719h8.798l-3.708,3.719H256.575z M260.151,208.869l3.938-3.725v3.734v10.658
				h-3.938V208.869z"/>
			<path fill="#333333" d="M184.208,207.48c0.969-0.879,2.08-1.318,3.335-1.318h1.276l9.117-4.664H187.75
				c-2.647,0-4.94,0.904-6.872,2.713c-1.931,1.809-2.896,3.986-2.896,6.533c0,2.455,0.822,4.549,2.47,6.285
				c1.646,1.734,3.685,2.602,6.113,2.602l2.264-0.027v0.027h4.47v-11.26l-4.47,2.355v4.35h-1.988c-1.158,0-2.13-0.434-2.911-1.305
				c-0.783-0.871-1.174-1.889-1.174-3.055C182.755,209.439,183.239,208.359,184.208,207.48z"/>
		</g>
		<path fill="#333333" d="M192.472,190.195h-9.754c-1.216,0-1.896,0.607-2.045,1.822h11.85v2.264c0,3.348-1.806,5.021-5.414,5.021
			h-9.193v-2.824h9.807c0.59,0,1.052-0.154,1.387-0.461s0.549-0.748,0.639-1.328h-11.832v-2.281c0-3.346,1.812-5.021,5.432-5.021
			h9.125V190.195z"/>
		<path fill="#333333" d="M194.582,187.387h9.124c3.621,0,5.432,1.676,5.432,5.021v2.281h-11.832c0.09,0.58,0.303,1.021,0.639,1.328
			c0.334,0.307,0.797,0.461,1.388,0.461h9.806v2.824h-9.194c-3.608,0-5.412-1.674-5.412-5.021v-2.264h11.847
			c-0.147-1.215-0.827-1.822-2.041-1.822h-9.755V187.387z"/>
	</g>
</g>
</svg>
