<?xml version="1.0" encoding="utf-8"?>
<!-- Generator: Adobe Illustrator 16.0.0, SVG Export Plug-In . SVG Version: 6.00 Build 0)  -->
<!DOCTYPE svg PUBLIC "-//W3C//DTD SVG 1.1//EN" "http://www.w3.org/Graphics/SVG/1.1/DTD/svg11.dtd">
<svg version="1.1" id="Layer_1" xmlns="http://www.w3.org/2000/svg" xmlns:xlink="http://www.w3.org/1999/xlink" x="0px" y="0px"
	 width="300px" height="300px" viewBox="0 0 300 300" enable-background="new 0 0 300 300" xml:space="preserve">
<g>
	<g>
		<polygon fill-rule="evenodd" clip-rule="evenodd" fill="#0094D9" points="85.323,102.34 40.207,102.34 40.207,90.729 
			106.487,90.729 106.487,183.771 85.323,183.771 		"/>
		<polygon fill-rule="evenodd" clip-rule="evenodd" fill="#A5CD39" points="38.149,172.176 83.268,172.176 83.268,183.781 
			16.985,183.781 16.985,90.752 38.149,90.752 		"/>
		<path fill-rule="evenodd" clip-rule="evenodd" fill="#231F20" d="M27.327,204.309l1.788,0.457
			c-0.377,1.463-1.046,2.59-2.021,3.365c-0.975,0.762-2.162,1.141-3.567,1.141c-1.463,0-2.639-0.287-3.547-0.889
			c-0.914-0.582-1.604-1.451-2.087-2.572c-0.477-1.115-0.71-2.328-0.71-3.619c0-1.404,0.268-2.623,0.802-3.672
			c0.538-1.047,1.3-1.844,2.294-2.387c0.989-0.543,2.081-0.811,3.274-0.811c1.348,0,2.486,0.34,3.408,1.023
			c0.92,0.688,1.553,1.656,1.924,2.898l-1.766,0.422c-0.311-0.988-0.762-1.695-1.359-2.146c-0.595-0.453-1.34-0.67-2.245-0.67
			c-1.043,0-1.902,0.244-2.601,0.746c-0.701,0.498-1.19,1.162-1.469,1.998c-0.285,0.834-0.42,1.705-0.42,2.594
			c0,1.146,0.166,2.146,0.497,3c0.333,0.861,0.856,1.506,1.563,1.922c0.704,0.426,1.472,0.637,2.294,0.637
			c0.995,0,1.843-0.291,2.535-0.863C26.611,206.299,27.086,205.451,27.327,204.309z M30.483,204.156c0-1.816,0.503-3.156,1.509-4.02
			c0.843-0.725,1.868-1.094,3.075-1.094c1.349,0,2.452,0.445,3.297,1.324c0.854,0.883,1.285,2.102,1.285,3.648
			c0,1.264-0.192,2.252-0.568,2.975c-0.374,0.719-0.929,1.279-1.647,1.672c-0.728,0.408-1.509,0.604-2.366,0.604
			c-1.365,0-2.472-0.439-3.319-1.318C30.906,207.076,30.483,205.805,30.483,204.156z M32.19,204.156
			c0,1.256,0.268,2.191,0.822,2.812c0.543,0.625,1.233,0.938,2.055,0.938c0.822,0,1.513-0.318,2.056-0.949
			c0.549-0.613,0.822-1.572,0.822-2.85c0-1.213-0.273-2.127-0.822-2.752c-0.558-0.623-1.233-0.939-2.056-0.939
			c-0.821,0-1.512,0.316-2.055,0.928C32.458,201.971,32.19,202.902,32.19,204.156z M41.59,209.045v-9.775h1.495v1.385
			c0.715-1.068,1.753-1.611,3.106-1.611c0.595,0,1.136,0.111,1.624,0.318c0.498,0.213,0.868,0.492,1.112,0.842
			c0.247,0.34,0.42,0.748,0.518,1.219c0.061,0.305,0.092,0.842,0.092,1.619v6.004h-1.661v-5.949c0-0.674-0.061-1.182-0.192-1.516
			c-0.127-0.33-0.356-0.602-0.685-0.799c-0.33-0.201-0.71-0.299-1.152-0.299c-0.71,0-1.313,0.225-1.831,0.676
			c-0.515,0.445-0.768,1.293-0.768,2.547v5.34H41.59z M51.414,206.127l1.639-0.256c0.092,0.656,0.351,1.158,0.776,1.51
			c0.41,0.344,1,0.525,1.756,0.525c0.762,0,1.325-0.16,1.696-0.471c0.364-0.305,0.552-0.67,0.552-1.088
			c0-0.373-0.161-0.668-0.492-0.887c-0.224-0.146-0.79-0.33-1.689-0.559c-1.213-0.305-2.061-0.568-2.527-0.795
			c-0.468-0.225-0.827-0.539-1.071-0.936c-0.239-0.396-0.365-0.832-0.365-1.305c0-0.439,0.101-0.842,0.305-1.213
			c0.198-0.371,0.472-0.678,0.813-0.934c0.262-0.188,0.612-0.348,1.055-0.477c0.439-0.137,0.923-0.201,1.435-0.201
			c0.768,0,1.431,0.113,2.015,0.332c0.584,0.225,1.012,0.518,1.291,0.9c0.272,0.379,0.463,0.883,0.568,1.518l-1.623,0.221
			c-0.072-0.506-0.285-0.896-0.642-1.176c-0.351-0.283-0.854-0.43-1.491-0.43c-0.762,0-1.312,0.125-1.631,0.379
			c-0.327,0.25-0.491,0.543-0.491,0.883c0,0.217,0.072,0.408,0.207,0.58c0.132,0.176,0.345,0.318,0.636,0.451
			c0.166,0.055,0.649,0.193,1.463,0.41c1.176,0.314,1.989,0.57,2.449,0.771c0.468,0.209,0.833,0.496,1.098,0.867
			c0.265,0.385,0.391,0.854,0.391,1.426c0,0.549-0.164,1.072-0.477,1.559c-0.325,0.488-0.794,0.861-1.403,1.127
			c-0.606,0.275-1.287,0.404-2.058,0.404c-1.271,0-2.245-0.268-2.903-0.789C52.019,207.947,51.601,207.164,51.414,206.127z
			 M67.922,209.045v-1.432c-0.771,1.107-1.806,1.652-3.116,1.652c-0.572,0-1.112-0.105-1.609-0.332
			c-0.5-0.213-0.871-0.498-1.115-0.838c-0.244-0.33-0.417-0.734-0.512-1.23c-0.066-0.318-0.098-0.836-0.098-1.545v-6.051h1.655
			v5.426c0,0.863,0.035,1.447,0.095,1.74c0.107,0.441,0.331,0.781,0.667,1.033c0.34,0.25,0.757,0.363,1.257,0.363
			c0.494,0,0.96-0.113,1.396-0.377c0.438-0.252,0.742-0.604,0.929-1.041c0.178-0.436,0.271-1.074,0.271-1.91v-5.234h1.658v9.775
			H67.922z M71.957,209.045v-13.5h1.659v13.5H71.957z M79.799,207.562l0.241,1.465c-0.46,0.098-0.883,0.15-1.248,0.15
			c-0.609,0-1.068-0.104-1.405-0.291c-0.324-0.188-0.558-0.438-0.695-0.756c-0.138-0.305-0.207-0.961-0.207-1.949v-5.627h-1.213
			v-1.285h1.213v-2.42l1.649-0.996v3.416h1.665v1.285h-1.665v5.723c0,0.469,0.029,0.773,0.087,0.904
			c0.065,0.135,0.155,0.248,0.281,0.32c0.138,0.086,0.322,0.125,0.569,0.125C79.261,207.627,79.499,207.607,79.799,207.562z
			 M80.802,204.156c0-1.816,0.509-3.156,1.518-4.02c0.836-0.725,1.856-1.094,3.07-1.094c1.345,0,2.442,0.445,3.293,1.324
			c0.854,0.883,1.285,2.102,1.285,3.648c0,1.264-0.192,2.252-0.568,2.975c-0.374,0.719-0.929,1.279-1.65,1.672
			c-0.716,0.408-1.506,0.604-2.359,0.604c-1.369,0-2.47-0.439-3.317-1.318C81.224,207.076,80.802,205.805,80.802,204.156z
			 M82.506,204.156c0,1.256,0.276,2.191,0.819,2.812c0.547,0.625,1.233,0.938,2.064,0.938c0.827,0,1.509-0.318,2.055-0.949
			c0.543-0.613,0.819-1.572,0.819-2.85c0-1.213-0.276-2.127-0.828-2.752c-0.543-0.623-1.228-0.939-2.046-0.939
			c-0.831,0-1.518,0.316-2.064,0.928C82.782,201.971,82.506,202.902,82.506,204.156z M91.891,209.045v-9.775h1.486v1.477
			c0.382-0.689,0.735-1.146,1.058-1.371c0.325-0.219,0.679-0.332,1.063-0.332c0.561,0,1.127,0.178,1.708,0.531l-0.575,1.549
			c-0.399-0.244-0.808-0.361-1.213-0.361c-0.365,0-0.69,0.104-0.98,0.32c-0.282,0.223-0.491,0.521-0.612,0.912
			c-0.184,0.584-0.275,1.23-0.275,1.934v5.117H91.891z M104.883,205.893l1.71,0.211c-0.27,1.006-0.77,1.789-1.497,2.332
			c-0.73,0.551-1.664,0.83-2.8,0.83c-1.438,0-2.563-0.439-3.406-1.318c-0.839-0.883-1.247-2.115-1.247-3.709
			c0-1.648,0.414-2.916,1.262-3.83c0.854-0.906,1.948-1.365,3.3-1.365c1.308,0,2.374,0.451,3.196,1.338
			c0.837,0.895,1.247,2.137,1.247,3.76c0,0.098,0,0.244-0.008,0.438h-7.29c0.063,1.074,0.368,1.902,0.911,2.473
			c0.541,0.568,1.222,0.855,2.038,0.855c0.615,0,1.133-0.16,1.558-0.48C104.288,207.105,104.63,206.6,104.883,205.893z
			 M99.442,203.219h5.455c-0.069-0.816-0.285-1.443-0.624-1.854c-0.526-0.633-1.213-0.957-2.055-0.957
			c-0.757,0-1.4,0.252-1.917,0.762C99.784,201.686,99.493,202.365,99.442,203.219z M108.013,206.127l1.636-0.256
			c0.095,0.656,0.351,1.158,0.771,1.51c0.423,0.344,1.006,0.525,1.762,0.525c0.762,0,1.328-0.16,1.696-0.471
			c0.368-0.305,0.552-0.67,0.552-1.088c0-0.373-0.158-0.668-0.486-0.887c-0.224-0.146-0.793-0.33-1.689-0.559
			c-1.213-0.305-2.061-0.568-2.532-0.795c-0.469-0.225-0.822-0.539-1.066-0.936c-0.245-0.396-0.365-0.832-0.365-1.305
			c0-0.439,0.095-0.842,0.293-1.213c0.207-0.371,0.478-0.678,0.816-0.934c0.265-0.188,0.615-0.348,1.058-0.477
			c0.439-0.137,0.923-0.201,1.432-0.201c0.765,0,1.439,0.113,2.018,0.332c0.584,0.225,1.015,0.518,1.291,0.9
			c0.278,0.379,0.46,0.883,0.566,1.518l-1.624,0.221c-0.066-0.506-0.282-0.896-0.639-1.176c-0.351-0.283-0.848-0.43-1.491-0.43
			c-0.762,0-1.3,0.125-1.63,0.379c-0.331,0.25-0.486,0.543-0.486,0.883c0,0.217,0.066,0.408,0.207,0.58
			c0.133,0.176,0.337,0.318,0.63,0.451c0.161,0.055,0.655,0.193,1.466,0.41c1.167,0.314,1.989,0.57,2.452,0.771
			c0.463,0.209,0.827,0.496,1.092,0.867c0.262,0.385,0.394,0.854,0.394,1.426c0,0.549-0.155,1.072-0.479,1.559
			c-0.325,0.488-0.793,0.861-1.397,1.127c-0.609,0.275-1.293,0.404-2.061,0.404c-1.279,0-2.236-0.268-2.912-0.789
			C108.616,207.947,108.197,207.164,108.013,206.127z M123.555,209.045v-13.5h5.088c0.899,0,1.583,0.045,2.058,0.131
			c0.658,0.113,1.222,0.32,1.667,0.635c0.448,0.311,0.808,0.742,1.081,1.301c0.27,0.562,0.408,1.172,0.408,1.842
			c0,1.146-0.362,2.115-1.092,2.912c-0.736,0.795-2.056,1.197-3.965,1.197h-3.46v5.482H123.555z M125.34,201.971h3.492
			c1.152,0,1.975-0.225,2.454-0.648c0.483-0.43,0.728-1.033,0.728-1.814c0-0.564-0.144-1.049-0.425-1.457
			c-0.291-0.4-0.661-0.664-1.127-0.791c-0.305-0.08-0.859-0.117-1.67-0.117h-3.452V201.971z M142.302,207.832
			c-0.615,0.525-1.211,0.895-1.774,1.109c-0.571,0.219-1.175,0.324-1.831,0.324c-1.068,0-1.896-0.258-2.475-0.785
			c-0.574-0.527-0.865-1.203-0.865-2.008c0-0.482,0.106-0.914,0.325-1.316c0.218-0.4,0.509-0.717,0.854-0.955
			c0.365-0.24,0.756-0.414,1.198-0.543c0.325-0.09,0.811-0.166,1.473-0.248c1.333-0.156,2.322-0.35,2.957-0.574
			c0-0.221,0.012-0.367,0.012-0.426c0-0.678-0.158-1.154-0.475-1.432c-0.426-0.373-1.055-0.562-1.885-0.562
			c-0.779,0-1.357,0.139-1.734,0.422c-0.367,0.266-0.638,0.744-0.821,1.441l-1.612-0.219c0.146-0.699,0.385-1.26,0.724-1.686
			c0.331-0.424,0.828-0.762,1.464-0.982c0.638-0.23,1.379-0.35,2.222-0.35c0.839,0,1.509,0.105,2.034,0.299
			c0.518,0.191,0.9,0.441,1.147,0.74c0.244,0.299,0.417,0.67,0.518,1.131c0.052,0.281,0.083,0.787,0.083,1.529v2.207
			c0,1.543,0.029,2.52,0.106,2.922c0.066,0.406,0.207,0.791,0.417,1.174h-1.728C142.462,208.703,142.347,208.303,142.302,207.832z
			 M142.163,204.141c-0.609,0.244-1.506,0.451-2.705,0.625c-0.681,0.098-1.166,0.203-1.445,0.33
			c-0.29,0.117-0.503,0.299-0.649,0.537c-0.158,0.238-0.245,0.498-0.245,0.787c0,0.443,0.173,0.811,0.512,1.113
			c0.331,0.287,0.822,0.434,1.469,0.434c0.633,0,1.202-0.141,1.699-0.42c0.491-0.273,0.862-0.66,1.101-1.141
			c0.173-0.383,0.265-0.928,0.265-1.662V204.141z M150.024,207.562l0.244,1.465c-0.469,0.098-0.885,0.15-1.253,0.15
			c-0.606,0-1.066-0.104-1.402-0.291c-0.331-0.188-0.563-0.438-0.698-0.756c-0.133-0.305-0.211-0.961-0.211-1.949v-5.627h-1.207
			v-1.285h1.207v-2.42l1.656-0.996v3.416h1.664v1.285h-1.664v5.723c0,0.469,0.025,0.773,0.086,0.904
			c0.055,0.135,0.152,0.248,0.285,0.32c0.132,0.086,0.318,0.125,0.571,0.125C149.481,207.627,149.726,207.607,150.024,207.562z
			 M151.628,209.045v-9.775h1.492v1.477c0.377-0.689,0.728-1.146,1.058-1.371c0.313-0.219,0.676-0.332,1.056-0.332
			c0.557,0,1.132,0.178,1.707,0.531l-0.575,1.549c-0.402-0.244-0.808-0.361-1.207-0.361c-0.365,0-0.687,0.104-0.975,0.32
			c-0.296,0.223-0.5,0.521-0.624,0.912c-0.187,0.584-0.278,1.23-0.278,1.934v5.117H151.628z M157.935,197.459v-1.914h1.658v1.914
			H157.935z M157.935,209.045v-9.775h1.658v9.775H157.935z M162.114,209.045v-9.775h1.482v1.371
			c0.305-0.482,0.717-0.869,1.228-1.152c0.509-0.299,1.087-0.445,1.736-0.445c0.728,0,1.319,0.152,1.782,0.457
			c0.46,0.299,0.79,0.717,0.982,1.262c0.773-1.148,1.777-1.719,3.016-1.719c0.975,0,1.722,0.266,2.239,0.811
			c0.523,0.537,0.782,1.359,0.782,2.482v6.709h-1.645v-6.162c0-0.658-0.058-1.137-0.158-1.426c-0.117-0.293-0.311-0.527-0.584-0.711
			c-0.29-0.172-0.623-0.264-1-0.264c-0.689,0-1.259,0.232-1.716,0.688c-0.451,0.459-0.679,1.189-0.679,2.195v5.68h-1.661v-6.344
			c0-0.742-0.132-1.299-0.399-1.664c-0.275-0.365-0.71-0.555-1.325-0.555c-0.472,0-0.899,0.123-1.293,0.365
			c-0.402,0.256-0.688,0.609-0.862,1.078c-0.179,0.477-0.271,1.16-0.271,2.043v5.076H162.114z M177.204,204.156
			c0-1.816,0.5-3.156,1.506-4.02c0.849-0.725,1.869-1.094,3.082-1.094c1.342,0,2.44,0.445,3.291,1.324
			c0.854,0.883,1.279,2.102,1.279,3.648c0,1.264-0.188,2.252-0.566,2.975c-0.377,0.719-0.92,1.279-1.645,1.672
			c-0.721,0.408-1.509,0.604-2.359,0.604c-1.371,0-2.473-0.439-3.32-1.318C177.624,207.076,177.204,205.805,177.204,204.156z
			 M178.909,204.156c0,1.256,0.272,2.191,0.822,2.812c0.543,0.625,1.227,0.938,2.061,0.938c0.822,0,1.5-0.318,2.055-0.949
			c0.543-0.613,0.811-1.572,0.811-2.85c0-1.213-0.268-2.127-0.822-2.752c-0.543-0.623-1.227-0.939-2.043-0.939
			c-0.834,0-1.518,0.316-2.061,0.928C179.182,201.971,178.909,202.902,178.909,204.156z M188.311,209.045v-9.775h1.489v1.385
			c0.716-1.068,1.759-1.611,3.109-1.611c0.59,0,1.133,0.111,1.631,0.318c0.485,0.213,0.855,0.492,1.106,0.842
			c0.247,0.34,0.413,0.748,0.517,1.219c0.061,0.305,0.093,0.842,0.093,1.619v6.004h-1.661v-5.949c0-0.674-0.061-1.182-0.193-1.516
			c-0.126-0.33-0.354-0.602-0.684-0.799c-0.331-0.201-0.71-0.299-1.152-0.299c-0.711,0-1.32,0.225-1.828,0.676
			c-0.518,0.445-0.771,1.293-0.771,2.547v5.34H188.311z M198.802,197.459v-1.914h1.659v1.914H198.802z M198.802,209.045v-9.775
			h1.659v9.775H198.802z M209.368,207.832c-0.615,0.525-1.207,0.895-1.776,1.109c-0.569,0.219-1.179,0.324-1.828,0.324
			c-1.075,0-1.897-0.258-2.472-0.785c-0.578-0.527-0.868-1.203-0.868-2.008c0-0.482,0.109-0.914,0.325-1.316
			c0.218-0.4,0.508-0.717,0.854-0.955c0.359-0.24,0.75-0.414,1.198-0.543c0.325-0.09,0.811-0.166,1.478-0.248
			c1.334-0.156,2.316-0.35,2.946-0.574c0.012-0.221,0.017-0.367,0.017-0.426c0-0.678-0.163-1.154-0.477-1.432
			c-0.423-0.373-1.058-0.562-1.883-0.562c-0.775,0-1.356,0.139-1.73,0.422c-0.367,0.266-0.641,0.744-0.822,1.441l-1.621-0.219
			c0.15-0.699,0.392-1.26,0.728-1.686c0.333-0.424,0.828-0.762,1.466-0.982c0.641-0.23,1.377-0.35,2.219-0.35
			c0.837,0,1.512,0.105,2.029,0.299c0.529,0.191,0.908,0.441,1.156,0.74c0.25,0.299,0.41,0.67,0.52,1.131
			c0.049,0.281,0.081,0.787,0.081,1.529v2.207c0,1.543,0.034,2.52,0.101,2.922c0.072,0.406,0.213,0.791,0.422,1.174h-1.73
			C209.526,208.703,209.414,208.303,209.368,207.832z M209.225,204.141c-0.598,0.244-1.501,0.451-2.705,0.625
			c-0.678,0.098-1.167,0.203-1.445,0.33c-0.284,0.117-0.497,0.299-0.649,0.537s-0.233,0.498-0.233,0.787
			c0,0.443,0.167,0.811,0.503,1.113c0.334,0.287,0.822,0.434,1.461,0.434c0.644,0,1.213-0.141,1.71-0.42
			c0.497-0.273,0.862-0.66,1.098-1.141c0.176-0.383,0.262-0.928,0.262-1.662V204.141z M213.438,209.045v-13.5h1.652v13.5H213.438z
			 M224.355,205.893l1.71,0.211c-0.265,1.006-0.768,1.789-1.498,2.332c-0.729,0.551-1.661,0.83-2.797,0.83
			c-1.437,0-2.563-0.439-3.405-1.318c-0.843-0.883-1.253-2.115-1.253-3.709c0-1.648,0.422-2.916,1.268-3.83
			c0.848-0.906,1.945-1.365,3.299-1.365c1.311,0,2.372,0.451,3.196,1.338c0.834,0.895,1.245,2.137,1.245,3.76
			c0,0.098,0,0.244,0,0.438h-7.293c0.055,1.074,0.359,1.902,0.909,2.473c0.543,0.568,1.222,0.855,2.04,0.855
			c0.609,0,1.13-0.16,1.559-0.48C223.76,207.105,224.1,206.6,224.355,205.893z M218.914,203.219h5.461
			c-0.077-0.816-0.278-1.443-0.626-1.854c-0.532-0.633-1.217-0.957-2.056-0.957c-0.759,0-1.399,0.252-1.917,0.762
			C219.253,201.686,218.975,202.365,218.914,203.219z M227.491,206.127l1.633-0.256c0.098,0.656,0.351,1.158,0.772,1.51
			c0.414,0.344,1.003,0.525,1.765,0.525c0.757,0,1.32-0.16,1.696-0.471c0.359-0.305,0.546-0.67,0.546-1.088
			c0-0.373-0.16-0.668-0.491-0.887c-0.224-0.146-0.79-0.33-1.69-0.559c-1.219-0.305-2.061-0.568-2.526-0.795
			c-0.466-0.225-0.827-0.539-1.066-0.936c-0.244-0.396-0.37-0.832-0.37-1.305c0-0.439,0.104-0.842,0.305-1.213
			c0.192-0.371,0.471-0.678,0.812-0.934c0.26-0.188,0.613-0.348,1.05-0.477c0.457-0.137,0.929-0.201,1.437-0.201
			c0.766,0,1.44,0.113,2.021,0.332c0.583,0.225,1.009,0.518,1.287,0.9c0.273,0.379,0.457,0.883,0.569,1.518l-1.618,0.221
			c-0.078-0.506-0.29-0.896-0.641-1.176c-0.354-0.283-0.854-0.43-1.498-0.43c-0.765,0-1.308,0.125-1.63,0.379
			c-0.325,0.25-0.491,0.543-0.491,0.883c0,0.217,0.072,0.408,0.21,0.58c0.129,0.176,0.348,0.318,0.632,0.451
			c0.164,0.055,0.65,0.193,1.463,0.41c1.173,0.314,1.989,0.57,2.452,0.771c0.466,0.209,0.825,0.496,1.09,0.867
			c0.265,0.385,0.402,0.854,0.402,1.426c0,0.549-0.164,1.072-0.489,1.559c-0.324,0.488-0.787,0.861-1.394,1.127
			c-0.609,0.275-1.296,0.404-2.062,0.404c-1.27,0-2.244-0.268-2.908-0.789C228.101,207.947,227.666,207.164,227.491,206.127z
			 M242.421,204.711l1.684-0.146c0.084,0.668,0.271,1.227,0.558,1.664c0.29,0.43,0.742,0.775,1.362,1.045
			c0.607,0.262,1.3,0.395,2.064,0.395c0.687,0,1.29-0.096,1.808-0.299c0.518-0.205,0.914-0.477,1.167-0.83
			c0.253-0.357,0.379-0.734,0.379-1.164c0-0.418-0.12-0.785-0.37-1.096c-0.247-0.33-0.649-0.59-1.213-0.797
			c-0.359-0.148-1.161-0.371-2.403-0.66c-1.238-0.305-2.106-0.578-2.604-0.842c-0.645-0.346-1.127-0.768-1.446-1.266
			c-0.311-0.498-0.469-1.061-0.469-1.684c0-0.676,0.192-1.309,0.578-1.904c0.382-0.592,0.954-1.045,1.696-1.35
			c0.741-0.309,1.568-0.455,2.477-0.455c0.995,0,1.877,0.156,2.648,0.48c0.761,0.322,1.351,0.793,1.756,1.416
			c0.416,0.625,0.641,1.34,0.67,2.129l-1.714,0.131c-0.092-0.854-0.407-1.492-0.934-1.934c-0.535-0.432-1.316-0.656-2.357-0.656
			c-1.075,0-1.862,0.205-2.359,0.598c-0.491,0.396-0.745,0.875-0.745,1.432c0,0.494,0.185,0.889,0.529,1.193
			c0.345,0.316,1.242,0.635,2.693,0.971c1.451,0.328,2.446,0.613,2.983,0.852c0.788,0.365,1.371,0.828,1.747,1.377
			c0.371,0.557,0.559,1.201,0.559,1.922c0,0.719-0.204,1.4-0.621,2.029c-0.411,0.637-0.994,1.133-1.771,1.486
			c-0.771,0.352-1.639,0.523-2.599,0.523c-1.222,0-2.248-0.172-3.07-0.531c-0.83-0.357-1.471-0.889-1.942-1.609
			C242.693,206.42,242.446,205.604,242.421,204.711z M255.864,209.045v-1.895h1.882v1.895H255.864z M270.474,204.309l1.788,0.457
			c-0.37,1.463-1.052,2.59-2.021,3.365c-0.975,0.762-2.162,1.141-3.572,1.141c-1.458,0-2.634-0.287-3.548-0.889
			c-0.902-0.582-1.604-1.451-2.075-2.572c-0.477-1.115-0.716-2.328-0.716-3.619c0-1.404,0.265-2.623,0.808-3.672
			c0.532-1.047,1.3-1.844,2.288-2.387c0.989-0.543,2.081-0.811,3.274-0.811c1.348,0,2.486,0.34,3.408,1.023
			c0.914,0.688,1.559,1.656,1.924,2.898l-1.757,0.422c-0.319-0.988-0.776-1.695-1.368-2.146c-0.595-0.453-1.339-0.67-2.248-0.67
			c-1.031,0-1.899,0.244-2.595,0.746c-0.698,0.498-1.193,1.162-1.466,1.998c-0.285,0.834-0.432,1.705-0.432,2.594
			c0,1.146,0.173,2.146,0.503,3c0.334,0.861,0.856,1.506,1.563,1.922c0.705,0.426,1.467,0.637,2.294,0.637
			c0.995,0,1.846-0.291,2.535-0.863C269.764,206.299,270.227,205.451,270.474,204.309z M274.728,209.045v-1.895h1.883v1.895H274.728
			z"/>
		<path fill-rule="evenodd" clip-rule="evenodd" fill="#A5CD39" d="M122.229,127.77h19.707v5.068h-28.948V92.211h9.241V127.77z
			 M143.854,132.838v-29.031h8.105v29.031H143.854z M147.958,92.113c1.443,0,2.578,0.461,3.395,1.369
			c0.813,0.904,1.219,1.994,1.219,3.262c0,1.293-0.405,2.395-1.239,3.311c-0.825,0.936-1.989,1.381-3.46,1.381
			c-1.42,0-2.539-0.463-3.384-1.395c-0.839-0.914-1.244-1.994-1.244-3.207c0-1.26,0.405-2.357,1.244-3.307
			C145.333,92.584,146.483,92.113,147.958,92.113z M159.806,132.838v-25.369h-5.49v-3.662h5.49v-1.742c0-3.217,1.133-5.734,3.4-7.57
			c1.975-1.529,5.344-2.283,10.121-2.283v4.807c-1.926,0-3.32,0.408-4.208,1.207c-0.856,0.926-1.291,2.213-1.291,3.84v1.742h5.499
			v3.662h-5.499v25.369H159.806z M182.317,119.77c0.133,1.535,0.65,3.471,1.57,5.801c0.928,2.34,2.612,3.562,5.053,3.68
			c2.98,0,5.309-0.385,6.99-1.135c1.699-0.756,2.794-1.395,3.297-1.9l-1.233,5.033c0,0.307-0.842,0.709-2.532,1.182
			c-1.684,0.494-3.831,0.74-6.449,0.74c-1.029,0-1.843-0.031-2.421-0.068c-4.233-0.307-7.329-1.529-9.287-3.65
			c-1.963-2.125-2.963-5.533-3.009-10.219c0-5.359,1.115-9.293,3.343-11.799c2.233-2.492,5.507-3.766,9.821-3.805
			c5.186,0,8.692,1.367,10.534,4.084c1.59,2.268,2.372,5.32,2.372,9.166c0,0.725-0.018,1.34-0.063,1.842
			c-0.04,0.504-0.087,0.848-0.109,1.049H182.317z M188.262,107.291c-3.97,0.131-5.944,3.012-5.944,8.633h12.642
			C194.959,110.17,192.718,107.291,188.262,107.291z"/>
		<path fill-rule="evenodd" clip-rule="evenodd" fill="#0094D9" d="M122.052,177.361h19.706v5.07h-28.947v-40.633h9.241V177.361z
			 M150.907,169.365c0.138,1.531,0.661,3.459,1.572,5.799c0.931,2.34,2.618,3.553,5.053,3.678c2.979,0,5.303-0.381,6.993-1.131
			c1.702-0.758,2.791-1.402,3.3-1.908l-1.232,5.045c0,0.305-0.843,0.695-2.53,1.172c-1.689,0.498-3.84,0.742-6.458,0.742
			c-1.026,0-1.843-0.031-2.42-0.072c-4.231-0.305-7.327-1.523-9.291-3.645c-1.96-2.121-2.96-5.541-3.006-10.215
			c0-5.363,1.124-9.301,3.346-11.803c2.239-2.494,5.507-3.766,9.821-3.805c5.183,0,8.689,1.361,10.538,4.086
			c1.583,2.266,2.362,5.316,2.362,9.162c0,0.732-0.015,1.342-0.055,1.83c-0.046,0.512-0.086,0.865-0.118,1.064H150.907z
			 M156.854,156.885c-3.967,0.131-5.947,3.008-5.947,8.629h12.645C163.552,159.764,161.312,156.885,156.854,156.885z
			 M182.643,188.881c4.498,0,6.729-1.34,6.729-3.992v-3.756c-2.075,1.039-4.607,1.557-7.597,1.557
			c-2.176-0.086-4.038-0.451-5.582-1.068c-1.543-0.646-2.846-2.035-3.938-4.215c-1.093-2.182-1.624-5.396-1.624-9.629
			c0.118-4.363,0.813-7.619,2.087-9.756c1.268-2.139,2.719-3.459,4.322-3.994c1.61-0.543,3.455-0.805,5.517-0.805
			c1.167,0.057,2.207,0.244,3.167,0.582c0.963,0.32,1.822,0.682,2.564,1.072c0.725,0.396,1.083,0.602,1.083,0.602l0,0v-2.082h8.112
			v30.168c0,5.893-4.335,8.904-13.007,9.068c-3.113,0-5.671-0.26-7.687-0.789c-2.018-0.516-3.182-0.922-3.46-1.219l-0.618-4.529
			c0.635,0.418,1.851,0.969,3.639,1.645C178.147,188.398,180.229,188.781,182.643,188.881z M189.371,159.588
			c0-0.162-0.491-0.531-1.466-1.135c-0.988-0.615-2.09-1.023-3.322-1.221c-1.854,0-3.32,0.381-4.393,1.135
			c-1.089,0.754-1.862,1.908-2.328,3.438c-0.463,1.541-0.725,3.59-0.796,6.15c0,3.445,0.512,6.146,1.512,8.078
			c1.006,1.934,2.918,2.912,5.726,2.912c1.495-0.104,2.642-0.354,3.47-0.742c0.833-0.395,1.356-0.699,1.598-0.928V159.588z
			 M218.842,182.432v-3.057c-0.232,0.539-0.988,1.199-2.279,1.965c-1.302,0.781-3.501,1.178-6.61,1.178
			c-2.659-0.102-4.872-0.791-6.629-2.047c-1.756-1.262-2.658-3.262-2.699-5.973c0-2.92,1.044-5.117,3.137-6.582
			c2.095-1.473,5.236-2.357,9.413-2.668c1.935-0.154,3.421-0.648,4.467-1.48c1.044-0.824,1.566-1.752,1.566-2.785
			c0-1.062-0.479-1.959-1.435-2.701c-0.96-0.76-2.259-1.133-3.889-1.133c-3.363,0-5.979,0.621-7.844,1.857
			c-1.874,1.246-3.093,2.273-3.677,3.127l1.225-5.777c0-0.096,0.431-0.4,1.319-0.914c0.889-0.518,2.121-1,3.725-1.436
			c1.584-0.451,3.487-0.68,5.678-0.703c4.492,0,7.729,0.758,9.721,2.287c2.01,1.523,3.01,3.531,3.01,5.996v20.846H218.842z
			 M214.85,177.895c2.659-0.721,3.992-1.887,3.992-3.488v-6.629c-0.009,0.047-0.114,0.25-0.305,0.615
			c-0.172,0.363-0.592,0.713-1.253,1.072c-0.649,0.354-1.639,0.613-2.975,0.773c-2.268,0.307-4.007,0.816-5.2,1.512
			c-1.192,0.713-1.788,1.896-1.788,3.602c0.19,1.98,1.757,2.973,4.737,2.973C212.941,178.324,213.875,178.174,214.85,177.895z
			 M253.038,181.225c0,0.105-0.828,0.332-2.478,0.684c-1.624,0.33-3.714,0.535-6.263,0.609c-3.542,0-6.358-0.498-8.42-1.504
			c-2.084-0.977-3.581-2.609-4.495-4.846c-0.914-2.248-1.365-5.338-1.365-9.262c0.118-3.121,0.609-5.674,1.497-7.648
			c0.889-1.994,2.3-3.48,4.243-4.467c1.935-0.986,4.521-1.488,7.758-1.488c2.052,0.055,3.909,0.227,5.542,0.547
			c1.641,0.301,2.813,0.564,3.529,0.752l0.871,4.205c-0.526-0.273-1.498-0.6-2.897-1.008c-1.405-0.387-3.177-0.609-5.298-0.65
			c-2.791,0-4.647,0.914-5.582,2.754c-0.908,1.848-1.382,4.186-1.382,7.004c0,3.418,0.382,6.184,1.138,8.318
			c0.771,2.137,2.326,3.277,4.688,3.455c1.888,0,3.523-0.158,4.884-0.49c1.354-0.32,2.451-0.686,3.288-1.066
			c0.821-0.393,1.241-0.637,1.241-0.729L253.038,181.225z M266.622,190.453c-1.095,0.635-3.236,0.955-6.449,0.955l-1.832-3.576l0,0
			c0,0,0.219,0.02,0.633,0.043c0.482,0.031,0.951,0.047,1.371,0.047c0.914,0,1.584-0.055,2.01-0.174
			c1.928-0.404,3.268-1.805,3.989-4.184l0.787-2.34l-12.276-27.828h8.275l7.836,17.799l6.904-17.799h5.145l-12.222,31.648
			C269.818,187.562,268.419,189.363,266.622,190.453z"/>
		<path fill-rule="evenodd" clip-rule="evenodd" fill="#231F20" d="M210.587,141.865h-4.943l-1.458-1.52
			c-0.052,0.033-0.181,0.16-0.405,0.344c-0.219,0.184-0.549,0.385-0.988,0.615c-0.449,0.219-1.041,0.42-1.776,0.58
			c-0.736,0.168-1.615,0.252-2.616,0.252c-0.558,0-0.994-0.01-1.302-0.033c-3.173-0.238-4.766-2.035-4.766-5.381
			c0.026-0.99,0.451-1.908,1.299-2.762c0.837-0.842,1.711-1.5,2.587-1.957c0-0.031-0.114-0.195-0.359-0.5
			c-0.25-0.305-0.457-0.561-0.62-0.766c-0.739-0.939-1.11-2.084-1.11-3.428c0.041-0.613,0.294-1.223,0.751-1.803
			c0.463-0.592,1.055-1.07,1.776-1.426c0.725-0.357,1.472-0.547,2.242-0.547c1.503,0,2.75,0.328,3.742,0.973
			c0.982,0.643,1.472,1.566,1.472,2.766c0,1.172-0.432,2.109-1.306,2.805c-0.861,0.701-1.589,1.154-2.161,1.391l4.921,5.289
			c0.541-0.541,0.885-1.115,1.021-1.754c0.086-0.373,0.126-0.707,0.126-1.029c0-0.385-0.065-0.781-0.207-1.18h1.572
			c0.127,0.674,0.193,1.141,0.193,1.41c0,0.455-0.066,0.9-0.195,1.338c-0.204,0.574-0.475,1.105-0.813,1.574
			c-0.345,0.463-0.55,0.715-0.639,0.756L210.587,141.865z M199.492,130.129c0.224,0,0.722-0.293,1.485-0.873
			c0.768-0.578,1.153-1.26,1.153-2.027c0-0.641-0.239-1.154-0.71-1.525c-0.488-0.385-1.142-0.578-1.995-0.602
			c-0.472,0-0.874,0.242-1.192,0.723c-0.319,0.469-0.483,0.945-0.483,1.404c0,0.559,0.244,1.145,0.728,1.764L199.492,130.129z
			 M197.299,133.326c-0.055,0.02-0.192,0.127-0.417,0.299c-0.227,0.172-0.434,0.414-0.606,0.721
			c-0.184,0.314-0.275,0.705-0.275,1.197c0,0.957,0.391,1.904,1.173,2.836c0.793,0.922,1.768,1.506,2.943,1.736
			c0.598,0,1.074-0.072,1.442-0.213c0.354-0.15,0.765-0.367,1.222-0.666L197.299,133.326z"/>
		<g>
			<path fill-rule="evenodd" clip-rule="evenodd" fill="#A5CD39" d="M76.93,107.922c2.127,10.176-33.733,31.93-28.91,59.752
				C33.657,140.711,73.693,122.381,76.93,107.922z"/>
			<path fill-rule="evenodd" clip-rule="evenodd" fill="#A5CD39" d="M74.306,128.334c0.302,6.947-25.769,17.418-25.616,36.324
				C42.136,145.275,70.586,137.533,74.306,128.334z"/>
		</g>
	</g>
</g>
</svg>
