<?xml version="1.0" encoding="utf-8"?>
<!-- Generator: Adobe Illustrator 16.0.0, SVG Export Plug-In . SVG Version: 6.00 Build 0)  -->
<!DOCTYPE svg PUBLIC "-//W3C//DTD SVG 1.1//EN" "http://www.w3.org/Graphics/SVG/1.1/DTD/svg11.dtd">
<svg version="1.1" id="Layer_1" xmlns="http://www.w3.org/2000/svg" xmlns:xlink="http://www.w3.org/1999/xlink" x="0px" y="0px"
	 width="300px" height="300px" viewBox="0 0 300 300" enable-background="new 0 0 300 300" xml:space="preserve">
<g>
	<g>
		<path fill="#7A2716" d="M86.232,149.697c0-4.268,0.432-8.429,1.254-12.442c-2.031-0.594-4.076-1.16-6.11-1.723
			c-8.903-2.63-17.2-6.071-17.2-11.13c0-3.036,2.429-7.487,9.512-7.487c9.915,0,10.321,6.071,10.521,8.498h7.006
			c3.784-8.737,9.577-16.365,16.851-22.282C98.576,92.617,83.947,90,74.094,90c-23.272,0-43.509,14.772-43.509,38.045
			c0,15.177,12.142,24.688,26.711,29.344c21.45,8.295,29.747,9.307,29.747,16.998c0,5.462-6.069,8.701-11.737,8.701
			c-1.416,0-11.331,0-12.749-10.321h-33.39C32.203,202.312,57.903,210,74.902,210c13.691,0,26.157-4.407,34.602-12.483
			C95.217,186.568,86.232,169.283,86.232,149.697z"/>
		<path fill="#7A2716" d="M171.021,163.457c-3.642,6.883-10.318,14.978-24.283,14.978c-15.989,0-26.713-12.143-26.713-28.534
			c0-8.095,2.632-15.381,7.285-20.642c4.856-5.262,11.535-8.297,19.428-7.893c13.965,0,20.642,8.095,24.283,15.784h33.998
			C199.353,109.631,175.272,90,145.523,90c-14.407,0-27.358,4.917-37.458,13.131c4.731,5.244,8.187,12.452,9.13,22.282h-25.98
			c-1.628,3.758-2.883,7.721-3.729,11.842c17.003,4.962,33.147,11.8,33.147,33.488c0,11.108-4.221,20.164-11.13,26.773
			c10.071,7.715,22.773,12.284,36.828,12.284c30.357,0,52.82-20.846,58.892-46.344H171.021z"/>
	</g>
	<g>
		<path fill="#7A2716" d="M141.32,151.885c-0.871,3.541-3.946,5.889-7.569,5.889c-4.695,0-7.892-3.744-7.892-7.792
			c0-3.825,2.953-7.751,7.852-7.751c4.693,0,7.204,3.62,7.609,5.97h-4.008c-0.426-1.113-1.557-2.61-3.623-2.61
			c-2.568,0-4.008,2.244-4.008,4.37c0,2.267,1.539,4.454,4.029,4.454c2.387,0,3.359-2.006,3.602-2.529H141.32z"/>
		<path fill="#7A2716" d="M142.654,150.163c0-4.897,3.765-7.933,7.895-7.933c4.613,0,7.912,3.602,7.912,7.772
			c0,4.169-3.278,7.771-7.934,7.771c-4.717,0-7.873-3.744-7.873-7.589V150.163z M146.48,149.981c0,2.287,1.557,4.433,4.129,4.433
			c2.711,0,4.025-2.469,4.025-4.393c0-1.941-1.314-4.432-4.068-4.432c-2.65,0-4.086,2.266-4.086,4.37V149.981z"/>
		<path fill="#7A2716" d="M169.569,151.64l-0.081-9.127h3.665v14.977h-3.32l-5.728-9.025l0.081,9.025h-3.662v-14.977h3.299
			L169.569,151.64z"/>
		<path fill="#7A2716" d="M178.837,152.53c0,1.741,1.072,2.045,1.56,2.045c0.909,0,1.457-0.749,1.457-1.437
			c0-0.79-0.627-1.032-2.936-2.003c-1.051-0.427-3.662-1.478-3.662-4.292c0-3.014,2.733-4.613,5.241-4.613
			c2.065,0,4.979,1.051,5.037,4.655h-3.783c-0.081-0.508-0.2-1.46-1.375-1.46c-0.667,0-1.314,0.466-1.314,1.175
			c0,0.688,0.403,0.87,3.096,2.085c2.792,1.257,3.501,2.551,3.501,4.29c0,2.39-1.254,4.798-5.223,4.798
			c-3.926,0-5.504-2.308-5.403-5.243H178.837z"/>
		<path fill="#7A2716" d="M191.264,142.513v9.048c0,0.506,0.018,1.215,0.264,1.8c0.26,0.587,0.747,1.054,1.678,1.054
			c0.951,0,1.436-0.427,1.66-0.972c0.243-0.567,0.243-1.297,0.243-1.882v-9.048h3.825v9.048c0,2.509-0.548,3.623-1.499,4.593
			c-0.97,0.993-2.326,1.62-4.188,1.62c-1.094,0-3.077-0.263-4.313-1.599c-1.232-1.358-1.496-2.409-1.496-4.614v-9.048H191.264z"/>
		<path fill="#7A2716" d="M201.705,142.513h3.824v11.617h4.432v3.359h-8.256V142.513z"/>
		<path fill="#7A2716" d="M212.248,145.871h-2.954v-3.358h9.712v3.358h-2.932v11.618h-3.826V145.871z"/>
		<path fill="#7A2716" d="M219.289,150.163c0-4.897,3.765-7.933,7.894-7.933c4.614,0,7.912,3.602,7.912,7.772
			c0,4.169-3.277,7.771-7.933,7.771c-4.715,0-7.873-3.744-7.873-7.589V150.163z M223.114,149.981c0,2.287,1.558,4.433,4.129,4.433
			c2.711,0,4.029-2.469,4.029-4.393c0-1.941-1.318-4.432-4.068-4.432c-2.651,0-4.09,2.266-4.09,4.37V149.981z"/>
		<path fill="#7A2716" d="M237.159,142.513h4.897c2.345,0,3.805,0.427,4.633,1.072c1.257,0.972,1.823,2.45,1.823,4.088
			c0,1.155-0.325,2.046-0.751,2.712c-0.507,0.791-1.233,1.297-1.942,1.6l3.097,5.505h-3.945l-3.907-7.225h0.627
			c0.973,0,1.802-0.08,2.309-0.403c0.466-0.306,0.851-1.015,0.851-1.843c0-0.79-0.385-1.418-0.891-1.741
			c-0.427-0.263-1.032-0.406-1.56-0.406h-1.415v11.618h-3.825V142.513z"/>
		<path fill="#7A2716" d="M250.372,142.513h8.479v3.358h-4.653v2.329h4.512v3.36h-4.512v2.569h4.653v3.359h-8.479V142.513z"/>
		<path fill="#7A2716" d="M264.011,152.53c0,1.741,1.072,2.045,1.56,2.045c0.909,0,1.458-0.749,1.458-1.437
			c0-0.79-0.627-1.032-2.936-2.003c-1.051-0.427-3.663-1.478-3.663-4.292c0-3.014,2.732-4.613,5.242-4.613
			c2.065,0,4.979,1.051,5.039,4.655h-3.785c-0.079-0.508-0.201-1.46-1.376-1.46c-0.667,0-1.315,0.466-1.315,1.175
			c0,0.688,0.403,0.87,3.097,2.085c2.793,1.257,3.502,2.551,3.502,4.29c0,2.39-1.254,4.798-5.223,4.798
			c-3.926,0-5.504-2.308-5.404-5.243H264.011z"/>
	</g>
</g>
</svg>
