<?xml version="1.0" encoding="utf-8"?>
<!-- Generator: Adobe Illustrator 16.0.0, SVG Export Plug-In . SVG Version: 6.00 Build 0)  -->
<!DOCTYPE svg PUBLIC "-//W3C//DTD SVG 1.1//EN" "http://www.w3.org/Graphics/SVG/1.1/DTD/svg11.dtd">
<svg version="1.1" id="Layer_1" xmlns="http://www.w3.org/2000/svg" xmlns:xlink="http://www.w3.org/1999/xlink" x="0px" y="0px"
	 width="416.812px" height="79.596px" viewBox="428.372 283.628 416.812 79.596"
	 enable-background="new 428.372 283.628 416.812 79.596" xml:space="preserve">
<g>
	<path d="M478.445,343.892c-5.312,1.916-10.872,2.873-16.677,2.873c-22.265,0-33.396-10.813-33.396-32.438
		c0-20.465,10.886-30.698,32.656-30.698c5.95,0,11.757,0.871,17.417,2.613v3.919c-5.66-1.742-11.176-2.613-16.546-2.613
		c-19.304,0-28.956,8.927-28.956,26.779c0,19.014,9.376,28.521,28.128,28.521c3.832,0,8.1-0.639,12.803-1.916v-22.903h4.571V343.892
		z"/>
	<path d="M510.143,300.609c12.511,0,18.768,6.923,18.768,20.77c0,0.987-0.029,2.019-0.087,3.093H494.12
		c0,11.959,6.327,17.938,18.983,17.938c5.196,0,9.813-0.726,13.848-2.179v3.92c-4.035,1.451-8.651,2.178-13.848,2.178
		c-15.705,0-23.557-7.794-23.557-23.383C489.548,308.055,496.413,300.609,510.143,300.609z M494.121,320.377h30.393
		c-0.174-10.624-4.964-15.938-14.369-15.938C499.983,304.439,494.642,309.753,494.121,320.377z"/>
	<path d="M538.49,323.469c0-15.529,7.112-23.295,21.336-23.295c14.225,0,21.337,7.766,21.337,23.295
		c0,15.501-7.112,23.253-21.337,23.253C545.66,346.722,538.548,338.97,538.49,323.469z M559.826,342.847
		c11.177,0,16.765-6.518,16.765-19.552c0-12.802-5.588-19.202-16.765-19.202c-11.176,0-16.764,6.4-16.764,19.202
		C543.062,336.329,548.65,342.847,559.826,342.847z"/>
	<path d="M586.387,300.609h5.225l16.721,41.757l16.808-41.757h5.225l-19.463,45.72h-5.312L586.387,300.609z"/>
	<path d="M635.155,333.396c0-9.084,6.039-13.629,18.115-13.629c4.268,0,8.824,0.291,13.672,0.871v-5.616
		c0-6.996-4.396-10.494-13.193-10.494c-4.992,0-9.957,0.727-14.892,2.178v-3.919c4.935-1.451,9.9-2.177,14.892-2.177
		c11.844,0,17.766,4.73,17.766,14.193v31.525h-2.787l-1.045-4.528c-5.719,3.02-11.264,4.528-16.633,4.528
		C640.453,346.329,635.155,342.019,635.155,333.396z M653.27,323.687c-9.029,0-13.542,3.193-13.542,9.58
		c0,6.096,3.773,9.145,11.322,9.145c5.572,0,10.871-1.48,15.893-4.441v-13.41C662.094,323.978,657.537,323.687,653.27,323.687z"/>
	<path d="M685.447,346.329v-45.72h3.266l0.566,5.834c5.834-3.891,11.553-5.834,17.156-5.834c11.117,0,16.676,4.805,16.676,14.412
		v31.308h-4.572v-31.438c0-6.791-4.107-10.188-12.322-10.188c-5.486,0-10.885,1.931-16.197,5.791v35.836L685.447,346.329
		L685.447,346.329z"/>
	<path d="M731.602,300.609h5.27l16.982,41.277l16.719-41.277h5.053l-19.855,47.068c-3.369,8.302-8.42,13.483-15.154,15.546
		l-1.35-3.658c5.283-1.916,9.318-6.097,12.105-12.541L731.602,300.609z"/>
	<path fill="#015C6C" d="M782.482,343.606v2.723h-2.939v-2.723H782.482z"/>
	<path fill="#015C6C" d="M788.359,346.329v-22.86h1.635l0.238,2.874c2.336-1.916,4.869-2.874,7.6-2.874
		c3.598,0,5.928,1.046,6.986,3.136c2.627-2.09,5.291-3.136,7.99-3.136c5.109,0,7.664,2.533,7.664,7.599v15.263h-2.285v-15.263
		c0-3.701-1.801-5.553-5.4-5.553c-2.873,0-5.246,0.987-7.119,2.961v17.854h-2.285v-15.633c0-3.453-1.857-5.182-5.574-5.182
		c-2.699,0-5.086,0.987-7.162,2.961v17.854H788.359z"/>
	<path fill="#015C6C" d="M833.602,334.897l-8.883-11.43h2.721l7.512,9.667l7.512-9.667h2.721l-8.859,11.43l8.859,11.432h-2.721
		l-7.512-9.667l-7.512,9.667h-2.721L833.602,334.897z"/>
</g>
</svg>
