<?xml version="1.0" encoding="utf-8"?>
<!-- Generator: Adobe Illustrator 16.0.0, SVG Export Plug-In . SVG Version: 6.00 Build 0)  -->
<!DOCTYPE svg PUBLIC "-//W3C//DTD SVG 1.1//EN" "http://www.w3.org/Graphics/SVG/1.1/DTD/svg11.dtd">
<svg version="1.1" id="Layer_1" xmlns="http://www.w3.org/2000/svg" xmlns:xlink="http://www.w3.org/1999/xlink" x="0px" y="0px"
	 width="300px" height="300px" viewBox="0 0 300 300" enable-background="new 0 0 300 300" xml:space="preserve">
<g>
	<path fill="#015C6C" d="M154.156,44.96c4.689,0.819,9.448,1.365,14.055,2.514c12.344,3.092,22.94,9.413,31.867,18.416
		c9.18,9.264,15.465,20.255,18.428,33.004c4.116,17.713,2.16,34.703-6.437,50.826c-2.728,5.115-5.518,10.203-8.176,15.355
		c-3.438,6.642-4.972,13.83-5.823,21.194c-0.112,0.943-0.257,1.892-0.474,2.819c-0.441,1.939-0.698,7.244-0.329,9.099
		c0.738,3.671,0.201,7.176-1.092,10.646c-0.298,0.791-0.354,1.88-0.049,2.646c3.807,9.605-0.141,19.878-9.385,24.423
		c-0.795,0.386-1.562,1.289-1.879,2.129c-3.859,10.119-11.119,16.086-21.905,16.664c-9.188,0.49-18.472,0.502-27.636-0.253
		c-9.396-0.774-15.877-6.429-19.5-15.099c-0.778-1.867-1.646-3.104-3.51-4.084c-8.344-4.377-11.998-14.645-8.461-23.387
		c0.471-1.156,0.551-2.048,0.053-3.253c-1.839-4.465-1.848-9.007-0.261-13.597c0.293-0.848,0.116-1.928-0.068-2.851
		c-0.675-3.397-1.639-6.747-2.132-10.16c-1.105-7.609-3.827-14.601-7.401-21.347c-3.317-6.265-6.866-12.448-9.613-18.962
		c-5.076-12.062-6.152-24.776-3.855-37.594c4.498-25.122,18.705-42.871,41.843-53.433c6.867-3.132,14.184-4.834,21.741-5.396
		c0.603-0.048,1.196-0.209,1.795-0.321C148.687,44.96,151.417,44.96,154.156,44.96z M149.907,190.116c9.151,0,18.308,0,27.459,0
		c5.646,0,7.043-1.525,8.007-7.015c1.036-5.892,2-11.931,4.176-17.44c2.863-7.26,6.747-14.135,10.43-21.05
		c3.935-7.389,6.621-15.106,7.216-23.483c1.438-20.198-5.245-37.204-20.93-50.051c-19.363-15.854-45.2-17.371-66.539-4.224
		c-20.439,12.593-30.374,35.991-26.093,60.073c1.485,8.353,5.199,15.785,9.448,22.961c6.309,10.649,10.642,21.926,11.902,34.326
		c0.438,4.32,2.489,5.895,6.839,5.898C131.187,190.12,140.543,190.116,149.907,190.116z M150.261,195.859
		c-9.425,0-18.85,0.012-28.278-0.013c-2.719-0.004-4.811,1.008-5.902,3.562c-1.707,3.992,1.204,7.911,5.895,7.919
		c13.115,0.024,26.23,0.009,39.345,0.009c5.671,0,11.337-0.005,17.007,0c2.646,0.008,4.646-1.085,5.697-3.551
		c1.679-3.919-1.164-7.895-5.689-7.914C168.974,195.826,159.617,195.859,150.261,195.859z M150.261,213.078
		c-9.421,0-18.85,0.016-28.274-0.008c-2.719-0.009-4.814,1.003-5.906,3.558c-1.711,3.995,1.204,7.91,5.895,7.923
		c13.115,0.023,26.23,0.008,39.341,0.008c5.67,0,11.336-0.004,17.007,0.004c2.65,0,4.649-1.092,5.701-3.55
		c1.679-3.923-1.164-7.903-5.686-7.919C168.978,213.05,159.621,213.078,150.261,213.078z M127.235,230.401
		c-0.085,5.942,4.474,11.075,10.524,11.264c8.188,0.253,16.4,0.253,24.592-0.004c6.048-0.185,10.621-5.345,10.509-11.26
		C157.653,230.401,142.446,230.401,127.235,230.401z"/>
</g>
</svg>
