<?xml version="1.0" encoding="utf-8"?>
<!-- Generator: Adobe Illustrator 16.0.0, SVG Export Plug-In . SVG Version: 6.00 Build 0)  -->
<!DOCTYPE svg PUBLIC "-//W3C//DTD SVG 1.1//EN" "http://www.w3.org/Graphics/SVG/1.1/DTD/svg11.dtd">
<svg version="1.1" id="Layer_1" xmlns="http://www.w3.org/2000/svg" xmlns:xlink="http://www.w3.org/1999/xlink" x="0px" y="0px"
	 width="300px" height="300px" viewBox="0 0 300 300" enable-background="new 0 0 300 300" xml:space="preserve">
<g>
	<path fill="#015C6C" d="M226.951,97.586H73.061c-7.053,0-12.805,5.734-12.805,12.799v102.424c0,7.078,5.752,12.805,12.805,12.805
		h153.891c7.068,0,12.793-5.727,12.793-12.805V110.385C239.744,103.314,234.02,97.586,226.951,97.586z M125.264,210.15
		c-26.801,0-48.541-21.719-48.541-48.551c0-26.818,21.74-48.547,48.541-48.547c26.83,0,48.553,21.729,48.553,48.547
		C173.816,188.432,152.094,210.15,125.264,210.15z M220.25,124.789h-15.592c-4.648,0-8.402-3.766-8.402-8.387
		c0-4.656,3.754-8.412,8.402-8.412h15.592c4.631,0,8.406,3.762,8.406,8.412C228.645,121.023,224.881,124.789,220.25,124.789z"/>
	<path fill="#015C6C" d="M124.76,131.229c16.777,0,30.375,13.6,30.375,30.371c0,16.781-13.598,30.373-30.375,30.373
		S94.385,178.381,94.385,161.6C94.385,144.828,107.982,131.229,124.76,131.229z"/>
	<path fill="#015C6C" d="M146.209,92.443c0.166-1.643,0.252-2.309,0.252-3.293c0-7.918-5.52-14.764-12.322-14.764H89.785
		c-6.807,0-12.322,6.846-12.322,14.764c0,0.984,0.082,1.65,0.25,3.293H146.209z"/>
</g>
</svg>
