<?xml version="1.0" encoding="utf-8"?>
<!-- Generator: Adobe Illustrator 16.0.0, SVG Export Plug-In . SVG Version: 6.00 Build 0)  -->
<!DOCTYPE svg PUBLIC "-//W3C//DTD SVG 1.1//EN" "http://www.w3.org/Graphics/SVG/1.1/DTD/svg11.dtd">
<svg version="1.1" id="Layer_1" xmlns="http://www.w3.org/2000/svg" xmlns:xlink="http://www.w3.org/1999/xlink" x="0px" y="0px"
	 width="300px" height="300px" viewBox="0 0 300 300" enable-background="new 0 0 300 300" xml:space="preserve">
<path fill="#015C6C" d="M175.732,76.814h-51.465c-19.057,0-34.504,15.449-34.504,34.506v51.463
	c0,19.055,15.447,34.506,34.504,34.506h6.355l19.379,25.896l19.375-25.896h6.355c19.055,0,34.504-15.451,34.504-34.506V111.32
	C210.236,92.264,194.787,76.814,175.732,76.814 M176.971,138.184c-5.838,17.992-26.957,28.57-26.957,28.562
	c0,0.008-21.146-10.574-26.984-28.562c-5.111-18.406,6.113-25.152,14.48-25.152c5.355,0,10.256,2.809,12.508,7.178
	c2.252-4.369,7.092-7.178,12.445-7.178C170.832,113.031,182.084,119.777,176.971,138.184"/>
</svg>
