<?xml version="1.0" encoding="utf-8"?>
<!-- Generator: Adobe Illustrator 16.0.0, SVG Export Plug-In . SVG Version: 6.00 Build 0)  -->
<!DOCTYPE svg PUBLIC "-//W3C//DTD SVG 1.1//EN" "http://www.w3.org/Graphics/SVG/1.1/DTD/svg11.dtd">
<svg version="1.1" id="Layer_1" xmlns="http://www.w3.org/2000/svg" xmlns:xlink="http://www.w3.org/1999/xlink" x="0px" y="0px"
	 width="300px" height="300px" viewBox="0 0 300 300" enable-background="new 0 0 300 300" xml:space="preserve">
<g>
	<path fill="#808080" d="M103.502,103.829c-31.072,0-56.262,16.438-56.262,36.715c0,17.808,19.43,32.651,45.209,36.003v19.625
		l46.379-27.057c12.766-6.729,20.936-17.026,20.936-28.571C159.764,120.268,134.576,103.829,103.502,103.829"/>
	<g>
		<path fill="#FFFFFF" d="M86.318,156.931c-3.826,0-6.932-3.104-6.932-6.93c0-3.827,3.105-6.93,6.932-6.93s6.93,3.103,6.93,6.93
			C93.248,153.827,90.145,156.931,86.318,156.931"/>
		<path fill="#FFFFFF" d="M103.502,156.931c-3.828,0-6.93-3.104-6.93-6.93c0-3.827,3.102-6.93,6.93-6.93s6.93,3.103,6.93,6.93
			C110.432,153.827,107.33,156.931,103.502,156.931"/>
		<path fill="#FFFFFF" d="M120.686,156.931c-3.826,0-6.93-3.104-6.93-6.93c0-3.827,3.104-6.93,6.93-6.93s6.932,3.103,6.932,6.93
			C127.617,153.827,124.512,156.931,120.686,156.931"/>
	</g>
	<path fill="#015C6C" d="M196.496,103.828c-31.072,0-56.26,16.438-56.26,36.715c0,17.808,19.43,32.652,45.209,36.004v19.625
		l46.377-27.057c12.768-6.729,20.938-17.027,20.938-28.572C252.76,120.267,227.57,103.828,196.496,103.828"/>
	<g>
		<path fill="#FFFFFF" d="M179.314,156.93c-3.826,0-6.932-3.104-6.932-6.93c0-3.827,3.105-6.93,6.932-6.93s6.93,3.103,6.93,6.93
			C186.244,153.826,183.141,156.93,179.314,156.93"/>
		<path fill="#FFFFFF" d="M196.498,156.93c-3.828,0-6.93-3.104-6.93-6.93c0-3.827,3.102-6.93,6.93-6.93s6.93,3.103,6.93,6.93
			C203.428,153.826,200.326,156.93,196.498,156.93"/>
		<path fill="#FFFFFF" d="M213.682,156.93c-3.826,0-6.93-3.104-6.93-6.93c0-3.827,3.104-6.93,6.93-6.93s6.932,3.103,6.932,6.93
			C220.613,153.826,217.508,156.93,213.682,156.93"/>
	</g>
</g>
</svg>
