<?xml version="1.0" encoding="utf-8"?>
<!-- Generator: Adobe Illustrator 16.0.0, SVG Export Plug-In . SVG Version: 6.00 Build 0)  -->
<!DOCTYPE svg PUBLIC "-//W3C//DTD SVG 1.1//EN" "http://www.w3.org/Graphics/SVG/1.1/DTD/svg11.dtd">
<svg version="1.1" id="Layer_1" xmlns="http://www.w3.org/2000/svg" xmlns:xlink="http://www.w3.org/1999/xlink" x="0px" y="0px"
	 width="300px" height="300px" viewBox="0 0 300 300" enable-background="new 0 0 300 300" xml:space="preserve">
<g>
	<path fill="#015C6C" d="M145.226,232.587c42.764,0,77.434-34.679,77.434-77.434c0-13.157-3.272-25.541-9.053-36.39
		c-0.637,0.085-1.297,0.124-1.921,0.124c-0.365,0-0.749-0.012-1.124-0.039l-9.851-0.749l-7.083,7.084
		c5.406,8.709,8.532,18.974,8.532,29.97c0,31.442-25.485,56.919-56.925,56.919c-31.435,0-56.932-25.477-56.932-56.919
		c0-31.431,25.482-56.923,56.922-56.923c11.005,0,21.267,3.126,29.967,8.533l6.417-6.414l-0.871-11.3
		c-0.069-0.901-0.055-1.809,0.034-2.688c-10.643-5.519-22.73-8.64-35.571-8.64c-42.749,0-77.419,34.658-77.419,77.432
		C67.782,197.908,102.452,232.587,145.226,232.587L145.226,232.587z M145.226,232.587"/>
	<path fill="#015C6C" d="M145.224,138.138c0.425,0,0.857,0.018,1.281,0.049l12.152-12.151l0.271-0.266
		c-4.167-1.943-8.799-3.041-13.705-3.041c-17.904,0-32.408,14.508-32.408,32.398c0,17.903,14.504,32.417,32.408,32.417
		c17.898,0,32.396-14.508,32.396-32.394c0-4.9-1.098-9.532-3.043-13.711l-0.264,0.264l-12.146,12.151
		c0.025,0.437,0.054,0.856,0.054,1.296c0,9.388-7.62,17.003-17.018,17.003c-9.401,0-16.99-7.615-16.99-17.003
		C128.214,145.758,135.831,138.138,145.224,138.138L145.224,138.138z M145.224,138.138"/>
	<path fill="#015C6C" d="M220.129,89.312l3.902-3.902c1.779-1.776,1.779-4.646,0-6.435l-2.713-2.714
		c-0.89-0.885-2.054-1.333-3.206-1.333c-1.161,0-2.33,0.448-3.221,1.333l-4.461,4.466l-0.926-11.897
		c-0.053-0.88-0.785-1.416-1.537-1.416c-0.391,0-0.767,0.13-1.074,0.443l-17.59,17.59c-1.587,1.578-2.398,3.777-2.228,6.028
		l0.036,0.684l0.854,11.015l-6.359,6.363l-11.442,11.444l-0.272,0.254l-11.076,11.09l-4.912,4.909
		c-0.646,0.653-1.04,1.508-1.113,2.416l-0.299,3.854c-0.189,2.251,1.596,4.146,3.818,4.146h0.207l4.078-0.193
		c0.942-0.047,1.848-0.448,2.51-1.131l34.572-34.566l10.041,0.771l0.449,0.028c0.203,0.025,0.396,0.025,0.576,0.025
		c2.034,0,3.99-0.807,5.439-2.251l17.585-17.574c0.927-0.919,0.336-2.521-0.974-2.611L220.129,89.312z M220.129,89.312"/>
</g>
</svg>
