<?xml version="1.0" encoding="utf-8"?>
<!-- Generator: Adobe Illustrator 16.0.0, SVG Export Plug-In . SVG Version: 6.00 Build 0)  -->
<!DOCTYPE svg PUBLIC "-//W3C//DTD SVG 1.1//EN" "http://www.w3.org/Graphics/SVG/1.1/DTD/svg11.dtd">
<svg version="1.1" id="Layer_1" xmlns="http://www.w3.org/2000/svg" xmlns:xlink="http://www.w3.org/1999/xlink" x="0px" y="0px"
	 width="300px" height="300px" viewBox="0 0 300 300" enable-background="new 0 0 300 300" xml:space="preserve">
<g>
	<path fill="#231F20" d="M154.46,80.848c-2.291-0.797-4.249-3.255-3.565-6.389c0.502-2.311,2.455-4.083,4.985-4.515
		c3.161-0.548,6.22,1.016,8.175,4.181c2.731,4.41,5.831,5.649,7.25,5.402c0.555-0.092,0.878-0.398,0.996-0.924
		c0.133-0.607,0.071-1.071-0.19-1.42c-0.485-0.659-1.534-0.754-1.545-0.751c-0.364-0.033-0.637-0.352-0.611-0.715
		c0.03-0.365,0.346-0.638,0.707-0.612c0.071,0.003,1.652,0.131,2.51,1.276c0.5,0.666,0.644,1.51,0.432,2.504
		c-0.234,1.053-0.986,1.767-2.077,1.955c-2.12,0.365-5.712-1.363-8.6-6.015c-1.666-2.687-4.211-4.021-6.817-3.572
		c-1.993,0.341-3.527,1.711-3.915,3.489c-0.519,2.383,0.97,4.246,2.708,4.851c0.966,0.337,2.192,0.317,2.729-0.77
		c0.322-0.666,0.339-1.182,0.038-1.536c-0.328-0.391-0.982-0.524-1.422-0.422c0,0.013,0,0.031-0.004,0.046
		c-0.121,0.557-0.673,0.913-1.233,0.793c-0.559-0.122-0.909-0.677-0.791-1.232c0.121-0.561,0.675-0.918,1.229-0.793
		c0.031,0.006,0.06,0.015,0.095,0.026c0.073-0.033,0.144-0.077,0.227-0.103c0.847-0.266,2.154-0.063,2.91,0.822
		c0.386,0.448,0.909,1.431,0.141,2.988C158.063,80.947,156.351,81.51,154.46,80.848"/>
	<path fill="#231F20" d="M174.985,81.065c-1.593-0.553-2.948-2.261-2.477-4.439c0.349-1.606,1.706-2.835,3.464-3.137
		c2.194-0.376,4.319,0.707,5.679,2.907c1.899,3.063,4.052,3.925,5.033,3.757c0.389-0.068,0.616-0.278,0.697-0.647
		c0.09-0.42,0.048-0.743-0.133-0.987c-0.336-0.456-1.066-0.522-1.073-0.522c-0.255-0.022-0.443-0.243-0.427-0.496
		c0.024-0.252,0.24-0.44,0.493-0.422c0.048,0.002,1.146,0.09,1.742,0.885c0.346,0.465,0.446,1.052,0.298,1.739
		c-0.157,0.732-0.683,1.227-1.442,1.359c-1.474,0.254-3.966-0.948-5.975-4.179c-1.156-1.867-2.925-2.792-4.734-2.482
		c-1.387,0.238-2.451,1.188-2.72,2.423c-0.363,1.656,0.671,2.949,1.879,3.372c0.673,0.236,1.525,0.219,1.896-0.535
		c0.229-0.461,0.239-0.823,0.029-1.064c-0.229-0.275-0.687-0.367-0.987-0.297c-0.003,0.011-0.003,0.019-0.003,0.029
		c-0.087,0.391-0.471,0.638-0.859,0.554c-0.388-0.082-0.631-0.469-0.548-0.854c0.083-0.391,0.468-0.64,0.854-0.553
		c0.024,0.007,0.041,0.013,0.064,0.018c0.052-0.024,0.102-0.053,0.159-0.07c0.59-0.185,1.497-0.046,2.022,0.57
		c0.266,0.31,0.631,0.994,0.099,2.079C177.486,81.135,176.299,81.526,174.985,81.065"/>
	<path fill="#231F20" d="M147.391,80.848c2.294-0.797,4.253-3.255,3.57-6.389c-0.505-2.311-2.46-4.083-4.988-4.515
		c-3.161-0.548-6.218,1.016-8.175,4.181c-2.731,4.41-5.833,5.649-7.246,5.402c-0.557-0.092-0.885-0.398-1-0.924
		c-0.133-0.607-0.069-1.071,0.188-1.42c0.487-0.659,1.536-0.754,1.546-0.751c0.365-0.033,0.638-0.352,0.608-0.715
		c-0.026-0.365-0.343-0.638-0.705-0.612c-0.069,0.003-1.652,0.131-2.51,1.276c-0.498,0.666-0.644,1.51-0.43,2.504
		c0.232,1.053,0.988,1.767,2.077,1.955c2.121,0.365,5.71-1.363,8.598-6.015c1.664-2.687,4.213-4.021,6.82-3.572
		c1.992,0.341,3.526,1.711,3.914,3.489c0.521,2.383-0.967,4.246-2.707,4.851c-0.967,0.337-2.191,0.317-2.73-0.77
		c-0.324-0.666-0.339-1.182-0.038-1.536c0.334-0.391,0.986-0.524,1.422-0.422c0,0.013,0,0.031,0.004,0.046
		c0.121,0.557,0.675,0.913,1.235,0.793c0.557-0.122,0.907-0.677,0.789-1.232c-0.117-0.561-0.675-0.918-1.229-0.793
		c-0.032,0.006-0.062,0.015-0.092,0.026c-0.077-0.033-0.144-0.077-0.229-0.103c-0.849-0.266-2.154-0.063-2.914,0.822
		c-0.38,0.448-0.907,1.431-0.137,2.988C143.79,80.947,145.502,81.51,147.391,80.848"/>
	<path fill="#231F20" d="M126.867,81.065c1.593-0.553,2.95-2.261,2.479-4.439c-0.351-1.606-1.708-2.835-3.464-3.137
		c-2.198-0.376-4.323,0.707-5.681,2.907c-1.899,3.063-4.054,3.925-5.035,3.757c-0.387-0.068-0.612-0.278-0.693-0.647
		c-0.092-0.42-0.052-0.743,0.133-0.987c0.336-0.456,1.062-0.522,1.073-0.522c0.251-0.022,0.443-0.243,0.423-0.496
		c-0.021-0.252-0.238-0.44-0.489-0.422c-0.048,0.002-1.146,0.09-1.744,0.885c-0.347,0.465-0.446,1.052-0.299,1.739
		c0.16,0.732,0.686,1.227,1.442,1.359c1.472,0.254,3.969-0.948,5.976-4.179c1.154-1.867,2.925-2.792,4.736-2.482
		c1.383,0.238,2.449,1.188,2.718,2.423c0.358,1.656-0.675,2.949-1.881,3.372c-0.671,0.236-1.523,0.219-1.896-0.535
		c-0.228-0.461-0.236-0.823-0.026-1.064c0.229-0.275,0.687-0.367,0.985-0.297c0.003,0.011,0.003,0.019,0.005,0.029
		c0.087,0.391,0.467,0.638,0.858,0.554c0.387-0.082,0.63-0.469,0.547-0.854c-0.083-0.391-0.466-0.64-0.854-0.553
		c-0.022,0.007-0.041,0.013-0.066,0.018c-0.05-0.024-0.1-0.053-0.155-0.07c-0.59-0.185-1.497-0.046-2.024,0.57
		c-0.262,0.31-0.631,0.994-0.097,2.079C124.364,81.135,125.554,81.526,126.867,81.065"/>
	<path fill="#231F20" d="M101.251,101.56c-2.152,0-3.897,1.743-3.897,3.896c0,2.147,1.745,3.894,3.897,3.894
		c2.148,0,3.893-1.747,3.893-3.894C105.144,103.303,103.399,101.56,101.251,101.56 M101.251,107.399c-1.075,0-1.95-0.871-1.95-1.944
		c0-1.077,0.875-1.951,1.95-1.951c1.071,0,1.945,0.874,1.945,1.951C103.196,106.528,102.322,107.399,101.251,107.399"/>
	<rect x="100.384" y="80.899" fill="#231F20" width="1.297" height="23.471"/>
	<path fill="#231F20" d="M199.617,101.56c-2.148,0-3.892,1.743-3.892,3.896c0,2.147,1.743,3.894,3.892,3.894
		s3.894-1.747,3.894-3.894C203.511,103.303,201.766,101.56,199.617,101.56 M199.617,107.399c-1.073,0-1.946-0.871-1.946-1.944
		c0-1.077,0.873-1.951,1.946-1.951c1.077,0,1.945,0.874,1.945,1.951C201.562,106.528,200.694,107.399,199.617,107.399"/>
	<rect x="198.752" y="80.899" fill="#231F20" width="1.299" height="23.471"/>
	<rect x="69.271" y="57.602" fill="#231F20" width="5.859" height="53.534"/>
	<rect x="70.286" y="59.225" fill="#231F20" width="3.738" height="15.885"/>
	<rect x="70.286" y="92.751" fill="#231F20" width="3.736" height="15.884"/>
	<path fill="#231F20" d="M230.75,65.565c-2.372-2.763-5.944-3.667-8.899-2.256c-2.477,1.193-4.799,4.237-3.865,9.224
		c0.121,0.625,0.719,1.037,1.343,0.924c0.632-0.116,1.04-0.718,0.924-1.348c-0.695-3.704,0.891-5.902,2.595-6.717
		c2.032-0.976,4.443-0.313,6.151,1.671c1.549,1.808,1.706,4.587,0.401,7.086c-1.87,3.569-6.034,5.74-11.542,6.219H73.439v2.464
		l144.304,0.019c6.483-0.489,11.413-3.272,13.694-7.643C233.187,71.88,232.911,68.092,230.75,65.565"/>
	<path fill="#231F20" d="M221.315,150.612c4.414-0.314,9.041-3.691,9.346-9.538c0.227-4.305-2.368-8.364-6.61-10.345
		c-5.301-2.475-11.426-1.193-16.395,3.431c-6.922,6.453-12.964,7.146-15.334,6.038c-0.944-0.435-1.374-1.125-1.314-2.112
		c0.048-1.13,0.384-1.913,1.009-2.407c1.177-0.922,3.058-0.583,3.082-0.577c0.654,0.112,1.287-0.313,1.414-0.968
		c0.12-0.653-0.3-1.291-0.951-1.417c-0.124-0.022-2.966-0.561-5.024,1.04c-1.204,0.939-1.862,2.35-1.958,4.205
		c-0.1,1.966,0.885,3.585,2.715,4.434c3.55,1.656,10.712,0.347,18.019-6.463c4.215-3.925,9.346-5.05,13.711-3.006
		c3.341,1.562,5.39,4.705,5.218,8.018c-0.232,4.447-3.747,7.007-7.095,7.241c-1.861,0.137-4.01-0.5-4.431-2.661
		c-0.262-1.332-0.037-2.249,0.662-2.724c0.771-0.526,1.986-0.439,2.71-0.063c-0.008,0.024-0.015,0.05-0.019,0.083
		c-0.056,1.048,0.747,1.937,1.791,1.988c1.044,0.056,1.933-0.741,1.986-1.792c0.048-1.037-0.743-1.927-1.787-1.99
		c-0.058,0.006-0.118,0.013-0.166,0.017c-0.124-0.098-0.226-0.207-0.365-0.299c-1.359-0.867-3.756-1.149-5.513,0.052
		c-0.884,0.605-2.285,2.084-1.679,5.183C214.935,149.052,217.67,150.867,221.315,150.612"/>
	<path fill="#231F20" d="M217.568,131.01c-6.733,1.433-16.092,1.833-21.162-3.615c-6.396-6.861-7.615-17.492-14.807-23.748
		c-6.584-5.729-12.281,2.416-13.001,8.488c-0.395,3.338,0.856,7.466,4.62,7.857c4.763,0.496,7.304-2.48,7.378-7.145
		c0.009-1.079,1.678-1.073,1.665-0.004c-0.066,4.231-1.762,7.899-6.208,8.72c-2.798,0.517-5.257,0.037-7.195-2.073
		c-4.432-4.833-1.275-13.667,3.032-17.542c3.042-2.746,7.401-2.231,10.479,0.201c4.213,3.327,6.561,8.713,8.908,13.394
		c2.436,4.851,4.829,11.155,10.222,13.342c4.707,1.918,10.61,1.509,15.517,0.542l0.133-0.031
		C218.191,129.177,218.621,130.789,217.568,131.01"/>
	<path fill="#231F20" d="M214.733,132.283c-8.237,0.703-9.786-10.002-10.232-15.881c-0.382-5.29-4.222-9.074-9.182-5.251
		c-2.182,1.68-2.849,4.161-2.058,6.695c0.957,3.023,5.87,5.93,7.18,1.302c0.365-1.31,2.472-0.965,2.09,0.354
		c-1.308,4.657-7.31,5.544-10.013,1.553c-3.049-4.504-1.703-9.123,2.41-12.296c3.871-2.984,8.84-1.16,10.718,3.115
		c1.35,3.076,1.051,6.599,1.575,9.861c0.579,3.621,2.902,8.812,7.322,8.435C215.908,130.044,216.104,132.168,214.733,132.283"/>
	<path fill="#231F20" d="M79.213,150.612c-4.412-0.314-9.038-3.691-9.344-9.538c-0.229-4.305,2.368-8.364,6.606-10.345
		c5.301-2.475,11.428-1.193,16.396,3.431c6.92,6.453,12.966,7.146,15.337,6.038c0.94-0.435,1.372-1.125,1.315-2.112
		c-0.05-1.13-0.386-1.913-1.009-2.407c-1.181-0.922-3.062-0.583-3.084-0.577c-0.656,0.112-1.287-0.313-1.415-0.968
		c-0.119-0.653,0.301-1.291,0.95-1.417c0.126-0.022,2.97-0.561,5.022,1.04c1.204,0.939,1.868,2.35,1.96,4.205
		c0.1,1.966-0.885,3.585-2.715,4.434c-3.548,1.656-10.708,0.347-18.016-6.463c-4.218-3.925-9.345-5.05-13.714-3.006
		c-3.342,1.562-5.39,4.705-5.216,8.018c0.229,4.447,3.747,7.007,7.093,7.241c1.863,0.137,4.012-0.5,4.431-2.661
		c0.262-1.332,0.036-2.249-0.66-2.724c-0.771-0.526-1.986-0.439-2.712-0.063c0.004,0.024,0.017,0.05,0.022,0.083
		c0.052,1.048-0.753,1.937-1.795,1.988c-1.04,0.056-1.935-0.741-1.982-1.792c-0.052-1.037,0.741-1.927,1.782-1.99
		c0.059,0.006,0.117,0.013,0.169,0.017c0.124-0.098,0.222-0.207,0.365-0.299c1.357-0.867,3.755-1.149,5.511,0.052
		c0.882,0.605,2.287,2.084,1.683,5.183C85.598,149.052,82.86,150.867,79.213,150.612"/>
	<path fill="#231F20" d="M82.96,131.01c6.735,1.433,16.094,1.833,21.164-3.615c6.396-6.861,7.619-17.492,14.807-23.748
		c6.582-5.729,12.281,2.416,13.001,8.488c0.391,3.338-0.859,7.466-4.618,7.857c-4.767,0.496-7.306-2.48-7.382-7.145
		c-0.007-1.079-1.678-1.073-1.667-0.004c0.07,4.231,1.767,7.899,6.212,8.72c2.798,0.517,5.256,0.037,7.192-2.073
		c4.435-4.833,1.276-13.667-3.031-17.542c-3.042-2.746-7.4-2.231-10.477,0.201c-4.212,3.327-6.563,8.713-8.912,13.394
		c-2.431,4.851-4.828,11.155-10.217,13.342c-4.707,1.918-10.613,1.509-15.522,0.542l-0.129-0.031
		C82.337,129.177,81.909,130.789,82.96,131.01"/>
	<path fill="#231F20" d="M85.797,132.283c8.24,0.703,9.786-10.002,10.232-15.881c0.384-5.29,4.22-9.074,9.181-5.251
		c2.181,1.68,2.848,4.161,2.059,6.695c-0.955,3.023-5.872,5.93-7.182,1.302c-0.365-1.31-2.468-0.965-2.088,0.354
		c1.306,4.657,7.308,5.544,10.015,1.553c3.047-4.504,1.699-9.123-2.416-12.296c-3.869-2.984-8.838-1.16-10.716,3.115
		c-1.346,3.076-1.047,6.599-1.575,9.861c-0.577,3.621-2.906,8.812-7.318,8.435C84.62,130.044,84.429,132.168,85.797,132.283"/>
	<path fill="#231F20" d="M218.387,156.738l-2.742-3.913h-3.919v-2.302c0-11.252-12.951-20.373-28.927-20.373h-10.083L150,116.038
		l-22.705,14.113h-10.081c-15.977,0-28.938,9.12-28.938,20.373v2.302h-3.921l-2.74,3.913c-9.141,2.535-15.763,9.953-15.763,18.71
		v7.534c0,8.759,6.622,16.184,15.763,18.722l2.74,3.914h3.921v2.298c0,11.251,12.962,20.373,28.938,20.373h10.081L150,242.398
		l22.716-14.109h10.083c15.976,0,28.927-9.122,28.927-20.373v-2.298h3.919l2.742-3.914c9.139-2.538,15.762-9.963,15.762-18.722
		v-7.534C234.148,166.691,227.525,159.273,218.387,156.738"/>
	<path fill="#FFFFFF" d="M150,237.879l-20.868-12.969h-8.643c-15.201,0-27.569-8.912-27.569-19.864v-0.542h-2.794l-2.614-3.733
		c-8.86-2.674-14.772-9.911-14.772-18.163v-6.779c0-8.254,5.912-15.485,14.772-18.159l2.614-3.733h2.794v-0.542
		c0-10.954,12.368-19.862,27.569-19.862h8.643L150,120.557l20.879,12.975h8.641c15.197,0,27.562,8.908,27.562,19.862v0.542h2.793
		l2.616,3.733c8.858,2.674,14.771,9.911,14.771,18.159v6.779c0,8.252-5.913,15.489-14.771,18.163l-2.616,3.733h-2.793v0.542
		c0,10.952-12.364,19.864-27.562,19.864h-8.641L150,237.879z M91.717,201.449h4.261v3.597c0,9.267,10.996,16.806,24.512,16.806
		h9.513L150,234.279l20.008-12.428h9.512c13.514,0,24.506-7.539,24.506-16.806v-3.597h4.26l2.326-3.319l0.527-0.147
		c7.816-2.169,13.067-8.348,13.067-15.375v-6.779c0-7.027-5.251-13.202-13.067-15.371l-0.527-0.147l-2.326-3.319h-4.26v-3.597
		c0-9.266-10.992-16.806-24.506-16.806h-9.512L150,124.153l-19.998,12.435h-9.513c-13.516,0-24.512,7.54-24.512,16.806v3.597h-4.261
		l-2.323,3.319l-0.531,0.147c-7.816,2.169-13.065,8.344-13.065,15.371v6.779c0,7.027,5.249,13.206,13.065,15.375l0.531,0.147
		L91.717,201.449z"/>
	<path fill="#FFFFFF" d="M111.677,172.379h-2.523l-2.852,12.027c0,0.054-0.015,0.123-0.036,0.223
		c-0.026,0.097-0.037,0.168-0.037,0.218c-0.17,0.972-0.258,1.66-0.258,2.048c0,0.999,0.745,1.56,2.231,1.68h0.221h0.218h0.328
		c0.122,0.027,0.22,0.039,0.294,0.039v0.623h-6.509v-0.662h1.536l5.922-24.971h0.66l6.653,21.059
		c0.315,0.978,0.536,1.633,0.658,1.978c0.365,0.874,0.73,1.424,1.096,1.646c0.293,0.195,0.683,0.302,1.171,0.328v0.623h-5.996
		v-0.662h2.267L111.677,172.379z M111.384,171.538l-1.179-3.788l-0.936,3.788H111.384z"/>
	<path fill="#FFFFFF" d="M132.297,174.172l-5.412,15.61h-0.658l-4.531-13.087c-0.295-0.83-0.598-1.428-0.915-1.793
		c-0.438-0.465-1.048-0.708-1.829-0.73v-0.768h5.009v0.768l-1.365-0.011l4.438,12.807l3.144-10.092
		c0.22-0.705,0.328-1.207,0.328-1.498c0-0.804-0.546-1.206-1.646-1.206h-0.181v-0.768h4.973v0.768H132.297z"/>
	<path fill="#FFFFFF" d="M135.915,177.938c-0.27,0.535-0.438,0.971-0.513,1.31c-0.17,0.535-0.255,1.191-0.255,1.97
		c0,2.04,0.753,3.771,2.266,5.19c1.512,1.426,3.29,2.134,5.337,2.134c3.146,0,5.581-1.61,7.315-4.826l0.584,0.217
		c-0.658,1.487-1.426,2.646-2.304,3.476c-1.243,1.169-2.851,1.899-4.824,2.194c-0.244,0.07-0.66,0.11-1.243,0.11
		c-2.316,0-4.292-0.719-5.924-2.157c-1.73-1.513-2.598-3.401-2.598-5.67c0-2.438,0.977-4.544,2.926-6.322
		c1.899-1.708,4.083-2.561,6.545-2.561c3.267,0,5.653,1.646,7.166,4.936H135.915z M148.127,177.171
		c-1.537-1.974-3.573-2.962-6.104-2.962c-2.318,0-4.207,0.988-5.669,2.962H148.127z"/>
	<path fill="#FFFFFF" d="M160.521,189.236v-0.771h1.536v-9.846c0-3.209-1.038-4.813-3.109-4.813c-1.878,0-3.03,1.283-3.471,3.854
		v7.968c0,1.188,0.036,1.866,0.108,2.036c0.17,0.535,0.695,0.801,1.571,0.801h0.294v0.771h-5.447v-0.771h1.755v-12.874l-1.257,1.494
		l-0.498-0.428l3.839-4.57l0.542,0.435l-0.9,1.07l-0.007,1.165c1.437-1.223,2.752-1.829,3.948-1.829
		c2.876,0,4.312,1.893,4.312,5.677v0.037v0.07v6.916c0,1.188,0.037,1.866,0.11,2.036c0.172,0.535,0.695,0.801,1.573,0.801h0.293
		v0.771H160.521z"/>
	<path fill="#FFFFFF" d="M178.619,173.367v12.328c0,1.166,0.035,1.859,0.108,2.077c0.17,0.584,0.695,0.852,1.574,0.804h0.584v0.66
		H176.9v-1.428c-0.681,0.778-1.438,1.303-2.267,1.573c-0.439,0.22-0.952,0.33-1.536,0.33c-1.535,0-2.791-0.733-3.765-2.198
		c-0.415-0.778-0.623-2.191-0.623-4.238v-6.399c0-1.313-0.085-2.118-0.255-2.413c-0.146-0.218-0.622-0.354-1.426-0.401l-0.513-0.037
		v-0.657h3.912v10.639c0,3.217,1.047,4.826,3.145,4.826c1.781,0,2.888-1.219,3.327-3.657v-8.299c0-1.313-0.085-2.118-0.257-2.413
		c-0.146-0.218-0.621-0.354-1.426-0.401l-0.513-0.037v-0.657H178.619z"/>
	<path fill="#FFFFFF" d="M184.103,177.938c-0.268,0.535-0.439,0.971-0.511,1.31c-0.172,0.535-0.257,1.191-0.257,1.97
		c0,2.04,0.757,3.771,2.267,5.19c1.511,1.426,3.291,2.134,5.338,2.134c3.145,0,5.581-1.61,7.312-4.826l0.585,0.217
		c-0.658,1.487-1.426,2.646-2.304,3.476c-1.243,1.169-2.852,1.899-4.826,2.194c-0.244,0.07-0.657,0.11-1.243,0.11
		c-2.314,0-4.29-0.719-5.923-2.157c-1.729-1.513-2.595-3.401-2.595-5.67c0-2.438,0.974-4.544,2.925-6.322
		c1.902-1.708,4.082-2.561,6.544-2.561c3.267,0,5.655,1.646,7.167,4.936H184.103z M196.313,177.171
		c-1.536-1.974-3.57-2.962-6.104-2.962c-2.316,0-4.205,0.988-5.668,2.962H196.313z"/>
	<path fill="#FFFFFF" d="M135.1,209.432h-4.673v-0.266h0.922v-8.188c0-0.564-0.035-0.907-0.104-1.027
		c-0.061-0.077-0.295-0.135-0.701-0.164h-0.237v-0.27h4.793v-0.623h0.284v3.335H135.1c0-1.11-0.181-1.797-0.538-2.055
		c-0.27-0.199-0.985-0.329-2.14-0.388h-0.27v2.442h1.31v-1.521h0.284v3.678h-0.284v-0.162v-0.166
		c-0.011-0.476-0.081-0.822-0.21-1.038c-0.17-0.312-0.473-0.463-0.903-0.463h-0.091c-0.031,0-0.064,0.003-0.105,0.015v6.595
		c1.137,0.008,1.87-0.081,2.199-0.269c0.499-0.277,0.748-0.934,0.748-1.967v-0.52h0.284v3.648H135.1V209.432z"/>
	<path fill="#FFFFFF" d="M140.444,205.027h-0.283c-0.03-0.615-0.109-1.061-0.236-1.342c-0.21-0.425-0.572-0.639-1.088-0.639
		c-0.299,0-0.558,0.096-0.782,0.291c-0.224,0.192-0.336,0.439-0.336,0.734c0,0.351,0.19,0.623,0.568,0.819
		c0.038,0.021,0.384,0.144,1.032,0.372c0.649,0.229,1.129,0.476,1.438,0.747c0.426,0.367,0.64,0.836,0.64,1.411
		c0,0.697-0.288,1.247-0.863,1.652c-0.505,0.369-1.121,0.555-1.844,0.555c-0.745,0-1.365-0.164-1.863-0.48
		c-0.594-0.369-0.893-0.908-0.893-1.616c0-0.446,0.17-0.826,0.505-1.144c0.34-0.313,0.734-0.469,1.191-0.469
		c0.358,0,0.664,0.1,0.923,0.299c0.258,0.199,0.387,0.477,0.387,0.827c0,0.188-0.062,0.368-0.191,0.54
		c-0.129,0.168-0.288,0.253-0.476,0.253c-0.151,0-0.226-0.063-0.226-0.192c0-0.081,0.026-0.17,0.074-0.27
		c0.04-0.195,0.061-0.291,0.061-0.28c0-0.188-0.098-0.347-0.289-0.468c-0.196-0.126-0.392-0.188-0.591-0.188
		c-0.306,0-0.555,0.096-0.745,0.284c-0.186,0.188-0.28,0.436-0.28,0.745c0,0.564,0.317,1.029,0.952,1.397
		c0.557,0.329,1.132,0.491,1.726,0.491c0.558,0,1-0.162,1.326-0.483c0.327-0.321,0.493-0.764,0.493-1.316
		c0-0.477-0.196-0.849-0.583-1.118c-0.218-0.158-0.623-0.336-1.221-0.535c-0.594-0.199-1.004-0.372-1.22-0.52
		c-0.387-0.27-0.581-0.639-0.581-1.104c0-0.446,0.178-0.814,0.535-1.103c0.328-0.258,0.727-0.388,1.191-0.388
		c0.398,0,0.755,0.081,1.073,0.24c0.041,0.011,0.104,0.029,0.192,0.059v-0.642h0.283V205.027z"/>
	<path fill="#FFFFFF" d="M143.422,203.283v3.921c0,1.376,0.405,2.065,1.221,2.065c0.546,0,1.048-0.31,1.501-0.922l0.211,0.073
		c-0.06,0.377-0.232,0.672-0.521,0.884c-0.284,0.216-0.627,0.323-1.029,0.323h-0.029h-0.044c-0.531-0.03-0.979-0.218-1.347-0.56
		c-0.361-0.341-0.568-0.772-0.62-1.3c-0.029-0.226-0.044-0.568-0.044-1.021v-3.464h-0.771v-0.311h0.771v-2.589l0.701-0.789v3.378
		h1.354v0.311H143.422z"/>
	<path fill="#FFFFFF" d="M147.708,203.051v4.913c0,0.506,0.011,0.786,0.029,0.845c0.07,0.207,0.288,0.31,0.656,0.31h0.118v0.313
		h-2.231v-0.313h0.729v-5.264l-0.537,0.633l-0.191-0.16l1.619-1.922l0.214,0.166L147.708,203.051z M147.306,199.728
		c0.17,0.011,0.317,0.077,0.439,0.197c0.125,0.127,0.188,0.274,0.188,0.44c0,0.17-0.062,0.317-0.188,0.442
		c-0.122,0.122-0.27,0.185-0.439,0.185c-0.177,0-0.326-0.059-0.446-0.177c-0.118-0.122-0.177-0.27-0.177-0.45
		c0-0.177,0.059-0.324,0.177-0.446c0.12-0.118,0.27-0.177,0.446-0.177V199.728z"/>
	<path fill="#FFFFFF" d="M150.611,198.879v9.081c0,0.487,0.015,0.768,0.044,0.849c0.07,0.207,0.287,0.31,0.656,0.31h0.118v0.313
		h-2.202v-0.313h0.699v-9.395l-0.647,0.752l-0.185-0.169l1.619-1.948l0.188,0.17L150.611,198.879z"/>
	<path fill="#FFFFFF" d="M153.59,203.051v4.913c0,0.506,0.007,0.786,0.031,0.845c0.068,0.207,0.286,0.31,0.65,0.31h0.122v0.313
		h-2.235v-0.313h0.73v-5.264l-0.535,0.633l-0.195-0.16l1.623-1.922l0.21,0.166L153.59,203.051z M153.188,199.728
		c0.166,0.011,0.313,0.077,0.438,0.197c0.122,0.127,0.185,0.274,0.185,0.44c0,0.17-0.062,0.317-0.185,0.442
		c-0.125,0.122-0.272,0.185-0.438,0.185c-0.181,0-0.328-0.059-0.446-0.177c-0.122-0.122-0.181-0.27-0.181-0.45
		c0-0.177,0.059-0.324,0.181-0.446c0.118-0.118,0.266-0.177,0.446-0.177V199.728z"/>
	<path fill="#FFFFFF" d="M159.318,205.027h-0.28c-0.03-0.615-0.111-1.061-0.24-1.342c-0.206-0.425-0.571-0.639-1.084-0.639
		c-0.299,0-0.56,0.096-0.782,0.291c-0.226,0.192-0.336,0.439-0.336,0.734c0,0.351,0.188,0.623,0.564,0.819
		c0.041,0.021,0.386,0.144,1.036,0.372c0.649,0.229,1.129,0.476,1.436,0.747c0.428,0.367,0.642,0.836,0.642,1.411
		c0,0.697-0.286,1.247-0.863,1.652c-0.509,0.369-1.121,0.555-1.848,0.555c-0.745,0-1.365-0.164-1.859-0.48
		c-0.596-0.369-0.893-0.908-0.893-1.616c0-0.446,0.166-0.826,0.505-1.144c0.336-0.313,0.736-0.469,1.191-0.469
		c0.354,0,0.664,0.1,0.923,0.299c0.258,0.199,0.387,0.477,0.387,0.827c0,0.188-0.066,0.368-0.195,0.54
		c-0.129,0.168-0.287,0.253-0.476,0.253c-0.147,0-0.222-0.063-0.222-0.192c0-0.081,0.022-0.17,0.074-0.27
		c0.04-0.195,0.059-0.291,0.059-0.28c0-0.188-0.096-0.347-0.291-0.468c-0.192-0.126-0.388-0.188-0.587-0.188
		c-0.31,0-0.557,0.096-0.745,0.284c-0.188,0.188-0.284,0.436-0.284,0.745c0,0.564,0.317,1.029,0.956,1.397
		c0.553,0.329,1.129,0.491,1.726,0.491c0.554,0,0.996-0.162,1.324-0.483c0.329-0.321,0.491-0.764,0.491-1.316
		c0-0.477-0.192-0.849-0.579-1.118c-0.218-0.158-0.627-0.336-1.221-0.535c-0.598-0.199-1.004-0.372-1.222-0.52
		c-0.387-0.27-0.579-0.639-0.579-1.104c0-0.446,0.178-0.814,0.535-1.103c0.328-0.258,0.723-0.388,1.191-0.388
		c0.395,0,0.753,0.081,1.069,0.24c0.043,0.011,0.104,0.029,0.196,0.059v-0.642h0.28V205.027z"/>
	<path fill="#FFFFFF" d="M166.658,209.118v-4.23c0-1.158-0.299-1.737-0.893-1.737c-0.498,0-0.774,0.306-0.833,0.918v3.896
		c0,0.506,0.021,0.815,0.073,0.934c0.06,0.147,0.262,0.221,0.608,0.221h0.093v0.313h-2.099v-0.313h0.623v-4.245
		c0-0.513-0.019-0.871-0.059-1.07c-0.1-0.435-0.321-0.652-0.672-0.652c-0.505,0-0.87,0.357-1.1,1.065v3.748
		c0,0.546,0.033,0.87,0.104,0.978c0.078,0.141,0.273,0.199,0.579,0.177h0.211v0.313h-2.339v-0.313h0.745v-5.289l-0.546,0.664
		l-0.199-0.181l1.623-1.907l0.21,0.166l-0.391,0.461l0.003,0.299c0.03-0.029,0.085-0.076,0.163-0.137
		c0.328-0.266,0.679-0.402,1.059-0.402c0.446,0,0.833,0.228,1.158,0.672c0.299-0.444,0.7-0.672,1.208-0.672
		c0.573,0,0.961,0.247,1.16,0.742c0.129,0.306,0.195,0.804,0.195,1.497v2.933c0,0.465,0.015,0.741,0.044,0.83
		c0.078,0.218,0.292,0.324,0.639,0.324h0.166v0.313h-2.235v-0.313H166.658z"/>
	<path fill="#FFFFFF" d="M175.563,205.965c0,0.992-0.38,1.852-1.133,2.574c-0.756,0.727-1.627,1.089-2.621,1.089
		c-0.895,0-1.652-0.325-2.271-0.971c-0.619-0.642-0.929-1.416-0.929-2.32c0-0.951,0.391-1.781,1.176-2.486
		c0.782-0.704,1.656-1.059,2.619-1.059c0.863,0,1.604,0.317,2.225,0.948c0.62,0.627,0.934,1.376,0.934,2.239V205.965z
		 M174.995,206.201c0-0.753-0.307-1.439-0.922-2.052c-0.594-0.575-1.28-0.866-2.055-0.866c-0.775,0-1.442,0.262-2.003,0.782
		c-0.561,0.523-0.842,1.165-0.842,1.929c0,0.876,0.284,1.619,0.849,2.231c0.564,0.616,1.276,0.926,2.136,0.926
		c0.793,0,1.465-0.272,2.013-0.812c0.549-0.542,0.824-1.21,0.824-2.003v-0.059v-0.029V206.201z"/>
</g>
</svg>
