<?xml version="1.0" encoding="utf-8"?>
<!-- Generator: Adobe Illustrator 16.0.0, SVG Export Plug-In . SVG Version: 6.00 Build 0)  -->
<!DOCTYPE svg PUBLIC "-//W3C//DTD SVG 1.1//EN" "http://www.w3.org/Graphics/SVG/1.1/DTD/svg11.dtd">
<svg version="1.1" id="Layer_1" xmlns="http://www.w3.org/2000/svg" xmlns:xlink="http://www.w3.org/1999/xlink" x="0px" y="0px"
	 width="300px" height="300px" viewBox="0 0 300 300" enable-background="new 0 0 300 300" xml:space="preserve">
<g>
	<g>
		<path fill="#76391B" d="M103.627,201.862h10.047c2.821,0,4.927,0.135,6.313,0.406c1.389,0.271,2.555,0.725,3.501,1.361
			c1.426,0.961,2.526,2.334,3.302,4.115c0.775,1.783,1.163,3.838,1.163,6.164v10.674c0,2.342-0.388,4.402-1.163,6.186
			s-1.876,3.148-3.302,4.094c-0.978,0.65-2.194,1.115-3.651,1.395c-1.458,0.279-3.512,0.42-6.163,0.42h-10.047V201.862z
			 M111.349,229.954h1.79c2.512,0,4.307-0.541,5.384-1.627s1.616-2.891,1.616-5.418v-7.326c0-2.527-0.534-4.326-1.604-5.396
			c-1.069-1.068-2.868-1.604-5.396-1.604h-1.79V229.954z"/>
		<path fill="#76391B" d="M136.209,236.677v-34.814h7.419l11.14,21.139l-0.14-21.139h6.721v34.814h-6.325l-12.256-23.535
			l0.14,23.535H136.209z"/>
		<path fill="#76391B" d="M188.884,236.677l-1.86-6.955h-10.465l-1.814,6.955h-7.488l10-34.814h9.116l10.001,34.814H188.884z
			 M178.07,223.769h7.488l-3.721-15.721L178.07,223.769z"/>
	</g>
	<g>
		<g>
			<path fill-rule="evenodd" clip-rule="evenodd" fill="#F38B00" d="M145.148,120.215c-14.345-13.565-26.897-28.712-37.674-45.239
				c-7.53,3.775-15.245,6.932-23.287,9.444c15.505,26.752,36.401,51.389,59.773,71.523
				C144.342,144.034,144.745,132.125,145.148,120.215L145.148,120.215z"/>
		</g>
		<g>
			<path fill-rule="evenodd" clip-rule="evenodd" fill="#F38B00" d="M146.921,43.661c-0.019,5.834-0.072,11.668-0.156,17.503
				c-2.864-3.292-5.66-6.637-8.432-10.006C141.23,48.698,144.086,46.192,146.921,43.661L146.921,43.661z"/>
		</g>
		<g>
			<path fill-rule="evenodd" clip-rule="evenodd" fill="#F38B00" d="M146.517,74.189c-0.228,9.734-0.506,19.467-0.814,29.199
				c-10.998-10.584-20.67-22.337-29.586-34.706c5.596-3.515,10.927-7.355,16.094-11.47
				C136.812,63.018,141.516,68.721,146.517,74.189z"/>
		</g>
		<g>
			<path fill-rule="evenodd" clip-rule="evenodd" fill="#76391B" d="M153.938,120.215c0.4,11.909,0.805,23.818,1.188,35.728
				c23.362-20.125,44.287-44.768,59.771-71.523c-8.043-2.512-15.759-5.667-23.288-9.444
				C180.826,91.502,168.281,106.646,153.938,120.215L153.938,120.215z"/>
		</g>
		<g>
			<path fill-rule="evenodd" clip-rule="evenodd" fill="#76391B" d="M152.162,43.661c2.835,2.531,5.69,5.037,8.588,7.496
				c-2.77,3.37-5.566,6.715-8.431,10.007C152.235,55.329,152.182,49.495,152.162,43.661L152.162,43.661z"/>
		</g>
		<g>
			<path fill-rule="evenodd" clip-rule="evenodd" fill="#76391B" d="M166.873,57.212c5.167,4.117,10.498,7.956,16.093,11.471
				c-8.911,12.37-18.586,24.122-29.583,34.706c-0.309-9.732-0.591-19.465-0.815-29.199C157.567,68.72,162.272,63.019,166.873,57.212
				z"/>
		</g>
		<g>
			<g>
				<path fill-rule="evenodd" clip-rule="evenodd" fill="#76391B" d="M75.454,155.553c13.625-5.96,26.239-13.574,37.946-22.732
					c-2.933-4.024-5.895-8.025-8.957-11.951c-6.381,5.759-13.102,11.007-20.321,15.679
					C81.912,143.212,78.925,149.459,75.454,155.553L75.454,155.553z"/>
			</g>
			<g>
				<path fill-rule="evenodd" clip-rule="evenodd" fill="#76391B" d="M38.016,210.443c3.614-6.221,7.625-12.17,11.797-18.027
					c30.434-4.969,58.473-18.426,82.955-36.916c3.494,4.398,7.07,8.723,10.77,12.953C113.487,191.605,76.531,209.596,38.016,210.443
					L38.016,210.443z"/>
			</g>
			<g>
				<path fill-rule="evenodd" clip-rule="evenodd" fill="#76391B" d="M56.471,183.287c4.36-5.916,8.708-11.838,12.824-17.926
					c17.949-6.432,34.495-15.77,49.528-27.465c2.964,4.119,5.953,8.215,8.989,12.279C106.307,165.93,82.571,177.469,56.471,183.287z
					"/>
			</g>
		</g>
		<g>
			<g>
				<path fill-rule="evenodd" clip-rule="evenodd" fill="#F38B00" d="M223.629,155.553c-3.472-6.092-6.456-12.341-8.667-19.004
					c-7.218-4.673-13.938-9.921-20.32-15.679c-3.062,3.927-6.024,7.927-8.957,11.951
					C197.389,141.979,210.005,149.596,223.629,155.553L223.629,155.553z"/>
			</g>
			<g>
				<path fill-rule="evenodd" clip-rule="evenodd" fill="#F38B00" d="M261.067,210.443c-38.526-0.85-75.458-18.844-105.521-41.99
					c3.698-4.23,7.276-8.555,10.771-12.953c24.482,18.49,52.519,31.947,82.953,36.916
					C253.441,198.273,257.452,204.223,261.067,210.443L261.067,210.443z"/>
			</g>
			<g>
				<path fill-rule="evenodd" clip-rule="evenodd" fill="#F38B00" d="M171.272,150.175c3.036-4.063,6.025-8.16,8.987-12.279
					c15.037,11.692,31.578,21.034,49.527,27.465c4.117,6.088,8.464,12.01,12.825,17.926
					C216.51,177.469,192.78,165.928,171.272,150.175z"/>
			</g>
		</g>
	</g>
</g>
</svg>
