<?xml version="1.0" encoding="utf-8"?>
<!-- Generator: Adobe Illustrator 16.0.0, SVG Export Plug-In . SVG Version: 6.00 Build 0)  -->
<!DOCTYPE svg PUBLIC "-//W3C//DTD SVG 1.1//EN" "http://www.w3.org/Graphics/SVG/1.1/DTD/svg11.dtd">
<svg version="1.1" id="Layer_1" xmlns="http://www.w3.org/2000/svg" xmlns:xlink="http://www.w3.org/1999/xlink" x="0px" y="0px"
	 width="300px" height="300px" viewBox="0 0 300 300" enable-background="new 0 0 300 300" xml:space="preserve">
<g>
	<path fill-rule="evenodd" clip-rule="evenodd" fill="#5E2828" d="M152.406,174.729c1.475-0.07,2.889,0.346,4.317,0.592
		c6.05,1.043,12.089,2.158,18.136,3.221c5.768,1.012,11.584,1.208,17.424,0.988c5.004-0.188,10-0.51,14.977-1.043
		c4.722-0.505,9.435-1.102,14.144-1.719c4.959-0.648,9.911-1.357,14.864-2.058c3.949-0.558,7.889-1.19,11.844-1.702
		c6.092-0.788,12.176-1.684,18.339-1.719c1.709-0.01,3.425-0.049,5.104,0.377c0.306,0.077,0.62,0.131,0.918,0.234
		c1.646,0.57,2.082,1.186,2.006,2.957c-0.196,4.596-1.62,8.819-3.973,12.74c-2.55,4.25-5.959,7.704-9.976,10.57
		c-5.386,3.846-11.374,6.325-17.813,7.754c-6.376,1.415-12.818,1.414-19.289,0.921c-4.049-0.309-8.05-0.915-12.003-1.835
		c-7.013-1.632-13.622-4.315-19.975-7.67c-3.81-2.012-7.515-4.205-11.23-6.381c-4.646-2.719-9.335-5.351-14.246-7.579
		c-7.94-3.603-16.231-6.065-24.745-7.839c-5.834-1.213-11.726-2.056-17.656-2.604c-6.824-0.632-13.672-0.743-20.512-0.389
		c-8.818,0.458-17.502,1.806-25.945,4.489c-7.604,2.417-14.703,5.829-21.033,10.742c-1.652,1.284-3.217,2.67-4.723,4.125
		c-1.601,1.547-3.332,2.926-5.342,3.92c-1.26,0.623-2.564,1.025-3.998,1.072c-3.201,0.105-4.664-2.398-4.38-4.928
		c0.149-1.334,0.604-2.576,1.281-3.747c0.898-1.556,2.064-2.88,3.39-4.073c1.848-1.664,3.928-2.988,6.123-4.142
		c4.51-2.37,9.306-3.975,14.22-5.241c1.833-0.472,3.642-1.085,5.554-1.191c0.42,0.067,0.893-0.049,1.218,0.349
		c-0.61,0.166-1.219,0.339-1.831,0.497c-3.373,0.865-6.723,1.807-9.994,3.008c-4.29,1.574-8.463,3.393-12.271,5.959
		c-1.316,0.889-2.568,1.854-3.649,3.024c-0.563,0.61-1.045,1.278-1.327,2.064c-0.453,1.263,0.449,2.327,1.783,2.091
		c0.625-0.111,1.219-0.352,1.746-0.719c0.832-0.578,1.674-1.144,2.48-1.755c3.44-2.604,7.018-4.987,10.889-6.919
		c6.326-3.156,13.006-5.279,19.887-6.812c4.76-1.06,9.564-1.851,14.411-2.409c4.468-0.514,8.935-0.996,13.437-1.047
		c4.561-0.051,9.115-0.043,13.672,0.299c4.993,0.375,9.96,0.941,14.899,1.727c7.19,1.143,14.305,2.679,21.401,4.302
		c7.71,1.763,15.395,3.649,23.209,4.923c4.891,0.797,9.808,1.192,14.762,0.91c1.787-0.102,3.574-0.292,5.524-1.003
		c-1.845,0.097-3.426,0.251-5.007,0.249c-6.229-0.008-12.374-0.851-18.469-2.062c-5.15-1.023-10.282-2.142-15.418-3.24
		c-2.908-0.622-5.805-1.29-8.707-1.938C151.287,174.58,151.885,174.823,152.406,174.729z M253.814,199.698
		c6.793-3.42,12.094-8.429,15.914-14.995c1.148-1.973,2.02-4.07,2.574-6.296c0.232-0.935,0.286-1.872,0.231-2.821
		c-0.034-0.602-0.233-1.158-0.868-1.332c-0.657-0.178-1.078,0.287-1.392,0.766c-0.379,0.58-0.722,1.191-1.005,1.822
		c-0.621,1.383-1.197,2.785-1.787,4.182c-3.086,7.295-7.314,13.707-14.055,18.176c-1.701,0.913-3.402,1.825-5.104,2.737
		C250.268,201.457,252.135,200.802,253.814,199.698z"/>
	<path fill-rule="evenodd" clip-rule="evenodd" fill="#602C2D" d="M135.312,131.35c-0.486-0.928-0.486-0.928-1.516-1.76
		c-0.4,0.346-0.222,0.805-0.211,1.209c0.162,6.449,0.328,12.898,0.511,19.347c0.099,3.478,0.231,6.952,0.341,10.429
		c0.029,0.955,0.183,1.887,0.445,2.803c0.369,1.289,1.206,2.045,2.543,2.217c0.753,0.096,1.511,0.153,2.261,0.266
		c0.148,0.021,0.366,0.199,0.388,0.331c0.046,0.29-0.207,0.437-0.455,0.479c-0.31,0.052-0.629,0.059-0.944,0.06
		c-6.262,0.006-12.523,0.011-18.786,0.01c-0.441,0-0.885-0.025-1.322-0.08c-0.311-0.038-0.654-0.147-0.725-0.488
		c-0.052-0.256,0.207-0.423,0.407-0.586c0.394-0.32,0.405-0.771,0.313-1.215c-0.076-0.367-0.208-0.727-0.342-1.08
		c-1.583-4.196-3.17-8.391-4.762-12.584c-0.09-0.234-0.227-0.451-0.342-0.676c-0.497-1.475-0.496-1.484-1.894-1.492
		c-1.829-0.01-3.658-0.003-5.487-0.003c-2.018,0.001-4.037,0.021-6.055-0.009c-0.745-0.01-1.137,0.287-1.383,0.99
		c-0.459,1.307-0.975,2.595-1.516,3.87c-0.84,1.975-1.829,3.874-2.959,5.7c-0.145,0.232-0.438,0.496-0.099,0.81l0.024-0.033
		c-0.104-0.025-0.277-0.103-0.301-0.069c-0.568,0.77-1.311,1.426-1.594,2.385l0.006-0.004c-0.537,0.239-0.614,0.382-0.416,0.77
		l0.031-0.033c-0.426-0.154-0.529,0.011-0.4,0.404l0.016-0.024c-0.6-0.243-0.742,0.341-1.01,0.61
		c-2.032,2.047-4.342,3.674-7.018,4.773c-0.229,0.094-0.432,0.25-0.646,0.377c-0.672,0.174-1.346,0.336-2.013,0.521
		c-2.249,0.623-4.546,0.799-6.776,0.837c-0.107-0.093-0.125-0.108-0.143-0.122c0.049,0.014,0.104,0.051,0.145,0.04
		c1.036-0.277,2.066-0.574,3.105-0.839c4.244-1.078,7.754-3.325,10.604-6.633c1.619-1.879,2.959-3.947,4.13-6.125
		c1.8-3.348,3.314-6.824,4.62-10.391c2.913-7.955,5.809-15.916,8.723-23.869c0.324-0.888,0.703-1.759,1.109-2.612
		c0.222-0.464,0.816-0.467,1.07-0.027c0.314,0.546,0.58,1.118,0.867,1.68c-0.01,0.657,0.338,1.207,0.561,1.79
		c1.951,5.133,3.904,10.266,5.883,15.387c2.502,6.477,5.021,12.946,7.55,19.411c0.413,1.056,0.913,2.079,1.389,3.11
		c0.098,0.211,0.23,0.457,0.55,0.278l-0.021-0.026c-0.134,0.14-0.225,0.289-0.098,0.48c0.382,0.575,0.76,1.154,1.153,1.723
		c0.115,0.166,0.299,0.191,0.488,0.1l-0.047,0.048c-0.092,0.396,0.154,0.543,0.47,0.64c0.626,0.719,1.45,0.99,2.368,1.007
		c0.915,0.017,1.596-0.375,1.908-1.266c0.145-0.414,0.276-0.849,0.316-1.282c0.121-1.324,0.27-2.651,0.274-3.979
		c0.034-10.33,0.056-20.66,0.038-30.99c-0.006-3.71-1.457-6.754-4.478-8.99c-1.126-1.214-2.501-2.108-3.891-2.975
		c-3.298-2.059-6.872-3.119-10.787-2.908c-0.692,0.037-1.388,0.025-2.082,0.037c0.051-0.086,0.056-0.174,0.016-0.264
		c1.123-0.181,2.226-0.451,3.364-0.572c4.561-0.487,8.803,0.474,12.799,2.656c2.582,1.41,4.809,3.271,6.814,5.407
		c2.729,2.908,5.476,5.802,8.184,8.731c8.297,8.972,16.577,17.957,24.865,26.938c0.596,0.646,1.195,1.292,1.766,1.909
		c0.518-0.156,0.398-0.518,0.395-0.803c-0.043-3.165-0.085-6.33-0.148-9.496c-0.126-6.393-0.26-12.785-0.404-19.178
		c-0.027-1.201-0.115-2.402-0.188-3.603c-0.023-0.378-0.057-0.761-0.141-1.13c-0.379-1.648-1.141-2.341-2.85-2.583
		c-0.751-0.106-1.512-0.149-2.262-0.261c-0.148-0.021-0.364-0.219-0.376-0.352c-0.011-0.125,0.181-0.314,0.329-0.395
		c0.155-0.084,0.362-0.09,0.549-0.102c0.252-0.018,0.507-0.017,0.76-0.008c3.541,0.13,7.08,0.244,10.623,0.009
		c0.963-0.063,1.557,0.204,1.429,0.492c-0.269,0.602-0.88,0.354-1.337,0.487c-0.241,0.07-0.5,0.078-0.748,0.133
		c-0.953,0.214-1.581,0.803-1.813,1.74c-0.228,0.918-0.45,1.85-0.29,2.812c-0.032,0.564-0.09,1.129-0.092,1.693
		c-0.032,8.065-0.059,16.132-0.079,24.199c-0.001,0.627,0.055,1.254,0.083,1.882c-0.033,3.102-0.068,6.203-0.103,9.305
		c-0.011,0.95-0.007,1.901-0.046,2.85c-0.016,0.374-0.113,0.747-0.204,1.114c-0.079,0.32-0.468,0.464-0.749,0.26
		c-0.459-0.334-0.923-0.672-1.33-1.065c-1.365-1.321-2.72-2.653-4.055-4.007c-9.3-9.423-18.336-19.093-27.137-28.984
		c-0.404-0.453-0.682-1.08-1.373-1.221l0.002,0.049c0.059-0.322-0.035-0.494-0.396-0.4L135.312,131.35z M101.392,146.223
		c3.71,0.207,8.806,0.131,10.185-0.154c0.088-0.662-0.271-1.219-0.477-1.801c-1.469-4.17-2.965-8.332-4.451-12.496
		c-0.139-0.944-0.529-1.805-0.893-2.673c-0.043-0.103-0.168-0.2-0.277-0.237c-0.222-0.075-0.324,0.113-0.4,0.269
		c-0.112,0.225-0.207,0.46-0.284,0.698c-1.68,5.16-3.357,10.32-5.026,15.483c-0.088,0.271-0.328,0.558,0.023,0.935
		C100.279,146.32,100.832,146.366,101.392,146.223z"/>
	<path fill-rule="evenodd" clip-rule="evenodd" fill="#602C2D" d="M29.479,105.961c-1.096-1.102-2.529-1.362-3.976-1.556
		c-0.688-0.092-1.39-0.075-2.081-0.136c-0.243-0.021-0.5-0.092-0.71-0.211c-0.138-0.08-0.271-0.284-0.28-0.439
		c-0.01-0.156,0.11-0.344,0.22-0.48c0.218-0.27,0.552-0.287,0.864-0.297c0.568-0.02,1.139-0.03,1.707-0.014
		c3.098,0.088,6.193,0.195,9.29,0.275c0.884,0.022,1.769-0.021,2.653-0.047c2.654-0.074,5.309-0.16,7.963-0.23
		c0.501-0.013,1.02-0.059,1.486,0.186c0.229,0.118,0.395,0.305,0.375,0.6c-0.019,0.29-0.193,0.479-0.441,0.538
		c-0.365,0.087-0.746,0.126-1.121,0.147c-0.884,0.051-1.771,0.051-2.652,0.126c-0.627,0.053-1.252,0.163-1.866,0.3
		c-1.423,0.317-2.292,1.221-2.753,2.594c-0.349,1.035-0.448,2.109-0.505,3.174c-0.093,1.764-0.056,3.536-0.073,5.305
		c-0.035,0.881-0.103,1.762-0.104,2.643c-0.012,13.957-0.016,27.914-0.016,41.871c0,0.629,0.051,1.258,0.078,1.887
		c-0.027,0.629-0.062,1.258-0.08,1.889c-0.131,4.289-0.393,8.564-1.051,12.812c-1.188,7.666-3.757,14.759-8.534,20.958
		c-0.183,0.237-0.462,0.449-0.304,0.818l-0.035-0.055c-0.52,0.051-0.684,0.525-0.961,0.844c-1.378,1.576-2.848,3.061-4.418,4.442
		c-1.291,1.136-2.719,2.068-4.273,2.803c-0.41,0.193-0.852,0.331-1.219-0.081c-0.295-0.332-0.129-0.875,0.387-1.303
		c0.242-0.201,0.509-0.375,0.77-0.553c5.922-4.022,9.697-9.51,11.34-16.486c0.727-3.09,1.158-6.221,1.448-9.373
		c0.441-4.798,0.53-9.611,0.528-14.426c-0.004-15.898-0.008-31.797-0.023-47.696c-0.002-1.963-0.043-3.927-0.121-5.889
		c-0.035-0.882-0.18-1.762-0.322-2.635c-0.146-0.892-0.493-1.699-1.197-2.312L29.479,105.961z"/>
	<path fill-rule="evenodd" clip-rule="evenodd" fill="#602C2D" d="M268.879,139.775c0.271,3.766-0.068,7.459-1.262,11.061
		c-3.17,9.558-11.513,15.74-21.585,16c-2.932,0.074-5.824-0.148-8.642-1.012c-6.691-2.049-11.287-6.425-13.805-12.877
		c-3.133-8.032-2.355-15.764,2.299-23.065c0.235-0.37,0.443-0.757,0.664-1.136l-0.016,0.012c0.479-0.233,0.696-0.715,1.021-1.09
		c4.148-4.781,9.424-7.279,15.695-7.712c3.615-0.249,7.184,0.03,10.661,1.149c4.126,1.328,7.643,3.557,10.394,6.938
		c0.197,0.243,0.418,0.466,0.629,0.698c0.268,0.488,0.52,0.986,0.807,1.465c1.269,2.116,2.154,4.379,2.625,6.803
		C268.544,137.93,268.707,138.854,268.879,139.775z M230.219,153.928c0.037,0.301,0.095,0.588,0.388,0.756
		c0.214,0.736,0.579,1.379,1.167,1.883l-0.028-0.021c-0.005,0.137,0.048,0.242,0.161,0.318c0.27,0.643,0.696,1.158,1.26,1.565
		c3.736,4.302,8.497,6.308,14.143,6.071c5.345-0.225,9.588-2.574,12.566-7.072c0.879-1.328,1.558-2.764,2.002-4.29
		c1.801-6.187,1.816-12.372-0.176-18.519c-0.828-2.555-2.137-4.866-3.936-6.881c-0.244-0.273-0.441-0.634-0.89-0.625l-0.026-0.002
		c-0.057-0.149-0.113-0.299-0.17-0.448c-0.238-0.454-0.626-0.743-1.072-0.966c-0.368-0.359-0.724-0.736-1.264-0.836
		c-0.279-0.42-0.674-0.656-1.17-0.73c-0.26-0.398-0.707-0.516-1.1-0.693c-4.418-1.992-8.926-2.047-13.474-0.519
		c-3.757,1.262-6.567,3.688-8.509,7.132c-0.717,1.27-1.277,2.609-1.662,4.014c-1.328,4.855-1.306,9.733-0.193,14.62
		c0.266,1.167,0.546,2.335,1.109,3.407c0.128,0.371,0.148,0.793,0.503,1.057C229.875,153.454,229.93,153.747,230.219,153.928z"/>
	<path fill-rule="evenodd" clip-rule="evenodd" fill="#602C2D" d="M59.913,161.543c1.754,1.975,3.969,3.029,6.564,3.428
		c2.961,0.455,5.786,0.143,8.493-1.174c2.544-1.236,4.404-3.117,5.566-5.71c1.129-2.52,1.546-5.192,1.796-7.907
		c0.063-0.691,0.083-1.389,0.082-2.084c-0.001-7.27-0.001-14.54-0.03-21.811c-0.004-1,0.088-2.031-0.375-2.982
		c0.084-0.493-0.128-0.828-0.564-1.041c-0.244-0.319-0.496-0.622-0.966-0.416l0.05,0.002c-0.617-0.668-1.465-0.584-2.254-0.691
		c-0.36-0.049-0.775,0.062-1.014-0.342c-0.135-0.23,0.381-0.495,1.043-0.496c3.8-0.005,7.6-0.003,11.398,0.005
		c0.248,0,0.503,0.048,0.741,0.117c0.081,0.024,0.171,0.179,0.173,0.277c0.004,0.104-0.074,0.288-0.146,0.304
		c-0.552,0.125-1.108,0.227-1.667,0.317c-1.317,0.213-1.973,1.069-2.177,2.304c-0.112,0.684-0.149,1.387-0.157,2.082
		c-0.052,4.622-0.089,9.245-0.125,13.868c-0.024,3.229,0.069,6.46-0.145,9.688c-0.146,2.219-0.506,4.399-1.14,6.532
		c-1.882,6.335-6.259,9.987-12.571,11.314c-4.835,1.018-9.574,0.511-14.046-1.762c-0.212-0.107-0.475-0.115-0.714-0.168l0.013,0.008
		c-0.028-0.294-0.271-0.411-0.472-0.547c-3.56-2.4-5.54-5.83-6.456-9.939c-0.554-2.482-0.768-5.002-0.762-7.546
		c0.013-5.576,0.007-11.151,0.001-16.728c-0.001-1.584-0.004-3.169-0.053-4.752c-0.021-0.691-0.132-1.384-0.245-2.068
		c-0.198-1.201-0.945-1.902-2.11-2.157c-0.617-0.136-1.246-0.214-1.869-0.317c-0.246-0.041-0.5-0.06-0.735-0.134
		c-0.081-0.025-0.161-0.19-0.161-0.292c0-0.096,0.091-0.258,0.168-0.275c0.304-0.068,0.618-0.127,0.929-0.128
		c4.245-0.009,8.489-0.006,12.734-0.005c0.126,0,0.256-0.008,0.379,0.015c0.234,0.042,0.534,0.003,0.586,0.342
		c0.052,0.345-0.22,0.407-0.46,0.456c-0.372,0.074-0.754,0.104-1.124,0.184c-1.728,0.376-2.163,0.859-2.419,2.666
		c-0.045,0.314-0.09,0.629-0.111,0.944c-0.092,1.39-0.176,2.781-0.049,4.175c-0.033,0.25-0.096,0.499-0.096,0.749
		c-0.004,6.082-0.025,12.164,0.016,18.245c0.011,1.516,0.166,3.039,0.371,4.542c0.248,1.819,0.658,3.614,1.457,5.289
		C57.916,159.293,58.627,160.631,59.913,161.543z"/>
	<path fill-rule="evenodd" clip-rule="evenodd" fill="#602C2D" d="M203.537,123.123c-0.025-0.269-0.136-0.523-0.395-0.59
		c-0.301-0.076-0.627-0.08-0.941-0.074c-3.168,0.049-6.335,0.094-9.502,0.173c-0.69,0.017-1.381,0.147-2.065,0.261
		c-1.272,0.21-2.202,0.922-2.827,2.035c-0.341,0.605-0.637,1.236-0.99,1.834c-0.068,0.115-0.346,0.217-0.462,0.169
		c-0.134-0.055-0.27-0.284-0.271-0.438c-0.003-0.377,0.039-0.761,0.12-1.129c0.379-1.732,0.77-3.46,1.173-5.186
		c0.071-0.305,0.217-0.592,0.338-0.884c0.111-0.271,0.369-0.414,0.609-0.335c3.503,1.153,7.127,0.96,10.729,0.971
		c6.273,0.018,12.547-0.01,18.82,0.012c2.162,0.008,4.303-0.148,6.43-0.521c0.904-0.158,1.086-0.042,1.081,0.777
		c-0.015,2.154-0.061,4.309-0.11,6.463c-0.006,0.244-0.096,0.494-0.19,0.723c-0.036,0.086-0.2,0.164-0.304,0.161
		c-0.106-0.003-0.238-0.087-0.309-0.175c-0.258-0.32-0.206-0.721-0.227-1.094c-0.078-1.438-0.875-2.33-2.152-2.851
		c-1.063-0.433-2.18-0.702-3.321-0.742c-2.976-0.104-5.953-0.165-8.93-0.216c-0.905-0.016-1.032,0.156-1.064,1.144
		c-0.015,0.443-0.005,0.888-0.005,1.331c0,9.506-0.018,19.011,0.012,28.516c0.008,2.597,0.137,5.193,0.252,7.788
		c0.033,0.754,0.181,1.507,0.32,2.251c0.228,1.213,1.031,1.855,2.204,2.043c0.687,0.11,1.388,0.123,2.08,0.207
		c0.308,0.038,0.61,0.139,0.911,0.227c0.041,0.012,0.084,0.11,0.079,0.164c-0.011,0.111-0.022,0.25-0.091,0.324
		c-0.233,0.255-0.56,0.269-0.876,0.263c-1.647-0.029-3.298-0.013-4.94-0.114c-1.711-0.107-3.412-0.119-5.124,0.01
		c-1.261,0.096-2.53,0.062-3.798,0.074c-0.269,0.002-0.529-0.137-0.586-0.394c-0.063-0.294,0.194-0.418,0.451-0.476
		c0.186-0.041,0.373-0.074,0.561-0.103c0.25-0.038,0.501-0.079,0.754-0.102c1.024-0.091,1.606-0.719,1.86-1.644
		c0.269-0.975,0.462-1.971,0.491-2.993c0.071-2.533,0.227-5.065,0.235-7.599c0.028-9.315,0.013-18.631,0.009-27.945
		c0-0.443-0.034-0.886-0.053-1.327C203.684,123.785,203.689,123.455,203.537,123.123z"/>
	<path fill-rule="evenodd" clip-rule="evenodd" fill="#F4D374" d="M150.852,175.07c2.902,0.648,5.799,1.316,8.707,1.938
		c5.136,1.099,10.268,2.217,15.418,3.24c6.095,1.211,12.24,2.054,18.469,2.062c1.581,0.002,3.162-0.152,5.007-0.249
		c-1.95,0.711-3.737,0.901-5.524,1.003c-4.954,0.282-9.871-0.113-14.762-0.91c-7.814-1.273-15.499-3.16-23.209-4.923
		c-7.097-1.623-14.211-3.159-21.401-4.302c-4.939-0.785-9.906-1.352-14.899-1.727c-4.557-0.342-9.111-0.35-13.672-0.299
		c-4.502,0.051-8.969,0.533-13.437,1.047c-4.847,0.559-9.651,1.35-14.411,2.409c-6.881,1.532-13.561,3.655-19.887,6.812
		c-3.871,1.932-7.448,4.314-10.889,6.919c-0.807,0.611-1.648,1.177-2.48,1.755c-0.527,0.367-1.121,0.607-1.746,0.719
		c-1.334,0.236-2.236-0.828-1.783-2.091c0.282-0.786,0.764-1.454,1.327-2.064c1.081-1.171,2.333-2.136,3.649-3.024
		c3.809-2.566,7.981-4.385,12.271-5.959c3.271-1.201,6.621-2.143,9.994-3.008c0.612-0.158,1.221-0.331,1.831-0.497
		c0.312-0.035,0.628-0.044,0.933-0.109c4.322-0.935,8.674-1.675,13.068-2.19c2.76-0.322,5.525-0.56,8.291-0.807
		c3.843-0.343,7.697-0.318,11.542-0.564c2.952-0.188,5.925-0.031,8.878-0.329c0.014,0.362,0.21,0.59,0.561,0.592
		c1.168,0.008,2.338-0.003,3.505-0.036c0.154-0.005,0.304-0.187,0.454-0.285c1.877,0.135,3.752,0.27,5.629,0.404
		c0.465,0.454,1.029,0.322,1.58,0.267c2.006,0.161,4.01,0.321,6.015,0.483c0.471,0.457,1.042,0.338,1.603,0.278
		c1.672,0.169,3.344,0.327,5.014,0.519c0.224,0.025,0.43,0.214,0.644,0.327c0.958,0.473,2.036,0.374,3.05,0.646
		c1.92,0.513,3.91,0.762,5.873,1.113C147.658,174.514,149.255,174.791,150.852,175.07z"/>
	<path fill-rule="evenodd" clip-rule="evenodd" fill="#602C2D" d="M180.791,133.002c-0.648-0.574-1.453-0.717-2.272-0.827
		c-0.304-0.041-0.645,0.038-0.89-0.21c-0.07-0.072-0.082-0.212-0.1-0.323c-0.008-0.05,0.019-0.136,0.057-0.156
		c0.108-0.06,0.229-0.127,0.348-0.133c0.504-0.024,1.01-0.05,1.514-0.036c3.346,0.097,6.692,0.098,10.039,0.004
		c0.561-0.017,1.127,0.06,1.688,0.119c0.07,0.008,0.172,0.173,0.176,0.269c0.005,0.103-0.072,0.284-0.144,0.302
		c-0.488,0.113-0.988,0.176-1.478,0.285c-1.643,0.365-2.242,0.997-2.386,2.705c-0.11,1.317-0.097,2.645-0.138,3.968
		c-0.264,0.669-0.166,1.372-0.17,2.059c-0.02,4.731-0.051,9.462-0.007,14.192c0.021,2.269,0.179,4.537,0.313,6.803
		c0.037,0.621,0.183,1.245,0.345,1.85c0.167,0.621,0.481,1.162,1.182,1.334c0.671,0.445,1.452,0.385,2.2,0.479
		c0.561,0.07,1.148,0.001,1.67,0.278c0.09,0.047,0.186,0.201,0.176,0.293c-0.014,0.104-0.129,0.215-0.226,0.287
		c-0.331,0.246-0.726,0.189-1.099,0.182c-1.645-0.033-3.292-0.035-4.934-0.139c-1.457-0.092-2.904-0.102-4.359,0.017
		c-1.135,0.092-2.277,0.091-3.416,0.124c-0.252,0.006-0.508-0.002-0.756-0.039c-0.262-0.039-0.494-0.198-0.478-0.469
		c0.008-0.131,0.226-0.322,0.378-0.357c0.492-0.117,0.996-0.178,1.497-0.251c0.84-0.123,1.378-0.62,1.642-1.396
		c0.285-0.84,0.475-1.703,0.505-2.6c0.073-2.15,0.231-4.299,0.237-6.449c0.016-5.697-0.021-11.395-0.058-17.091
		c-0.008-1.263-0.011-2.533-0.3-3.774C181.498,133.751,181.287,133.293,180.791,133.002z"/>
	<path fill-rule="evenodd" clip-rule="evenodd" fill="#602C2D" d="M122.71,85.256c3.05,0.457,5.628,1.865,7.788,4.012
		c1.973,1.959,3.883,3.985,5.769,6.03c3.772,4.091,7.507,8.218,11.263,12.323c0.407,0.445,0.771,0.953,1.279,1.244
		c0.406-0.316,0.31-0.645,0.303-0.94c-0.1-4.931-0.195-9.862-0.316-14.793c-0.019-0.755-0.107-1.515-0.247-2.257
		c-0.142-0.759-0.511-1.01-1.349-1.03c-0.162-0.003-0.329,0.133-0.488,0.216c-0.02,0.009-0.018,0.118-0.002,0.125
		c0.164,0.07,0.333,0.182,0.499,0.18c0.249-0.004,0.505-0.106,0.589-0.377c0.111-0.357-0.191-0.396-0.418-0.459
		c-0.426-0.119-0.855-0.219-1.273-0.322c-0.008-0.226,0.021-0.375,0.275-0.372c2.148,0.022,4.295,0.04,6.441,0.058
		c-0.281,0.143-0.547,0.319-0.839,0.426c-0.822,0.297-1.167,0.908-1.214,1.738c-0.014,0.252-0.043,0.504-0.049,0.756
		c-0.038,1.642-0.094,3.282-0.104,4.924c-0.037,5.684-0.057,11.367-0.083,17.051c-0.252,0.14-0.491,0.093-0.691-0.088
		c-0.47-0.423-0.94-0.848-1.389-1.293c-5.038-4.993-9.854-10.195-14.573-15.49c-0.419-0.47-0.861-0.924-1.331-1.343
		c-0.237-0.211-0.459-0.032-0.6,0.205c-0.203,0.343-0.194,0.727-0.192,1.106c0.02,2.404-0.085,4.82,0.096,7.214
		c0.191,2.528,0.242,5.048,0.203,7.577c-0.014,0.925,0.314,1.251,1.358,1.493c0.354,0.083,1.002-0.026,0.991,0.313
		c-0.02,0.673-0.682,0.333-1.048,0.34c-1.835,0.035-3.671,0.015-5.508,0.002c-0.242-0.002-0.485-0.064-0.726-0.115
		c-0.025-0.005-0.041-0.117-0.037-0.178c0.003-0.049,0.033-0.127,0.069-0.139c0.235-0.074,0.475-0.145,0.716-0.197
		c1.409-0.306,1.668-0.564,1.732-2.028c0.061-1.391,0.055-2.784,0.062-4.177c0.019-3.925-0.016-7.851,0.056-11.775
		c0.046-2.561-0.92-4.671-2.543-6.557c-0.18-0.209-0.388-0.303-0.659-0.226c0,0.001-0.026,0.028-0.026,0.028
		c0.021-0.301-0.079-0.552-0.303-0.754c-0.166-0.172-0.313-0.373-0.506-0.514c-0.898-0.652-1.868-1.173-2.933-1.514
		C122.512,85.602,122.606,85.41,122.71,85.256z M131.332,97.705c0.031,0,0.062,0,0.093,0c0,0.314-0.013,0.63,0.003,0.943
		c0.037,0.812,0.082,1.623,0.143,2.433c0.004,0.06,0.156,0.122,0.248,0.153c0.031,0.01,0.117-0.065,0.137-0.117
		c0.088-0.229,0.221-0.461,0.229-0.695c0.052-1.51,0.083-3.021,0.099-4.531c0.003-0.242-0.059-0.508-0.169-0.724
		c-0.106-0.207-0.319-0.514-0.474-0.507c-0.258,0.01-0.311,0.329-0.311,0.592C131.334,96.07,131.332,96.888,131.332,97.705z"/>
	<path fill-rule="evenodd" clip-rule="evenodd" fill="#602C2D" d="M79.766,113.843c0.055-0.202,0.199-0.333,0.393-0.34
		c1.317-0.05,1.672-0.944,1.786-2.032c0.06-0.566,0.083-1.139,0.085-1.707c0.012-5.951,0.018-11.904,0.023-17.855
		c0-0.316-0.016-0.633-0.029-0.949c-0.041-1-0.486-1.655-1.51-1.906c-0.334-0.081-0.748-0.029-0.996-0.357
		c-0.025-0.307,0.213-0.271,0.372-0.272c3.735-0.007,7.471-0.001,11.206-0.01c1.465-0.004,2.908,0.199,4.33,0.508
		c3.012,0.653,5.521,2.146,7.389,4.642c-0.027,0.125,0.022,0.204,0.151,0.236c0.021,0.114,0.078,0.207,0.171,0.277
		c0.541,1.384,1.084,2.768,1.625,4.15c0.008,1.928,0.015,3.855,0.021,5.782l0.01-0.022c-0.644,0.862-0.686,1.965-1.154,2.898
		c-0.072,0.143-0.002,0.357,0.002,0.538l0.008-0.019c-0.566,0.181-0.707,0.643-0.766,1.158l0.011-0.014
		c-0.356,0.143-0.536,0.376-0.396,0.773l0.018-0.021c-0.342-0.074-0.402,0.127-0.393,0.397l0.016-0.014
		c-0.281-0.015-0.382,0.147-0.394,0.398l0.017-0.016c-0.244,0.021-0.367,0.162-0.395,0.397l0.016-0.016
		c-0.236,0.026-0.369,0.159-0.396,0.396l0.016-0.016c-0.234,0.027-0.375,0.15-0.396,0.395l0.015-0.016
		c-0.249,0.014-0.408,0.116-0.396,0.393l0.013-0.015c-0.27-0.009-0.466,0.057-0.396,0.392l0.019-0.017
		c-0.392-0.131-0.627,0.044-0.771,0.396l0.013-0.009c-0.846,0.221-1.617,0.591-2.295,1.149l0.02-0.012
		c-0.441-0.031-0.885-0.066-1.16,0.392l0.022-0.011c-0.675-0.031-1.349-0.058-1.924,0.396l0.026-0.015
		c-2.18,0-4.359,0.001-6.539,0.002l-0.125,0.017c-0.65-0.312-1.356-0.301-2.048-0.321C83.307,113.895,81.537,113.875,79.766,113.843
		z M85.777,89.924l0.018-0.018c-0.336-0.033-0.665,0.018-0.72,0.404c-0.07,0.494-0.082,1-0.084,1.502
		c-0.015,3.775-0.044,7.551-0.019,11.326c0.017,2.577,0.112,5.154,0.173,7.732c-0.073,0.131-0.05,0.232,0.072,0.304
		c0.222,1.05,1.079,1.345,1.944,1.55c2.431,0.576,4.892,0.672,7.295-0.055c3.713-1.123,6.234-3.426,7.028-7.39
		c0.264-1.313,0.375-2.621,0.329-3.945c-0.118-3.368-1.311-6.258-3.885-8.511c-0.143-0.373-0.479-0.564-0.771-0.783
		c-2.006-1.497-4.295-2.193-6.768-2.363c-1.262-0.03-2.523-0.068-3.785-0.088C86.295,89.585,85.971,89.609,85.777,89.924z"/>
	<path fill-rule="evenodd" clip-rule="evenodd" fill="#F4D374" d="M26.387,201.291c0.062-0.609,0.576-0.919,0.902-1.352
		c0.303-0.402,0.596-0.802,0.244-1.322l0.035,0.055c0.179,0.018,0.416,0.119,0.525,0.04c0.303-0.216,0.591-0.477,0.818-0.771
		c3.721-4.825,6.162-10.245,7.463-16.187c1.016-4.633,1.51-9.324,1.551-14.066c0.005-0.503,0.016-1.013,0.097-1.508
		c0.218-1.319,0.188-2.639,0.08-3.962c0.041-0.817,0.116-1.636,0.117-2.453c0.009-13.265,0.009-26.53,0.009-39.795
		c0-1.389-0.02-2.777-0.029-4.166c0.17-1.888-0.012-3.804,0.429-5.672c0.072-0.307,0.078-0.629,0.153-0.935
		c0.628-2.529,1.777-3.49,4.379-3.652c0.821-0.051,1.635-0.115,2.448-0.271c0.74-0.141,1.51-0.179,2.263,0
		c0.393,0.094,0.707,0.48,0.65,0.818c-0.061,0.357-0.322,0.533-0.661,0.564c-1.511,0.141-3.019,0.338-4.532,0.381
		c-1.459,0.043-2.413,0.68-2.875,2.029c-0.266,0.773-0.533,1.57-0.625,2.376c-0.199,1.758-0.371,3.526-0.403,5.294
		c-0.085,4.749,0.02,9.504-0.146,14.25c-0.442,12.662-0.036,25.326-0.251,37.988c-0.082,4.822-0.645,9.584-1.889,14.251
		c-1.383,5.189-3.512,10.028-6.846,14.28c-0.818,1.045-1.699,2.042-2.575,3.041c-0.329,0.375-0.671,0.771-1.212,0.867
		C26.506,201.413,26.387,201.291,26.387,201.291z"/>
	<path fill-rule="evenodd" clip-rule="evenodd" fill="#602C2D" d="M112.129,105.938c-2.118-1.461-3.486-3.406-4.044-5.952
		c-1.358-6.206,3.632-11.781,9.938-11.074c2.846,0.319,5.191,1.495,6.865,3.874c-0.043,0.121,0,0.202,0.127,0.24
		c0.021,0.128,0.076,0.238,0.167,0.329c0.709,1.767,0.933,3.617,0.928,5.505c-0.304,0.672-0.479,1.367-0.407,2.111l0.012-0.031
		c-0.521,0.383-0.654,0.961-0.77,1.547l0.016-0.023c-0.316,0.166-0.459,0.421-0.398,0.779l0.012-0.02
		c-0.867,0.66-1.599,1.455-2.289,2.291l0.017-0.01c-1.272,0.512-2.546,1.023-3.818,1.535l0.028-0.016
		c-1.058-0.004-2.115-0.008-3.174-0.012C114.268,106.654,113.198,106.295,112.129,105.938z M110.452,97.35
		c0.024,0.447,0.02,1.021,0.091,1.584c0.238,1.867,0.932,3.541,2.258,4.904c3.165,3.253,8.924,2.433,10.314-2.444
		c0.641-2.249,0.617-4.505-0.114-6.725c-0.51-1.548-1.475-2.775-2.861-3.666c-3.27-2.099-8.082-0.792-9.28,3.233
		C110.563,95.229,110.501,96.219,110.452,97.35z"/>
	<path fill-rule="evenodd" clip-rule="evenodd" fill="#602C2D" d="M275.324,215.104c-4.739,0.006-8.317-3.683-8.124-8.357
		c0.133-3.213,2.272-6.018,5.454-7.051c2.696-0.875,5.261-0.547,7.586,1.111c2.719,1.941,3.849,5.324,2.928,8.594
		c-0.885,3.147-3.795,5.49-7.084,5.7C275.832,215.117,275.578,215.104,275.324,215.104z M275.316,200.879
		c-1.969-0.016-3.55,0.783-4.751,2.317c-1.682,2.147-1.828,5.155-0.353,7.452c1.31,2.037,3.236,2.988,5.621,2.834
		c2.42-0.157,4.094-1.481,5.085-3.68c0.509-1.129,0.542-2.318,0.434-3.527C281.129,203.794,278.959,200.805,275.316,200.879z"/>
	<path fill-rule="evenodd" clip-rule="evenodd" fill="#F4D374" d="M267.968,132.905c0.491,0.146,0.638,0.585,0.804,0.987
		c0.658,1.582,1.113,3.225,1.445,4.904c0.473,2.381,0.564,4.796,0.357,7.188c-0.773,8.943-4.794,15.885-12.889,20.146
		c-2.303,1.212-4.788,1.889-7.401,2.244c-4.549,0.62-8.951,0.161-13.278-1.26c-0.837-0.275-1.633-0.678-2.439-1.037
		c-0.09-0.039-0.131-0.189-0.195-0.29c0.315-0.214,0.6-0.049,0.891,0.066c4.34,1.721,8.896,2.118,13.448,1.607
		c7.778-0.872,13.802-4.694,17.696-11.59c2.157-3.821,3.241-7.948,3.156-12.356c-0.024-1.266-0.068-2.531-0.103-3.797
		c-0.014-1.556-0.45-3.029-0.876-4.506C268.363,134.447,267.945,133.734,267.968,132.905z"/>
	<path fill-rule="evenodd" clip-rule="evenodd" fill="#F4D374" d="M61.792,167.568c0.86,0.147,1.72,0.303,2.581,0.441
		c4.275,0.69,8.469,0.453,12.459-1.348c2.871-1.295,5.359-3.113,7.102-5.818c1.151-1.787,1.787-3.78,2.223-5.826
		c0.543-2.541,0.715-5.141,0.74-7.73c0.067-6.844,0.039-13.688,0.062-20.533c0.004-0.882-0.022-1.766,0.24-2.639
		c0.459-1.522,1.115-2.088,2.695-2.168c0.506-0.025,1.014-0.021,1.52-0.002c0.546,0.021,0.887,0.272,0.814,0.574
		c-0.092,0.381-0.406,0.445-0.732,0.457c-0.506,0.02-1.016-0.002-1.52,0.041c-1.062,0.088-1.404,0.406-1.727,1.45
		c-0.191,0.62-0.184,1.252-0.188,1.884c-0.027,4.499-0.049,8.998-0.066,13.498c-0.008,2.154,0.021,4.31-0.007,6.464
		c-0.036,2.722-0.198,5.438-0.701,8.118c-0.507,2.693-1.317,5.278-2.907,7.564c-0.915,1.315-2.021,2.428-3.35,3.324
		c-4.375,2.954-9.223,4.084-14.441,3.639c-1.314-0.111-2.61-0.464-3.905-0.747c-0.337-0.073-0.64-0.304-0.957-0.462
		C61.749,167.689,61.771,167.629,61.792,167.568z"/>
	<path fill-rule="evenodd" clip-rule="evenodd" fill="#F4D374" d="M56.096,129.124c0.027-1.077,0.059-2.153,0.08-3.229
		c0.02-0.899,0.227-1.756,0.584-2.575c0.271-0.62,0.717-1.056,1.432-1.086c0.93-0.039,1.861-0.503,2.796-0.003
		c0.183,0.098,0.292,0.219,0.284,0.427c-0.01,0.249-0.217,0.315-0.393,0.329c-0.567,0.045-1.141,0.026-1.706,0.084
		c-0.886,0.09-1.406,0.551-1.513,1.426c-0.152,1.255-0.322,2.518-0.328,3.777c-0.035,7.224-0.081,14.447,0,21.67
		c0.033,2.969,0.332,5.942,1.678,8.689c0.133,0.27,0.116,0.611,0.169,0.92c-1.276-1.16-1.81-2.73-2.22-4.311
		c-0.523-2.016-0.808-4.084-0.808-6.18c0-5.381-0.001-10.762-0.009-16.143C56.141,131.654,56.112,130.389,56.096,129.124z"/>
	<path fill-rule="evenodd" clip-rule="evenodd" fill="#F4D374" d="M210.936,164.467c-0.426-0.087-0.664-0.389-0.734-0.775
		c-0.182-0.994-0.424-1.974-0.417-3.001c0.015-2.28-0.038-4.56-0.038-6.839c-0.002-9.563,0.008-19.127,0.006-28.689
		c-0.001-2.227-0.055-2.12,2.051-2.059c2.592,0.076,5.182,0.199,7.771,0.314c0.963,0.043,1.867,0.318,2.709,0.786
		c0.164,0.091,0.334,0.233,0.279,0.446c-0.053,0.211-0.258,0.25-0.436,0.199c-3.472-1.008-7.037-0.592-10.566-0.695
		c-0.805-0.023-0.943,0.176-0.984,1.034c-0.016,0.316-0.008,0.634-0.008,0.95c0.005,10.766,0.027,21.533-0.004,32.299
		c-0.006,1.719,0.306,3.4,0.351,5.106c0.008,0.315-0.003,0.632-0.004,0.947L210.936,164.467z"/>
	<path fill-rule="evenodd" clip-rule="evenodd" fill="#F4D374" d="M108.329,121.518c-0.007-0.245-0.09-0.55,0.186-0.671
		c0.256-0.112,0.497,0.058,0.614,0.294c0.334,0.678,0.685,1.352,0.957,2.055c2.731,7.06,5.438,14.129,8.174,21.188
		c2.098,5.411,4.231,10.809,6.336,16.217c0.295,0.758,0.824,1.434,0.832,2.297c-0.001,0-0.092,0.074-0.092,0.074
		c-0.381-0.139-0.579-0.453-0.771-0.783c-0.188-0.322-0.359-0.67-0.794-0.727l0.021,0.026c0.107-0.674-0.264-1.23-0.51-1.79
		c-0.811-1.85-1.513-3.738-2.235-5.623c-3.633-9.475-7.278-18.943-10.979-28.392C109.52,124.286,109.221,122.774,108.329,121.518z"
		/>
	<path fill-rule="evenodd" clip-rule="evenodd" fill="#F4D374" d="M171.316,125.685c0.037-0.827,0.207-1.632,0.502-2.402
		c0.32-0.843,0.951-1.319,1.86-1.388c0.315-0.024,0.644-0.07,0.946-0.007c0.608,0.127,1.383-0.372,1.811,0.46
		c-0.482,0.611-1.156,0.295-1.745,0.341c-1.476,0.115-1.976,0.565-2.202,2.07c-0.207,1.376-0.305,2.755-0.305,4.151
		c0.002,12.08-0.022,24.159-0.041,36.239c0,0.759,0.004,1.519-0.037,2.276c-0.016,0.305-0.111,0.621-0.241,0.898
		c-0.114,0.242-0.366,0.324-0.64,0.225c-0.258-0.094-0.51-0.322-0.428-0.543c0.934-2.525,0.41-5.142,0.492-7.715
		c0.072-2.271-0.025-4.549-0.047-6.824c0.035-0.69,0.097-1.381,0.098-2.072c0.016-6.995,0.023-13.99,0.025-20.986
		C171.366,128.834,171.334,127.26,171.316,125.685z"/>
	<path fill-rule="evenodd" clip-rule="evenodd" fill="#F9D1E2" d="M38.199,115.804c0.01,1.389,0.029,2.777,0.029,4.166
		c0,13.265,0,26.53-0.009,39.795c-0.001,0.817-0.076,1.636-0.116,2.454c-0.188-0.008-0.377-0.016-0.566-0.023
		c-0.027-0.629-0.078-1.258-0.078-1.887c0-13.957,0.004-27.914,0.016-41.871c0.001-0.881,0.068-1.762,0.104-2.643
		C37.785,115.798,37.992,115.801,38.199,115.804z"/>
	<path fill-rule="evenodd" clip-rule="evenodd" fill="#F4D374" d="M135.656,131.703c-0.231,0.549-0.14,1.125-0.133,1.69
		c0.037,3.231-0.053,6.47,0.164,9.689c0.291,4.365,0.17,8.735,0.387,13.096c0.094,1.894,0.182,3.79,0.29,5.685
		c0.028,0.499,0.175,0.992,0.271,1.486c0.055,0.293,0.161,0.587-0.031,0.862c-0.418-0.052-0.543-0.354-0.666-0.642
		c-0.407-0.938-0.63-1.918-0.661-2.943c-0.126-4.111-0.264-8.223-0.388-12.334c-0.031-1.077,0.006-2.156-0.047-3.23
		c-0.184-3.793-0.375-7.586-0.357-11.385c0.002-0.507,0.01-1.014-0.01-1.521c-0.025-0.6,0.407-0.695,0.838-0.807
		c0-0.001-0.051,0.001-0.051,0.001c-0.012,0.276,0.094,0.438,0.396,0.4L135.656,131.703z"/>
	<path fill-rule="evenodd" clip-rule="evenodd" fill="#F4D374" d="M87.125,114.267l0.125-0.017c0.217,0.115,0.43,0.327,0.647,0.331
		c1.753,0.03,3.507,0.033,5.261,0.009c0.211-0.004,0.42-0.223,0.631-0.342l-0.026,0.015c0.376-0.001,0.751,0.003,1.128-0.003
		c0.326-0.004,0.615-0.09,0.796-0.393l-0.022,0.011c0.428-0.007,0.904,0.128,1.16-0.392l-0.02,0.012
		c0.979,0.043,1.795-0.24,2.295-1.149l-0.013,0.009c0.342,0.033,0.644-0.013,0.771-0.396l-0.019,0.017
		c0.225-0.037,0.365-0.158,0.396-0.392l-0.013,0.015c0.228-0.035,0.368-0.157,0.396-0.393l-0.015,0.016
		c0.229-0.035,0.363-0.164,0.396-0.395l-0.016,0.016c0.23-0.033,0.363-0.166,0.396-0.396l-0.016,0.016
		c0.23-0.034,0.357-0.171,0.395-0.397l-0.017,0.016c0.233-0.031,0.358-0.171,0.394-0.398l-0.016,0.014
		c0.23-0.033,0.354-0.174,0.393-0.397l-0.018,0.021c0.381-0.131,0.429-0.432,0.396-0.773l-0.011,0.014
		c0.586-0.168,0.792-0.586,0.766-1.158c0,0-0.008,0.019-0.008,0.018c0.926-0.963,1.203-2.145,1.152-3.436l-0.01,0.022
		c0.213-0.155,0.367-0.358,0.368-0.623c0.003-1.509,0.009-3.019-0.028-4.526c-0.005-0.215-0.234-0.422-0.361-0.633
		c-0.541-1.383-1.084-2.767-1.625-4.15c0.381-0.192,0.588,0.06,0.758,0.326c1.1,1.732,1.781,3.633,1.988,5.662
		c0.299,2.949-0.184,5.773-1.586,8.426c-1.975,3.736-5.1,5.824-9.205,6.522c-2.123,0.36-4.239,0.381-6.398,0.132
		c-1.996-0.231-4.033-0.111-6.052-0.143c-0.505-0.008-1.011,0.008-1.514-0.02c-0.404-0.023-0.477-0.34-0.503-0.671
		C82.791,114.296,84.957,114.281,87.125,114.267z"/>
	<path fill-rule="evenodd" clip-rule="evenodd" fill="#F4D374" d="M187.682,139.035c0.018-0.696,0.035-1.392,0.053-2.088
		c0.004-0.126,0.004-0.253,0.01-0.379c0.128-2.789,1.129-3.697,3.947-3.574c0.25,0.01,0.505,0.037,0.748,0.096
		c0.252,0.059,0.493,0.21,0.5,0.484c0.008,0.292-0.226,0.423-0.504,0.434c-0.506,0.02-1.014,0.01-1.518,0.048
		c-1.131,0.087-1.854,0.755-2.028,1.882c-0.058,0.374-0.063,0.758-0.069,1.137c-0.074,4.994-0.393,9.984-0.291,14.982
		c0.045,2.215,0.01,4.431-0.011,6.646c-0.017,1.84,0.058,3.663,0.636,5.434c0.084,0.26-0.015,0.49-0.32,0.568
		c-0.797-1.257-1.134-2.628-1.121-4.121c0.027-3.15,0.006-6.301,0-9.452C187.704,147.1,187.691,143.067,187.682,139.035z"/>
	<path fill-rule="evenodd" clip-rule="evenodd" fill="#F9D1E2" d="M108.329,121.518c0.892,1.257,1.19,2.769,1.737,4.165
		c3.701,9.448,7.347,18.917,10.979,28.392c0.723,1.885,1.425,3.773,2.235,5.623c0.246,0.56,0.617,1.116,0.51,1.79
		c-0.319,0.179-0.452-0.067-0.55-0.278c-0.476-1.031-0.976-2.055-1.389-3.11c-2.529-6.465-5.048-12.935-7.55-19.411
		c-1.979-5.121-3.932-10.254-5.883-15.387c-0.223-0.583-0.57-1.133-0.561-1.79C108.016,121.514,108.172,121.516,108.329,121.518z"/>
	<path fill-rule="evenodd" clip-rule="evenodd" fill="#F4D374" d="M150.534,113.787c0.026-5.684,0.046-11.367,0.083-17.051
		c0.01-1.642,0.065-3.282,0.104-4.924c0.006-0.252,0.035-0.504,0.049-0.756c0.047-0.83,0.392-1.441,1.214-1.738
		c0.292-0.106,0.558-0.283,0.839-0.426c0.291,0.371,0.579,0.742,0.854,1.094c-0.043,0.098-0.053,0.183-0.091,0.199
		c-0.507,0.213-1.145,0.133-1.493,0.695c-0.344,0.553-0.467,1.156-0.467,1.802c0,3.214-0.012,6.427-0.018,9.642
		c-0.006,3.592-0.004,7.184-0.016,10.775c-0.002,0.5-0.049,1.002-0.105,1.5c-0.01,0.085-0.17,0.207-0.268,0.213
		c-0.097,0.007-0.245-0.088-0.296-0.18C150.773,114.361,150.661,114.07,150.534,113.787z"/>
	<path fill-rule="evenodd" clip-rule="evenodd" fill="#602C2D" d="M112.137,169.921c-2.953,0.298-5.926,0.141-8.878,0.329
		c-3.845,0.246-7.699,0.222-11.542,0.564c-2.766,0.247-5.531,0.484-8.291,0.807c-4.395,0.516-8.746,1.256-13.068,2.19
		c-0.305,0.065-0.621,0.074-0.933,0.109c-0.325-0.397-0.798-0.281-1.218-0.349c0.85-0.475,1.818-0.495,2.735-0.673
		c5.274-1.022,10.601-1.713,15.944-2.235c7.555-0.738,15.129-1.084,22.721-0.756c0.945,0.041,1.889,0.146,2.834,0.209
		c0.189,0.013,0.367-0.046,0.385-0.289C112.609,169.865,112.373,169.893,112.137,169.921z"/>
	<path fill-rule="evenodd" clip-rule="evenodd" fill="#F4D374" d="M112.404,150.012c-3.415,0-6.829-0.002-10.243,0
		c-0.442,0-0.885,0.008-1.327,0.02c-0.496,0.015-0.816,0.271-1.004,0.726c-0.408,0.993-0.829,1.98-1.241,2.972
		c-1.619,3.894-3.966,7.32-6.76,10.45c-0.478,0.535-0.916,1.261-1.846,1.073c0.058-0.463,0.444-0.695,0.714-1.008
		c0.238-0.275,0.477-0.547,0.395-0.954l-0.016,0.024c0.262-0.008,0.389-0.15,0.4-0.404l-0.031,0.033
		c0.428-0.101,0.528-0.377,0.416-0.77l-0.006,0.004c0.119,0.006,0.273,0.062,0.351,0.008c0.812-0.572,1.435-1.279,1.544-2.323
		c0,0-0.024,0.033-0.024,0.032c0.356-0.025,0.554-0.271,0.72-0.543c1.053-1.721,2.142-3.422,2.9-5.307
		c0.52-1.287,1.129-2.539,1.61-3.84c0.264-0.711,0.674-0.955,1.399-0.95c3.664,0.021,7.328,0.011,10.992,0.013
		c0.189,0,0.383,0.002,0.566,0.041C112.285,149.387,112.385,149.676,112.404,150.012z"/>
	<path fill-rule="evenodd" clip-rule="evenodd" fill="#5E2828" d="M81.459,206.651c-1.525,0.802-3.33,0.616-5.116-0.272
		c-0.339-0.169-0.699-0.301-1.018-0.502c-0.99-0.622-1.996-0.887-3.214-0.718c-2.889,0.399-4.658-2.636-3.583-5.292
		c0.943-2.328,3.646-2.727,5.435-1.854c1.802,0.878,2.449,3.148,1.443,5.059c-0.258,0.491-0.611,0.932-0.995,1.506
		C76.778,205.955,79.094,207.123,81.459,206.651z M74.879,201.811c-0.008-1.328-0.207-2.068-0.631-2.662
		c-1.104-1.547-3.227-1.689-4.38-0.294c-1.337,1.618-0.785,4.622,1.033,5.641c1.276,0.714,3.035,0.426,3.725-1.341
		C74.827,202.639,74.837,202.049,74.879,201.811z"/>
	<path fill-rule="evenodd" clip-rule="evenodd" fill="#F9D1E2" d="M56.096,129.124c0.017,1.265,0.045,2.53,0.047,3.796
		c0.008,5.381,0.009,10.762,0.009,16.143c0,2.096,0.284,4.164,0.808,6.18c0.41,1.58,0.943,3.15,2.22,4.311l-0.017-0.032
		c0.154,0.138,0.309,0.276,0.463,0.414c0.23,0.195,0.494,0.363,0.686,0.592c0.402,0.481,0.336,0.623-0.397,1.017
		c-1.286-0.912-1.997-2.25-2.651-3.62c-0.799-1.675-1.209-3.47-1.457-5.289c-0.205-1.503-0.36-3.026-0.371-4.542
		c-0.041-6.081-0.02-12.163-0.016-18.245c0-0.25,0.062-0.499,0.096-0.749C55.707,129.106,55.902,129.115,56.096,129.124z"/>
	<path fill-rule="evenodd" clip-rule="evenodd" fill="#F4D374" d="M130.677,168.267c-3.169,0-6.337,0.005-9.505-0.005
		c-0.5-0.002-1.013,0.082-1.496-0.141c-0.14-0.064-0.223-0.154-0.171-0.299c0.035-0.098,0.116-0.186,0.194-0.26
		c0.039-0.037,0.115-0.044,0.177-0.053c0.125-0.018,0.251-0.034,0.377-0.039c6.582-0.301,13.168-0.26,19.753-0.23
		c0.127,0,0.254-0.002,0.381,0.006c0.82,0.046,1.298,0.312,1.146,0.641c-0.243,0.523-0.749,0.369-1.159,0.371
		c-3.232,0.013-6.465,0.007-9.696,0.007C130.677,168.266,130.677,168.266,130.677,168.267z"/>
	<path fill-rule="evenodd" clip-rule="evenodd" fill="#F4D374" d="M126.11,98.859c0.005-1.888-0.219-3.738-0.928-5.505
		c0.167-0.132,0.366-0.144,0.502-0.003c0.171,0.18,0.321,0.395,0.427,0.619c1.844,3.927,0.997,8.516-1.781,11.481
		c-0.469,0.501-1.057,0.911-1.646,1.272c-3.035,1.854-7.695,1.779-10.599-0.374c-0.048-0.035-0.088-0.091-0.114-0.145
		c-0.072-0.151-0.017-0.243,0.156-0.269c1.071,0.357,2.141,0.717,3.213,1.074c1.057,0.58,2.113,0.607,3.172,0.012l-0.028,0.016
		c0.316,0.004,0.644,0.062,0.948,0.002c1.107-0.218,2.217-0.46,2.87-1.537l-0.017,0.01c1.261-0.267,2-1.054,2.289-2.291l-0.012,0.02
		c0.413-0.115,0.412-0.443,0.398-0.779l-0.016,0.023c0.757-0.267,0.805-0.887,0.77-1.547l-0.012,0.031
		c0.295-0.187,0.381-0.477,0.389-0.8C126.102,99.734,126.104,99.297,126.11,98.859z"/>
	<path fill-rule="evenodd" clip-rule="evenodd" fill="#FBE4EE" d="M171.316,125.685c0.018,1.575,0.05,3.149,0.049,4.724
		c-0.002,6.996-0.01,13.991-0.025,20.986c-0.001,0.691-0.062,1.382-0.098,2.072c-0.197-0.005-0.393-0.01-0.59-0.015
		c-0.028-0.628-0.084-1.255-0.083-1.882c0.021-8.067,0.047-16.134,0.079-24.199c0.002-0.564,0.06-1.129,0.092-1.693
		C170.933,125.68,171.125,125.683,171.316,125.685z"/>
	<path fill-rule="evenodd" clip-rule="evenodd" fill="#5E2828" d="M145.643,205.195c-2.219,0.029-3.807-1.557-3.793-3.789
		c0.013-2.172,1.629-3.764,3.849-3.79c2.323-0.028,3.975,1.486,3.891,3.665C149.484,204.025,147.482,205.318,145.643,205.195z
		 M148.548,201.543c0.041-0.851-0.163-1.64-0.636-2.344c-1.066-1.588-3.184-1.727-4.381-0.316c-1.172,1.377-0.938,4.64,1.105,5.637
		c1.379,0.672,2.859,0.227,3.535-1.137C148.461,202.803,148.574,202.186,148.548,201.543z"/>
	<path fill-rule="evenodd" clip-rule="evenodd" fill="#FBE4EE" d="M112.404,150.012c-0.02-0.336-0.119-0.625-0.49-0.703
		c-0.184-0.039-0.377-0.041-0.566-0.041c-3.664-0.002-7.328,0.009-10.992-0.013c-0.726-0.005-1.136,0.239-1.399,0.95
		c-0.481,1.301-1.091,2.553-1.61,3.84c-0.759,1.885-1.848,3.586-2.9,5.307c-0.166,0.271-0.363,0.518-0.72,0.543
		c-0.34-0.312-0.046-0.576,0.099-0.809c1.13-1.826,2.119-3.726,2.959-5.7c0.541-1.275,1.057-2.563,1.516-3.87
		c0.246-0.703,0.638-1,1.383-0.99c2.018,0.029,4.037,0.01,6.055,0.009c1.829,0,3.658-0.007,5.487,0.003
		c1.397,0.008,1.396,0.018,1.894,1.492C112.879,150.022,112.642,150.018,112.404,150.012z"/>
	<path fill-rule="evenodd" clip-rule="evenodd" fill="#F6BDD5" d="M187.682,139.035c0.01,4.032,0.022,8.064,0.031,12.097
		c0.006,3.151,0.027,6.302,0,9.452c-0.013,1.493,0.324,2.864,1.121,4.121c0.012,0.166,0.022,0.334,0.034,0.501
		c-0.7-0.173-1.015-0.714-1.182-1.335c-0.162-0.604-0.308-1.229-0.345-1.85c-0.135-2.266-0.293-4.534-0.313-6.803
		c-0.044-4.73-0.013-9.461,0.007-14.192c0.004-0.687-0.094-1.39,0.17-2.059C187.364,138.99,187.523,139.013,187.682,139.035z"/>
	<path fill-rule="evenodd" clip-rule="evenodd" fill="#5E2828" d="M76.901,197.725c0.513,0,0.951,0,1.388,0
		c-0.232,1.705-0.191,3.394-0.069,5.074c0.079,1.1,0.806,1.852,1.72,1.999c0.971,0.155,1.753-0.267,2.141-1.172
		c0.099-0.231,0.205-0.478,0.217-0.722c0.086-1.691,0.181-3.383-0.069-5.129c0.261-0.232,0.644,0.053,1.021-0.125
		c-0.25,1.26-0.131,2.436-0.15,3.605c-0.014,0.763-0.029,1.52-0.301,2.247c-0.457,1.226-1.492,1.798-3.059,1.686
		c-1.277-0.091-2.099-0.8-2.375-2.061c-0.219-1.001-0.12-2.019-0.141-3.03C77.207,199.303,77.322,198.495,76.901,197.725z"/>
	<path fill-rule="evenodd" clip-rule="evenodd" fill="#F4D374" d="M186.781,168.267c-1.959,0.001-3.918,0.005-5.877-0.002
		c-0.441-0.001-0.883-0.022-1.322-0.063c-0.18-0.018-0.346-0.106-0.398-0.326c-0.068-0.283,0.17-0.34,0.315-0.35
		c1.509-0.107,3.019-0.25,4.528-0.271c2.907-0.043,5.814-0.016,8.721-0.012c0.441,0.001,0.885,0.012,1.322,0.062
		c0.259,0.029,0.484,0.205,0.451,0.496c-0.031,0.28-0.27,0.411-0.539,0.426c-0.44,0.025-0.883,0.037-1.324,0.038
		C190.699,168.269,188.74,168.267,186.781,168.267z"/>
	<path fill-rule="evenodd" clip-rule="evenodd" fill="#5E2828" d="M133.757,198.191c1.518,1.359,1.968,2.863,1.32,4.547
		c-0.86,2.234-2.94,2.857-4.984,2.293c-1.825-0.503-2.883-2.668-2.342-4.605c0.134-0.478,0.427-0.911,0.646-1.364
		c0.244,0.021,0.486,0.04,0.729,0.061c-0.378,0.54-0.497,1.167-0.513,1.8c-0.033,1.316,0.277,2.519,1.405,3.35
		c1.56,1.15,3.516,0.534,4.118-1.307c0.508-1.553,0.301-2.989-0.82-4.237C133.348,198.453,133.503,198.282,133.757,198.191z"/>
	<path fill-rule="evenodd" clip-rule="evenodd" fill="#F4D374" d="M208.291,168.266c-2.086-0.001-4.173,0.002-6.26-0.004
		c-0.373-0.002-0.771,0.062-1.094-0.192c-0.08-0.063-0.1-0.212-0.125-0.326c-0.006-0.032,0.062-0.104,0.107-0.118
		c0.177-0.059,0.357-0.143,0.537-0.146c2.398-0.035,4.787-0.323,7.193-0.25c2.021,0.062,4.046,0,6.07,0.018
		c0.982,0.01,1.502,0.273,1.352,0.621c-0.272,0.631-0.871,0.38-1.33,0.386C212.592,168.281,210.441,168.266,208.291,168.266z"/>
	<path fill-rule="evenodd" clip-rule="evenodd" fill="#5E2828" d="M86.162,201.537c0,0.709-0.025,1.465,0.008,2.218
		c0.031,0.72,0.381,1.009,1.099,1.009c0.454,0,0.87-0.075,1.206-0.43c0.092-0.097,0.236-0.01,0.233,0.125
		c-0.002,0.123-0.011,0.277-0.083,0.357c-0.117,0.132-0.287,0.302-0.439,0.306c-1,0.026-2.001,0.014-3.002,0.014
		c0.1-2.536,0.382-4.937-0.156-7.431c0.956,0,2.021-0.01,3.087,0.008c0.188,0.003,0.356,0.146,0.301,0.379
		c-0.041,0.168-0.081,0.318-0.364,0.256c-2.209-0.49-1.879-0.121-1.888,1.725c-0.005,0.889,0.089,0.95,0.995,0.936
		c0.189-0.002,0.379-0.034,0.568-0.049c0.125-0.01,0.258-0.041,0.376-0.014c0.219,0.053,0.243,0.23,0.229,0.429
		c-0.011,0.163-0.094,0.29-0.229,0.231C87.505,201.35,86.909,201.209,86.162,201.537z"/>
	<path fill-rule="evenodd" clip-rule="evenodd" fill="#5E2828" d="M165.021,201.482c0.425,1.354,1.398,2.287,2.473,3.111
		c0.256,0.197,0.707,0.141,1.068,0.199c0.376,0.125,0.752,0.125,1.126-0.012c0.928,0.123,1.519-0.177,1.808-1.156
		c0.371-1.25,0.885-2.459,1.334-3.688c0.126-0.344,0.184-0.733,0.605-0.869c0.203,0.124,0.457,0.195,0.504,0.482
		c-0.443,0.592-0.661,1.266-0.726,2.051c0.463,0.207,0.946,0.076,1.419,0.074c0.15,0.299,0.301,0.597,0.451,0.896
		c-2.296-0.407-2.51-0.137-2.83,2.215c-0.016,0.114-0.076,0.222-0.151,0.429c-1.658,0-3.353,0-5.046,0.002
		c-0.618,0-1.088-0.3-1.461-0.752c-0.4-0.486-0.82-0.969-1.135-1.51c-0.418-0.717-1.014-0.881-1.76-0.775
		c-0.002-0.281-0.002-0.562-0.002-0.842c0.653,0.069,1.324,0.271,1.896-0.256C164.738,201.215,164.88,201.349,165.021,201.482z"/>
	<path fill-rule="evenodd" clip-rule="evenodd" fill="#FBE4EE" d="M109.405,113.105c0.694-0.012,1.39,0,2.082-0.037
		c3.915-0.211,7.489,0.85,10.787,2.908c1.39,0.866,2.765,1.761,3.891,2.975c-0.009,0.337-0.017,0.674-0.024,1.01l-0.054,0.055
		c-0.613-0.148-1.253-0.256-1.483-0.982c-0.047-0.258-0.169-0.463-0.408-0.587l0.032,0.027c-0.183-0.294-0.458-0.404-0.792-0.397
		l0.023,0.019c-0.033-0.234-0.182-0.354-0.4-0.401l0.02,0.018c-0.219-0.51-0.604-0.771-1.162-0.772l0.02,0.013
		c-0.103-0.152-0.17-0.363-0.312-0.449c-2.492-1.509-5.079-2.735-8.094-2.667c-1.129,0.025-2.258,0.029-3.387,0.043
		c-0.265-0.423-0.692-0.325-1.085-0.341c-0.023-0.138-0.047-0.275-0.069-0.413l-0.003,0.005
		C109.125,113.121,109.266,113.113,109.405,113.105z"/>
	<path fill-rule="evenodd" clip-rule="evenodd" fill="#F4D374" d="M203.537,123.123c0.152,0.332,0.146,0.662-0.014,0.989
		c-3.151,0.029-6.303,0.065-9.455,0.087c-0.947,0.006-1.877,0.091-2.814,0.248c-0.786,0.133-1.441,0.387-2.006,0.939
		c-0.149,0.146-0.398,0.43-0.611,0.097c-0.148-0.231,0.038-0.47,0.197-0.664c0.408-0.496,0.881-0.907,1.525-1.057
		c0.551-0.128,1.102-0.316,1.658-0.334C195.856,123.306,199.697,123.221,203.537,123.123z"/>
	<path fill-rule="evenodd" clip-rule="evenodd" fill="#5E2828" d="M123.83,201.742c0.064,1.046-0.195,2.123,0.271,3.217
		c-0.381,0.261-0.84,0.201-1.309,0.035c0.264-1.641,0.268-5.65,0.008-7.101c0.294-0.341,0.695-0.153,1.046-0.194
		c0.372-0.045,0.757-0.056,1.128-0.013c1.643,0.19,2.25,1.153,1.76,2.776c-0.052,0.174-0.188,0.324-0.286,0.484
		c-0.22,0.008-0.439,0.016-0.659,0.023c0.548-1.602,0.172-2.562-1.145-2.928c-0.367-0.102-0.781,0.16-0.793,0.553
		c-0.027,0.93-0.018,1.859-0.023,2.789C123.829,201.504,123.83,201.623,123.83,201.742z"/>
	<path fill-rule="evenodd" clip-rule="evenodd" fill="#5E2828" d="M59.379,205.074c-0.531,0-0.904,0-1.331,0
		c0.323-2.06,0.181-4.081,0.188-6.098c0.002-0.57-0.241-0.799-0.822-0.778c-0.502,0.018-0.999,0.127-1.501,0.169
		c-0.066,0.006-0.196-0.143-0.208-0.231c-0.014-0.112,0.034-0.263,0.111-0.346c0.074-0.081,0.219-0.136,0.332-0.136
		c1.646,0.006,3.293,0.021,4.938,0.041c0.122,0.001,0.269,0.012,0.36,0.078c0.086,0.062,0.131,0.199,0.166,0.312
		c0.046,0.146-0.03,0.259-0.19,0.264c-0.728,0.023-1.61-0.559-2.139,0.098c-0.462,0.574-0.149,1.471-0.163,2.223
		c-0.02,1.14-0.002,2.28,0.029,3.42C59.159,204.381,59.281,204.67,59.379,205.074z"/>
	<path fill-rule="evenodd" clip-rule="evenodd" fill="#5E2828" d="M141.014,198.363c-1.088,1.701-2.178,3.399-3.262,5.102
		c-0.135,0.213-0.275,0.434-0.346,0.671c-0.08,0.276,0.074,0.531,0.354,0.541c1.118,0.04,2.28,0.298,3.269-0.503
		c0.132-0.105,0.229-0.116,0.277,0.059c0.032,0.115,0.004,0.252-0.02,0.375c-0.068,0.361-0.302,0.543-0.66,0.54
		c-1.497-0.007-2.994-0.021-4.617-0.034c0.176-0.984,0.751-1.588,1.157-2.266c0.421-0.704,0.886-1.381,1.332-2.07
		c0.445-0.688,0.89-1.377,1.335-2.065c0.106-0.13,0.218-0.257,0.32-0.39C140.5,197.87,140.514,197.869,141.014,198.363z"/>
	<path fill-rule="evenodd" clip-rule="evenodd" fill="#5E2828" d="M150.771,205.137c0.309-2.365,0.267-6.062-0.05-7.337
		c0.415-0.198,0.848-0.069,1.29-0.071c-0.229,1.969-0.158,3.939-0.09,5.908c0.03,0.84,0.377,1.088,1.176,1.143
		c0.587,0.041,1.046-0.239,1.535-0.524c0.057,0.487-0.014,0.86-0.512,0.874C153.061,205.154,151.998,205.137,150.771,205.137z"/>
	<path fill-rule="evenodd" clip-rule="evenodd" fill="#5E2828" d="M114.654,205.113c-0.311,0-0.623,0-1.002,0
		c0.07-0.381,0.148-0.67,0.172-0.961c0.107-1.354-0.053-2.621-0.889-3.781c-0.586-0.812-1.045-1.719-1.706-2.434
		c0.096-0.303,0.298-0.234,0.451-0.231c0.357,0.007,0.702-0.089,0.919,0.417c0.445,1.039,0.984,2.041,1.709,2.928
		c0.148,0.287,0.393,0.343,0.686,0.279c-0.468,1.113-0.27,2.26-0.166,3.4C114.77,204.857,114.713,204.986,114.654,205.113z"/>
	<path fill-rule="evenodd" clip-rule="evenodd" fill="#A1A0A0" d="M122.71,85.256c-0.104,0.154-0.198,0.346,0.043,0.424
		c1.064,0.341,2.034,0.861,2.933,1.514c0.192,0.141,0.34,0.342,0.506,0.514c-0.116,0.137-0.223,0.375-0.352,0.388
		c-0.236,0.022-0.52-0.031-0.725-0.152c-1.939-1.144-4.067-1.652-6.272-1.926c-0.235-0.029-0.467-0.165-0.675-0.293
		c-0.08-0.049-0.133-0.22-0.117-0.321c0.016-0.1,0.125-0.252,0.209-0.264C119.748,84.947,121.242,84.643,122.71,85.256z
		 M119.227,85.795c0.125-0.037,0.296-0.086,0.467-0.137c-0.095-0.299-0.357-0.182-0.551-0.205c-0.105-0.012-0.314,0.063-0.316,0.104
		C118.819,85.785,119.025,85.749,119.227,85.795z"/>
	<path fill-rule="evenodd" clip-rule="evenodd" fill="#602C2D" d="M150.852,175.07c-1.597-0.279-3.193-0.557-4.789-0.842
		c-1.963-0.352-3.953-0.601-5.873-1.113c-1.014-0.271-2.092-0.173-3.05-0.646c3.302,0.429,6.604,0.849,9.905,1.292
		c1.37,0.184,2.734,0.42,4.102,0.627c0.434,0.065,0.881,0.075,1.26,0.34C151.885,174.823,151.287,174.58,150.852,175.07z"/>
	<path fill-rule="evenodd" clip-rule="evenodd" fill="#5E2828" d="M157.404,198.391c-0.016,0.252-0.056,0.506-0.043,0.756
		c0.029,0.561-0.217,1.225,0.168,1.654c0.408,0.457,1.062,0.16,1.615,0.139c0.107-0.005,0.256,0.041,0.315,0.118
		c0.065,0.083,0.057,0.229,0.065,0.35c0.012,0.158-0.105,0.305-0.214,0.24c-0.577-0.348-1.165-0.405-1.829-0.159
		c-0.229,0.791-0.129,1.612-0.094,2.423c0.02,0.473,0.398,0.812,0.854,0.858c0.45,0.045,0.886-0.02,1.286-0.234
		c0.162-0.087,0.215-0.068,0.288,0.101c0.045,0.104-0.079,0.429-0.233,0.431c-1.066,0.007-2.133,0.004-3.284,0.004
		c0.31-1.111,0.212-2.212,0.225-3.305c0.013-1.137-0.026-2.273-0.042-3.41C156.945,197.835,156.96,197.836,157.404,198.391z"/>
	<path fill-rule="evenodd" clip-rule="evenodd" fill="#F4D374" d="M110.144,113.878c1.129-0.014,2.258-0.018,3.387-0.043
		c3.015-0.068,5.602,1.158,8.094,2.667c0.142,0.086,0.209,0.297,0.312,0.449c-0.247-0.012-0.533,0.053-0.734-0.049
		c-3.542-1.807-7.329-2.542-11.271-2.646c-0.221-0.006-0.174-0.23,0.034-0.321C110.021,113.91,110.084,113.896,110.144,113.878z"/>
	<path fill-rule="evenodd" clip-rule="evenodd" fill="#F6BDD5" d="M267.968,132.905c-0.022,0.829,0.396,1.542,0.616,2.308
		c0.426,1.477,0.862,2.95,0.876,4.506c-0.194,0.019-0.388,0.037-0.581,0.057c-0.172-0.922-0.335-1.846-0.514-2.766
		c-0.471-2.424-1.356-4.687-2.625-6.803c-0.287-0.479-0.539-0.977-0.807-1.465c1.353,0.311,1.928,1.316,2.262,2.537
		c0.039,0.342,0.055,0.692,0.409,0.887l-0.018-0.029c0.024,0.317,0.071,0.623,0.398,0.786L267.968,132.905z"/>
	<path fill-rule="evenodd" clip-rule="evenodd" fill="#5E2828" d="M102.285,199.438c0.344-0.498,0.221-1.236,0.885-1.646
		c1.231,2.329,1.699,4.98,3.102,7.209c-1.131,0.112-1.124,0.11-1.469-0.788c-0.225-0.584-0.473-1.159-0.711-1.738
		c0.012-0.338-0.222-0.524-0.445-0.717c0.224-0.773-0.242-1.392-0.504-2.038c-0.133-0.325-0.384-0.04-0.561,0.091
		C102.482,199.687,102.384,199.562,102.285,199.438z"/>
	<path fill-rule="evenodd" clip-rule="evenodd" fill="#5E2828" d="M93.424,197.826c0.588,0.123,1.002,0.443,1.243,1.012
		c0.239,0.564,0.159,1.099-0.083,1.622c-0.129,0.279-0.282,0.558-0.479,0.791c-0.293,0.347-0.269,0.649-0.01,0.995
		c0.673,0.896,1.373,1.769,2.197,2.533c-0.342,0.023-0.684,0.049-1.026,0.073c-0.589-0.359-0.905-0.964-1.329-1.472
		c-0.383-0.461-0.641-1.037-1.211-1.325c0.229-0.217,0.455-0.433,0.684-0.649c0.574-0.541,0.529-1.231,0.453-1.924
		c-0.059-0.531-0.316-0.941-0.791-1.203C93.189,198.128,93.307,197.978,93.424,197.826z"/>
	<path fill-rule="evenodd" clip-rule="evenodd" fill="#5E2828" d="M175.084,202.571c-0.15-0.299-0.301-0.597-0.451-0.896
		c-0.09-0.755-0.409-1.435-0.693-2.125c-0.047-0.287-0.301-0.358-0.504-0.482c0.017-0.441,0.151-0.841,0.41-1.193
		c0.301,0.022,0.428,0.223,0.522,0.467c0.63,1.633,1.269,3.263,1.892,4.898c0.246,0.646,0.477,1.295,1.062,1.791
		c-0.288,0.033-0.529,0.066-0.773,0.086c-0.336,0.028-0.602-0.049-0.725-0.42C175.59,203.984,175.332,203.279,175.084,202.571z"/>
	<path fill-rule="evenodd" clip-rule="evenodd" fill="#5E2828" d="M64.318,198.656c0.148-0.268,0.137-0.621,0.537-0.869
		c1.328,2.288,1.714,5,3.186,7.231c-0.09,0.021-0.242,0.081-0.398,0.092c-0.453,0.032-0.851,0.048-0.998-0.573
		c-0.161-0.67-0.468-1.307-0.711-1.959c-0.139-0.297-0.279-0.592-0.418-0.889c-0.073-0.771-0.402-1.46-0.693-2.16
		C64.654,199.238,64.486,198.947,64.318,198.656z"/>
	<path fill-rule="evenodd" clip-rule="evenodd" fill="#FBE4EE" d="M91.092,163.29c0.082,0.407-0.156,0.679-0.395,0.954
		c-0.27,0.312-0.656,0.545-0.714,1.008l0.011-0.008c-0.936,0.139-1.435,0.826-1.921,1.529l0.02-0.017
		c-0.228,0.038-0.377,0.154-0.397,0.398l0.018-0.015c-0.342-0.032-0.611,0.084-0.783,0.392l0.021-0.019
		c-0.273,0.104-0.389,0.314-0.399,0.595c-0.271,0.154-0.557,0.286-0.81,0.466c-1.029,0.734-2.123,0.967-3.324,0.477
		c0.215-0.127,0.418-0.283,0.646-0.377c2.676-1.1,4.985-2.727,7.018-4.773C90.35,163.631,90.492,163.047,91.092,163.29z"/>
	<path fill-rule="evenodd" clip-rule="evenodd" fill="#5E2828" d="M95.267,204.853c0.343-0.024,0.685-0.05,1.026-0.073
		c0.486,0.001,0.973,0.003,1.459,0.005c0.388,0.138,0.777,0.138,1.166,0.009c0.865,0.129,1.408-0.211,1.686-1.059
		c0.324-0.999,0.719-1.975,1.066-2.967c0.162-0.465,0.27-0.951,0.615-1.33c0.099,0.125,0.197,0.249,0.297,0.371
		c0.107,0.377-0.038,0.721-0.133,1.076c-0.197,0.746-0.189,0.75,0.646,0.836c0.183,0.02,0.367,0.025,0.551,0.037
		c0.224,0.192,0.457,0.379,0.445,0.717c-2.079-0.121-2.279-0.353-2.723,2.223c-0.02,0.117-0.059,0.23-0.1,0.389
		c-0.89,0.33-1.835,0.029-2.758,0.133c-0.8,0.09-1.619,0.008-2.43-0.004C95.761,205.211,95.466,205.136,95.267,204.853z"/>
	<path fill-rule="evenodd" clip-rule="evenodd" fill="#5E2828" d="M65.516,201.689c0.139,0.297,0.279,0.592,0.418,0.889
		c-0.062-0.012-0.123-0.026-0.186-0.036c-2.094-0.319-2.244-0.132-2.633,2.089c-0.068,0.386-0.127,0.564-0.492,0.594
		c-0.188,0.015-0.381,0.018-0.568,0c-0.185-0.018-0.365-0.069-0.66-0.128c0.857-0.859,1.07-1.962,1.5-2.964
		c0.494-1.152,0.646-2.442,1.424-3.477c0.168,0.291,0.336,0.582,0.504,0.873c-0.528,0.571-0.654,1.293-0.79,2.064
		C64.533,201.807,65.031,201.676,65.516,201.689z"/>
	<path fill-rule="evenodd" clip-rule="evenodd" fill="#F4D374" d="M29.479,105.961l-0.008-0.008
		c-0.043,0.369-0.086,0.738-0.128,1.096c-0.271,0.34-0.565,0.106-0.849,0.067c-1.172-0.161-2.322-0.495-3.522-0.444
		c-0.181,0.008-0.372-0.047-0.544-0.113c-0.244-0.095-0.426-0.296-0.422-0.556c0.004-0.272,0.193-0.456,0.479-0.47
		c1.061-0.053,2.121-0.094,3.155,0.234C28.238,105.957,28.842,106.119,29.479,105.961z"/>
	<path fill-rule="evenodd" clip-rule="evenodd" fill="#F4D374" d="M226.549,128.746c-0.331-0.141-0.797-0.148-0.795-0.656
		c0.006-2.402,0.023-4.804,0.055-7.205c0.002-0.157,0.118-0.367,0.373-0.307c0.216,0.051,0.283,0.229,0.288,0.412
		c0.019,0.693,0.017,1.389,0.03,2.084c0.035,1.895-0.166,3.791,0.033,5.684L226.549,128.746z"/>
	<path fill-rule="evenodd" clip-rule="evenodd" fill="#5E2828" d="M91.818,205.081c-0.342,0.009-0.684,0.019-1.024,0.028
		c-0.054-0.125-0.107-0.248-0.161-0.372c0.23-2.13,0.102-4.263,0.08-6.396c0.473-0.5,0.484-0.5,0.91,0.058
		c0.009,0.966,0.018,1.933,0.025,2.897c-0.004,0.307-0.008,0.612-0.012,0.918c-0.057,0.881-0.174,1.768,0.229,2.607
		C91.784,204.896,91.768,204.982,91.818,205.081z"/>
	<path fill-rule="evenodd" clip-rule="evenodd" fill="#5E2828" d="M161.746,198.382c-0.094-0.08-0.2-0.148-0.277-0.241
		c-0.171-0.203-0.279-0.507,0.07-0.539c0.801-0.072,1.618-0.117,2.416-0.038c1.787,0.177,2.512,1.608,1.665,3.22
		c-0.14,0.264-0.396,0.467-0.599,0.699c-0.142-0.134-0.283-0.268-0.426-0.4c0.209-0.327,0.236-0.698,0.228-1.068
		c-0.036-1.441-0.575-1.853-2.151-1.655C162.215,197.838,162.201,197.839,161.746,198.382z"/>
	<path fill-rule="evenodd" clip-rule="evenodd" fill="#5E2828" d="M169.688,204.781c-0.374,0.137-0.75,0.137-1.126,0.012
		c0.327-2.146,0.148-4.301,0.123-6.453c0.467-0.504,0.477-0.503,0.934,0.047C169.537,200.52,169.502,202.652,169.688,204.781z"/>
	<path fill-rule="evenodd" clip-rule="evenodd" fill="#5E2828" d="M161.746,198.382c0.455-0.543,0.469-0.544,0.926-0.023
		c-0.07,0.993-0.107,1.987,0.027,2.979c0,0.28,0,0.561,0.002,0.842c-0.1,0.873-0.156,1.745,0.101,2.604
		c-0.399,0.139-0.798,0.11-1.196-0.008c0.252-0.538,0.181-1.112,0.179-1.675C161.779,201.528,161.76,199.955,161.746,198.382z"/>
	<path fill-rule="evenodd" clip-rule="evenodd" fill="#5E2828" d="M98.918,204.793c-0.389,0.129-0.778,0.129-1.166-0.009
		c0.207-2.131,0.136-4.265,0.065-6.397c0.453-0.551,0.459-0.551,0.938-0.047c-0.011,1.728-0.034,3.455-0.023,5.183
		C98.734,203.945,98.854,204.369,98.918,204.793z"/>
	<path fill-rule="evenodd" clip-rule="evenodd" fill="#5E2828" d="M114.994,201.33c-0.293,0.063-0.537,0.008-0.686-0.279
		c0.722-0.803,1.234-1.749,1.551-2.754c0.197-0.625,0.484-0.805,1.052-0.744c0.185,0.021,0.366,0.061,0.675,0.111
		c-0.463,0.646-0.889,1.235-1.307,1.828C115.848,200.104,115.422,200.718,114.994,201.33z"/>
	<path fill-rule="evenodd" clip-rule="evenodd" fill="#5E2828" d="M141.014,198.363c-0.5-0.494-0.514-0.493-0.859-0.041
		c-0.103,0.133-0.214,0.26-0.32,0.39c-1.073-0.486-2.13-0.501-3.195-0.041c-0.168,0.073-0.33,0.158-0.504,0.242
		c-0.119-1.203-0.025-1.368,0.887-1.372c1.26-0.007,2.521,0.016,3.781,0.047C141.176,197.597,141.232,197.842,141.014,198.363z"/>
	<path fill-rule="evenodd" clip-rule="evenodd" fill="#F4D374" d="M81.445,122.262c0.437,0.213,0.648,0.548,0.564,1.041
		c-1.133,0.155-2.196-0.375-3.32-0.34c-0.172,0.005-0.348-0.201-0.301-0.393c0.039-0.156,0.187-0.371,0.322-0.402
		c0.599-0.138,1.211-0.219,1.818-0.32l-0.05-0.002C80.633,122.375,81.043,122.308,81.445,122.262z"/>
	<path fill-rule="evenodd" clip-rule="evenodd" fill="#F4D374" d="M180.791,133.002c0.496,0.291,0.707,0.749,0.758,1.299
		c-1.004,0.178-1.925-0.342-2.908-0.354c-0.074-0.001-0.166-0.16-0.216-0.263c-0.104-0.216,0.054-0.369,0.204-0.447
		c0.211-0.111,0.453-0.201,0.688-0.218C179.807,132.984,180.299,133.004,180.791,133.002z"/>
	<path fill-rule="evenodd" clip-rule="evenodd" fill="#5E2828" d="M133.757,198.191c-0.254,0.091-0.409,0.262-0.44,0.536
		c-0.223-0.101-0.451-0.19-0.667-0.302c-1.114-0.578-2.133-0.445-3.07,0.387c-0.136,0.12-0.302,0.207-0.453,0.31
		c-0.243-0.021-0.485-0.04-0.729-0.061c0.404-0.985,1.279-1.392,2.207-1.501C131.686,197.433,132.865,197.206,133.757,198.191z"/>
	<path fill-rule="evenodd" clip-rule="evenodd" fill="#F4D374" d="M46.698,121.987c0.624,0.11,1.241,0.222,1.761,0.595
		c0.133,0.095,0.273,0.291,0.271,0.44c-0.004,0.389-0.352,0.308-0.545,0.247c-0.666-0.21-1.352-0.211-2.033-0.262
		c-0.273-0.02-0.508-0.156-0.494-0.44c0.012-0.262,0.243-0.419,0.496-0.487C46.332,122.032,46.52,122.017,46.698,121.987z"/>
	<path fill-rule="evenodd" clip-rule="evenodd" fill="#5E2828" d="M157.404,198.391c-0.444-0.555-0.459-0.556-0.922-0.035
		c-0.1-0.076-0.209-0.141-0.295-0.229c-0.193-0.197-0.31-0.506,0.055-0.525c1.062-0.057,2.13-0.03,3.195-0.012
		c0.17,0.003,0.368,0.102,0.395,0.332c0.016,0.122,0.062,0.284,0.005,0.361c-0.101,0.133-0.324,0.333-0.401,0.297
		C158.773,198.277,158.092,198.326,157.404,198.391z"/>
	<path fill-rule="evenodd" clip-rule="evenodd" fill="#F6BDD5" d="M87.125,114.267c-2.168,0.015-4.334,0.029-6.5,0.045
		c-0.344-0.05-0.718-0.046-0.859-0.47c1.771,0.033,3.541,0.053,5.312,0.104C85.769,113.966,86.475,113.955,87.125,114.267z"/>
	<path fill-rule="evenodd" clip-rule="evenodd" fill="#5E2828" d="M91.623,198.399c-0.426-0.558-0.438-0.558-0.91-0.058
		c-0.099-0.078-0.213-0.143-0.292-0.236c-0.108-0.129-0.327-0.4-0.09-0.433c1.032-0.138,2.091-0.415,3.093,0.153
		c-0.117,0.151-0.234,0.302-0.352,0.453C92.589,198.319,92.106,198.359,91.623,198.399z"/>
	<path fill-rule="evenodd" clip-rule="evenodd" fill="#5E2828" d="M170.642,196.281c-0.022,0.054-0.032,0.124-0.071,0.166
		c-0.425,0.453-1.003,0.438-1.555,0.492c-0.041,0.004-0.107-0.062-0.129-0.109c-0.024-0.055-0.041-0.149-0.012-0.185
		c0.377-0.446,0.828-0.782,1.441-0.762C170.506,195.891,170.624,196.07,170.642,196.281z"/>
	<path fill-rule="evenodd" clip-rule="evenodd" fill="#5E2828" d="M98.418,196.951c-0.152-0.092-0.275-0.127-0.332-0.209
		c-0.085-0.121-0.012-0.223,0.106-0.314c0.345-0.268,0.699-0.534,1.142-0.575c0.135-0.013,0.33,0.147,0.426,0.28
		c0.133,0.182,0.006,0.395-0.158,0.459C99.203,196.746,98.783,196.844,98.418,196.951z"/>
	<path fill-rule="evenodd" clip-rule="evenodd" fill="#A1A0A0" d="M112.137,169.921c0.236-0.028,0.473-0.056,0.689-0.093
		c1.229,0.46,2.549,0.205,3.83,0.363c-0.15,0.099-0.3,0.28-0.454,0.285c-1.167,0.033-2.337,0.044-3.505,0.036
		C112.347,170.511,112.15,170.283,112.137,169.921z"/>
	<path fill-rule="evenodd" clip-rule="evenodd" fill="#5E2828" d="M123.83,201.742c0-0.119-0.001-0.238-0.002-0.357
		c0.729,0.218,1.338-0.128,1.961-0.414c0.22-0.008,0.439-0.016,0.659-0.023C125.836,202.068,124.843,201.938,123.83,201.742z"/>
	<path fill-rule="evenodd" clip-rule="evenodd" fill="#F4D374" d="M88.073,166.773c0.486-0.703,0.985-1.391,1.921-1.529
		C89.7,166.322,89.299,166.643,88.073,166.773z"/>
	<path fill-rule="evenodd" clip-rule="evenodd" fill="#5E2828" d="M98.755,198.34c-0.479-0.504-0.484-0.504-0.938,0.047
		c-0.092-0.08-0.203-0.146-0.271-0.242c-0.144-0.204-0.3-0.473,0.088-0.549c0.358-0.07,0.739-0.039,1.109-0.036
		c0.178,0.001,0.417-0.005,0.433,0.23C99.193,198.061,98.939,198.188,98.755,198.34z"/>
	<path fill-rule="evenodd" clip-rule="evenodd" fill="#5E2828" d="M91.637,202.215c0.004-0.306,0.008-0.611,0.012-0.918
		c0.587,0.037,1.174,0.073,1.762,0.109c-0.229,0.217-0.455,0.433-0.684,0.649C92.363,202.109,92,202.162,91.637,202.215z"/>
	<path fill-rule="evenodd" clip-rule="evenodd" fill="#5E2828" d="M169.619,198.387c-0.457-0.55-0.467-0.551-0.934-0.047
		c-0.137-0.125-0.296-0.232-0.4-0.379c-0.051-0.07-0.021-0.302,0.014-0.312c0.543-0.151,1.096-0.163,1.637,0.008
		c0.043,0.014,0.077,0.235,0.033,0.313C169.883,198.127,169.738,198.25,169.619,198.387z"/>
	<path fill-rule="evenodd" clip-rule="evenodd" fill="#5E2828" d="M161.605,204.776c0.398,0.118,0.797,0.146,1.196,0.008
		c0.109,0.036,0.218,0.071,0.327,0.106c-0.086,0.238,0.236,0.018,0.016,0.141c-0.608,0.34-1.208,0.324-1.797-0.049
		C161.434,204.914,161.52,204.846,161.605,204.776z"/>
	<path fill-rule="evenodd" clip-rule="evenodd" fill="#F4D374" d="M121.916,116.938c0.559,0.002,0.943,0.263,1.162,0.772
		C122.207,117.666,122.154,117.631,121.916,116.938z"/>
	<path fill-rule="evenodd" clip-rule="evenodd" fill="#A1A0A0" d="M108.989,113.124c0.022,0.138,0.046,0.275,0.069,0.413
		c-0.411-0.053-0.854,0.124-1.243-0.168C108.153,113.004,108.568,113.048,108.989,113.124z"/>
	<path fill-rule="evenodd" clip-rule="evenodd" fill="#F6BDD5" d="M131.482,171.624c-0.561,0.06-1.132,0.179-1.603-0.278
		C130.432,171.333,131.002,171.221,131.482,171.624z"/>
	<path fill-rule="evenodd" clip-rule="evenodd" fill="#F4AECB" d="M123.865,170.862c-0.551,0.056-1.115,0.188-1.58-0.267
		C122.83,170.576,123.388,170.482,123.865,170.862z"/>
	<path fill-rule="evenodd" clip-rule="evenodd" fill="#F9D1E2" d="M57.73,165.197c0.107,0.264,0.216,0.525,0.324,0.789l-0.035,0.036
		c-0.12-0.021-0.244-0.026-0.359-0.063c-0.236-0.074-0.516-0.188-0.489-0.459c0.028-0.285,0.349-0.252,0.571-0.295
		C57.743,165.205,57.73,165.197,57.73,165.197z"/>
	<path fill-rule="evenodd" clip-rule="evenodd" fill="#F4D374" d="M188.405,126.465c-0.042,0.039-0.085,0.078-0.127,0.116
		c-0.038-0.097-0.089-0.192-0.107-0.292c-0.006-0.03,0.077-0.076,0.118-0.115C188.328,126.271,188.367,126.367,188.405,126.465z"/>
	<path fill-rule="evenodd" clip-rule="evenodd" fill="#5E2828" d="M90.633,204.737c0.054,0.124,0.107,0.247,0.161,0.372
		c-0.188,0.101-0.441,0.106-0.507-0.062C90.201,204.824,90.424,204.742,90.633,204.737z"/>
	<path fill-rule="evenodd" clip-rule="evenodd" fill="#5E2828" d="M91.818,205.081c-0.051-0.099-0.034-0.185,0.047-0.259
		c0.146,0.045,0.291,0.088,0.436,0.131C92.206,205.248,92.002,205.128,91.818,205.081z"/>
	<path fill-rule="evenodd" clip-rule="evenodd" fill="#5E2828" d="M114.654,205.113c0.059-0.127,0.115-0.256,0.174-0.383
		c0.188,0.004,0.445,0.056,0.402,0.246C115.161,205.289,114.878,205.18,114.654,205.113z"/>
	<path fill-rule="evenodd" clip-rule="evenodd" fill="#F4D374" d="M123.436,118.076c0.334-0.007,0.609,0.104,0.792,0.397
		C123.889,118.49,123.589,118.429,123.436,118.076z"/>
	<path fill-rule="evenodd" clip-rule="evenodd" fill="#F9D1E2" d="M125.737,164.451c-0.315-0.097-0.562-0.243-0.47-0.639
		c0.152-0.021,0.305-0.043,0.457-0.063C125.729,163.983,125.733,164.217,125.737,164.451z"/>
	<path fill-rule="evenodd" clip-rule="evenodd" fill="#F4D374" d="M125.725,163.749c-0.152,0.021-0.305,0.042-0.457,0.063
		c0-0.001,0.047-0.049,0.047-0.049c0.008-0.264,0.015-0.528,0.021-0.793c0,0,0.091-0.074,0.092-0.074
		C125.744,163.104,125.771,163.414,125.725,163.749z"/>
	<path fill-rule="evenodd" clip-rule="evenodd" fill="#F4D374" d="M60.568,167.288c0.05-0.016,0.104-0.052,0.148-0.042
		c0.165,0.037,0.182,0.111,0.043,0.178c-0.039,0.02-0.109-0.004-0.153-0.027C60.582,167.383,60.58,167.326,60.568,167.288z"/>
	<path fill-rule="evenodd" clip-rule="evenodd" fill="#F4D374" d="M86.93,167.532c0.172-0.308,0.441-0.424,0.783-0.392
		C87.596,167.56,87.289,167.6,86.93,167.532z"/>
	<path fill-rule="evenodd" clip-rule="evenodd" fill="#F4D374" d="M267.985,132.923c-0.327-0.163-0.374-0.469-0.398-0.786
		C267.976,132.27,268.008,132.582,267.985,132.923z"/>
	<path fill-rule="evenodd" clip-rule="evenodd" fill="#F4D374" d="M267.604,132.166c-0.354-0.194-0.37-0.545-0.409-0.887
		C267.498,131.496,267.623,131.798,267.604,132.166z"/>
	<polygon fill-rule="evenodd" clip-rule="evenodd" fill="#A1A0A0" points="126.494,88.461 126.521,88.433 126.459,88.488 	"/>
	<path fill-rule="evenodd" clip-rule="evenodd" fill="#A1A0A0" d="M109.405,113.105c-0.14,0.008-0.28,0.016-0.419,0.023
		c0.02-0.287,0.189-0.344,0.436-0.287C109.461,112.932,109.456,113.02,109.405,113.105z"/>
	<path fill-rule="evenodd" clip-rule="evenodd" fill="#F4D374" d="M102.966,93.799c-0.129-0.032-0.179-0.111-0.151-0.236
		c0.053-0.01,0.113-0.04,0.154-0.022c0.039,0.017,0.082,0.083,0.08,0.128C103.049,93.712,102.996,93.755,102.966,93.799z"/>
	<path fill-rule="evenodd" clip-rule="evenodd" fill="#F4D374" d="M125.016,93.025c-0.127-0.038-0.17-0.119-0.127-0.24
		c0.129-0.059,0.211-0.02,0.218,0.121C125.107,92.945,125.048,92.986,125.016,93.025z"/>
	<path fill-rule="evenodd" clip-rule="evenodd" fill="#F4D374" d="M86.552,168.108c0.011-0.28,0.126-0.49,0.399-0.595
		C86.946,167.798,86.729,167.939,86.552,168.108z"/>
	<path fill-rule="evenodd" clip-rule="evenodd" fill="#F4D374" d="M87.695,167.155c0.021-0.244,0.17-0.36,0.397-0.398
		C88.113,167.042,87.947,167.143,87.695,167.155z"/>
	<path fill-rule="evenodd" clip-rule="evenodd" fill="#F9D1E2" d="M58.055,165.986c0.051,0.061,0.102,0.122,0.152,0.183
		c-0.062-0.049-0.125-0.099-0.188-0.147C58.02,166.022,58.055,165.986,58.055,165.986z"/>
	<path fill-rule="evenodd" clip-rule="evenodd" fill="#F4D374" d="M210.911,164.491c0.056,0.046,0.11,0.091,0.166,0.138
		c-0.032-0.01-0.079-0.008-0.093-0.028c-0.027-0.038-0.034-0.089-0.049-0.134L210.911,164.491z"/>
	<path fill-rule="evenodd" clip-rule="evenodd" fill="#F4D374" d="M26.061,201.727c-0.004-0.23,0.129-0.357,0.327-0.435
		c-0.001-0.001,0.118,0.121,0.118,0.122c-0.068,0.194-0.201,0.315-0.407,0.352L26.061,201.727z"/>
	<path fill-rule="evenodd" clip-rule="evenodd" fill="#F4D374" d="M26.099,201.766c-0.065,0.076-0.131,0.152-0.196,0.229
		c-0.204-0.243,0.019-0.23,0.159-0.267C26.061,201.727,26.099,201.766,26.099,201.766z"/>
	<path fill-rule="evenodd" clip-rule="evenodd" fill="#F4D374" d="M59.625,159.935c-0.154-0.138-0.309-0.276-0.463-0.414
		C59.316,159.658,59.471,159.797,59.625,159.935z"/>
	<path fill-rule="evenodd" clip-rule="evenodd" fill="#F4D374" d="M123.059,117.693c0.219,0.048,0.367,0.167,0.4,0.401
		C123.234,118.051,123.072,117.945,123.059,117.693z"/>
	<path fill-rule="evenodd" clip-rule="evenodd" fill="#F4D374" d="M124.195,118.446c0.239,0.124,0.361,0.329,0.408,0.587
		C124.467,118.838,124.332,118.643,124.195,118.446z"/>
	<path fill-rule="evenodd" clip-rule="evenodd" fill="#FBE4EE" d="M126.141,119.961c0.125,0.128,0.25,0.256,0.375,0.384
		l-0.043,0.044c-0.129-0.124-0.257-0.249-0.386-0.373L126.141,119.961z"/>
	<path fill-rule="evenodd" clip-rule="evenodd" fill="#FBE4EE" d="M126.516,120.345c0.127,0.128,0.252,0.255,0.378,0.383
		l-0.037,0.038c-0.128-0.126-0.255-0.252-0.384-0.377L126.516,120.345z"/>
	<path fill-rule="evenodd" clip-rule="evenodd" fill="#FBE4EE" d="M127.242,121.139c-0.129-0.125-0.258-0.249-0.386-0.373
		l0.037-0.038c0.125,0.128,0.25,0.257,0.374,0.385L127.242,121.139z"/>
	<path fill-rule="evenodd" clip-rule="evenodd" fill="#FBE4EE" d="M127.268,121.112c0.053,0.034,0.152,0.079,0.148,0.102
		c-0.029,0.134-0.098,0.106-0.174-0.075L127.268,121.112z"/>
	<path fill-rule="evenodd" clip-rule="evenodd" fill="#F4D374" d="M24.554,202.885c-0.046,0.059-0.092,0.117-0.138,0.176
		c0.008-0.031,0.007-0.074,0.027-0.092c0.036-0.029,0.086-0.043,0.13-0.062L24.554,202.885z"/>
	<path fill-rule="evenodd" clip-rule="evenodd" fill="#F4D374" d="M24.573,202.906c0.127-0.127,0.255-0.254,0.382-0.381
		l-0.023-0.025c-0.024,0.229-0.17,0.338-0.378,0.385L24.573,202.906z"/>
	<path fill-rule="evenodd" clip-rule="evenodd" fill="#F4D374" d="M24.955,202.525c0.062-0.053,0.127-0.105,0.19-0.158
		c-0.017,0.037-0.024,0.092-0.053,0.105c-0.047,0.023-0.106,0.02-0.161,0.027L24.955,202.525z"/>
	<path fill-rule="evenodd" clip-rule="evenodd" fill="#F4D374" d="M253.428,199.199c6.74-4.469,10.969-10.881,14.055-18.176
		c0.59-1.396,1.166-2.799,1.787-4.182c0.283-0.631,0.626-1.242,1.005-1.822c0.313-0.479,0.734-0.943,1.392-0.766
		c0.635,0.174,0.834,0.73,0.868,1.332c0.055,0.949,0.001,1.887-0.231,2.821c-0.555,2.226-1.426,4.323-2.574,6.296
		c-3.82,6.566-9.121,11.575-15.912,14.993C253.688,199.529,253.559,199.365,253.428,199.199z"/>
	<path fill-rule="evenodd" clip-rule="evenodd" fill="#A1A0A0" d="M253.428,199.199c0.131,0.166,0.261,0.33,0.389,0.497
		c-1.682,1.105-3.549,1.761-5.493,2.24C250.025,201.024,251.727,200.112,253.428,199.199z"/>
	<path fill-rule="evenodd" clip-rule="evenodd" fill="#F9D1E2" d="M101.304,145.777c0.029,0.148,0.059,0.297,0.088,0.445
		c-0.56,0.144-1.112,0.098-1.601,0.023c-0.352-0.377-0.111-0.664-0.023-0.935c1.669-5.163,3.347-10.323,5.026-15.483
		c0.077-0.238,0.172-0.474,0.284-0.698c0.076-0.155,0.179-0.344,0.4-0.269c0.109,0.037,0.234,0.135,0.277,0.237
		c0.363,0.868,0.754,1.729,0.892,2.672c-0.229-0.009-0.457-0.017-0.687-0.024c-0.007-0.125-0.012-0.25-0.023-0.375
		c-0.022-0.254-0.062-0.508-0.379-0.547c-0.227-0.027-0.34,0.146-0.402,0.319c-0.3,0.823-0.598,1.648-0.873,2.48
		c-1.265,3.808-2.526,7.616-3.777,11.429C100.295,145.696,100.353,145.732,101.304,145.777z"/>
	<path fill-rule="evenodd" clip-rule="evenodd" fill="#FBE4EE" d="M93.75,159.862c-0.109,1.044-0.731,1.751-1.544,2.323
		c-0.077,0.055-0.231-0.002-0.351-0.008c0.283-0.959,1.025-1.615,1.594-2.385C93.473,159.76,93.646,159.837,93.75,159.862z"/>
	<path fill-rule="evenodd" clip-rule="evenodd" fill="#F9D1E2" d="M125.336,162.971c-0.007,0.265-0.014,0.529-0.021,0.793
		c-0.189,0.092-0.373,0.066-0.488-0.1c-0.394-0.568-0.771-1.147-1.153-1.723c-0.127-0.191-0.036-0.341,0.098-0.48
		c0.435,0.057,0.606,0.404,0.794,0.727C124.757,162.518,124.955,162.832,125.336,162.971z"/>
	<path fill-rule="evenodd" clip-rule="evenodd" fill="#FBE4EE" d="M91.861,162.174c0.112,0.393,0.012,0.669-0.416,0.77
		C91.247,162.556,91.324,162.413,91.861,162.174z"/>
	<path fill-rule="evenodd" clip-rule="evenodd" fill="#FBE4EE" d="M91.477,162.91c-0.012,0.254-0.139,0.396-0.4,0.404
		C90.947,162.921,91.051,162.756,91.477,162.91z"/>
	<path fill-rule="evenodd" clip-rule="evenodd" fill="#FBE4EE" d="M229.346,152.092c-0.563-1.072-0.844-2.24-1.109-3.407
		c-1.112-4.887-1.135-9.765,0.193-14.62c0.385-1.404,0.945-2.744,1.662-4.014c1.941-3.443,4.752-5.87,8.509-7.132
		c4.548-1.528,9.056-1.474,13.474,0.519c0.393,0.178,0.84,0.295,1.1,0.693l-0.039,0.043c-0.604,0.098-1.104-0.205-1.629-0.418
		c-1.354-0.546-2.74-1.014-4.203-1.086c-2.021-0.098-4.033-0.104-6.043,0.336c-5.348,1.169-9.052,4.312-11.26,9.254
		c-0.96,2.147-1.383,4.436-1.699,6.774c-0.421,3.119-0.156,6.163,0.371,9.229c0.216,1.249,0.86,2.383,0.885,3.669
		C229.488,151.986,229.416,152.041,229.346,152.092z"/>
	<path fill-rule="evenodd" clip-rule="evenodd" fill="#F6BDD5" d="M232.152,156.126c0.559,0.489,0.986,1.077,1.282,1.756
		c0.116,0.269,0.023,0.464-0.269,0.547c-0.563-0.407-0.99-0.923-1.26-1.565c0.277-0.273,0.071-0.303-0.161-0.318l0.028,0.021
		c0.045-0.156,0.088-0.311,0.132-0.467C231.988,156.096,232.07,156.104,232.152,156.126z"/>
	<path fill-rule="evenodd" clip-rule="evenodd" fill="#F4D374" d="M256.68,126.663c-0.124,0.233-0.3,0.362-0.566,0.233
		c-0.586-0.283-1.168-0.574-1.457-1.217c0.317,0.006,0.634,0.012,0.951,0.018C256.054,125.92,256.441,126.209,256.68,126.663z"/>
	<path fill-rule="evenodd" clip-rule="evenodd" fill="#FBE4EE" d="M231.905,156.1c-0.044,0.156-0.087,0.311-0.132,0.467
		c-0.588-0.504-0.953-1.146-1.167-1.883l0.097-0.092c0.258,0.131,0.517,0.264,0.775,0.395l-0.025-0.034
		c0.039,0.313,0.107,0.612,0.402,0.798l-0.023-0.033C231.855,155.845,231.881,155.973,231.905,156.1z"/>
	<path fill-rule="evenodd" clip-rule="evenodd" fill="#FBE4EE" d="M255.607,125.697c-0.317-0.006-0.634-0.012-0.951-0.018
		l0.014,0.02c-0.129-0.257-0.26-0.514-0.391-0.77l0.064-0.068C254.884,124.961,255.239,125.338,255.607,125.697z"/>
	<path fill-rule="evenodd" clip-rule="evenodd" fill="#FBE4EE" d="M253.174,124.131c0.496,0.074,0.891,0.311,1.17,0.73l-0.064,0.068
		c-0.257-0.002-0.514-0.004-0.771-0.007l0.021,0.015c-0.131-0.254-0.264-0.509-0.395-0.764L253.174,124.131z"/>
	<path fill-rule="evenodd" clip-rule="evenodd" fill="#FBE4EE" d="M229.849,153.148c-0.354-0.264-0.375-0.686-0.503-1.057
		c0.07-0.051,0.143-0.105,0.211-0.16c0.479,0.262,0.396,0.713,0.385,1.139L229.849,153.148z"/>
	<path fill-rule="evenodd" clip-rule="evenodd" fill="#FBE4EE" d="M230.606,154.684c-0.293-0.168-0.351-0.455-0.388-0.756
		l0.102-0.096c0.383,0.124,0.4,0.434,0.383,0.76L230.606,154.684z"/>
	<path fill-rule="evenodd" clip-rule="evenodd" fill="#FBE4EE" d="M230.219,153.928c-0.289-0.181-0.344-0.474-0.37-0.779
		l0.093-0.078c0.388,0.125,0.393,0.438,0.379,0.762L230.219,153.928z"/>
	<path fill-rule="evenodd" clip-rule="evenodd" fill="#FBE4EE" d="M231.745,156.545c0.232,0.016,0.438,0.045,0.161,0.318
		C231.793,156.787,231.74,156.682,231.745,156.545z"/>
	<path fill-rule="evenodd" clip-rule="evenodd" fill="#F4D374" d="M256.876,127.113c-0.021,0.041-0.043,0.084-0.066,0.125
		c-0.001,0.004-0.019-0.002-0.028-0.004c0.021-0.041,0.043-0.082,0.066-0.123C256.85,127.111,256.876,127.113,256.876,127.113z"/>
	<path fill-rule="evenodd" clip-rule="evenodd" fill="#F4D374" d="M97.93,92.824c-0.561,0.111-0.98-0.229-1.379-0.506
		c-1.338-0.93-2.883-1.305-4.431-1.537c-1.683-0.251-3.402-0.194-5.104-0.076c-0.841,0.059-1.083,0.346-1.143,1.205
		c-0.027,0.378-0.014,0.758-0.014,1.137c0.001,4.734,0,9.471,0.006,14.205c0.002,1.134-0.031,2.268,0.212,3.393
		c0.142,0.659-0.019,0.736-0.858,0.531c-0.123-0.072-0.146-0.174-0.073-0.306c0.364-0.583,0.224-1.233,0.225-1.856
		c0.013-5.637,0.014-11.273,0.009-16.91c-0.001-0.764-0.018-1.52,0.416-2.197l-0.018,0.018c1.118-0.003,2.236-0.006,3.355-0.01
		c0.433-0.002,0.873,0.033,1.258-0.236c2.473,0.17,4.762,0.866,6.768,2.363C97.451,92.26,97.787,92.451,97.93,92.824z"/>
	<path fill-rule="evenodd" clip-rule="evenodd" fill="#F9D1E2" d="M85.795,89.906c-0.434,0.678-0.417,1.434-0.416,2.197
		c0.005,5.637,0.004,11.273-0.009,16.91c-0.001,0.623,0.14,1.273-0.225,1.856c-0.061-2.577-0.156-5.154-0.173-7.731
		c-0.025-3.775,0.004-7.551,0.019-11.326c0.002-0.502,0.014-1.008,0.084-1.502C85.13,89.924,85.459,89.873,85.795,89.906z"/>
	<path fill-rule="evenodd" clip-rule="evenodd" fill="#F6BDD5" d="M93.789,114.248c-0.211,0.119-0.42,0.338-0.631,0.342
		c-1.754,0.024-3.508,0.021-5.261-0.009c-0.218-0.004-0.431-0.216-0.647-0.331C89.43,114.249,91.609,114.248,93.789,114.248z"/>
	<path fill-rule="evenodd" clip-rule="evenodd" fill="#F6BDD5" d="M104.762,98.227c0.127,0.211,0.356,0.418,0.361,0.633
		c0.037,1.508,0.031,3.018,0.028,4.526c-0.001,0.265-0.155,0.468-0.368,0.623C104.776,102.082,104.77,100.154,104.762,98.227z"/>
	<path fill-rule="evenodd" clip-rule="evenodd" fill="#F9D1E2" d="M90.391,89.678c-0.385,0.27-0.825,0.234-1.258,0.236
		c-1.119,0.004-2.237,0.007-3.355,0.01c0.193-0.314,0.518-0.339,0.828-0.334C87.867,89.609,89.129,89.647,90.391,89.678z"/>
	<path fill-rule="evenodd" clip-rule="evenodd" fill="#F6BDD5" d="M104.793,103.986c0.051,1.291-0.227,2.473-1.152,3.436
		c-0.004-0.18-0.074-0.395-0.002-0.537C104.107,105.951,104.149,104.849,104.793,103.986z"/>
	<path fill-rule="evenodd" clip-rule="evenodd" fill="#F6BDD5" d="M99.1,112.349c-0.5,0.909-1.316,1.192-2.295,1.149
		C97.482,112.939,98.254,112.569,99.1,112.349z"/>
	<path fill-rule="evenodd" clip-rule="evenodd" fill="#F6BDD5" d="M95.687,113.867c-0.181,0.303-0.47,0.389-0.796,0.393
		c-0.377,0.006-0.752,0.002-1.128,0.003C94.338,113.81,95.012,113.836,95.687,113.867z"/>
	<path fill-rule="evenodd" clip-rule="evenodd" fill="#F6BDD5" d="M103.648,107.404c0.026,0.572-0.18,0.99-0.766,1.158
		C102.941,108.047,103.082,107.585,103.648,107.404z"/>
	<path fill-rule="evenodd" clip-rule="evenodd" fill="#F6BDD5" d="M96.824,113.486c-0.256,0.52-0.732,0.385-1.16,0.392
		C95.939,113.42,96.383,113.455,96.824,113.486z"/>
	<path fill-rule="evenodd" clip-rule="evenodd" fill="#F6BDD5" d="M99.858,111.962c-0.128,0.383-0.43,0.429-0.771,0.396
		C99.231,112.006,99.467,111.831,99.858,111.962z"/>
	<path fill-rule="evenodd" clip-rule="evenodd" fill="#F6BDD5" d="M102.894,108.549c0.033,0.342-0.015,0.643-0.396,0.773
		C102.357,108.925,102.537,108.691,102.894,108.549z"/>
	<path fill-rule="evenodd" clip-rule="evenodd" fill="#F6BDD5" d="M100.236,111.587c-0.031,0.233-0.172,0.354-0.396,0.392
		C99.771,111.644,99.967,111.578,100.236,111.587z"/>
	<path fill-rule="evenodd" clip-rule="evenodd" fill="#F6BDD5" d="M100.62,111.209c-0.028,0.235-0.169,0.357-0.396,0.393
		C100.212,111.325,100.371,111.223,100.62,111.209z"/>
	<path fill-rule="evenodd" clip-rule="evenodd" fill="#F6BDD5" d="M101.002,110.83c-0.033,0.23-0.167,0.359-0.396,0.395
		C100.627,110.98,100.768,110.857,101.002,110.83z"/>
	<path fill-rule="evenodd" clip-rule="evenodd" fill="#F6BDD5" d="M101.383,110.45c-0.033,0.229-0.166,0.362-0.396,0.396
		C101.014,110.609,101.146,110.477,101.383,110.45z"/>
	<path fill-rule="evenodd" clip-rule="evenodd" fill="#F6BDD5" d="M101.762,110.068c-0.037,0.227-0.164,0.363-0.395,0.397
		C101.395,110.23,101.518,110.089,101.762,110.068z"/>
	<path fill-rule="evenodd" clip-rule="evenodd" fill="#F6BDD5" d="M102.139,109.686c-0.035,0.228-0.16,0.367-0.394,0.398
		C101.757,109.833,101.857,109.671,102.139,109.686z"/>
	<path fill-rule="evenodd" clip-rule="evenodd" fill="#F6BDD5" d="M102.516,109.302c-0.039,0.224-0.162,0.364-0.393,0.397
		C102.113,109.429,102.174,109.228,102.516,109.302z"/>
	<path fill-rule="evenodd" clip-rule="evenodd" fill="#F9D1E2" d="M122.302,105.504c-0.653,1.077-1.763,1.319-2.87,1.537
		c-0.305,0.061-0.632,0.002-0.948-0.002C119.756,106.527,121.029,106.016,122.302,105.504z"/>
	<path fill-rule="evenodd" clip-rule="evenodd" fill="#F9D1E2" d="M124.574,103.223c-0.289,1.237-1.028,2.024-2.289,2.291
		C122.976,104.678,123.707,103.883,124.574,103.223z"/>
	<path fill-rule="evenodd" clip-rule="evenodd" fill="#F9D1E2" d="M118.512,107.023c-1.059,0.596-2.115,0.568-3.172-0.012
		C116.396,107.016,117.454,107.02,118.512,107.023z"/>
	<path fill-rule="evenodd" clip-rule="evenodd" fill="#F9D1E2" d="M125.715,100.939c0.035,0.66-0.013,1.28-0.77,1.547
		C125.061,101.9,125.193,101.322,125.715,100.939z"/>
	<path fill-rule="evenodd" clip-rule="evenodd" fill="#F9D1E2" d="M126.11,98.859c-0.006,0.438-0.009,0.875-0.019,1.312
		c-0.008,0.323-0.094,0.613-0.389,0.8C125.631,100.227,125.807,99.531,126.11,98.859z"/>
	<path fill-rule="evenodd" clip-rule="evenodd" fill="#F9D1E2" d="M124.961,102.463c0.014,0.336,0.015,0.664-0.398,0.779
		C124.502,102.884,124.645,102.629,124.961,102.463z"/>
	<path fill-rule="evenodd" clip-rule="evenodd" fill="#F4D374" d="M101.304,145.777c-0.951-0.045-1.009-0.081-0.798-0.725
		c1.251-3.812,2.513-7.621,3.777-11.429c0.275-0.832,0.573-1.657,0.873-2.48c0.062-0.173,0.176-0.347,0.402-0.319
		c0.316,0.039,0.356,0.293,0.379,0.547c0.012,0.125,0.017,0.25,0.023,0.375c-0.997,2.931-2.008,5.857-2.988,8.794
		C102.393,142.277,101.858,144.031,101.304,145.777z"/>
	<path fill-rule="evenodd" clip-rule="evenodd" fill="#F4D374" d="M230.32,153.832c0.014-0.324,0.009-0.637-0.379-0.762
		c0.012-0.426,0.094-0.877-0.385-1.139c-0.024-1.286-0.669-2.42-0.885-3.669c-0.527-3.065-0.792-6.109-0.371-9.229
		c0.316-2.339,0.739-4.627,1.699-6.774c2.208-4.942,5.912-8.085,11.26-9.254c2.01-0.439,4.022-0.434,6.043-0.336
		c1.463,0.072,2.85,0.54,4.203,1.086c0.525,0.213,1.025,0.516,1.629,0.418c0.131,0.255,0.264,0.51,0.395,0.764
		c-0.938,0.164-1.705-0.391-2.549-0.617c-3.961-1.063-7.897-1.045-11.713,0.516c-4.135,1.691-6.939,4.764-8.575,8.896
		c-1.032,2.608-1.558,5.321-1.592,8.139c-0.034,2.853,0.015,5.69,0.802,8.46c0.242,0.849,0.533,1.683,0.816,2.52
		c0.242,0.716,0.506,1.425,0.76,2.136c-0.259-0.131-0.518-0.264-0.775-0.395C230.721,154.266,230.703,153.956,230.32,153.832z"/>
	<path fill-rule="evenodd" clip-rule="evenodd" fill="#F4D374" d="M253.509,124.923c0.257,0.003,0.514,0.005,0.771,0.007
		c0.131,0.256,0.262,0.513,0.391,0.77C254.129,125.672,253.586,125.645,253.509,124.923z"/>
	<path fill-rule="evenodd" clip-rule="evenodd" fill="#F4D374" d="M231.855,155.75c-0.295-0.186-0.363-0.484-0.402-0.798
		C231.762,155.129,231.807,155.439,231.855,155.75z"/>
	<path fill-rule="evenodd" clip-rule="evenodd" fill="#F4D374" d="M231.905,156.1c-0.024-0.127-0.05-0.255-0.073-0.383
		c0.18,0.078,0.3,0.205,0.32,0.409C232.07,156.104,231.988,156.096,231.905,156.1z"/>
	<path fill-rule="evenodd" clip-rule="evenodd" fill="#602C2D" d="M277.404,207.379c1.227,1.033,1.23,2.412,1.574,3.634
		c-0.311,0.282-0.633,0.255-0.944,0.248c-0.771-0.019-0.887-0.095-1.108-0.754c-0.102-0.298-0.149-0.612-0.241-0.913
		c-0.366-1.197-0.593-1.371-1.884-1.416c-0.18-0.007-0.363,0.062-0.584,0.102c-0.27,0.799-0.068,1.627-0.16,2.431
		c-0.043,0.381-0.256,0.528-0.621,0.548c-0.965,0.055-1.184-0.096-1.189-0.965c-0.016-2.018-0.016-4.035,0.002-6.053
		c0.006-0.782,0.12-0.924,0.846-0.965c1.067-0.061,2.139-0.072,3.209-0.07c0.506,0,0.977,0.16,1.444,0.387
		c0.985,0.478,1.503,2.128,0.542,3.061C278.064,206.869,277.806,207.052,277.404,207.379z M274.112,205.479
		c-0.021,1.079,0.011,1.441,1.231,1.307c0.307-0.033,0.623-0.095,0.902-0.218c0.651-0.286,0.75-1.298,0.181-1.728
		c-0.595-0.449-1.269-0.494-1.954-0.279c-0.137,0.043-0.266,0.257-0.309,0.416C274.1,205.212,274.113,205.469,274.112,205.479z"/>
	<path fill-rule="evenodd" clip-rule="evenodd" fill="#FBE4EE" d="M274.112,205.479c0.001-0.01-0.013-0.267,0.052-0.502
		c0.043-0.159,0.172-0.373,0.309-0.416c0.686-0.215,1.359-0.17,1.954,0.279c0.569,0.43,0.471,1.441-0.181,1.728
		c-0.279,0.123-0.596,0.185-0.902,0.218C274.123,206.92,274.092,206.558,274.112,205.479z"/>
</g>
</svg>
