<?xml version="1.0" encoding="utf-8"?>
<!-- Generator: Adobe Illustrator 16.0.0, SVG Export Plug-In . SVG Version: 6.00 Build 0)  -->
<!DOCTYPE svg PUBLIC "-//W3C//DTD SVG 1.1//EN" "http://www.w3.org/Graphics/SVG/1.1/DTD/svg11.dtd">
<svg version="1.1" id="Layer_1" xmlns="http://www.w3.org/2000/svg" xmlns:xlink="http://www.w3.org/1999/xlink" x="0px" y="0px"
	 width="300px" height="300px" viewBox="0 0 300 300" enable-background="new 0 0 300 300" xml:space="preserve">
<g>
	<path fill="#39B44A" d="M210.924,51.323c0-6.422-0.041-6.419-6.602-6.419c-20.99,0-103.785,0-108.668,0
		c-6.582,0-6.578-0.013-6.578,6.406c0,27.16,0,170.262,0,197.327c0,6.404-0.016,6.428,6.586,6.428
		c18.834,0.072,87.084-0.008,108.666-0.032c6.586,0,6.586-0.035,6.586-6.405C210.902,221.977,210.922,82.443,210.924,51.323z
		 M210.035,247.72c0,6.307,0.004,6.341-6.49,6.341c-21.266,0.028-88.518,0.105-107.076,0.037c-6.512,0-6.488-0.026-6.488-6.37
		c0-26.805,0-168.576,0-195.476c0-6.358-0.008-6.346,6.482-6.346c4.807,0,86.395,0,107.074,0c6.469,0,6.504-0.003,6.504,6.356
		C210.039,83.085,210.021,221.324,210.035,247.72z"/>
	<path fill="#39B44A" d="M198.289,50.293c-22.252,0-94.025,0-97.428,0c-6.504,0-6.506-0.01-6.506,6.422c0,0.974,0,107.213,0,134.656
		c0,6.368,0,6.406,6.5,6.406c6.498,0,42.189,0,42.189,0l-2.09-35.007l-14.953,11.628l-6.52,1.401l11.627-13.525l-18.678,11.78
		l-10.443,1.826l17.379-16.413l-6.936,4.375l-10.443,1.823l25.902-24.458l-9.113,6.95l-8.639,1.823l18.223-20.809l-9.584,7.31
		l-8.639,1.825l20.773-23.721l-4.293,3.84l-6.406,1.581l9.436-12.625l-3.029,2.709l-6.406,1.587l16.334-21.856l-3.219,3.069
		l-4.541,1.198l20.479-29.23v0.185l20.438,29.166l-4.537-1.195l-3.213-3.065l16.322,21.846l-6.4-1.583l-3.029-2.704l9.43,12.622
		l-6.4-1.586l-4.293-3.837l20.768,23.724l-8.635-1.826l-9.584-7.312l18.219,20.811l-8.635-1.823l-9.104-6.949l25.891,24.455
		l-10.441-1.821l-6.934-4.374L196.502,176l-10.441-1.823l-18.678-11.788l11.627,13.533l-6.518-1.398l-15.01-11.676l-2.211,34.93
		c0,0,36.51,0,43.018,0c6.512,0,6.521-0.015,6.521-6.41c0-26.844,0-129.075,0-134.656C204.811,50.283,204.814,50.293,198.289,50.293
		z"/>
	<g>
		<path fill="#39B44A" d="M99.09,238.702c0,1.931,0.082,3.479,0.615,4.666c-0.311-0.054-0.645-0.085-0.982-0.085
			c-0.34,0-0.703,0.031-1.07,0.085c0.338-0.524,0.338-1.768,0.338-3.731v-8.368c0-1.96,0-3.203-0.338-3.726
			c0.338,0,0.678,0.023,1.041,0.023c0.336,0,0.674-0.023,1.012-0.023c-0.533,1.187-0.615,2.731-0.615,4.692V238.702z
			 M97.232,244.195h8.576c1.742,0,2.674,0.168,2.814,0.168c0.73,0,0.73-0.524,0.787-1.244c0.191-2.041,0.984-3.451,0.984-4.112
			c0-0.195-0.227-0.359-0.482-0.359c-0.559,0-0.477,1.021-1.57,2.262c-1.211,1.385-3.266,2.267-5.627,2.267
			c-2.25,0-2.334-0.858-2.334-3.618c0-0.248,0-0.526,0-0.801v-3.15c1.01-0.028,1.91-0.028,2.699-0.028
			c1.887,0,3.01,0.086,3.459,0.525c0.451,0.47,0.396,1.19,0.506,1.854c0.029,0.247,0.225,0.385,0.449,0.385
			c0.254,0,0.453-0.197,0.453-0.44c0-0.25-0.059-0.634-0.059-1.192c0-1.817,0.312-2.926,0.312-3.394c0-0.278-0.143-0.44-0.395-0.44
			c-0.705,0-0.42,0.965-1.125,1.405c-0.367,0.222-1.465,0.277-3.348,0.277c-0.846,0-1.826,0-2.953-0.028v-3.726
			c0-2.462,0.252-3.209,1.938-3.209h1.043c2.361,0,3.488,0.801,4.164,2.711c0.281,0.798,0.086,1.215,0.588,1.215
			c0.256,0,0.451-0.197,0.451-0.443c0-0.386-0.059-0.609-0.059-0.72c0-2.154,0.342-3.369,0.342-3.589
			c0-0.081-0.057-0.138-0.172-0.224l-0.42-0.082h-0.029c-0.307,0-1.463,0.112-3.713,0.112h-7.281c-0.957,0-1.688-0.03-2.195-0.03
			c-0.395,0-0.564,0.143-0.564,0.472c0,0.55,0.426,0.442,1.127,0.55c1.658,0.248,1.742,0.941,1.742,3.237v9.28
			c0,2.319-0.084,3.009-1.742,3.23c-0.701,0.109-1.154,0-1.154,0.55c0,0.306,0.172,0.472,0.564,0.472
			C95.516,244.336,96.275,244.195,97.232,244.195z M105.893,243.368c1.377-0.524,2.363-1.215,2.979-2.07
			c-0.164,0.579-0.248,1.271-0.334,2.07H105.893z M105.641,227.321l2.307-0.141c-0.141,0.634-0.199,1.272-0.227,1.906
			C107.242,228.203,106.568,227.679,105.641,227.321z"/>
		<path fill="#39B44A" d="M116.918,238.702c0,1.931,0.08,3.479,0.615,4.666c-0.305-0.054-0.645-0.085-0.984-0.085
			c-0.334,0-0.701,0.031-1.064,0.085c0.334-0.524,0.334-1.768,0.334-3.731v-8.368c0-1.96,0-3.203-0.334-3.726
			c0.334,0,0.674,0.023,1.037,0.023c0.34,0,0.676-0.023,1.012-0.023c-0.535,1.187-0.615,2.731-0.615,4.692V238.702z
			 M123.217,243.368c1.381-0.524,2.363-1.215,2.98-2.07c-0.168,0.579-0.281,1.271-0.363,2.07H123.217z M118.209,238.757v-5.498
			c0-3.644,0.061-5.248,1.293-5.605c0.846-0.253,1.576,0.025,1.576-0.665c0-0.301-0.166-0.413-0.559-0.413
			c-0.568,0-1.857,0.165-3.828,0.165c-1.998,0-3.289-0.165-3.852-0.165c-0.396,0-0.564,0.112-0.564,0.441
			c0,0.55,0.451,0.442,1.154,0.55c1.658,0.223,1.746,0.941,1.746,3.237v9.28c0,2.319-0.088,3.009-1.746,3.23
			c-0.703,0.109-1.154,0-1.154,0.55c0,0.306,0.168,0.472,0.564,0.472c0.504,0,1.266-0.141,2.223-0.141h8.066
			c1.748,0,2.648,0.168,2.787,0.168c0.734,0,0.762-0.524,0.816-1.244c0.199-2.041,0.988-3.451,0.988-4.112
			c0-0.195-0.23-0.359-0.482-0.359c-0.561,0-0.479,0.989-1.52,2.209c-1.352,1.573-3.039,2.319-5.146,2.319
			c-2.277,0-2.363-0.826-2.363-3.618C118.209,239.31,118.209,239.031,118.209,238.757z"/>
		<path fill="#39B44A" d="M141.668,237.18v-6.437c0-2.401,0.166-3.366,1.686-3.366c2.951,0,4.893,1.989,4.893,4.917
			c0,3.26-2.109,4.886-6.354,4.886C141.809,237.18,141.748,237.18,141.668,237.18z M140.371,239.698c0,1.075,0.141,2.29,0.365,3.67
			c-0.252-0.054-0.562-0.085-0.844-0.085c-0.311,0-0.617,0.031-0.957,0.085c0.34-0.524,0.34-1.768,0.34-3.731v-8.368
			c0-1.96,0-3.203-0.34-3.726c0.369,0,0.705,0.023,1.016,0.023c0.309,0,0.615-0.023,0.871-0.023
			c-0.311,0.88-0.451,1.766-0.451,2.566V239.698z M141.693,238.092c0.279,0,0.564,0.029,0.816,0.029c5.988,0,9.17-2.321,9.17-6.186
			c0-3.318-2.391-5.529-6.527-5.529c-1.887,0-3.568,0.281-5.061,0.281c-1.883,0-3.15-0.112-3.77-0.112
			c-0.396,0-0.562,0.112-0.562,0.441c0,0.55,0.422,0.442,1.121,0.55c1.664,0.248,1.746,0.941,1.746,3.237v9.28
			c0,2.319-0.082,3.009-1.746,3.23c-0.699,0.109-1.15,0-1.15,0.55c0,0.306,0.172,0.472,0.562,0.472c0.564,0,1.855-0.194,3.854-0.194
			c1.967,0,3.264,0.194,3.824,0.194c0.395,0,0.561-0.166,0.561-0.472c0-0.581-0.443-0.44-1.121-0.55
			c-1.352-0.222-1.717-1.077-1.717-3.011V238.092z M146.391,236.768c1.83-0.938,2.73-2.403,2.73-4.532
			c0-2.482-1.324-4.28-3.658-5.055c2.982,0.22,4.779,2.103,4.779,4.727C150.242,234.502,148.723,236.407,146.391,236.768z"/>
		<path fill="#39B44A" d="M157.834,238.702c0,1.931,0.061,3.479,0.592,4.666c-0.307-0.054-0.643-0.085-0.982-0.085
			c-0.336,0-0.703,0.031-1.068,0.085c0.34-0.524,0.34-1.768,0.34-3.731v-8.368c0-1.96,0-3.203-0.34-3.726
			c0.34,0,0.672,0.023,1.043,0.023c0.336,0,0.672-0.023,1.008-0.023c-0.531,1.187-0.592,2.731-0.592,4.692V238.702z
			 M159.129,237.623v-4.364c0-3.618,0.059-5.248,1.295-5.605c0.846-0.253,1.547,0.025,1.547-0.665c0-0.301-0.166-0.413-0.562-0.413
			c-0.564,0-1.857,0.165-3.824,0.165c-1.996,0-3.26-0.165-3.826-0.165c-0.393,0-0.561,0.112-0.561,0.441
			c0,0.55,0.418,0.442,1.127,0.55c1.656,0.248,1.742,0.941,1.742,3.237v9.28c0,2.319-0.086,3.009-1.742,3.23
			c-0.709,0.109-1.156,0-1.156,0.55c0,0.306,0.17,0.472,0.566,0.472c0.559,0,1.854-0.194,3.85-0.194c1.967,0,3.26,0.194,3.824,0.194
			c0.396,0,0.562-0.166,0.562-0.472c0-0.688-0.701-0.412-1.547-0.662C159.188,242.844,159.129,241.245,159.129,237.623z"/>
		<path fill="#39B44A" d="M180.984,240.246v2.379c-1.348-2.321-6.67-6.743-13.92-15.082c0.139,0,0.277,0.023,0.418,0.023
			c0.424,0,0.814-0.085,1.211-0.189C170.074,229.366,174.121,233.673,180.984,240.246z M167.008,228.479
			c4.998,5.858,9.055,9.531,11.193,11.824c1.035,1.104,1.963,2.183,2.611,3.425c0.254,0.498,0.254,0.911,0.678,0.911
			c0.279,0,0.426-0.304,0.426-0.883v-10.554c0-3.588,0.053-5.192,1.289-5.55c0.842-0.253,1.574,0.025,1.574-0.665
			c0-0.301-0.166-0.413-0.561-0.413c-0.537,0-1.463,0.139-2.729,0.139c-1.52,0-2.559-0.139-3.152-0.139
			c-0.453,0-0.643,0.112-0.643,0.413c0,0.69,0.785,0.445,1.797,0.69c1.41,0.357,1.492,1.881,1.492,5.58v5.553
			c-3.939-3.866-7.34-7.183-9.959-10.194c-1.15-1.327-1.576-2.042-2.051-2.042c-0.174,0-1.041,0.112-2.672,0.112
			c-1.016,0-1.742-0.112-2.195-0.112c-0.336,0-0.48,0.139-0.48,0.441c0,0.55,0.371,0.442,0.986,0.55
			c1.461,0.248,1.461,1.022,1.461,3.237v6.848c0,3.594-0.057,5.192-1.289,5.551c-0.85,0.25-1.576-0.026-1.576,0.662
			c0,0.306,0.168,0.472,0.562,0.472c0.506,0,1.408-0.166,2.729-0.166c1.545,0,2.584,0.166,3.148,0.166
			c0.451,0,0.676-0.166,0.676-0.472c0-0.688-0.842-0.412-1.826-0.662c-1.408-0.358-1.49-1.879-1.49-5.579V228.479z"/>
		<path fill="#39B44A" d="M195.635,243.702c-2.051,0-3.854-1.189-5.316-3.537c-0.982-1.599-1.607-3.784-1.607-6.105
			c0-4.28,2.455-7.043,5.883-7.043c2.111,0,3.766,1.02,5.174,3.093c1.238,1.798,1.855,3.786,1.855,5.83
			C201.623,240.552,198.898,243.702,195.635,243.702z M195.24,244.775c2.816,0,5.148-0.88,6.975-2.648
			c1.801-1.739,2.811-4.116,2.811-6.657c0-2.738-0.924-4.974-2.723-6.688c-1.828-1.739-4.246-2.704-7.062-2.704
			c-2.811,0-5.176,0.938-6.973,2.679c-1.803,1.766-2.814,4.118-2.814,6.685c0,2.734,0.902,4.97,2.668,6.657
			C190.01,243.864,192.396,244.775,195.24,244.775z M192.566,243.729c-3.934-1.079-6.268-4.197-6.268-8.287
			c0-3.425,1.854-6.547,4.471-7.736c-2.164,1.878-3.318,4.505-3.318,7.46C187.451,239.031,189.17,241.906,192.566,243.729z
			 M200.076,242.568c1.635-2.017,2.393-4.114,2.393-6.574c0-3.953-1.971-7.431-5.037-8.978c3.492,0.55,6.135,4.199,6.135,8.783
			C203.566,238.867,202.271,241.298,200.076,242.568z"/>
	</g>
	<g>
		<path fill="#39B44A" d="M108.211,214.459c0,1.261,0.057,2.272,0.408,3.053c-0.207-0.037-0.428-0.056-0.646-0.056
			c-0.221,0-0.457,0.019-0.699,0.056c0.184-0.287,0.205-0.942,0.205-1.915c0-0.162,0-0.342,0-0.526v-5.466c0-0.182,0-0.365,0-0.526
			c0-0.971-0.021-1.625-0.205-1.912c0.221,0,0.443,0.021,0.68,0.021c0.223,0,0.441-0.021,0.666-0.021
			c-0.352,0.777-0.408,1.787-0.408,3.068V214.459z M98.047,209.295c-0.473-0.991-0.898-1.696-1.229-2.129
			c0.273,0,0.533,0.021,0.809,0.021c0.256,0,0.531-0.021,0.789-0.021c-0.035,0.219-0.074,0.379-0.074,0.503
			c0,0.365,0.148,0.908,0.477,1.57l2.738,5.635c0.053,0.125,0.334,0.593,0.777,1.409l-0.426,0.959L98.047,209.295z M96.799,213.757
			v-5.979l4.703,9.696c0.186,0.378,0.277,0.631,0.48,0.631c0.164,0,0.273-0.234,0.459-0.612l4.629-9.824v7.692
			c0,1.517-0.072,1.967-1.154,2.113c-0.459,0.073-0.734,0-0.734,0.362c0,0.198,0.105,0.306,0.369,0.306
			c0.365,0,1.209-0.128,2.512-0.128c1.311,0,2.137,0.128,2.502,0.128c0.258,0,0.367-0.107,0.367-0.306
			c0-0.456-0.459-0.274-1.01-0.436c-0.811-0.235-0.863-1.263-0.863-3.645v-2.854c0-2.383,0.053-3.432,0.863-3.662
			c0.551-0.166,1.01,0.016,1.01-0.436c0-0.198-0.109-0.271-0.367-0.271c-0.42,0-1.215,0.106-2.373,0.106
			c-1.098,0-1.781-0.106-2.039-0.106c-0.203,0-0.312,0-0.312,0.216c0,0.181,0.496,0.253,0.496,0.684c0,0.253-0.09,0.618-0.289,1.032
			l-3.312,6.895c-0.4-0.74-0.734-1.39-1.027-1.982l-2.227-4.643c-0.197-0.433-0.271-0.85-0.271-1.102
			c0-0.594,0.566-0.688,0.566-0.938c0-0.161-0.072-0.161-0.275-0.161c-0.352,0-1.102,0.106-2.314,0.106
			c-1.305,0-2.131-0.106-2.5-0.106c-0.26,0-0.367,0.072-0.367,0.287c0,0.365,0.271,0.291,0.736,0.365
			c1.082,0.158,1.139,0.609,1.139,2.107v4.48c0,2.345-0.041,3.391-0.85,3.626c-0.549,0.161-1.025-0.021-1.025,0.436
			c0,0.198,0.107,0.306,0.367,0.306c0.33,0,0.918-0.107,1.783-0.107c1.008,0,1.689,0.107,2.057,0.107
			c0.293,0,0.441-0.107,0.441-0.306c0-0.456-0.551-0.274-1.193-0.436C96.852,217.166,96.799,216.176,96.799,213.757z"/>
		<path fill="#39B44A" d="M118.836,217.728c-1.344,0-2.52-0.777-3.477-2.311c-0.643-1.049-1.047-2.474-1.047-3.991
			c0-2.799,1.6-4.604,3.842-4.604c1.383,0,2.463,0.672,3.383,2.023c0.809,1.176,1.211,2.473,1.211,3.811
			C122.748,215.67,120.969,217.728,118.836,217.728z M118.574,218.43c1.842,0,3.369-0.577,4.559-1.732
			c1.178-1.137,1.838-2.689,1.838-4.349c0-1.786-0.604-3.25-1.781-4.371c-1.191-1.133-2.773-1.769-4.615-1.769
			c-1.834,0-3.379,0.613-4.555,1.753c-1.176,1.152-1.836,2.687-1.836,4.364c0,1.791,0.588,3.254,1.742,4.353
			C115.156,217.837,116.721,218.43,118.574,218.43z M116.832,217.746c-2.574-0.705-4.098-2.747-4.098-5.42
			c0-2.238,1.211-4.273,2.924-5.054c-1.418,1.229-2.172,2.943-2.172,4.873C113.486,214.678,114.607,216.552,116.832,217.746z
			 M121.74,216.987c1.062-1.317,1.561-2.69,1.561-4.299c0-2.578-1.289-4.857-3.291-5.866c2.281,0.365,4.01,2.744,4.01,5.74
			C124.02,214.568,123.17,216.154,121.74,216.987z"/>
		<path fill="#39B44A" d="M129.236,215.108c0,0.707,0.096,1.498,0.24,2.403c-0.168-0.037-0.365-0.056-0.553-0.056
			c-0.205,0-0.4,0.019-0.625,0.056c0.225-0.346,0.225-1.156,0.225-2.441v-5.466c0-1.283,0-2.095-0.225-2.438
			c0.24,0,0.459,0.021,0.662,0.021s0.402-0.021,0.568-0.021c-0.197,0.577-0.293,1.155-0.293,1.68V215.108z M130.08,211.59v-2.332
			c0-1.786,0.076-2.254,1.232-2.254c1.379,0,2.301,0.902,2.301,2.329c0,1.495-0.902,2.291-2.666,2.291
			C130.707,211.624,130.432,211.624,130.08,211.59z M130.08,212.164c0.314-0.034,0.607-0.053,0.887-0.053
			c2.256,0,3.545,1.12,3.545,2.799c0,1.553-1.121,2.727-2.684,2.727c-0.387,0-0.9-0.089-1.547-0.256
			c-0.125-0.882-0.201-1.692-0.201-2.42V212.164z M128.096,209.295v6.066c0,1.517-0.055,1.967-1.139,2.113
			c-0.459,0.073-0.754,0-0.754,0.362c0,0.198,0.111,0.306,0.369,0.306c0.385,0,1.234-0.128,2.518-0.128
			c1.102,0,2.279,0.234,3.453,0.234c2.428,0,4.006-1.479,4.006-3.462c0-1.68-1.318-2.799-3.689-3.001
			c1.74-0.287,2.721-1.263,2.721-2.616c0-1.625-1.289-2.744-3.457-2.744c-0.977,0-2.004,0.182-3.068,0.182
			c-1.248,0-2.078-0.091-2.467-0.091c-0.254,0-0.365,0.091-0.365,0.306c0,0.365,0.275,0.291,0.734,0.365
			C128.041,207.346,128.096,207.797,128.096,209.295z M133.223,211.28c0.59-0.614,0.865-1.227,0.865-2.004
			c0-1.046-0.475-1.823-1.414-2.345c1.252,0.088,2.094,1.03,2.094,2.258C134.768,210.2,134.199,210.975,133.223,211.28z
			 M133.223,212.201c1.475,0.057,2.445,1.139,2.445,2.673c0,1.751-0.881,2.781-2.498,2.888c1.158-0.558,1.82-1.572,1.82-2.801
			C134.99,213.719,134.344,212.728,133.223,212.201z"/>
		<path fill="#39B44A" d="M140.74,214.459c0,1.261,0.037,2.272,0.391,3.053c-0.207-0.037-0.426-0.056-0.643-0.056
			c-0.225,0-0.463,0.019-0.699,0.056c0.217-0.346,0.217-1.156,0.217-2.441v-5.466c0-1.283,0-2.095-0.217-2.438
			c0.217,0,0.443,0.021,0.676,0.021c0.223,0,0.443-0.021,0.666-0.021c-0.354,0.777-0.391,1.787-0.391,3.068V214.459z
			 M141.586,213.757v-2.854c0-2.363,0.037-3.432,0.846-3.662c0.551-0.166,1.012,0.016,1.012-0.436c0-0.198-0.111-0.271-0.367-0.271
			c-0.371,0-1.211,0.106-2.502,0.106c-1.301,0-2.131-0.106-2.5-0.106c-0.254,0-0.365,0.072-0.365,0.287
			c0,0.365,0.277,0.291,0.734,0.365c1.086,0.158,1.139,0.609,1.139,2.107v6.066c0,1.517-0.053,1.967-1.139,2.113
			c-0.457,0.073-0.754,0-0.754,0.362c0,0.198,0.109,0.306,0.369,0.306c0.369,0,1.215-0.128,2.516-0.128
			c1.291,0,2.131,0.128,2.502,0.128c0.256,0,0.367-0.107,0.367-0.306c0-0.456-0.461-0.274-1.012-0.436
			C141.623,217.166,141.586,216.12,141.586,213.757z"/>
		<path fill="#39B44A" d="M147.268,214.459c0,1.261,0.055,2.272,0.404,3.053c-0.203-0.037-0.426-0.056-0.646-0.056
			c-0.217,0-0.457,0.019-0.697,0.056c0.219-0.346,0.219-1.156,0.219-2.441v-5.466c0-1.283,0-2.095-0.219-2.438
			c0.219,0,0.443,0.021,0.68,0.021c0.221,0,0.443-0.021,0.664-0.021c-0.35,0.777-0.404,1.787-0.404,3.068V214.459z M151.379,217.512
			c0.906-0.346,1.549-0.796,1.955-1.357c-0.111,0.384-0.188,0.833-0.24,1.357H151.379z M148.107,214.496v-3.593
			c0-2.383,0.041-3.432,0.848-3.662c0.555-0.166,1.029,0.016,1.029-0.436c0-0.198-0.105-0.271-0.365-0.271
			c-0.365,0-1.217,0.106-2.5,0.106c-1.307,0-2.15-0.106-2.518-0.106c-0.256,0-0.365,0.072-0.365,0.287
			c0,0.365,0.293,0.291,0.748,0.365c1.092,0.141,1.145,0.609,1.145,2.107v6.066c0,1.517-0.053,1.967-1.145,2.113
			c-0.455,0.073-0.748,0-0.748,0.362c0,0.198,0.109,0.306,0.365,0.306c0.33,0,0.828-0.087,1.453-0.087h5.277
			c1.135,0,1.727,0.103,1.814,0.103c0.479,0,0.498-0.339,0.537-0.812c0.125-1.335,0.641-2.256,0.641-2.688
			c0-0.128-0.146-0.237-0.312-0.237c-0.367,0-0.314,0.649-0.992,1.446c-0.883,1.03-1.982,1.514-3.363,1.514
			c-1.486,0-1.549-0.538-1.549-2.361C148.107,214.856,148.107,214.678,148.107,214.496z"/>
		<path fill="#39B44A" d="M157.98,214.459c0,1.261,0.039,2.272,0.387,3.053c-0.199-0.037-0.422-0.056-0.645-0.056
			c-0.221,0-0.457,0.019-0.699,0.056c0.223-0.346,0.223-1.156,0.223-2.441v-5.466c0-1.283,0-2.095-0.223-2.438
			c0.223,0,0.443,0.021,0.682,0.021c0.221,0,0.443-0.021,0.662-0.021c-0.348,0.777-0.387,1.787-0.387,3.068V214.459z
			 M158.826,213.757v-2.854c0-2.363,0.041-3.432,0.848-3.662c0.551-0.166,1.006,0.016,1.006-0.436c0-0.198-0.109-0.271-0.363-0.271
			c-0.367,0-1.217,0.106-2.504,0.106c-1.301,0-2.127-0.106-2.498-0.106c-0.254,0-0.367,0.072-0.367,0.287
			c0,0.365,0.277,0.291,0.738,0.365c1.082,0.158,1.137,0.609,1.137,2.107v6.066c0,1.517-0.055,1.967-1.137,2.113
			c-0.461,0.073-0.754,0-0.754,0.362c0,0.198,0.107,0.306,0.365,0.306c0.371,0,1.215-0.128,2.516-0.128
			c1.287,0,2.137,0.128,2.504,0.128c0.254,0,0.363-0.107,0.363-0.306c0-0.456-0.455-0.274-1.006-0.436
			C158.867,217.166,158.826,216.12,158.826,213.757z"/>
		<path fill="#39B44A" d="M164.357,213.572l1.895-4.419l1.689,4.419H164.357z M164.102,214.188h4.062l0.568,1.518
			c0.146,0.376,0.277,0.701,0.277,1.063c0,0.418-0.316,0.632-0.939,0.705c-0.348,0.037-0.551,0.073-0.551,0.323
			c0,0.258,0.074,0.345,0.332,0.345c0.328,0,1.123-0.128,2.314-0.128c1.176,0,1.947,0.128,2.299,0.128c0.223,0,0.35-0.107,0.35-0.29
			c0-0.341-0.221-0.305-0.57-0.396c-0.828-0.2-1.123-0.957-1.674-2.348l-2.279-5.704c-0.789-1.97-0.754-3.195-1.176-3.195
			c-0.367,0-0.404,0.723-0.863,1.753l-2.965,6.641c-0.713,1.607-1.047,2.563-1.812,2.835c-0.33,0.125-0.645,0.019-0.645,0.399
			c0,0.198,0.111,0.306,0.371,0.306c0.365,0,0.877-0.087,1.537-0.087c0.795,0,1.344,0.087,1.672,0.087
			c0.26,0,0.373-0.107,0.373-0.323c0-0.271-0.186-0.292-0.531-0.326c-0.627-0.056-0.922-0.237-0.922-0.762
			c0-0.251,0.092-0.774,0.35-1.461L164.102,214.188z M166.508,208.611l0.385-0.977l2.91,7.62c0.455,1.189,0.73,1.933,1.082,2.163
			c-0.242-0.017-0.498-0.037-0.738-0.037c-0.256,0-0.498,0.021-0.734,0.037c0.092-0.176,0.129-0.321,0.129-0.449
			c0-0.271-0.148-0.721-0.385-1.356L166.508,208.611z"/>
		<path fill="#39B44A" d="M176.027,214.459c0,1.299,0.072,2.311,0.408,3.053c-0.205-0.037-0.424-0.056-0.645-0.056
			c-0.223,0-0.459,0.019-0.699,0.056c0.221-0.363,0.221-1.174,0.221-2.441v-5.466c0-1.283,0-2.095-0.221-2.438
			c0.24,0,0.457,0.021,0.66,0.021c0.201,0,0.404-0.021,0.568-0.021c-0.197,0.577-0.293,1.155-0.293,1.68V214.459z M176.877,212.529
			l0.568,0.068c2.715,3.541,4.152,5.545,6.32,5.545c0.734,0,1.16-0.181,1.16-0.437c0-0.269-0.391-0.25-0.793-0.519
			c-0.754-0.509-2.221-2.058-4.393-4.733c1.785-0.29,2.795-1.423,2.795-2.94c0-1.826-1.396-3.088-3.711-3.088
			c-0.902,0-1.898,0.182-2.979,0.182c-1.252,0-2.078-0.072-2.465-0.072c-0.258,0-0.365,0.072-0.365,0.287
			c0,0.365,0.277,0.291,0.736,0.365c1.082,0.158,1.139,0.609,1.139,2.107v6.066c0,1.517-0.057,1.967-1.139,2.113
			c-0.459,0.073-0.756,0-0.756,0.362c0,0.198,0.113,0.306,0.367,0.306c0.369,0,1.23-0.128,2.518-0.128
			c1.252,0,2.041,0.128,2.354,0.128c0.221,0,0.332-0.107,0.332-0.306c0-0.456-0.443-0.274-0.922-0.436
			c-0.754-0.253-0.768-1.299-0.768-3.645V212.529z M178.896,212.562c2.332,3.267,4.154,4.949,5.148,5.112
			c-0.17,0.031-0.371,0.053-0.574,0.053c-1.213,0-2.92-1.734-5.367-5.13C178.344,212.598,178.602,212.581,178.896,212.562z
			 M176.877,212.039v-2.562c0-1.967,0.072-2.473,1.301-2.473c1.361,0,2.316,0.992,2.316,2.473c0,1.607-1.012,2.617-2.775,2.617
			C177.518,212.094,177.223,212.075,176.877,212.039z M179.43,212.13c1.025-0.595,1.562-1.499,1.562-2.632
			c0-1.052-0.441-1.899-1.309-2.53c1.18,0.273,1.969,1.3,1.969,2.58C181.652,210.975,180.879,211.88,179.43,212.13z"/>
		<path fill="#39B44A" d="M188.178,214.459c0,1.261,0.035,2.272,0.385,3.053c-0.201-0.037-0.424-0.056-0.641-0.056
			c-0.225,0-0.463,0.019-0.703,0.056c0.223-0.346,0.223-1.156,0.223-2.441v-5.466c0-1.283,0-2.095-0.223-2.438
			c0.223,0,0.443,0.021,0.682,0.021c0.219,0,0.439-0.021,0.662-0.021c-0.35,0.777-0.385,1.787-0.385,3.068V214.459z M189.02,213.757
			v-2.854c0-2.363,0.041-3.432,0.85-3.662c0.551-0.166,1.012,0.016,1.012-0.436c0-0.198-0.115-0.271-0.371-0.271
			c-0.365,0-1.215,0.106-2.498,0.106c-1.307,0-2.135-0.106-2.502-0.106c-0.258,0-0.367,0.072-0.367,0.287
			c0,0.365,0.279,0.291,0.734,0.365c1.086,0.158,1.139,0.609,1.139,2.107v6.066c0,1.517-0.053,1.967-1.139,2.113
			c-0.455,0.073-0.75,0-0.75,0.362c0,0.198,0.109,0.306,0.369,0.306c0.365,0,1.209-0.128,2.516-0.128
			c1.283,0,2.133,0.128,2.498,0.128c0.256,0,0.371-0.107,0.371-0.306c0-0.456-0.461-0.274-1.012-0.436
			C189.061,217.166,189.02,216.12,189.02,213.757z"/>
		<path fill="#39B44A" d="M198.801,217.728c-1.344,0-2.521-0.777-3.477-2.311c-0.646-1.049-1.047-2.474-1.047-3.991
			c0-2.799,1.6-4.604,3.84-4.604c1.385,0,2.465,0.672,3.383,2.023c0.811,1.176,1.213,2.473,1.213,3.811
			C202.713,215.67,200.932,217.728,198.801,217.728z M198.543,218.43c1.838,0,3.361-0.577,4.559-1.732
			c1.174-1.137,1.834-2.689,1.834-4.349c0-1.786-0.607-3.25-1.781-4.371c-1.195-1.133-2.773-1.769-4.611-1.769
			s-3.379,0.613-4.557,1.753c-1.178,1.152-1.84,2.687-1.84,4.364c0,1.791,0.586,3.254,1.744,4.353
			C195.125,217.837,196.682,218.43,198.543,218.43z M196.797,217.746c-2.574-0.705-4.1-2.747-4.1-5.42
			c0-2.238,1.209-4.273,2.922-5.054c-1.414,1.229-2.168,2.943-2.168,4.873C193.451,214.678,194.572,216.552,196.797,217.746z
			 M201.705,216.987c1.062-1.317,1.564-2.69,1.564-4.299c0-2.578-1.293-4.857-3.295-5.866c2.279,0.365,4.006,2.744,4.006,5.74
			C203.98,214.568,203.137,216.154,201.705,216.987z"/>
	</g>
	<g>
		<g>
			<path fill="#39B44A" d="M166.246,251.569l-0.131-0.665c-0.006-0.013-0.006-0.028-0.01-0.044
				c-0.002-0.014-0.002-0.037-0.002-0.065c0-0.029,0.006-0.055,0.016-0.072c0.012-0.016,0.031-0.02,0.053-0.02
				c0.047,0,0.09,0.058,0.135,0.179c0.041,0.112,0.078,0.206,0.117,0.276c0.092,0.188,0.236,0.333,0.426,0.442
				c0.188,0.109,0.402,0.162,0.641,0.162c0.307,0,0.557-0.084,0.74-0.25c0.189-0.167,0.277-0.384,0.277-0.657
				c0-0.227-0.07-0.404-0.203-0.535c-0.141-0.128-0.41-0.253-0.812-0.363c-0.475-0.14-0.799-0.296-0.984-0.477
				c-0.18-0.178-0.271-0.425-0.271-0.73c0-0.324,0.125-0.587,0.369-0.793c0.248-0.206,0.574-0.305,0.975-0.305
				c0.225,0,0.459,0.049,0.709,0.146c0.068,0.023,0.111,0.033,0.131,0.033c0.025,0,0.057-0.006,0.092-0.029
				c0.039-0.021,0.061-0.033,0.066-0.033c0.014,0,0.02,0.007,0.029,0.026c0.006,0.018,0.012,0.033,0.016,0.055l0.084,0.735
				c0.002,0.008,0.002,0.019,0.004,0.029c0,0.01,0,0.025,0,0.047c0,0.028-0.004,0.051-0.014,0.066
				c-0.016,0.012-0.035,0.019-0.053,0.019c-0.051,0-0.088-0.047-0.123-0.138c-0.031-0.091-0.066-0.168-0.102-0.219
				c-0.131-0.201-0.27-0.343-0.422-0.431c-0.148-0.087-0.332-0.131-0.543-0.131c-0.26,0-0.479,0.071-0.648,0.212
				s-0.258,0.322-0.258,0.531c0,0.191,0.053,0.343,0.162,0.447c0.109,0.113,0.354,0.229,0.738,0.349
				c0.318,0.097,0.543,0.175,0.674,0.234c0.131,0.062,0.234,0.125,0.309,0.196c0.135,0.119,0.23,0.253,0.297,0.406
				c0.062,0.151,0.096,0.327,0.096,0.524c0,0.384-0.133,0.689-0.404,0.914c-0.27,0.226-0.633,0.341-1.096,0.341
				c-0.291,0-0.535-0.041-0.74-0.122C166.383,251.784,166.271,251.685,166.246,251.569z"/>
			<path fill="#39B44A" d="M173.967,250.114c-0.021-0.013-0.035-0.029-0.035-0.057c0-0.016,0.004-0.034,0.01-0.048
				c0.006-0.019,0.016-0.039,0.025-0.061l0.662-1.385c0.006-0.023,0.021-0.039,0.035-0.052c0.016-0.011,0.029-0.019,0.043-0.019
				c0.01,0,0.025,0.008,0.041,0.021c0.014,0.013,0.021,0.031,0.031,0.054l0.559,1.406l0.002,0.009
				c0.018,0.046,0.025,0.073,0.025,0.089c0,0.021-0.008,0.035-0.027,0.046c-0.021,0.008-0.051,0.014-0.086,0.014h-1.166
				C174.031,250.133,173.992,250.127,173.967,250.114z M172.922,251.588c-0.051,0.068-0.102,0.122-0.148,0.159
				c-0.025,0.016-0.068,0.034-0.117,0.058c-0.01,0.003-0.02,0.006-0.021,0.006h-0.004c-0.068,0.03-0.105,0.059-0.105,0.088
				c0,0.021,0.008,0.042,0.023,0.058s0.031,0.025,0.051,0.025c0.012,0,0.057-0.01,0.133-0.019c0.076-0.013,0.146-0.02,0.209-0.02
				c0.131,0,0.275,0.007,0.43,0.02c0.158,0.009,0.242,0.019,0.266,0.019c0.037,0,0.062-0.01,0.078-0.019
				c0.012-0.013,0.021-0.03,0.021-0.055c0-0.046-0.037-0.07-0.113-0.083c-0.043-0.008-0.08-0.018-0.105-0.025
				c-0.076-0.028-0.133-0.065-0.17-0.112c-0.039-0.047-0.055-0.097-0.055-0.151c0-0.039,0.002-0.079,0.016-0.125
				c0.012-0.047,0.039-0.104,0.072-0.181l0.303-0.636c0.039-0.095,0.08-0.152,0.119-0.181c0.033-0.025,0.086-0.042,0.154-0.042
				h1.375c0.07,0,0.125,0.017,0.162,0.039c0.037,0.023,0.068,0.074,0.1,0.152l0.314,0.803c0.018,0.053,0.033,0.094,0.045,0.131
				c0.01,0.039,0.018,0.072,0.018,0.097c0,0.05-0.018,0.091-0.049,0.125c-0.027,0.031-0.08,0.06-0.156,0.086
				c-0.006,0.003-0.018,0.006-0.031,0.013c-0.072,0.023-0.105,0.058-0.105,0.099c0,0.014,0.006,0.031,0.02,0.047
				s0.027,0.021,0.043,0.021c0.014,0,0.043-0.003,0.086-0.006c0.164-0.022,0.324-0.035,0.484-0.035c0.148,0,0.299,0.007,0.459,0.02
				c0.156,0.009,0.234,0.019,0.236,0.019c0.031,0,0.053-0.008,0.062-0.018c0.016-0.011,0.02-0.031,0.02-0.056
				c0-0.043-0.043-0.07-0.131-0.086c-0.064-0.015-0.115-0.025-0.15-0.041c-0.08-0.031-0.158-0.094-0.221-0.175
				c-0.062-0.084-0.131-0.214-0.201-0.387l-1.377-3.472c-0.002,0-0.004-0.002-0.004-0.005c-0.023-0.057-0.049-0.087-0.076-0.087
				c-0.021,0-0.041,0.006-0.053,0.015c-0.016,0.008-0.029,0.031-0.047,0.069l-1.693,3.554
				C173.023,251.421,172.969,251.52,172.922,251.588z"/>
			<path fill="#39B44A" d="M183.658,251.551c-0.117,0.112-0.271,0.168-0.467,0.168c-0.258,0-0.486-0.118-0.68-0.357
				c-0.191-0.235-0.291-0.515-0.291-0.843c0-0.311,0.072-0.561,0.223-0.751c0.15-0.196,0.336-0.29,0.568-0.29
				c0.115,0,0.234,0.019,0.35,0.062c0.115,0.04,0.219,0.099,0.305,0.175c0.057,0.053,0.1,0.103,0.129,0.162
				c0.025,0.053,0.041,0.128,0.041,0.222v1.018C183.836,251.298,183.775,251.441,183.658,251.551z M183.836,251.865
				c0,0.033,0.002,0.059,0.016,0.078c0.008,0.02,0.023,0.028,0.047,0.028c0.008,0,0.062-0.016,0.168-0.047
				c0.109-0.028,0.213-0.05,0.322-0.065c0.021-0.006,0.053-0.01,0.086-0.013c0.139-0.016,0.201-0.05,0.201-0.097
				c-0.002-0.024-0.012-0.044-0.031-0.056c-0.023-0.013-0.051-0.02-0.084-0.02h-0.051c-0.09,0-0.16-0.027-0.193-0.084
				c-0.035-0.055-0.051-0.188-0.051-0.394v-2.663c0-0.315,0.01-0.618,0.025-0.903c0.004-0.042,0.006-0.07,0.006-0.076
				c0-0.028-0.006-0.057-0.018-0.072c-0.014-0.021-0.031-0.028-0.057-0.028c-0.021,0-0.078,0.025-0.16,0.073
				c-0.08,0.052-0.16,0.088-0.227,0.114c-0.051,0.021-0.1,0.037-0.152,0.052c-0.051,0.019-0.102,0.026-0.148,0.034h-0.014
				c-0.096,0.023-0.143,0.049-0.143,0.076c0,0.025,0.014,0.047,0.039,0.06c0.021,0.016,0.055,0.021,0.102,0.021h0.062
				c0.1,0,0.166,0.031,0.203,0.098c0.035,0.062,0.053,0.193,0.053,0.385v1.191c-0.115-0.075-0.234-0.133-0.352-0.169
				c-0.119-0.04-0.236-0.059-0.357-0.059c-0.34,0-0.639,0.14-0.889,0.413c-0.25,0.279-0.373,0.612-0.373,1.009
				c0,0.354,0.098,0.649,0.291,0.882c0.197,0.234,0.443,0.35,0.744,0.35c0.184,0,0.354-0.034,0.506-0.106
				c0.152-0.076,0.293-0.184,0.428-0.334V251.865z"/>
			<path fill="#39B44A" d="M185.73,249.677c0.111-0.134,0.25-0.199,0.422-0.199c0.184,0,0.338,0.062,0.473,0.19
				c0.133,0.128,0.197,0.271,0.197,0.437c0,0.051-0.023,0.081-0.074,0.101c-0.053,0.016-0.178,0.024-0.381,0.024h-0.838
				C185.555,249.997,185.621,249.81,185.73,249.677z M187.117,250.389c0.1,0,0.158-0.009,0.18-0.024
				c0.02-0.016,0.031-0.044,0.031-0.091c0-0.078-0.021-0.165-0.059-0.259c-0.037-0.091-0.096-0.179-0.164-0.269
				c-0.107-0.138-0.238-0.244-0.381-0.314c-0.143-0.069-0.305-0.105-0.486-0.105c-0.311,0-0.58,0.139-0.811,0.41
				c-0.229,0.275-0.342,0.603-0.342,0.98c0,0.355,0.113,0.657,0.338,0.9c0.225,0.245,0.5,0.37,0.828,0.37
				c0.189,0,0.359-0.031,0.521-0.095c0.158-0.064,0.309-0.161,0.455-0.292c0.047-0.044,0.082-0.081,0.102-0.112
				c0.021-0.031,0.031-0.059,0.031-0.083c0-0.018,0-0.03-0.01-0.036c-0.002-0.003-0.016-0.005-0.031-0.005s-0.057,0.021-0.119,0.062
				c-0.234,0.155-0.467,0.236-0.693,0.236c-0.303,0-0.541-0.116-0.719-0.346c-0.18-0.232-0.268-0.541-0.268-0.929H187.117z"/>
			<path fill="#39B44A" d="M194.664,251.505c-0.219,0.158-0.459,0.279-0.723,0.36c-0.266,0.078-0.557,0.119-0.875,0.119
				c-0.639,0-1.148-0.188-1.518-0.565c-0.371-0.381-0.559-0.896-0.559-1.55c0-0.329,0.055-0.634,0.16-0.913
				c0.109-0.279,0.266-0.527,0.471-0.737c0.184-0.194,0.398-0.34,0.643-0.437c0.244-0.096,0.521-0.144,0.832-0.144
				c0.184,0,0.361,0.018,0.527,0.055c0.166,0.034,0.334,0.086,0.498,0.16c0.07,0.031,0.154,0.078,0.248,0.141
				c0.09,0.062,0.152,0.094,0.178,0.094c0.018,0,0.043-0.009,0.074-0.028c0.031-0.019,0.053-0.027,0.066-0.027
				c0.02,0,0.033,0.013,0.043,0.031s0.018,0.048,0.018,0.09l0.064,0.625c0,0.019,0,0.034,0,0.053
				c0.002,0.015,0.002,0.041,0.002,0.068c0,0.039-0.002,0.067-0.012,0.078c-0.012,0.019-0.027,0.025-0.055,0.025
				c-0.043,0-0.096-0.06-0.145-0.178c-0.039-0.085-0.07-0.148-0.098-0.197c-0.168-0.262-0.377-0.471-0.621-0.613
				c-0.242-0.148-0.5-0.216-0.779-0.216c-0.477,0-0.861,0.168-1.158,0.503c-0.297,0.336-0.445,0.777-0.445,1.319
				c0,0.631,0.156,1.147,0.471,1.547c0.314,0.404,0.711,0.604,1.193,0.604c0.219,0,0.432-0.04,0.645-0.124
				c0.209-0.085,0.398-0.203,0.561-0.356c0.078-0.071,0.152-0.165,0.223-0.281c0.072-0.118,0.123-0.178,0.154-0.178
				c0.016,0,0.033,0.007,0.039,0.023c0.012,0.015,0.016,0.036,0.016,0.058c0,0.01,0,0.022-0.004,0.041
				c-0.002,0.016-0.006,0.034-0.012,0.06L194.664,251.505z"/>
			<path fill="#39B44A" d="M200.373,251.896l-1.512-3.587c-0.049-0.107-0.098-0.195-0.145-0.262
				c-0.049-0.069-0.105-0.119-0.154-0.153c-0.033-0.019-0.072-0.031-0.129-0.041c0,0-0.004,0-0.006,0h-0.004
				c-0.064-0.016-0.096-0.04-0.096-0.087c0-0.023,0.006-0.047,0.021-0.058c0.018-0.013,0.045-0.019,0.084-0.019
				c0.012,0,0.037,0.003,0.078,0.011c0.158,0.014,0.307,0.021,0.445,0.021c0.105,0,0.207-0.005,0.309-0.017
				c0.102-0.01,0.154-0.016,0.158-0.016c0.035,0,0.055,0.006,0.078,0.019c0.016,0.011,0.023,0.031,0.023,0.055
				c0,0.016-0.039,0.051-0.121,0.094c-0.082,0.047-0.123,0.112-0.123,0.199c0,0.034,0.008,0.081,0.025,0.136
				c0.018,0.058,0.045,0.125,0.078,0.206l1.143,2.674c0.01,0.028,0.025,0.051,0.039,0.069c0.016,0.013,0.027,0.021,0.043,0.021
				c0.012,0,0.027-0.008,0.045-0.023c0.016-0.02,0.027-0.041,0.043-0.066l0.889-2.138c0.082-0.197,0.145-0.375,0.188-0.531
				c0.045-0.149,0.068-0.271,0.068-0.358c0-0.039-0.018-0.075-0.047-0.109c-0.033-0.035-0.074-0.057-0.125-0.069
				c-0.018-0.006-0.037-0.009-0.045-0.013c-0.008,0-0.016,0-0.025,0c0-0.003-0.004-0.003-0.014-0.006
				c-0.086-0.025-0.131-0.052-0.131-0.091c0-0.023,0.01-0.042,0.025-0.051c0.016-0.01,0.051-0.016,0.105-0.016
				c0.027,0,0.076,0.003,0.145,0.012c0.01,0,0.018,0,0.018,0.004c0.014,0,0.037,0,0.066,0.003c0.104,0.011,0.184,0.014,0.246,0.014
				c0.084,0,0.18-0.005,0.283-0.021c0.023-0.001,0.039-0.006,0.049-0.006c0.01-0.003,0.016-0.003,0.018-0.003
				c0.008-0.003,0.014-0.003,0.021-0.003c0.033,0,0.059,0.006,0.074,0.019c0.016,0.011,0.021,0.028,0.021,0.055
				c0,0.019-0.006,0.039-0.021,0.051c-0.014,0.012-0.037,0.03-0.076,0.046c-0.006,0.003-0.012,0.006-0.021,0.013
				c-0.031,0.019-0.057,0.034-0.068,0.047c-0.074,0.071-0.182,0.275-0.322,0.618c-0.021,0.054-0.037,0.087-0.049,0.112l-1.4,3.258
				c-0.012,0.029-0.027,0.048-0.043,0.063s-0.035,0.021-0.053,0.021c-0.023,0-0.041-0.005-0.055-0.025
				C200.396,251.953,200.385,251.925,200.373,251.896z"/>
			<ellipse fill="#39B44A" cx="169.78" cy="251.611" rx="0.39" ry="0.381"/>
		</g>
		<ellipse fill="#39B44A" cx="177.845" cy="251.611" rx="0.39" ry="0.381"/>
		<ellipse fill="#39B44A" cx="195.745" cy="251.585" rx="0.39" ry="0.382"/>
		<ellipse fill="#39B44A" cx="202.304" cy="251.585" rx="0.39" ry="0.382"/>
	</g>
	<rect x="94.535" y="250.217" fill="#39B44A" width="68.365" height="0.45"/>
</g>
</svg>
