<?xml version="1.0" encoding="utf-8"?>
<!-- Generator: Adobe Illustrator 16.0.0, SVG Export Plug-In . SVG Version: 6.00 Build 0)  -->
<!DOCTYPE svg PUBLIC "-//W3C//DTD SVG 1.1//EN" "http://www.w3.org/Graphics/SVG/1.1/DTD/svg11.dtd">
<svg version="1.1" id="Layer_1" xmlns="http://www.w3.org/2000/svg" xmlns:xlink="http://www.w3.org/1999/xlink" x="0px" y="0px"
	 width="300px" height="300px" viewBox="0 0 300 300" enable-background="new 0 0 300 300" xml:space="preserve">
<g>
	<g>
		<g>
			<path fill="#231F20" d="M46.662,170.014h7.295v26.188h-7.295V170.014z"/>
			<path fill="#231F20" d="M58.747,170.014h7.258v19.828h12.683v6.36h-19.94V170.014z"/>
			<path fill="#231F20" d="M80.709,184.716v-14.702h7.369v14.552c0,3.779,1.908,5.575,4.827,5.575c2.918,0,4.826-1.721,4.826-5.387
				v-14.74h7.37v14.516c0,8.454-4.826,12.158-12.271,12.158C85.385,196.688,80.709,192.91,80.709,184.716z"/>
			<path fill="#231F20" d="M109.405,170.014h7.67l6.247,10.138l6.248-10.138h7.67v26.188h-7.221v-15.041l-6.697,10.252h-0.148
				l-6.66-10.177v14.966h-7.108V170.014z"/>
			<path fill="#231F20" d="M142.029,170.014h7.295v26.188h-7.295V170.014z M146.706,161.333l6.622,2.132l-5.499,4.79h-5.015
				L146.706,161.333z"/>
			<path fill="#231F20" d="M154.114,170.014h6.772l10.773,13.843v-13.843h7.184v26.188h-6.359l-11.187-14.367v14.367h-7.184V170.014
				z"/>
			<path fill="#231F20" d="M192.538,169.826h6.996l11.148,26.376H202.9l-1.906-4.678h-10.102l-1.871,4.678h-7.632L192.538,169.826z
				 M198.898,185.876l-2.918-7.446l-2.956,7.446H198.898z"/>
			<path fill="#231F20" d="M216.259,176.372h-7.856v-6.358h22.971v6.358h-7.856v19.83h-7.258V176.372z"/>
			<path fill="#231F20" d="M234.554,170.014h21.063v6.173h-13.881v3.965h12.57v5.725h-12.57v4.153h14.067v6.173h-21.25V170.014z"/>
		</g>
		
			<radialGradient id="SVGID_1_" cx="-934.0532" cy="133.9014" r="107.7693" gradientTransform="matrix(0.6973 0 0 0.05 801.1218 138.0224)" gradientUnits="userSpaceOnUse">
			<stop  offset="0" style="stop-color:#FFFFFF"/>
			<stop  offset="0.4055" style="stop-color:#D5D6D7"/>
			<stop  offset="0.7911" style="stop-color:#B3B5B7"/>
			<stop  offset="1" style="stop-color:#A6A8AB"/>
		</radialGradient>
		<path fill="url(#SVGID_1_)" d="M44.292,145.198c-0.011-0.22-0.021-0.44-0.03-0.661C44.165,144.758,44.175,144.979,44.292,145.198z
			"/>
	</g>
	<g>
		<path fill="#231F20" d="M143.269,202.075h1.759c0.705,0,1.108,0.111,1.399,0.302c0.684,0.403,0.762,1.165,0.649,1.781
			c-0.212,1.142-0.974,1.567-1.512,1.813c1.478,0.448,1.355,1.792,1.288,2.183c-0.202,1.021-0.818,1.67-1.691,2.018
			c-0.38,0.122-0.829,0.189-1.355,0.189h-2.071L143.269,202.075z M142.127,210.059h1.747c0.437,0,0.861-0.056,1.22-0.178
			c0.673-0.27,1.232-0.807,1.423-1.727c0.146-0.828-0.168-1.478-0.795-1.779c-0.415-0.189-0.706-0.201-1.378-0.201h-1.501
			L142.127,210.059z M142.899,205.871h1.5c0.493,0,0.896-0.057,1.222-0.213c0.761-0.393,1.019-0.962,1.119-1.545
			c0.146-0.751-0.168-1.3-0.56-1.489c-0.213-0.134-0.493-0.236-1.209-0.247h-1.423L142.899,205.871z"/>
		<path fill="#231F20" d="M147.926,207.383c0.325-1.758,1.927-3.102,3.707-3.102s2.867,1.344,2.542,3.112
			c-0.324,1.781-1.915,3.113-3.695,3.113s-2.878-1.332-2.554-3.113V207.383z M148.239,207.405c-0.302,1.601,0.684,2.811,2.285,2.811
			s3.034-1.21,3.337-2.822c0.302-1.611-0.683-2.821-2.284-2.821s-3.034,1.21-3.338,2.821V207.405z"/>
		<path fill="#231F20" d="M160.399,210.361h-0.313c0.078-0.403,0.146-0.795,0.246-1.287c-0.593,1.029-1.701,1.456-2.743,1.433
			c-1.77-0.044-2.452-1.109-2.127-2.889l0.593-3.191h0.313l-0.593,3.191c-0.292,1.602,0.302,2.619,1.926,2.598
			c1.422-0.023,2.564-0.818,2.855-2.374l0.627-3.415h0.313L160.399,210.361z"/>
		<path fill="#231F20" d="M163.702,204.717h-1.311l0.057-0.29h1.31l0.438-2.352h0.312l-0.436,2.352h1.522l-0.056,0.29h-1.523
			l-1.041,5.645h-0.314L163.702,204.717z"/>
		<path fill="#231F20" d="M166.557,204.427h0.314l-1.098,5.935h-0.314L166.557,204.427z M166.994,202.075h0.312l-0.189,1.019h-0.313
			L166.994,202.075z"/>
		<path fill="#231F20" d="M172.884,212.747h-0.313l0.437-2.386l0.279-1.513c-0.458,0.774-1.646,1.658-3.079,1.658
			c-1.914,0-2.855-1.478-2.553-3.113c0.302-1.601,1.758-3.112,3.707-3.112c1.253,0,2.115,0.616,2.474,1.623l0.269-1.478h0.314
			L172.884,212.747z M167.968,207.405c-0.313,1.657,0.739,2.811,2.284,2.811c0.795,0,1.557-0.302,2.161-0.807
			c0.594-0.504,1.03-1.21,1.177-2.004c0.167-0.783,0-1.489-0.415-2.005c-0.403-0.515-1.053-0.828-1.837-0.828
			c-1.915,0-3.113,1.478-3.37,2.821V207.405z"/>
		<path fill="#231F20" d="M180.497,210.361h-0.313c0.078-0.403,0.146-0.795,0.247-1.287c-0.595,1.029-1.703,1.456-2.744,1.433
			c-1.769-0.044-2.452-1.109-2.128-2.889l0.594-3.191h0.313l-0.593,3.191c-0.292,1.602,0.302,2.619,1.925,2.598
			c1.423-0.023,2.565-0.818,2.856-2.374l0.627-3.415h0.313L180.497,210.361z"/>
		<path fill="#231F20" d="M182.59,207.428c-0.347,1.938,1.12,2.8,2.284,2.788c1.098,0,2.173-0.561,2.822-1.567h0.347
			c-0.381,0.627-0.896,1.097-1.455,1.41c-0.561,0.303-1.165,0.448-1.77,0.448c-2.239,0-2.799-1.78-2.554-3.102
			c0.325-1.78,1.949-3.124,3.719-3.124c0.794,0,1.5,0.279,1.971,0.795c0.548,0.582,0.761,1.478,0.548,2.352H182.59z
			 M188.234,207.137c0.201-1.435-0.908-2.621-2.308-2.564c-1.467,0-2.911,1.064-3.281,2.564H188.234z"/>
		<path fill="#231F20" d="M193.372,204.427h0.313l-1.098,5.935h-0.313L193.372,204.427z M193.809,202.075h0.314l-0.191,1.019h-0.313
			L193.809,202.075z"/>
		<path fill="#231F20" d="M195.869,202.075h0.312l-1.533,8.286h-0.313L195.869,202.075z"/>
		<path fill="#231F20" d="M201.814,210.361h-0.313c0.079-0.403,0.146-0.795,0.247-1.287c-0.594,1.029-1.703,1.456-2.744,1.433
			c-1.769-0.044-2.452-1.109-2.128-2.889l0.594-3.191h0.313l-0.593,3.191c-0.292,1.602,0.302,2.619,1.925,2.598
			c1.422-0.023,2.564-0.818,2.855-2.374l0.628-3.415h0.313L201.814,210.361z"/>
		<path fill="#231F20" d="M204.658,204.427h0.313l-0.201,1.108c0.783-1.142,1.847-1.254,2.228-1.254
			c0.717,0,1.299,0.246,1.613,0.727c0.134,0.181,0.269,0.694,0.269,0.694c0.101-0.167,0.257-0.425,0.56-0.694
			c0.492-0.458,1.188-0.727,1.858-0.727c0.718,0,1.21,0.223,1.513,0.593c0.402,0.482,0.447,1.255,0.279,2.162l-0.615,3.325h-0.313
			l0.615-3.325c0.156-0.818,0.124-1.512-0.246-1.96c-0.246-0.325-0.672-0.504-1.288-0.504c-0.525,0-1.209,0.201-1.657,0.683
			c-0.481,0.493-0.627,0.851-0.795,1.781l-0.616,3.325h-0.312l0.615-3.325c0.19-0.931,0.123-1.355-0.102-1.759
			c-0.257-0.447-0.749-0.684-1.433-0.705c-0.582-0.022-1.209,0.27-1.567,0.649c-0.393,0.37-0.717,0.896-0.874,1.759l-0.627,3.381
			h-0.313L204.658,204.427z"/>
		<path fill="#231F20" d="M215.283,204.427h0.314l-1.098,5.935h-0.314L215.283,204.427z M215.721,202.075h0.312l-0.189,1.019h-0.314
			L215.721,202.075z"/>
		<path fill="#231F20" d="M217.344,204.427h0.312c-0.066,0.403-0.145,0.795-0.246,1.287c0.594-1.029,1.703-1.456,2.755-1.433
			c1.758,0.044,2.44,1.109,2.116,2.89l-0.593,3.19h-0.313l0.593-3.19c0.291-1.603-0.303-2.621-1.926-2.599
			c-1.423,0.021-2.564,0.818-2.845,2.373l-0.638,3.416h-0.313L217.344,204.427z"/>
		<path fill="#231F20" d="M229.224,210.361h-0.313l0.279-1.534c-0.728,1.064-1.825,1.68-3.079,1.68
			c-1.948,0-2.845-1.513-2.554-3.113c0.303-1.635,1.792-3.112,3.707-3.112c1.433,0,2.296,0.884,2.452,1.713l0.291-1.567h0.313
			L229.224,210.361z M223.871,207.405c-0.236,1.332,0.402,2.811,2.317,2.811c1.266,0,2.374-0.773,2.957-1.848
			c0.179-0.325,0.302-0.683,0.357-1.042c0.068-0.357,0.068-0.716-0.011-1.03c-0.213-1.03-1.075-1.724-2.284-1.724
			c-1.546,0-3.024,1.153-3.337,2.821V207.405z"/>
		<path fill="#231F20" d="M236.971,208.491c-0.638,1.209-1.926,2.016-3.258,2.016c-2.117,0-2.89-1.602-2.609-3.102
			c0.324-1.758,1.903-3.124,3.706-3.124c1.21,0,2.363,0.671,2.565,2.071h-0.348c-0.213-1.31-1.366-1.792-2.262-1.78
			c-0.84,0.011-1.434,0.246-2.15,0.795c-0.571,0.437-1.053,1.221-1.198,2.026c-0.313,1.681,0.772,2.822,2.284,2.822
			c1.355-0.012,2.464-0.84,2.923-1.725H236.971z"/>
		<path fill="#231F20" d="M238.997,204.427h0.313l-1.097,5.935h-0.314L238.997,204.427z M239.434,202.075h0.313l-0.19,1.019h-0.313
			L239.434,202.075z"/>
		<path fill="#231F20" d="M240.094,207.383c0.325-1.758,1.927-3.102,3.707-3.102s2.866,1.344,2.542,3.112
			c-0.325,1.781-1.915,3.113-3.695,3.113c-1.781,0-2.878-1.332-2.554-3.113V207.383z M240.407,207.405
			c-0.302,1.601,0.683,2.811,2.285,2.811c1.601,0,3.034-1.21,3.337-2.822c0.303-1.611-0.684-2.821-2.285-2.821
			c-1.601,0-3.034,1.21-3.337,2.821V207.405z M245.514,201.952l0.112,0.257l-2.956,1.546l-0.09-0.258L245.514,201.952z"/>
		<path fill="#231F20" d="M248.233,204.427h0.313c-0.066,0.403-0.146,0.795-0.246,1.287c0.594-1.029,1.702-1.456,2.755-1.433
			c1.758,0.044,2.44,1.109,2.116,2.89l-0.593,3.19h-0.314l0.594-3.19c0.291-1.603-0.302-2.621-1.926-2.599
			c-1.422,0.021-2.564,0.818-2.845,2.373l-0.638,3.416h-0.314L248.233,204.427z"/>
		<path fill="#231F20" d="M255.164,210.361h-0.336l0.168-0.907h0.336L255.164,210.361z"/>
	</g>
	<path fill="#231F20" d="M176.101,118.096l-0.005-0.06l-0.021-0.24c-0.018-0.306-0.084-0.675-0.143-1.021
		c-0.077-0.335-0.151-0.672-0.263-0.999c-0.41-1.317-1.108-2.522-1.932-3.591c-1.678-2.132-3.802-3.769-5.938-5.215
		c-2.146-1.444-4.365-2.665-6.509-3.826c-2.145-1.161-4.239-2.226-6.198-3.279c-1.957-1.055-3.789-2.079-5.418-3.118
		c-1.624-1.044-3.06-2.083-4.219-3.134c-1.161-1.048-2.036-2.108-2.621-3.067c-0.576-0.964-0.893-1.8-1.047-2.385
		c-0.087-0.291-0.125-0.521-0.155-0.675c-0.029-0.154-0.045-0.234-0.045-0.234s0.01,0.08,0.028,0.236
		c0.018,0.156,0.041,0.389,0.106,0.688c0.119,0.595,0.359,1.474,0.905,2.488c0.545,1.011,1.383,2.145,2.512,3.278
		c1.124,1.139,2.531,2.278,4.144,3.391c3.22,2.248,7.253,4.391,11.486,6.758c2.117,1.183,4.273,2.452,6.365,3.861
		c2.076,1.418,4.102,3.017,5.631,4.984c0.763,0.977,1.389,2.053,1.754,3.205c0.101,0.285,0.164,0.58,0.235,0.872
		c0.046,0.29,0.105,0.554,0.127,0.89l0.023,0.24l0.005,0.06c-0.002-0.024-0.001,0.025-0.001,0.035l-0.001,0.113l-0.003,0.452
		c-0.001,0.3,0.008,0.602-0.049,0.896c-0.105,1.196-0.509,2.34-1.05,3.395c-0.254,0.539-0.605,1.024-0.926,1.52
		c-0.374,0.462-0.715,0.946-1.133,1.365c-1.597,1.739-3.485,3.114-5.352,4.273c-1.878,1.153-3.747,2.103-5.511,2.896
		c-3.535,1.575-6.605,2.628-8.773,3.289c-0.875,0.264-1.597,0.479-2.152,0.637c-0.283-0.041-0.568-0.066-0.855-0.066
		c-3.129-0.002-6.079,2.515-8.595,4.699c-3.289,2.856-6.678,6.166-9.027,10.372c-0.096,0.173-0.188,0.345-0.277,0.519
		c1.777-1.095,4.325-0.868,6.226-1.013c8.128-0.62,16.413-0.655,24.532,0.068c1.57,0.141,3.556,0.022,5.023,0.91
		c-0.084-0.161-0.17-0.324-0.261-0.484c-2.496-4.468-6.158-7.978-9.688-10.937c-2.043-1.714-4.352-3.57-6.812-4.029
		c0.529-0.109,1.184-0.252,1.95-0.447c1.104-0.273,2.439-0.633,3.956-1.098c1.516-0.465,3.217-1.035,5.03-1.773
		c1.815-0.732,3.752-1.62,5.704-2.757c1.945-1.136,3.947-2.491,5.672-4.321c0.449-0.437,0.83-0.951,1.238-1.443
		c0.36-0.533,0.747-1.054,1.04-1.646c0.619-1.151,1.096-2.439,1.219-3.795c0.063-0.335,0.059-0.675,0.062-1.016l0.005-0.511v-0.128
		C176.102,118.15,176.104,118.16,176.101,118.096z"/>
	<g>
		<path d="M162.281,150.562l-3.925-0.413c-0.654-0.063-1.307-0.151-1.963-0.193l-1.971-0.056c-1.313-0.042-2.628-0.073-3.94-0.088
			c-0.655-0.03-1.312,0.036-1.969,0.055l-1.969,0.089l-1.967,0.089c-0.654,0.04-1.312,0.032-1.962,0.129l-3.902,0.455
			c-0.648,0.085-1.303,0.13-1.945,0.248c-0.646,0.111-1.277,0.24-1.911,0.378c-0.63,0.141-1.255,0.303-1.849,0.511
			c-0.292,0.108-0.581,0.225-0.833,0.365c-0.254,0.125-0.459,0.349-0.452,0.384l0.011-0.111l0.007,0.219l-0.016-0.108
			c-0.007,0.062,0.321,0.305,0.605,0.434c0.312,0.146,0.656,0.261,1.002,0.373c0.71,0.196,1.436,0.368,2.179,0.49
			c0.686,0.135,1.496,0.194,2.237,0.296l2.272,0.276c0.757,0.076,1.516,0.222,2.271,0.227l2.269,0.1l2.27,0.112
			c0.757,0.043,1.514,0.1,2.275,0.077l4.565-0.021c0.763,0.002,1.524,0,2.281-0.078l2.276-0.173l2.279-0.172
			c0.762-0.037,1.516-0.176,2.266-0.291c0.748-0.139,1.494-0.295,2.221-0.518c0.363-0.109,0.721-0.239,1.061-0.402
			c0.324-0.167,0.695-0.364,0.812-0.708l-0.001,0.009l0.006-0.197v0.009c-0.05-0.085-0.068-0.188-0.142-0.262
			c-0.075-0.069-0.143-0.148-0.224-0.213c-0.179-0.109-0.35-0.233-0.548-0.312c-0.38-0.187-0.787-0.316-1.192-0.438
			C163.953,150.882,163.116,150.724,162.281,150.562z M162.281,150.562c0.837,0.149,1.678,0.294,2.496,0.53
			c0.409,0.115,0.82,0.239,1.207,0.422c0.201,0.075,0.379,0.199,0.564,0.31c0.086,0.065,0.16,0.148,0.24,0.222
			c0.079,0.076,0.108,0.196,0.162,0.294l0.001,0.001v0.008l-0.002,0.197v0.006l-0.001,0.003c-0.136,0.405-0.52,0.599-0.848,0.78
			c-0.345,0.172-0.705,0.31-1.07,0.426c-0.73,0.235-1.478,0.405-2.228,0.556c-0.752,0.147-1.498,0.316-2.261,0.385l-2.278,0.266
			l-2.28,0.265c-0.761,0.109-1.524,0.144-2.288,0.172l-4.589,0.207c-1.529,0.076-3.07-0.009-4.606-0.039l-2.307-0.066
			c-0.773,0.006-1.523-0.127-2.285-0.191l-2.276-0.24c-0.771-0.102-1.492-0.111-2.303-0.289c-0.761-0.138-1.52-0.328-2.277-0.552
			c-0.378-0.128-0.756-0.26-1.134-0.444c-0.359-0.231-0.807-0.339-1.08-1.032l-0.015-0.038l-0.001-0.071l-0.003-0.219l-0.001-0.077
			l0.012-0.035c0.205-0.612,0.604-0.78,0.91-0.973c0.326-0.174,0.651-0.296,0.978-0.412c0.651-0.217,1.306-0.374,1.96-0.51
			c0.652-0.139,1.317-0.234,1.972-0.323c0.656-0.094,1.318-0.113,1.978-0.172l3.952-0.3c0.657-0.072,1.318-0.037,1.978-0.05
			l1.978-0.01l1.977-0.01c0.658,0.007,1.316-0.032,1.975,0.024c1.316,0.08,2.631,0.144,3.946,0.198l1.972,0.087
			c0.655,0.052,1.307,0.151,1.96,0.224L162.281,150.562z"/>
	</g>
</g>
</svg>
