<?xml version="1.0" encoding="utf-8"?>
<!-- Generator: Adobe Illustrator 16.0.0, SVG Export Plug-In . SVG Version: 6.00 Build 0)  -->
<!DOCTYPE svg PUBLIC "-//W3C//DTD SVG 1.1//EN" "http://www.w3.org/Graphics/SVG/1.1/DTD/svg11.dtd">
<svg version="1.1" id="Layer_1" xmlns="http://www.w3.org/2000/svg" xmlns:xlink="http://www.w3.org/1999/xlink" x="0px" y="0px"
	 width="300px" height="300px" viewBox="0 0 300 300" enable-background="new 0 0 300 300" xml:space="preserve">
<g>
	<path fill-rule="evenodd" clip-rule="evenodd" fill="#009245" d="M150.949,51.15c0.696,0.324,1.37,0.71,2.092,0.963
		c7.807,2.73,12.255,10.91,10.104,18.615c-2.29,8.202-9.781,12.776-18.159,11.097c-0.6-0.12-1.214-0.167-1.988,0.298
		c0.816,0.295,1.633,0.589,2.547,0.92c-0.262,2.505-0.606,5.032-0.771,7.571c-0.295,4.545-0.938,9.132-0.585,13.634
		c0.365,4.648,3.043,8.517,6.522,11.618c0.473,0.422,1.835-0.154,2.785-0.269c-0.185-1.297-0.195-2.652-0.615-3.867
		c-0.279-0.809-1.766-1.578-1.633-2.082c0.458-1.752,1.212-3.493,2.189-5.023c0.903-1.414,2.172-2.626,3.408-3.79
		c1.028-0.968,2.253-2.414,3.373-2.397c1.051,0.017,2.199,1.57,3.078,2.636c0.781,0.947,1.188,2.192,1.869,3.234
		c2.975,4.549,1.894,7.562-3.34,9.401c-1.225,0.43-2.671,0.836-3.474,1.736c-2.054,2.301-1.535,4.835,1.795,6.797
		c2.563,1.511,3.255,3.611,3.497,6.166c0.566,5.981,0.719,11.917-0.948,17.815c-0.812,2.877-1.001,5.927-1.586,8.876
		c-0.228,1.149-0.765,2.238-1.735,3.276c-0.258-1.566-0.516-3.133-0.887-5.381c3.128-6.583,3.463-14.256,1.722-22.272
		c-7.32,3.887-9.85,8.755-6.146,15.727c2.536,4.771,1.386,9.901,0.928,14.986c-1.114,12.358-2.31,24.725-2.847,37.115
		c-0.496,11.449,0.934,22.77,4.404,33.976c-1.823-2.675-3.903-5.212-5.429-8.048c-11.45-21.28-16.638-43.934-14.733-68.129
		c0.365-4.643,1.595-8.91,4.066-12.868c3.434-5.499,2.635-11.237,0.517-16.898c-0.603-1.61-0.654-2.699,0.853-3.635
		c0.303-0.188,0.582-0.415,0.865-0.632c3.302-2.51,3.289-2.504,1.729-6.286c-1.26-3.052-2.859-6.029-3.597-9.205
		c-0.553-2.376-0.19-5.045,0.16-7.528c0.473-3.342,1.496-6.608,1.939-9.952c0.199-1.503-0.206-3.201-0.749-4.656
		c-0.681-1.828-1.785-3.498-2.962-5.718c6.151,2.979,11.795,3.182,17.036-1.006c3.056-2.442,4.841-5.55,5.038-9.589
		c-3.853-0.153-3.651,3.339-5.584,5.309c0.965,0.067,1.569,0.11,2.509,0.177c-4.325,1.961-8.266,3.748-12.206,5.535
		c-0.127-0.275-0.254-0.551-0.38-0.825c1.384-0.657,2.769-1.314,4.151-1.972c-4.073-0.597-8.194-0.538-11.46-3.326
		c-3.284-2.803-5.513-6.187-5.336-10.99c3.076,0.608,2.34,3.491,3.562,5.016c1.298,1.619,2.61,3.228,4.194,4.657
		c0.74-2.252,0.576-3.939-1.407-5.396c-2.11-1.547-3.517-3.715-3.637-6.438c0.235-0.192,0.472-0.386,0.707-0.579
		c1.535,1.747,3.07,3.495,4.364,4.966c2.607-3.562,5.221-7.131,7.945-10.852c-1.621,0.536-3.585,0.819-5.118,1.785
		c-1.942,1.225-3.207,1.104-4.603-1.211c2.231-1.042,4.417-2.062,6.602-3.08C147.373,51.15,149.161,51.15,150.949,51.15z
		 M153.876,54.948c-5.164,2.423-9.005,5.594-10.703,11.858c4.287,0.594,8.302,1.149,12.54,1.736
		C156.558,63.458,155.538,59.351,153.876,54.948z M142.829,69.703c-0.708,3.187-0.59,3.431,2.689,4.122
		c1.386,0.292,2.808,0.478,4.222,0.554c3.574,0.193,4.524-0.625,5.149-3.975C150.982,70.177,147.035,69.947,142.829,69.703z
		 M159.575,59.73c-0.251,0.06-0.501,0.119-0.752,0.179c0,2.512,0,5.025,0,7.799c1.048-0.273,1.849-0.481,3.006-0.783
		C161.019,64.336,160.297,62.033,159.575,59.73z"/>
	<path fill-rule="evenodd" clip-rule="evenodd" fill="#009245" d="M68.345,229.769c3.631-0.694,5.894,0.402,7.146,4.233
		c1.151,3.521,3.171,6.758,5.07,10.658c1.918-4,3.652-7.549,5.325-11.127c1.859-3.979,1.834-3.991,5.724-3.701
		c-0.436,0.968-1.289,2.04-1.353,3.158c-0.218,3.831-0.274,7.682-0.138,11.517c0.045,1.241,0.877,2.456,1.329,3.633
		c-1.457,0-3.648,0-5.189,0c0.479-1.093,1.38-2.256,1.444-3.463c0.196-3.703,0.071-7.423-0.531-11.281
		c-2.394,5.006-4.787,10.011-7.303,15.271c-2.468-5.08-4.828-9.936-7.188-14.793c-0.184,0.026-0.367,0.053-0.551,0.08
		c0,4.112-0.077,8.229,0.087,12.334c0.023,0.59,1.214,1.132,1.882,1.712c-1.837,0.173-3.796,0.358-5.754,0.544
		c0-0.357,0-0.715,0-1.073c2.045,0.431,2.688-0.532,2.653-2.458c-0.07-4.001-0.073-8.004-0.004-12.004
		c0.033-1.91-0.703-2.844-2.649-2.702C68.345,230.127,68.345,229.947,68.345,229.769z"/>
	<path fill-rule="evenodd" clip-rule="evenodd" fill="#009245" d="M68.345,230.306c1.946-0.142,2.683,0.792,2.649,2.702
		c-0.069,4-0.066,8.003,0.004,12.004c0.034,1.926-0.608,2.889-2.653,2.458C68.345,241.748,68.345,236.027,68.345,230.306z"/>
	<path fill-rule="evenodd" clip-rule="evenodd" fill="#009245" d="M103.708,67.727c-5.092,3.677-6.967,8.646-8.065,13.938
		c-1.807,8.71-1.034,17.445,0.348,26.123c2.819,17.709,8.186,34.714,14.446,51.462c0.299,0.799,0.554,1.613,0.829,2.42
		c-0.218,0.091-0.435,0.182-0.652,0.271c-4.31-9.367-8.765-18.672-12.895-28.119c-5.697-13.034-10.658-26.374-12.336-40.585
		c-0.639-5.405-0.486-11.112,0.516-16.456c1.622-8.66,7.679-13.512,16.464-14.286c2.092-0.185,3.496-0.704,4.775-2.561
		c3.138-4.553,7.882-5.717,13.046-4.818c3.475,0.604,6.843,1.825,10.271,3.174c-5.334,0.004-10.241,0.88-14.275,4.916
		c0.814,0.401,1.484,0.732,2.298,1.134c-0.353,0.074-0.59,0.199-0.791,0.155c-2.179-0.469-3.429,0.555-4.52,2.371
		c-3.76,6.264-4.866,13.191-5.163,20.289c-0.183,4.368-0.117,8.759,0.105,13.126c0.218,4.25,0.778,8.481,1.053,12.737
		C104.963,98.396,101.817,83.641,103.708,67.727z"/>
	<path fill-rule="evenodd" clip-rule="evenodd" fill="#009245" d="M182.957,162.305c3.578-11.355,7.345-22.407,10.521-33.626
		c3.679-12.999,6.369-26.216,5.785-39.863c-0.235-5.489-1.081-10.862-3.993-15.661c-0.941-1.552-2.186-2.921-3.564-4.258
		c1.399,15.315-2.042,29.825-6.111,44.257c0.312-2.907,0.67-5.81,0.918-8.722c0.258-3.025,0.495-6.057,0.588-9.091
		c0.223-7.44-0.123-14.831-2.461-21.987c-0.387-1.186-0.817-2.364-1.331-3.5c-1.503-3.322-2.897-6.849-7.802-5.63
		c0.894-0.307,1.788-0.613,3.121-1.071c-4.234-4.153-9.19-4.92-14.593-4.517c4.329-2.187,8.778-3.772,13.688-3.737
		c4.548,0.033,8.015,1.956,10.658,5.657c0.615,0.861,1.852,1.659,2.886,1.782c10.205,1.215,16.161,7.006,17.613,17.142
		c1.273,8.879-0.372,17.447-2.567,25.956c-4.149,16.07-10.813,31.17-17.968,46.071C186.612,155.115,184.773,158.672,182.957,162.305
		z"/>
	<path fill-rule="evenodd" clip-rule="evenodd" fill="#009245" d="M215.573,239.092c1.188,3.079-1.725,6.749,2.515,8.995
		c-2.378,0-4.589,0-6.799,0c2.214-0.296,2.196-1.929,2.193-3.528c-0.008-3.662,0.086-7.33-0.117-10.981
		c-0.073-1.315-0.879-2.591-1.317-3.795c1.49,0,3.693,0,6.066,0c-3.979,1.812-1.563,5.092-2.414,7.851c3.792,0,7.233,0,10.685,0
		c1.209-3.751,0.647-6.492-1.771-7.843c2.366,0,4.564,0,7.041,0c-0.877,0.582-1.84,0.894-2.177,1.534
		c-0.379,0.721-0.24,1.738-0.246,2.627c-0.025,3.661-0.136,7.328,0.044,10.981c0.051,1.053,0.966,2.063,1.473,3.07
		c-1.505,0-3.755,0-6.043,0c2.426-1.067,2.829-2.897,1.916-8.911C223.082,239.092,219.515,239.092,215.573,239.092z"/>
	<path fill-rule="evenodd" clip-rule="evenodd" fill="#009245" d="M177.067,229.679c2.669,0,5.793-0.018,8.915,0.006
		c2.31,0.018,4.376,0.567,4.803,3.253c0.412,2.597-1.012,4.215-3.26,5.229c-0.546,0.246-1.118,0.431-2.052,0.784
		c2.533,3.238,4.885,6.244,7.146,9.134c-1.892,0.561-3.454-0.123-4.759-2.167c-1.615-2.532-3.577-4.844-5.461-7.348
		c1.296-0.285,2.675-0.206,3.447-0.852c1.055-0.881,2.122-2.254,2.284-3.529c0.126-0.995-0.886-2.737-1.814-3.119
		c-1.345-0.551-3.077-0.247-4.628-0.117c-0.245,0.021-0.572,1.042-0.581,1.605c-0.062,4.289-0.141,8.581,0.007,12.864
		c0.029,0.888,0.979,1.744,1.5,2.607c-1.632,0-3.845,0-5.406,0c0.444-1.085,1.354-2.345,1.42-3.648
		c0.191-3.742,0.156-7.509-0.043-11.253C178.526,232.003,177.64,230.921,177.067,229.679z"/>
	<path fill-rule="evenodd" clip-rule="evenodd" fill="#009245" d="M174.082,248.164c-1.888,0-3.902,0-5.917,0
		c-0.039-0.121-0.077-0.243-0.115-0.364c0.587-0.175,1.175-0.35,2.272-0.676c-0.867-1.739-1.331-4.312-2.544-4.734
		c-2.137-0.744-4.854-0.602-7.076,0.042c-0.988,0.286-1.456,2.661-1.931,4.16c-0.084,0.266,0.964,0.889,1.554,1.404
		c-1.611,0-3.304,0-4.706,0c0.689-0.992,1.702-2.079,2.292-3.361c2.302-5.004,4.469-10.069,6.963-15.74
		c0.704,1.349,1.18,2.129,1.533,2.96c1.849,4.353,3.621,8.738,5.524,13.065C172.424,246.04,173.292,246.995,174.082,248.164z
		 M164.376,232.901c-1.326,3.077-2.35,5.454-3.477,8.069c2.41,0,4.413,0,6.722,0C166.588,238.4,165.638,236.039,164.376,232.901z"/>
	<path fill-rule="evenodd" clip-rule="evenodd" fill="#009245" d="M150.313,235.793c0,2.186,0,3.854,0,5.523
		c-1.111-2.906-3.564-2.033-5.627-1.981c-0.432,0.011-1.177,0.827-1.207,1.309c-0.134,2.108-0.058,4.23-0.058,6.274
		c5.5,1.133,7.3,0.58,9.71-3.188c-0.183,1.754-0.315,3.03-0.459,4.414c-4.18,0-8.168,0-11.664,0
		c0.04-5.407,0.149-10.746,0.035-16.079c-0.016-0.763-1.116-1.501-1.735-2.277c4.122,0,8.363,0,12.867,0
		c-0.134,1.239-0.257,2.394-0.441,4.112c-1.304-3.219-3.176-3.751-8.049-2.723c0,2.15,0,4.349,0,6.566
		C147.067,238.808,148.812,238.423,150.313,235.793z"/>
	<path fill-rule="evenodd" clip-rule="evenodd" fill="#009245" d="M128.167,233.804c-0.662-3.143-3.493-4.731-6.036-3.047
		c-1.046,0.691-1.896,2.43-1.898,3.693c-0.001,0.9,1.418,2.072,2.466,2.631c1.047,0.559,2.431,0.455,3.648,0.729
		c3.871,0.874,5.213,4.554,2.865,7.789c-2.03,2.798-7.482,4.282-10.432,2.426c-0.86-0.542-0.813-2.527-0.83-3.926
		c1.479,3.132,3.456,4.228,6.761,3.481c2.365-0.534,3.476-2.104,3.443-4.433c-0.03-2.219-1.553-3.027-3.508-3.319
		c-0.971-0.146-1.953-0.278-2.894-0.544c-2.234-0.63-3.905-1.866-3.941-4.424c-0.036-2.513,1.204-4.54,3.564-5.064
		c2.076-0.462,4.424-0.292,6.505,0.208c0.647,0.156,0.818,2.299,1.208,3.532C128.782,233.626,128.475,233.715,128.167,233.804z"/>
	<path fill-rule="evenodd" clip-rule="evenodd" fill="#009245" d="M104.132,244.166c1.058,3.29,4.459,4.646,7.568,2.985
		c1.776-0.948,2.806-2.606,2.157-4.418c-0.413-1.157-1.881-2.101-3.084-2.761c-0.966-0.53-2.267-0.412-3.38-0.722
		c-2.034-0.566-3.525-1.69-3.691-4.022c-0.17-2.386,0.658-4.615,2.884-5.193c2.292-0.595,4.884-0.359,7.271-0.001
		c0.507,0.076,0.698,2.254,0.529,3.546c-0.715-0.928-1.252-2.185-2.193-2.695c-0.997-0.541-2.433-0.659-3.582-0.447
		c-1.886,0.348-2.775,1.769-2.779,3.717c-0.003,1.898,1.197,2.666,2.808,3.024c1.043,0.232,2.099,0.428,3.16,0.55
		c2.054,0.235,3.622,1.127,4.104,3.235c0.52,2.27-0.134,4.287-1.941,5.773c-2.731,2.247-5.981,2.479-9.099,1.372
		c-0.872-0.309-1.085-2.473-1.6-3.785C103.554,244.271,103.843,244.219,104.132,244.166z"/>
	<path fill-rule="evenodd" clip-rule="evenodd" fill="#009245" d="M193.938,229.788c5.354,0,10.328,0,15.432,0
		c0,1.295,0,2.491,0,3.686c-0.104,0.026-0.207,0.053-0.311,0.079c-0.277-0.786-0.554-1.572-0.906-2.572c-1.481,0-3.045,0-5.065,0
		c0,5.076-0.062,10.208,0.087,15.334c0.017,0.568,1.229,1.102,1.994,1.74c-2.22,0-4.447,0-6.02,0
		c0.438-1.037,1.336-2.225,1.383-3.444c0.176-4.521,0.069-9.053,0.069-13.503c-5.03-0.748-5.306-0.62-6.392,2.515
		C194.126,232.439,194.042,231.255,193.938,229.788z"/>
	<path fill-rule="evenodd" clip-rule="evenodd" fill="#009245" d="M95.23,248.075c0.529-1.074,1.425-2.085,1.473-3.134
		c0.175-3.826,0.054-7.665,0.07-11.498c0.007-1.671,0.049-3.32-2.253-3.613c2.23,0,4.461,0,5.964,0
		c-0.447,1.154-1.286,2.392-1.353,3.669c-0.195,3.734-0.198,7.491-0.019,11.228c0.055,1.136,0.945,2.232,1.454,3.349
		C99.013,248.075,96.79,248.075,95.23,248.075z"/>
	<path fill-rule="evenodd" clip-rule="evenodd" fill="#009245" d="M153.876,54.948c1.662,4.402,2.682,8.51,1.837,13.595
		c-4.238-0.587-8.253-1.143-12.54-1.736C144.871,60.542,148.712,57.371,153.876,54.948z"/>
	<path fill-rule="evenodd" clip-rule="evenodd" fill="#009245" d="M142.829,69.703c4.206,0.244,8.153,0.474,12.061,0.701
		c-0.625,3.35-1.575,4.168-5.149,3.975c-1.414-0.076-2.836-0.262-4.222-0.554C142.239,73.134,142.121,72.89,142.829,69.703z"/>
	<path fill-rule="evenodd" clip-rule="evenodd" fill="#009245" d="M159.575,59.73c0.722,2.303,1.443,4.605,2.254,7.194
		c-1.157,0.302-1.958,0.51-3.006,0.783c0-2.773,0-5.287,0-7.799C159.074,59.85,159.324,59.79,159.575,59.73z"/>
</g>
</svg>
