<?xml version="1.0" encoding="utf-8"?>
<!-- Generator: Adobe Illustrator 16.0.0, SVG Export Plug-In . SVG Version: 6.00 Build 0)  -->
<!DOCTYPE svg PUBLIC "-//W3C//DTD SVG 1.1//EN" "http://www.w3.org/Graphics/SVG/1.1/DTD/svg11.dtd">
<svg version="1.1" id="Layer_1" xmlns="http://www.w3.org/2000/svg" xmlns:xlink="http://www.w3.org/1999/xlink" x="0px" y="0px"
	 width="300px" height="300px" viewBox="0 0 300 300" enable-background="new 0 0 300 300" xml:space="preserve">
<g>
	<path fill-rule="evenodd" clip-rule="evenodd" fill="#B24132" d="M149.889,247.977c-22.873,0-45.75-0.004-68.623,0.001
		c-7.588,0.002-15.175,0.023-22.766,0.045c-0.918,0.003-1.54,0.085-1.815-1.265c-0.357-1.739-2.147-2.159-3.723-2.273
		c-1.009-0.072-1.366-0.238-1.363-1.343c0.045-11.058,0.045-22.115,0-33.174c-0.003-1.099,0.328-1.358,1.366-1.326
		c2.033,0.061,3.767-0.524,4.368-2.758c0.138-0.515,0.434-0.54,0.823-0.542c0.381-0.003,0.76-0.002,1.139-0.002
		c60.763,0.01,121.526,0.019,182.29,0.028c0.889,0,1.58-0.16,1.959,1.2c0.452,1.632,2.208,2.142,3.82,2.251
		c0.916,0.062,1.037,0.42,1.035,1.189c-0.017,11.166-0.017,22.332,0.002,33.499c0.003,0.726-0.161,1.014-0.955,1.104
		c-2.013,0.229-3.99,0.553-4.535,3.089c-0.125,0.576-0.969,0.263-1.473,0.263c-10.081,0.018-20.162,0.013-30.243,0.014
		C190.76,247.978,170.324,247.978,149.889,247.977z"/>
	<path fill-rule="evenodd" clip-rule="evenodd" fill="#F6E393" d="M150.005,246.546c28.084,0,56.168,0,84.252,0
		c2.061,0,4.12,0.013,6.18-0.01c0.494-0.005,1.025,0.193,1.369-0.516c0.832-1.716,2.395-2.465,4.187-2.702
		c0.795-0.104,0.953-0.438,0.952-1.148c-0.016-10.302-0.021-20.603,0.008-30.903c0.003-0.848-0.316-1.067-1.084-1.216
		c-1.295-0.248-2.622-0.742-3.259-1.937c-0.624-1.167-1.444-1.305-2.594-1.305c-50.258,0.02-100.517,0.018-150.774,0.016
		c-9.65,0-19.302-0.005-28.951,0.016c-0.63,0.002-1.341-0.302-1.805,0.623c-0.848,1.693-2.455,2.441-4.239,2.627
		c-1.036,0.108-1.194,0.521-1.191,1.429c0.027,10.029,0.033,20.06-0.007,30.09c-0.004,1.015,0.301,1.393,1.289,1.553
		c1.369,0.22,2.755,0.79,3.339,2.069c0.581,1.273,1.419,1.329,2.547,1.327C90.15,246.542,120.078,246.546,150.005,246.546z"/>
	<g>
		<path fill-rule="evenodd" clip-rule="evenodd" fill="#B08E50" d="M64.063,106.215c-0.218-0.665-0.855-0.948-1.311-1.384
			c-0.991-0.95-1.144-2.111-0.772-3.277c0.374-1.182,1.355-1.695,2.626-1.791c2.268-0.171,4.354,0.637,6.479,1.143
			c9.331,2.22,18.764,3.426,28.363,3.146c1.24-0.036,2.475-0.208,3.713-0.309c0.355-0.029,0.604-0.116,0.659-0.541
			c0.83-6.369,4.492-11.365,8.108-16.325c5.03-6.896,9.964-13.875,15.748-20.192c4.925-5.377,10.62-9.562,17.397-12.408
			c9.309-3.909,17.833-2.913,25.842,3.187c5.002,3.81,8.992,8.572,12.911,13.414c0.883,1.091,1.787,2.171,2.587,3.322
			c0.693,1,1.524,1.372,2.742,1.239c5.983-0.65,11.818,0.27,17.574,1.831c8.589,2.331,16.531,6.168,24.246,10.52
			c1.654,0.934,3.085,2.175,4.427,3.528c2.689,2.713,3.434,5.795,2.271,9.484c-1.604,5.089-4.268,9.544-7.688,13.564
			c-8.162,9.589-17.979,17.289-28.187,24.532c-1.846,1.309-3.673,2.646-5.507,3.97c-0.682,0.232-1.267,0.604-1.697,1.196
			c-0.637,0.051-1.055,0.521-1.539,0.841c-3.143,2.07-6.209,4.262-9.583,5.956c-1.518-0.27-3.147,0.011-4.531-0.921l0.033,0.022
			c-0.088-0.109-0.176-0.221-0.265-0.332c-0.464-0.283-0.685-0.708-0.72-1.24c-0.138-2.371-1.809-3.343-3.753-3.922
			c-3.058-0.912-6.203-0.828-9.341-0.527c-7.086,0.677-13.947,2.427-20.704,4.562c-8.503,2.685-16.69,2.502-24.575-2.057
			c-4.314-2.495-8.624-5.02-12.559-8.068c-12.496-9.681-25.031-19.307-37.802-28.622C67.567,108.523,66.076,106.981,64.063,106.215z
			 M76.12,107.623c-0.019,0.114-0.037,0.228-0.056,0.34c0.554,0.427,1.103,0.856,1.66,1.276
			c7.687,5.787,15.478,11.442,23.031,17.397c7.104,5.601,14.217,11.149,22.253,15.376c4.604,2.421,9.402,3.645,14.664,2.475
			c6.429-1.43,12.663-3.599,19.146-4.828c5.834-1.106,11.678-1.664,17.554-0.726c3.052,0.488,5.862,1.812,7.523,4.606
			c0.784,1.321,1.359,1.286,2.496,0.532c5.594-3.701,11.201-7.382,16.615-11.344c9.089-6.649,17.945-13.569,25.158-22.332
			c2.844-3.454,5.146-7.223,6.337-11.581c0.272-0.994,0.454-2.047-0.384-2.911c-0.94-0.971-1.817-2.006-2.981-2.741
			c-6.207-3.923-12.857-6.904-19.755-9.365c-5.067-1.81-10.285-2.871-15.659-3.119c-0.62-0.027-1.549-0.341-1.815,0.212
			c-0.304,0.634,0.518,1.19,0.912,1.735c3.048,4.201,6.359,8.244,8.445,13.054c3.247,7.486,1.501,11.055-5.4,13.872
			c-5.704,2.328-11.752,3.178-17.806,3.938c-6.271,0.787-12.595,1.171-18.896,1.218c-8.271,0.062-16.538,0.468-24.819,0.188
			c-5.355-0.181-10.687-0.357-15.952-1.396c-3.828-0.755-7.651-1.627-10.951-3.821c-0.969-0.645-1.841-0.754-2.874-0.666
			c-2.31,0.198-4.618,0.508-6.931,0.547c-5.626,0.093-11.217-0.417-16.78-1.231C79.277,108.097,77.699,107.858,76.12,107.623z
			 M144.126,113.856c2.696-0.133,4.972-0.233,7.229-0.269c9.784-0.156,19.559-0.33,29.303-1.363
			c3.576-0.38,7.033-1.072,10.233-2.773c3.844-2.043,5.098-4.777,4.006-9.021c-1.126-4.383-3.607-8.107-6.17-11.715
			c-5.54-7.796-10.93-15.712-17.401-22.806c-5.104-5.592-10.799-10.18-18.604-11.175c-3.823-0.487-7.585-0.233-10.79,2.351
			c-2.917,2.354-5.485,5.048-7.861,7.939c-5.612,6.833-10.196,14.376-15.01,21.757c-2.426,3.721-4.576,7.601-5.627,11.989
			c-1.114,4.657,0.101,8.021,3.793,10.201c1.682,0.993,3.489,1.708,5.371,2.257C129.775,113.321,137.152,113.663,144.126,113.856z"
			/>
		<path fill-rule="evenodd" clip-rule="evenodd" fill="#201E21" d="M193.863,155.481c3.822,0.488,7.642,0.398,11.479,0.089
			c3.435-0.278,6.825-0.737,10.129-1.728c1.419-0.425,2.735-1.023,3.252-2.604c3.887,2.908,2.419,7.7-1.812,10.394
			c-4.887,3.109-10.309,4.96-15.837,6.509c-4.39,1.229-8.85,2.126-13.376,2.677c-0.61,0.095-1.223,0.19-1.834,0.285
			c-3.391,0.188-6.781,0.376-10.172,0.564c-0.75-0.587-1.467-0.019-2.199,0.06c-0.796-0.104-1.604-0.277-2.248,0.424
			c-0.211-0.916-0.95-0.709-1.566-0.715c-5.242-0.048-10.437-0.655-15.635-1.261c-2.351-0.273-4.719-0.682-7.105-0.351
			c-6.092,0.843-12.201,1.497-18.357,1.604c-0.227,0.101-0.452,0.201-0.678,0.302c-0.758-0.26-1.504-0.441-2.102,0.327
			c-0.736,0.016-1.341-1.154-2.177-0.242c-0.562-0.26-1.161-0.152-1.746-0.178c-2.669-0.115-5.339-0.231-8.011-0.347
			c-0.679-0.401-1.434-0.115-2.143-0.235c-3.585-0.614-7.203-1.048-10.741-1.925c-7.122-1.767-14.141-3.819-20.34-7.928
			c-2.768-1.835-4.081-5.071-3.17-7.435c0.19-0.492,0.463-0.967,0.774-1.396c0.548-0.758,0.901-1.409,1.825-0.072
			c1.12,1.621,3.204,1.799,5.023,2.183c6.747,1.422,13.556,1.698,20.407,0.954c0.547,0.025,1.109,0.137,1.568-0.299
			c2.124,0.044,4.178-0.474,6.252-0.797c4.588-0.716,9.039-2.041,13.543-3.12c0.573-0.016,1.152-0.066,1.717-0.083
			c1.495-0.045,2.908,0.413,4.459,0.276c2.577-0.228,5.051-0.939,7.605-1.178c2.446,1.661,4.735,3.542,7.268,5.087
			c0.866,0.529,1.487,0.548,2.329-0.008c2.257-1.491,4.501-2.984,6.587-4.722c1.463-1.218,2.676-2.448,2.096-4.558
			c0.201-0.012,0.402-0.024,0.602-0.036c2.245,0.93,4.143,2.513,6.453,3.339c8.526,3.048,17.274,5.105,26.288,6.019
			C192.802,155.399,193.331,155.44,193.863,155.481z"/>
		<path fill-rule="evenodd" clip-rule="evenodd" fill="#B24132" d="M185.864,171.104c0.611-0.095,1.224-0.19,1.834-0.285
			c-1.25,3.446-3.477,6.295-5.685,9.135c-7.373,9.48-17.178,14.657-29.058,15.563c-10.348,0.789-19.951-1.732-28.251-8.192
			c-5.605-4.362-9.929-9.828-12.979-16.268c0.709,0.12,1.464-0.166,2.145,0.235c-0.031,1.517,1.085,2.494,1.803,3.617
			c10.815,16.942,30.235,23.609,48.466,16.596C174.12,187.663,181.052,180.491,185.864,171.104z"/>
		<path fill-rule="evenodd" clip-rule="evenodd" fill="#232A24" d="M140.649,150.237c-2.555,0.238-5.028,0.95-7.605,1.178
			c-1.551,0.137-2.964-0.321-4.459-0.276c-0.564,0.017-1.144,0.067-1.717,0.083c-0.243-0.396-0.676-0.496-1.066-0.611
			c-3.234-0.957-6.199-2.487-9.062-4.229c-4.338-2.641-8.565-5.444-12.623-8.499c-0.489-0.365-0.979-0.729-1.468-1.095
			c-3.492-3.214-7.321-6.011-11.099-8.859c-9.036-6.816-18.146-13.531-27.221-20.292c-0.26-0.192-0.494-0.423-0.729-0.646
			c-1.021-0.961,0.157-0.607,0.464-0.775c2.013,0.767,3.504,2.309,5.194,3.541c12.771,9.315,25.306,18.941,37.802,28.622
			c3.935,3.049,8.244,5.573,12.559,8.068c7.885,4.559,16.072,4.741,24.575,2.057c6.757-2.135,13.618-3.885,20.704-4.562
			c3.138-0.301,6.283-0.385,9.341,0.527c1.944,0.579,3.615,1.551,3.753,3.922c-1.854-1.768-4.053-2.745-6.598-3.105
			c-3.023-0.428-6.037-0.4-9.041-0.003c-0.943,0.125-2.098-0.339-2.822,0.719c-0.199,0.012-0.4,0.024-0.602,0.036
			c-0.144-0.301-0.402-0.32-0.681-0.271C152.279,146.854,146.41,148.329,140.649,150.237z"/>
		<path fill-rule="evenodd" clip-rule="evenodd" fill="#B24132" d="M102.648,136.787c0.488,0.365,0.979,0.729,1.468,1.095
			c0.018,0.643-0.009,1.29,0.059,1.93c0.547,5.188,1.597,10.281,2.898,15.327c-0.459,0.436-1.021,0.324-1.568,0.299
			c-1.237-5.476-2.495-10.948-2.883-16.569C102.574,138.178,102.637,137.48,102.648,136.787z"/>
		<path fill-rule="evenodd" clip-rule="evenodd" fill="#B24132" d="M193.863,155.481c-0.532-0.041-1.062-0.082-1.594-0.123
			c0.905-3.738,1.904-7.456,2.326-11.294c0.431-0.593,1.016-0.964,1.697-1.196c-0.424,4.066-1.339,8.036-2.355,11.984
			C193.885,155.056,193.886,155.272,193.863,155.481z"/>
		<path fill-rule="evenodd" clip-rule="evenodd" fill="#704E2B" d="M76.12,107.623c1.579,0.235,3.157,0.474,4.736,0.704
			c5.563,0.814,11.154,1.324,16.78,1.231c2.312-0.039,4.621-0.349,6.931-0.547c1.033-0.088,1.905,0.021,2.874,0.666
			c3.3,2.194,7.123,3.066,10.951,3.821c5.266,1.038,10.597,1.215,15.952,1.396c8.281,0.28,16.548-0.125,24.819-0.188
			c6.301-0.047,12.624-0.431,18.896-1.218c6.054-0.76,12.102-1.609,17.806-3.938c6.901-2.817,8.647-6.386,5.4-13.872
			c-2.086-4.81-5.397-8.853-8.445-13.054c-0.395-0.545-1.216-1.102-0.912-1.735c0.267-0.553,1.195-0.239,1.815-0.212
			c5.374,0.248,10.592,1.31,15.659,3.119c6.897,2.461,13.548,5.442,19.755,9.365c1.164,0.735,2.041,1.771,2.981,2.741
			c0.838,0.864,0.656,1.917,0.384,2.911c-1.191,4.358-3.493,8.127-6.337,11.581c-7.213,8.763-16.069,15.683-25.158,22.332
			c-5.414,3.962-11.021,7.643-16.615,11.344c-1.137,0.754-1.712,0.789-2.496-0.532c-1.661-2.795-4.472-4.118-7.523-4.606
			c-5.876-0.938-11.72-0.381-17.554,0.726c-6.483,1.229-12.718,3.398-19.146,4.828c-5.262,1.17-10.06-0.054-14.664-2.475
			c-8.036-4.227-15.148-9.775-22.253-15.376c-7.554-5.955-15.345-11.61-23.031-17.397c-0.558-0.42-1.106-0.85-1.66-1.276
			C76.083,107.851,76.102,107.737,76.12,107.623z"/>
		<path fill-rule="evenodd" clip-rule="evenodd" fill="#704E2B" d="M144.126,113.856c-6.974-0.193-14.351-0.535-21.529-2.628
			c-1.882-0.549-3.689-1.264-5.371-2.257c-3.692-2.18-4.907-5.544-3.793-10.201c1.051-4.389,3.201-8.269,5.627-11.989
			c4.813-7.381,9.397-14.924,15.01-21.757c2.376-2.892,4.944-5.586,7.861-7.939c3.205-2.584,6.967-2.838,10.79-2.351
			c7.806,0.995,13.501,5.583,18.604,11.175c6.472,7.094,11.861,15.01,17.401,22.806c2.562,3.607,5.044,7.332,6.17,11.715
			c1.092,4.244-0.162,6.979-4.006,9.021c-3.2,1.701-6.657,2.394-10.233,2.773c-9.744,1.033-19.519,1.207-29.303,1.363
			C149.098,113.623,146.822,113.724,144.126,113.856z"/>
		<path fill-rule="evenodd" clip-rule="evenodd" fill="#F6E393" d="M194.596,144.064c-0.422,3.838-1.421,7.556-2.326,11.294
			c-9.012-0.913-17.76-2.971-26.286-6.019c-2.311-0.826-4.208-2.409-6.453-3.339c0.725-1.058,1.879-0.594,2.822-0.719
			c3.004-0.397,6.018-0.425,9.041,0.003c2.545,0.36,4.743,1.338,6.598,3.105c0.035,0.532,0.256,0.957,0.72,1.24
			c0.017,0.168-0.027,0.385,0.265,0.332l-0.033-0.022c-0.256,1.899,0.844,2.347,2.672,1.836c0.654-0.183,1.241-0.603,1.859-0.915
			c3.374-1.694,6.44-3.886,9.583-5.956C193.541,144.586,193.959,144.115,194.596,144.064z"/>
		<path fill-rule="evenodd" clip-rule="evenodd" fill="#232A24" d="M183.474,150.861c-0.618,0.312-1.205,0.732-1.859,0.915
			c-1.828,0.511-2.928,0.063-2.672-1.836C180.326,150.872,181.956,150.592,183.474,150.861z"/>
		<path fill-rule="evenodd" clip-rule="evenodd" fill="#232A24" d="M178.976,149.963c-0.292,0.053-0.248-0.164-0.265-0.332
			C178.8,149.742,178.888,149.854,178.976,149.963z"/>
		<path fill-rule="evenodd" clip-rule="evenodd" fill="#F6E393" d="M185.864,171.104c-4.812,9.388-11.744,16.56-21.726,20.401
			c-18.23,7.014-37.65,0.347-48.466-16.596c-0.718-1.123-1.834-2.101-1.803-3.617c2.67,0.115,5.34,0.231,8.009,0.347
			c0.585,0.025,1.184-0.082,1.746,0.178c0.391,1.869,1.491,3.346,2.735,4.7c3.565,3.888,7.881,6.744,12.709,8.791
			c3.051,1.291,6.278,1.949,9.616,2.054c8.697,0.271,15.79-3.42,22.149-8.915c2.15-1.858,3.905-4.041,4.857-6.778
			C179.083,171.479,182.474,171.292,185.864,171.104z"/>
		<path fill-rule="evenodd" clip-rule="evenodd" fill="#FBFBFB" d="M125.802,172.059c0.598-0.769,1.344-0.587,2.102-0.327
			c0.197,0.389,0.517,0.614,0.941,0.694l-0.003-0.017c0.188,0.179,0.349,0.407,0.568,0.53c6.234,3.503,13.165,4.282,20.086,5.05
			c0.602,0.066,1.576,0.325,1.908-0.706c0.625-0.008,1.259,0.209,1.875-0.066c2.784-0.279,5.572-0.526,8.351-0.852
			c1.019-0.117,1.988-0.475,2.793-1.166l0.115-0.054c1.199-0.599,2.367-1.234,3.699-1.569c1.066-0.269,2.198-0.545,2.99-1.448
			l0.018,0.024c0.644-0.702,1.452-0.528,2.248-0.425c-0.008,0.108-0.016,0.217-0.023,0.327c-0.089,0.064-0.133,0.151-0.131,0.262
			l0.032-0.026c-0.097,0.139-0.193,0.276-0.29,0.415l0.015-0.023c-0.146,0.202-0.29,0.405-0.435,0.609l0.041-0.041
			c-0.107,0.132-0.217,0.265-0.325,0.396l0.037-0.041c-0.108,0.131-0.218,0.263-0.327,0.392l0.023-0.027
			c-0.158,0.16-0.314,0.32-0.472,0.48l-0.061,0.081c-0.078,0.078-0.156,0.154-0.234,0.232l-0.092,0.093
			c-0.076,0.077-0.154,0.155-0.232,0.231l-0.093,0.095c-0.078,0.076-0.155,0.153-0.233,0.231l-0.093,0.094
			c-0.076,0.077-0.154,0.153-0.232,0.23l-0.103,0.098c-0.078,0.034-0.14,0.089-0.187,0.161c-0.087,0.006-0.146,0.051-0.173,0.133
			c-0.149,0.143-0.298,0.286-0.448,0.429l0.021-0.02c-0.243,0.192-0.487,0.384-0.73,0.574l0.116,0.094l-0.124-0.083
			c-0.104,0.074-0.208,0.148-0.312,0.221l-0.116,0.077c-0.161,0.146-0.321,0.291-0.481,0.437l0.021-0.02
			c-0.244,0.16-0.489,0.321-0.733,0.481l-0.105,0.077c-0.288,0.202-0.577,0.405-0.864,0.609l-0.064,0.039
			c-0.303,0.196-0.605,0.394-0.907,0.591l-0.094,0.058c-0.38,0.26-0.76,0.521-1.142,0.78l0.031-0.022
			c-0.141,0.063-0.282,0.127-0.423,0.19l-0.07,0.03c-0.604,0.368-1.21,0.736-1.814,1.103l0.034-0.025
			c-0.262,0.051-0.535,0.083-0.678,0.36l0.032-0.021c-2.941,1.067-5.886,2.099-9.047,2.354c-5.546,0.448-10.718-0.79-15.616-3.334
			l0.02,0.018c-0.581-0.368-1.162-0.739-1.743-1.107c-0.036-0.054-0.087-0.086-0.151-0.092c-0.284-0.186-0.569-0.372-0.855-0.559
			l-0.113-0.076c-0.286-0.191-0.573-0.384-0.859-0.574l-0.108-0.075c-0.247-0.155-0.495-0.31-0.741-0.465l0.02,0.02
			c-0.175-0.151-0.351-0.303-0.525-0.455l-0.049-0.036c-0.245-0.172-0.49-0.344-0.736-0.516l0.021,0.019
			c-0.154-0.146-0.311-0.293-0.466-0.438c-0.032-0.061-0.082-0.096-0.151-0.104c-0.041-0.091-0.108-0.153-0.202-0.188l-0.101-0.094
			c-0.116-0.077-0.231-0.154-0.348-0.23l-0.045,0.095l0.062-0.084c-0.247-0.421-0.588-0.739-1.039-0.934l0.029,0.038
			c-0.13-0.139-0.258-0.279-0.387-0.421C127.215,173.919,126.509,172.989,125.802,172.059z"/>
		<path fill-rule="evenodd" clip-rule="evenodd" fill="#8C1A22" d="M153.279,177.217c-0.616,0.275-1.25,0.059-1.876,0.066
			c-1.889,0.462-3.724,0.154-5.569-0.322c-1.456-0.376-2.936-0.719-4.458-0.656c-2.052,0.083-3.914-0.515-5.772-1.332
			c-2.204-0.97-4.419-1.947-6.762-2.563l0.003,0.017c-0.088-0.332-0.176-0.664-0.264-0.996c6.156-0.107,12.266-0.762,18.357-1.604
			c2.387-0.331,4.755,0.077,7.105,0.351c5.198,0.605,10.393,1.213,15.635,1.261c0.616,0.006,1.355-0.201,1.566,0.715
			c0,0.001-0.018-0.023-0.018-0.023c-1.773,0.301-3.455,0.897-5.082,1.637c-0.641,0.291-1.687,0.213-1.607,1.381l-0.115,0.054
			c-2.808,0.437-5.627,0.811-8.414,1.353C155.102,176.729,153.943,176.037,153.279,177.217z"/>
		<path fill-rule="evenodd" clip-rule="evenodd" fill="#F6E393" d="M107.073,155.139c-1.302-5.046-2.352-10.14-2.898-15.327
			c-0.067-0.64-0.041-1.287-0.059-1.93c4.058,3.055,8.285,5.858,12.623,8.499c2.863,1.742,5.828,3.272,9.062,4.229
			c0.391,0.115,0.823,0.216,1.066,0.611c-4.504,1.079-8.955,2.404-13.543,3.12C111.251,154.665,109.197,155.183,107.073,155.139z"/>
		<path fill-rule="evenodd" clip-rule="evenodd" fill="#543425" d="M173.47,172.055c0.008-0.11,0.016-0.219,0.023-0.327
			c0.732-0.078,1.449-0.646,2.199-0.06c-0.952,2.737-2.707,4.92-4.857,6.778c-6.359,5.495-13.452,9.187-22.149,8.915
			c-3.338-0.104-6.565-0.763-9.616-2.054c-4.828-2.047-9.144-4.903-12.709-8.791c-1.244-1.354-2.345-2.831-2.735-4.7
			c0.836-0.912,1.44,0.258,2.177,0.242c0.707,0.931,1.413,1.86,2.12,2.793c0.129,0.14,0.259,0.28,0.387,0.419l-0.029-0.038
			c-0.036,0.737,0.263,1.102,1.039,0.934l-0.062,0.084c0,0,0.045-0.095,0.045-0.094c0.01,0.235,0.108,0.341,0.348,0.229
			c0,0,0.101,0.094,0.1,0.094c-0.081,0.227-0.037,0.314,0.203,0.188c0.069,0.008,0.119,0.043,0.151,0.104
			c-0.169,0.491,0.171,0.441,0.466,0.438c0,0-0.021-0.019-0.02-0.019c-0.015,0.54,0.184,0.778,0.734,0.516
			c0,0,0.049,0.036,0.048,0.036c-0.092,0.464,0.212,0.466,0.526,0.455l-0.02-0.02c0.011,0.532,0.198,0.781,0.741,0.465l0.108,0.075
			c-0.121,0.801,0.252,0.863,0.859,0.574l0.113,0.076c-0.112,0.795,0.244,0.873,0.855,0.559c0.064,0.006,0.115,0.038,0.151,0.092
			c0.013,1.265,0.973,1.037,1.743,1.107l-0.02-0.018c-0.046,0.819,0.673,0.898,1.166,1.139c6.797,3.293,13.786,3.755,20.946,1.337
			c0.938-0.316,2.016-0.461,2.551-1.495l-0.032,0.021c0.303,0.025,0.574-0.009,0.678-0.36l-0.034,0.025
			c0.804-0.041,1.708,0.084,1.814-1.103l0.07-0.03c0.219,0.105,0.349,0.019,0.423-0.19l-0.031,0.022
			c0.566,0.011,1.234,0.173,1.142-0.78l0.094-0.058c0.611,0.276,0.972,0.169,0.907-0.591l0.064-0.039
			c0.59,0.226,1.001,0.195,0.864-0.609l0.105-0.077c0.553,0.311,0.74,0.062,0.733-0.481c0,0-0.021,0.02-0.02,0.02
			c0.299,0.008,0.627,0.047,0.48-0.437l0.116-0.077c0.248,0.127,0.326,0.018,0.312-0.221l0.124,0.083l-0.116-0.094
			c0.539,0.183,0.761-0.034,0.73-0.574l-0.021,0.02c0.284-0.003,0.631,0.062,0.448-0.429c0.027-0.082,0.086-0.127,0.175-0.131
			c0.065,0.018,0.133,0.034,0.199,0.05c-0.005-0.071-0.01-0.143-0.015-0.213c0,0,0.103-0.098,0.104-0.097
			c0.243,0.089,0.321,0.014,0.231-0.231c0,0,0.093-0.094,0.094-0.094c0.244,0.089,0.322,0.013,0.232-0.231l0.093-0.095
			c0.244,0.089,0.322,0.014,0.232-0.231c0,0,0.092-0.093,0.093-0.093c0.25,0.096,0.32,0.01,0.233-0.232l0.061-0.081
			c0.454,0.131,0.458-0.179,0.472-0.48l-0.023,0.027c0.11-0.131,0.219-0.261,0.327-0.392l-0.037,0.041
			c0.215-0.046,0.323-0.177,0.325-0.396c0,0-0.041,0.041-0.04,0.041c0.384-0.033,0.433-0.305,0.434-0.609l-0.015,0.023
			c0.097-0.139,0.193-0.276,0.29-0.415c0,0-0.032,0.026-0.031,0.026C173.563,172.319,173.701,172.278,173.47,172.055z"/>
		<path fill-rule="evenodd" clip-rule="evenodd" fill="#F6E393" d="M140.649,150.237c5.761-1.908,11.63-3.383,17.599-4.471
			c0.278-0.05,0.537-0.03,0.681,0.271c0.58,2.109-0.633,3.34-2.096,4.558c-2.086,1.737-4.33,3.23-6.587,4.722
			c-0.842,0.556-1.463,0.537-2.329,0.008C145.385,153.779,143.096,151.898,140.649,150.237z"/>
		<path fill-rule="evenodd" clip-rule="evenodd" fill="#3A3334" d="M128.581,171.43c0.088,0.332,0.176,0.664,0.264,0.996
			c-0.425-0.08-0.744-0.306-0.941-0.694C128.129,171.631,128.354,171.53,128.581,171.43z"/>
		<path fill-rule="evenodd" clip-rule="evenodd" fill="#3A3334" d="M161.055,182.089c-0.535,1.034-1.612,1.179-2.551,1.495
			c-7.16,2.418-14.149,1.956-20.946-1.337c-0.493-0.24-1.212-0.319-1.166-1.139c4.898,2.544,10.07,3.782,15.616,3.334
			C155.169,184.188,158.113,183.156,161.055,182.089z"/>
		<path fill-rule="evenodd" clip-rule="evenodd" fill="#3A3334" d="M128.842,172.409c2.343,0.616,4.558,1.594,6.762,2.563
			c1.858,0.817,3.721,1.415,5.772,1.332c1.522-0.062,3.002,0.28,4.458,0.656c1.846,0.477,3.681,0.784,5.569,0.322
			c-0.331,1.031-1.306,0.772-1.907,0.706c-6.921-0.768-13.852-1.547-20.086-5.05C129.19,172.816,129.03,172.588,128.842,172.409z"/>
		<path fill-rule="evenodd" clip-rule="evenodd" fill="#3A3334" d="M153.279,177.217c0.664-1.18,1.822-0.488,2.729-0.665
			c2.787-0.542,5.606-0.916,8.414-1.353c-0.805,0.691-1.774,1.049-2.793,1.166C158.852,176.69,156.063,176.938,153.279,177.217z"/>
		<path fill-rule="evenodd" clip-rule="evenodd" fill="#3A3334" d="M164.538,175.146c-0.079-1.168,0.967-1.09,1.607-1.381
			c1.627-0.739,3.309-1.336,5.082-1.637c-0.792,0.903-1.924,1.18-2.99,1.448C166.905,173.911,165.737,174.547,164.538,175.146z"/>
		<path fill-rule="evenodd" clip-rule="evenodd" fill="#3A3334" d="M163.48,180.673c-0.106,1.187-1.011,1.062-1.814,1.103
			C162.271,181.409,162.876,181.041,163.48,180.673z"/>
		<path fill-rule="evenodd" clip-rule="evenodd" fill="#3A3334" d="M136.411,181.126c-0.771-0.07-1.73,0.157-1.743-1.107
			C135.249,180.387,135.83,180.758,136.411,181.126z"/>
		<path fill-rule="evenodd" clip-rule="evenodd" fill="#3A3334" d="M129.318,176.166c-0.776,0.168-1.075-0.196-1.039-0.934
			C128.73,175.427,129.071,175.745,129.318,176.166z"/>
		<path fill-rule="evenodd" clip-rule="evenodd" fill="#3A3334" d="M165.084,179.694c0.093,0.953-0.575,0.791-1.142,0.78
			C164.324,180.215,164.704,179.954,165.084,179.694z"/>
		<path fill-rule="evenodd" clip-rule="evenodd" fill="#3A3334" d="M134.517,179.927c-0.611,0.314-0.968,0.236-0.855-0.559
			C133.947,179.555,134.232,179.741,134.517,179.927z"/>
		<path fill-rule="evenodd" clip-rule="evenodd" fill="#3A3334" d="M166.085,179.046c0.064,0.76-0.296,0.867-0.907,0.591
			C165.479,179.439,165.782,179.242,166.085,179.046z"/>
		<path fill-rule="evenodd" clip-rule="evenodd" fill="#3A3334" d="M133.548,179.292c-0.607,0.289-0.98,0.227-0.859-0.574
			C132.975,178.908,133.262,179.101,133.548,179.292z"/>
		<path fill-rule="evenodd" clip-rule="evenodd" fill="#3A3334" d="M167.014,178.397c0.137,0.805-0.274,0.835-0.864,0.609
			C166.437,178.803,166.726,178.6,167.014,178.397z"/>
		<path fill-rule="evenodd" clip-rule="evenodd" fill="#3A3334" d="M169.479,176.539c0.03,0.54-0.191,0.757-0.73,0.574
			C168.992,176.923,169.236,176.731,169.479,176.539z"/>
		<path fill-rule="evenodd" clip-rule="evenodd" fill="#3A3334" d="M131.284,177.706c-0.551,0.263-0.749,0.024-0.734-0.516
			C130.794,177.362,131.039,177.534,131.284,177.706z"/>
		<path fill-rule="evenodd" clip-rule="evenodd" fill="#3A3334" d="M167.853,177.839c0.007,0.544-0.181,0.792-0.733,0.481
			C167.363,178.16,167.608,177.999,167.853,177.839z"/>
		<path fill-rule="evenodd" clip-rule="evenodd" fill="#3A3334" d="M132.58,178.643c-0.543,0.316-0.73,0.067-0.741-0.465
			C132.085,178.333,132.333,178.487,132.58,178.643z"/>
		<path fill-rule="evenodd" clip-rule="evenodd" fill="#3A3334" d="M173.096,172.682c-0.001,0.305-0.05,0.576-0.434,0.609
			C172.806,173.087,172.95,172.884,173.096,172.682z"/>
		<path fill-rule="evenodd" clip-rule="evenodd" fill="#3A3334" d="M172.11,173.97c-0.014,0.302-0.018,0.611-0.472,0.48
			C171.796,174.29,171.952,174.13,172.11,173.97z"/>
		<path fill-rule="evenodd" clip-rule="evenodd" fill="#3A3334" d="M169.906,176.13c0.183,0.49-0.164,0.426-0.448,0.429
			C169.608,176.416,169.757,176.272,169.906,176.13z"/>
		<path fill-rule="evenodd" clip-rule="evenodd" fill="#3A3334" d="M130.569,177.209c-0.295,0.003-0.635,0.053-0.466-0.438
			C130.259,176.916,130.415,177.063,130.569,177.209z"/>
		<path fill-rule="evenodd" clip-rule="evenodd" fill="#3A3334" d="M168.313,177.422c0.146,0.483-0.182,0.444-0.48,0.437
			C167.992,177.713,168.152,177.567,168.313,177.422z"/>
		<path fill-rule="evenodd" clip-rule="evenodd" fill="#3A3334" d="M131.858,178.197c-0.314,0.011-0.618,0.009-0.526-0.455
			C131.508,177.895,131.684,178.046,131.858,178.197z"/>
		<path fill-rule="evenodd" clip-rule="evenodd" fill="#3A3334" d="M161.7,181.75c-0.104,0.352-0.375,0.386-0.678,0.36
			C161.165,181.833,161.438,181.801,161.7,181.75z"/>
		<path fill-rule="evenodd" clip-rule="evenodd" fill="#3A3334" d="M173.47,172.055c0.231,0.224,0.094,0.265-0.13,0.262
			C173.337,172.206,173.381,172.119,173.47,172.055z"/>
		<path fill-rule="evenodd" clip-rule="evenodd" fill="#3A3334" d="M173.371,172.29c-0.097,0.139-0.193,0.276-0.29,0.415
			C173.178,172.566,173.274,172.429,173.371,172.29z"/>
		<path fill-rule="evenodd" clip-rule="evenodd" fill="#3A3334" d="M172.702,173.25c-0.002,0.22-0.11,0.351-0.325,0.396
			C172.485,173.515,172.595,173.382,172.702,173.25z"/>
		<path fill-rule="evenodd" clip-rule="evenodd" fill="#3A3334" d="M172.414,173.605c-0.108,0.131-0.217,0.261-0.327,0.392
			C172.196,173.868,172.306,173.736,172.414,173.605z"/>
		<path fill-rule="evenodd" clip-rule="evenodd" fill="#3A3334" d="M171.578,174.531c0.087,0.242,0.017,0.328-0.233,0.232
			C171.422,174.686,171.5,174.609,171.578,174.531z"/>
		<path fill-rule="evenodd" clip-rule="evenodd" fill="#3A3334" d="M128.309,175.271c-0.128-0.139-0.258-0.279-0.387-0.419
			C128.051,174.991,128.179,175.132,128.309,175.271z"/>
		<path fill-rule="evenodd" clip-rule="evenodd" fill="#3A3334" d="M171.252,174.856c0.09,0.245,0.012,0.32-0.232,0.231
			C171.098,175.012,171.176,174.934,171.252,174.856z"/>
		<path fill-rule="evenodd" clip-rule="evenodd" fill="#3A3334" d="M170.927,175.183c0.09,0.244,0.012,0.32-0.232,0.231
			C170.771,175.336,170.849,175.259,170.927,175.183z"/>
		<path fill-rule="evenodd" clip-rule="evenodd" fill="#3A3334" d="M170.601,175.508c0.09,0.245,0.012,0.32-0.231,0.231
			C170.446,175.661,170.524,175.585,170.601,175.508z"/>
		<path fill-rule="evenodd" clip-rule="evenodd" fill="#3A3334" d="M170.266,175.836c0.005,0.07,0.01,0.142,0.015,0.213
			c-0.066-0.016-0.134-0.032-0.199-0.05C170.126,175.925,170.188,175.87,170.266,175.836z"/>
		<path fill-rule="evenodd" clip-rule="evenodd" fill="#3A3334" d="M129.649,176.386c-0.239,0.111-0.338,0.006-0.348-0.229
			C129.418,176.231,129.533,176.309,129.649,176.386z"/>
		<path fill-rule="evenodd" clip-rule="evenodd" fill="#3A3334" d="M129.952,176.667c-0.24,0.127-0.284,0.039-0.203-0.188
			C129.844,176.514,129.911,176.576,129.952,176.667z"/>
		<path fill-rule="evenodd" clip-rule="evenodd" fill="#3A3334" d="M168.741,177.124c0.015,0.238-0.063,0.348-0.312,0.221
			C168.533,177.272,168.638,177.198,168.741,177.124z"/>
		<path fill-rule="evenodd" clip-rule="evenodd" fill="#3A3334" d="M163.974,180.452c-0.074,0.209-0.204,0.296-0.423,0.19
			C163.691,180.579,163.833,180.516,163.974,180.452z"/>
	</g>
	<g>
		<path fill-rule="evenodd" clip-rule="evenodd" fill="#902124" d="M141.744,236.745c2.106-2.4,4.572-3.892,7.291-5.034
			c1.18-0.495,1.383-1.731,1.632-2.845c1.076-4.803,2.168-9.601,3.186-14.415c0.201-0.954,0.399-1.345,1.419-0.837
			c1.104,0.553,2.321,0.475,3.51,0.277c0.676-0.111,1.403-0.562,1.937,0.189c0.527,0.739,0.146,1.502-0.257,2.127
			c-1.653,2.569-2.267,5.469-2.79,8.405c-0.457,2.56-0.818,5.127-0.921,7.733c-0.043,1.086,0.265,1.684,1.331,2.039
			c3.033,1.016,6.046,2.092,9.31,1.999c2.199-0.062,4.167-0.767,5.668-2.41c0.914-1.001,1.495-2.25,0.655-3.553
			c-0.815-1.266-2.177-1.087-3.396-0.801c-1.903,0.447-3.206,2.118-3.453,4.234c-0.057,0.483-0.024,1.199-0.562,1.18
			c-0.605-0.021-0.607-0.756-0.607-1.282c0.002-1.975,0.977-3.413,2.608-4.395c1.698-1.021,3.512-1.472,5.383-0.436
			c1.825,1.012,2.221,3.279,0.797,5.224c-1.928,2.632-4.729,3.501-7.855,3.413c-2.896-0.082-5.663-0.896-8.361-1.877
			c-1.225-0.445-2.074-0.506-2.366,1.018c-0.158,0.83-0.665,0.824-1.314,0.536c-2.049-0.907-4.438-1.247-5.697-3.456
			c-0.344-0.605-0.745-0.179-1.108-0.04c-1.898,0.719-3.522,1.844-5,3.239c-2.131,2.015-4.115,4.155-5.972,6.425
			c-0.229,0.279-0.365,1.13-1.043,0.477c-0.43-0.413-0.392-0.871,0.092-1.237c1.073-0.812,1.031-1.905,0.859-3.08
			c-0.655-4.456-2.048-8.742-2.974-13.136c-0.205-0.976-0.879-0.884-1.598-0.932c-2.822-0.186-2.82-0.201-3.66,2.493
			c-1.385,4.441-2.69,8.92-5.172,12.919c-1.167,1.884-2.641,3.304-5.141,2.962c-2.526-0.345-4.335-2.635-3.928-5.051
			c0.284-1.688,1.954-2.92,3.529-2.589c1.031,0.217,1.813,0.761,2.029,1.847c0.177,0.896,0.058,1.767-0.789,2.31
			c-0.974,0.622-1.922,0.541-2.97-0.358c0.516-0.081,0.858-0.126,1.2-0.192c0.676-0.13,1.255-0.386,1.346-1.181
			c0.065-0.562-0.245-0.971-0.692-1.188c-0.667-0.326-1.359-0.307-1.97,0.2c-1.046,0.868-1.038,2.615,0.015,3.791
			c1.174,1.311,2.682,1.334,3.876,0.638c2.531-1.474,3.266-3.988,4.153-6.423c2.409-6.604,4.703-13.25,6.246-20.125
			c0.09-0.4,0.198-0.706,0.583-0.893c1.719-0.828,4.241,0.13,4.88,1.892c1.931,5.339,4.043,10.619,5.322,16.17
			C141.281,233.927,141.456,235.16,141.744,236.745z M131.385,217.628c-0.833,1.473-1.124,2.792-1.46,4.089
			c-0.7,2.703-0.297,3.104,2.529,2.636c0.319-0.053,0.743-0.036,0.617-0.503C132.534,221.85,132.523,219.698,131.385,217.628z"/>
		<path fill-rule="evenodd" clip-rule="evenodd" fill="#902024" d="M218.041,212.601c-1.433,1.393-1.728,3.013-1.516,5.01
			c0.501,4.735,0.655,9.516,1.872,14.148c0.461,1.75,0.808,3.65,2.754,4.543c0.52,0.238,0.395,0.76,0.36,1.15
			c-0.044,0.489-0.536,0.471-0.899,0.477c-2.981,0.043-5.961,0.075-8.942,0.099c-0.607,0.004-1.044-0.205-1.073-0.925
			c-0.029-0.74,0.502-0.711,0.979-0.775c1.579-0.216,2.193-1.061,1.938-2.672c-0.507-3.207-0.924-6.428-1.396-9.641
			c-0.026-0.177-0.22-0.332-0.502-0.731c-0.597,2.085-2.451,3.253-2.283,5.68c0.074,1.054-0.856,2.759-2.115,3.619
			c-1.732,1.184-2.25,1.11-3.109-0.763c-1.284-2.8-2.891-5.407-4.413-8.067c-0.147-0.259-0.205-0.609-0.729-0.75
			c0.231,2.918,0.453,5.722,0.677,8.525c0.042,0.54,0.109,1.077,0.136,1.617c0.111,2.291,0.104,2.319,2.435,2.647
			c0.607,0.085,0.843,0.298,0.882,0.896c0.046,0.701-0.409,0.619-0.84,0.641c-1.782,0.092-3.565,0.218-5.35,0.269
			c-0.672,0.019-1.556,0.099-1.606-0.904c-0.049-0.995,0.843-0.57,1.336-0.689c1.076-0.263,1.984-0.659,1.975-1.976
			c-0.034-4.489,0.2-9.004-1-13.404c-0.186-0.676-0.441-1.333-0.703-1.983c-0.402-0.998-1.01-1.467-2.137-0.911
			c-0.642,0.318-1.364,0.445-1.794-0.431c-0.366-0.752,0.11-1.423,0.653-1.255c2.282,0.711,3.974-0.665,5.829-1.424
			c1.812-0.738,2.32-0.509,2.894,1.396c1.153,3.827,3.521,7.054,5.325,10.557c0.632,1.226,0.981,0.114,1.216-0.384
			c1.523-3.232,3.088-6.443,4.972-9.484c0.996-1.607,1.979-3.238,3.464-4.47C217.606,212.272,217.893,212.304,218.041,212.601z"/>
		<path fill-rule="evenodd" clip-rule="evenodd" fill="#902024" d="M107.66,228.657c0,1.083-0.022,2.167,0.008,3.248
			c0.026,0.957,0.257,1.734,1.521,1.533c0.586-0.093,1.057,0.116,1.146,0.83c0.101,0.808-0.49,0.905-1.011,0.959
			c-2.535,0.262-5.075,0.34-7.612,0.023c-0.453-0.058-0.826-0.193-0.784-0.803c0.04-0.562,0.286-0.789,0.822-0.704
			c0.813,0.13,1.17-0.187,1.22-1.03c0.299-5.032,0.304-10.052-0.723-15.016c-0.195-0.947-0.289-2.127-1.904-1.574
			c-0.597,0.204-0.963-0.414-0.968-1.017c-0.004-0.504,0.416-0.627,0.814-0.528c2.061,0.513,3.927-0.406,5.87-0.766
			c0.849-0.158,1.688-0.386,2.542-0.494c0.57-0.074,1.147,0.101,1.122,0.829c-0.021,0.627-0.377,1.026-1.081,0.819
			c-1.411-0.417-1.423,0.326-1.347,1.419c0.121,1.725,0.106,3.463,0.082,5.192c-0.012,0.894,0.131,1.351,1.17,0.968
			c1.712-0.632,3.504-0.729,5.285-0.435c0.983,0.163,1.3-0.258,1.324-1.085c0.059-1.857,0.678-3.747-0.426-5.538
			c-0.435-0.704-0.19-1.227,0.719-1.333c1.664-0.196,3.325-0.409,4.985-0.64c0.999-0.141,1.147,0.428,0.937,1.166
			c-1.151,4.052-1.129,8.229-1.359,12.38c-0.105,1.907,0.171,3.754,0.652,5.609c0.582,2.237,0.117,2.632-2.099,2.097
			c-0.979-0.235-1.928-0.189-2.853,0.245c-0.536,0.25-1.041,0.219-1.474-0.25c-0.483-0.525-0.079-0.919,0.225-1.259
			c0.551-0.611,0.364-1.329,0.378-2.014c0.038-2.057,0.015-4.114,0.079-6.17c0.032-0.99-0.396-1.414-1.314-1.717
			c-1.963-0.647-3.724-0.108-5.501,0.632c-0.583,0.242-0.626,0.671-0.595,1.182c0.067,1.079,0.13,2.157,0.194,3.235
			C107.692,228.654,107.676,228.656,107.66,228.657z"/>
		<path fill-rule="evenodd" clip-rule="evenodd" fill="#902024" d="M195.631,227.292c-0.127,2.537-1.347,5.502-3.537,8.024
			c-1.351,1.555-3.079,2.358-5.228,1.847c-0.358-0.084-0.757-0.102-1.123-0.052c-5.651,0.777-10.031-3.426-9.628-9.254
			c0.358-5.181,3.308-9.288,7.55-10.511C189.471,215.672,195.804,220.486,195.631,227.292z M180.598,226.083
			c0.286,3.114,1.134,6.159,3.762,8.344c2.093,1.742,4.019,1.229,5.037-1.246c1.015-2.471,1.278-5.049,0.518-7.619
			c-0.715-2.415-1.763-4.691-4.199-5.896c-2.018-0.996-3.277-0.51-4.165,1.521C180.89,222.698,180.716,224.306,180.598,226.083z"/>
		<path fill-rule="evenodd" clip-rule="evenodd" fill="#902124" d="M85.433,240.971c-4.293,0.015-7.438-3.372-6.997-7.533
			c0.225-2.132,2.394-3.904,4.85-3.964c2.051-0.05,3.583,1.206,3.794,3.219c0.151,1.438-0.309,2.728-1.561,3.517
			c-0.963,0.604-1.989,0.288-2.903-0.298c-0.643-0.414-0.937-1.016-0.89-1.792c0.035-0.538,0.188-0.979,0.791-1.05
			c0.557-0.067,0.716,0.324,0.836,0.783c0.208,0.788,0.565,1.485,1.563,1.205c1.057-0.297,1.209-1.129,1.043-2.07
			c-0.249-1.425-1.524-2.527-2.938-2.562c-1.496-0.037-2.969,1.166-3.248,2.653c-0.438,2.329,1.057,4.952,3.356,5.902
			c2.151,0.888,4.264,0.3,5.611-1.562c1.495-2.067,1.435-4.715-0.331-6.558c-1.23-1.284-2.675-2.363-3.999-3.562
			c-2.505-2.272-3.028-5.68-1.367-8.739c1.635-3.011,4.982-4.528,8.08-3.662c3.478,0.972,4.87,5.114,2.524,7.544
			c-1.113,1.152-2.499,1.521-4.019,1.082c-1.236-0.356-2.013-1.271-2.257-2.537c-0.212-1.087,0.086-2.062,1.031-2.716
			c0.78-0.542,1.617-0.562,2.437-0.032c0.555,0.36,0.875,0.853,0.614,1.511c-0.272,0.688-0.835,0.467-1.381,0.371
			c-0.376-0.067-0.793-0.646-1.14-0.103c-0.319,0.5-0.066,1.039,0.216,1.522c0.566,0.973,1.445,1.101,2.396,0.799
			c1.302-0.411,2.095-1.322,2.21-2.711c0.154-1.883-1.254-3.493-3.383-3.919c-2.002-0.401-4.093,0.748-4.694,2.582
			c-0.655,1.992-0.118,3.647,1.53,4.876c1.476,1.1,2.853,2.349,4.399,3.334c2.472,1.57,3.004,3.731,2.52,6.446
			C93.336,237.385,89.533,240.954,85.433,240.971z"/>
		<path fill-rule="evenodd" clip-rule="evenodd" fill="#B24132" d="M218.041,212.601c-0.148-0.297-0.435-0.328-0.715-0.366
			c1.846-1.775,3.084-1.534,3.91,0.812c0.13,0.366,0.74,0.911,0.034,1.246c-0.777,0.369-0.686-0.488-0.854-0.83
			C219.88,212.381,219.24,211.772,218.041,212.601z"/>
	</g>
</g>
</svg>
