<?xml version="1.0" encoding="utf-8"?>
<!-- Generator: Adobe Illustrator 16.0.0, SVG Export Plug-In . SVG Version: 6.00 Build 0)  -->
<!DOCTYPE svg PUBLIC "-//W3C//DTD SVG 1.1//EN" "http://www.w3.org/Graphics/SVG/1.1/DTD/svg11.dtd">
<svg version="1.1" id="Layer_1" xmlns="http://www.w3.org/2000/svg" xmlns:xlink="http://www.w3.org/1999/xlink" x="0px" y="0px"
	 width="300px" height="300px" viewBox="0 0 300 300" enable-background="new 0 0 300 300" xml:space="preserve">
<g>
	<g>
		<path fill-rule="evenodd" clip-rule="evenodd" fill="#CA008F" d="M46.387,148.25c1.51-19.02,4.189-37.664,16.377-53.488
			c2.945-3.823,6.094-7.363,10.008-10.146c7.078-5.033,13.961-10.432,21.452-14.763c6.875-3.976,14.771-5.793,22.657-6.819
			c12.959-1.687,25.872-1.277,38.649,1.811c7.021,1.697,13.408,4.66,18.997,9.188c14.934,12.09,28.529,25.457,38,42.395
			c6.907,12.348,10.621,25.984,10.854,39.909c0.144,8.646-1.624,17.699-5.442,25.979c-4.147,8.991-11.623,12.484-20.843,13.225
			c-7.196,0.577-14.182-0.417-20.587-3.985c-1.502-0.836-2.671-1.059-3.852,0.312c-8.899,10.316-20.378,8.729-31.825,6.68
			c-2.051-0.367-3.466-0.346-5.386,0.604c-9.665,4.778-19.421,5.596-28.921-0.52c-1.229-0.792-2.207-1.152-3.191-0.027
			c-4.327,4.937-10.522,4.877-16.192,5.812c-19.123,3.152-29.831-5.592-35.377-26.45c-0.251-0.943-0.197-2.012-0.616-2.858
			c-2.075-4.209-3.475-8.622-4.142-13.25C46.363,157.361,46.408,152.827,46.387,148.25z M91.74,195.944
			c3.774,0.122,4.656-0.676,4.488-4.38c-0.078-1.702-0.144-3.505-0.738-5.062c-3.149-8.26-1.845-15.699,2.634-23.285
			c3.374-5.714,6.094-12.104,2.476-19.058c-0.832-1.603-0.981-3.851-3.149-4.112c-2.401-0.287-3.307,1.887-4.084,3.606
			c-2.117,4.677-4.132,9.407-5.971,14.197c-0.811,2.105-1.487,2.604-3.125,0.771c-1.872-2.096-3.753-4.207-5.819-6.105
			c-3.681-3.379-7.553-3.056-10.426,0.683c-4.163,5.414-4.112,9.759,0.355,12.595c3.501,2.227,7.15,4.231,10.792,6.23
			c2.84,1.558,4.243,3.788,4.323,7.081c0.087,3.416,0.401,6.841,0.841,10.23C85.002,194.507,86.524,195.776,91.74,195.944z
			 M79.809,110.69c-0.673-0.453-1.211-0.725-1.639-1.118c-2.437-2.231-4.934-4.405-7.246-6.761
			c-4.814-4.909-7.664-4.519-10.803,1.628c-2.084,4.08-1.768,5.181,2.024,7.921c2.18,1.576,4.189,3.398,6.409,4.912
			c7.015,4.781,11.644,10.669,11.707,19.803c0.036,5.424,3.486,6.677,8.319,3.878c2.67-1.547,4.04-3.808,4.042-6.917
			c0-2.355-0.374-4.678-1.169-6.851c-2.183-5.991-2.058-11.988-0.479-18.047c0.927-3.551,1.797-7.118,2.82-10.641
			c2.228-7.676,2.26-7.667-3.983-12.182c-2.889-2.09-4.124-1.76-5.458,1.562c-0.406,1.014-0.679,2.098-0.882,3.174
			C82.246,97.509,81.058,103.976,79.809,110.69z M155.638,105.996c-0.236-2.682-0.499-6.465-0.938-10.225
			c-0.197-1.687-0.628-3.372-1.169-4.986c-2.017-6.021-8.418-7.963-13.143-3.736c-1.854,1.658-2.348,0.861-3.505-0.462
			c-2-2.291-4.479-4.13-7.688-3.077c-1.747,0.573-3.119,1.5-4.677-0.26c-0.487-0.55-1.378-0.331-2.021,0.175
			c-0.954,0.75-0.75,1.723-0.481,2.678c2.939,10.354,4.016,21.138,7.254,31.417c0.69,2.191,0.745,5.912,3.831,5.248
			c3.265-0.703,2.063-4.285,1.585-6.646c-0.966-4.786-2.339-9.489-3.514-14.233c-0.826-3.325-1.66-6.656-1.498-10.125
			c0.044-0.968,0.078-2.127,1.244-2.408c1.417-0.341,1.889,0.859,2.293,1.876c0.41,1.017,0.678,2.09,0.987,3.146
			c1.952,6.703,3.268,13.547,4.596,20.392c0.326,1.674,0.739,3.758,2.835,3.755c2.485-0.003,2.476-2.382,2.664-4.122
			c0.179-1.682,0.057-3.422-0.147-5.11c-0.397-3.276-0.98-6.529-1.42-9.799c-0.278-2.087-0.165-4.17,0.729-6.117
			c0.473-1.036,1.268-1.93,2.488-1.882c1.295,0.05,1.271,1.375,1.51,2.217c1.848,6.559,2.314,13.221,1.16,19.957
			c-0.29,1.693-0.732,3.374-0.362,5.085c0.392,1.805,1.42,3.339,3.337,3.397c1.729,0.051,2.293-1.601,2.691-3.043
			C155.369,115.179,155.425,111.134,155.638,105.996z M133.785,146.863c-0.14-0.791-0.212-1.38-0.353-1.951
			c-0.292-1.201-0.583-2.611-2.132-2.549c-1.456,0.058-1.949,1.381-2.111,2.618c-0.203,1.571-0.379,3.184-0.263,4.753
			c0.763,10.152,2.981,20.069,5.065,30c0.245,1.167,0.885,2.273,1.471,3.336c0.521,0.938,1.412,1.344,2.5,1.044
			c1.151-0.317,1.516-1.276,1.42-2.28c-0.135-1.452-0.487-2.886-0.774-4.321c-1.076-5.396-2.207-10.781-3.211-16.19
			c-0.209-1.136-0.392-2.757,1.146-3.077c1.572-0.327,1.875,1.283,2.246,2.392c1.534,4.604,1.561,9.386,1.531,14.162
			c-0.015,2.006,0.314,3.941,2.631,4.104c2.479,0.174,2.796-1.96,2.957-3.83c0.105-1.21,0.019-2.447-0.104-3.66
			c-0.371-3.649-0.87-7.287-1.181-10.941c-0.153-1.824-0.075-3.69,0.923-5.345c0.296-0.492,0.56-1.233,1.301-0.952
			c0.35,0.131,0.688,0.691,0.75,1.102c0.29,1.805,0.562,3.619,0.685,5.44c0.44,6.462-0.529,12.985,0.781,19.407
			c0.314,1.538,0.741,3.375,2.84,3.192c1.729-0.15,2.405-1.71,2.429-3.223c0.171-10.276,0.219-20.59-1.863-30.687
			c-1.088-5.282-5.654-7.924-10.067-2.744c-0.581,0.68-1.05,1.876-2.204,0.531C138.321,145.009,136.142,145.56,133.785,146.863z
			 M160.488,147.961c-0.362-1.37-0.571-2.324-0.871-3.249c-0.35-1.087-0.837-2.159-2.271-1.854
			c-1.205,0.256-1.269,1.379-1.372,2.331c-0.066,0.592,0.044,1.223,0.179,1.815c1.411,6.242,1.539,12.611,1.97,18.956
			c0.225,3.284,0.159,6.616,1.104,9.826c0.455,1.54,0.861,3.518,2.749,3.41c2.221-0.127,2.104-2.354,2.316-4.008
			c0.126-0.967,0.108-1.964,0.027-2.936c-0.325-3.899-0.78-7.791-1.031-11.695c-0.156-2.435-0.284-4.951,1.803-7.364
			c0.335,1.869,0.696,3.294,0.831,4.74c0.541,5.846,0.987,11.701,1.534,17.548c0.152,1.627-0.107,3.892,2.354,3.83
			c2.506-0.062,2.065-2.183,1.991-3.887c-0.071-1.711-0.125-3.425-0.144-5.136c-0.048-4.774-0.092-9.547-0.084-14.319
			c0-0.809-0.012-1.933,1.154-1.933c0.838,0.001,0.996,0.976,1.185,1.659c0.721,2.616,0.903,5.305,0.897,8.003
			c-0.009,4.526-0.051,9.054-0.096,13.579c-0.027,2.663,1.51,4.21,3.887,4.565c2.728,0.405,3.113-2.003,3.403-3.867
			c0.353-2.283,0.353-4.633,0.368-6.955c0.047-6.509-0.271-12.994-2.563-19.174c-1.905-5.129-4.761-6.409-9.736-4.589
			c-0.442,0.163-0.84,0.584-1.237,0.062C165.978,143.592,163.359,145.705,160.488,147.961z M121.651,183.921
			c0.945,1.533,1.671,2.776,2.461,3.98c0.828,1.265,1.806,2.459,3.543,2.041c1.929-0.464,2.147-2.135,2.3-3.752
			c0.316-3.395-2.142-5.588-3.651-8.166c-1.053-1.794-2.354-3.371-2.042-5.698c0.455-3.388,0.918-6.799,0.978-10.207
			c0.093-5.247,0.153-10.54-1.8-15.565c-0.496-1.277-1.16-2.627-2.682-2.719c-1.378-0.082-2.024,1.204-2.679,2.234
			c-2.12,3.342-2.539,7.084-2.527,10.922c0.009,4.331,1.307,8.445,2.174,12.628c0.879,4.224-0.102,7.992-2.455,11.485
			c-1.002,1.486-2.266,2.744-4.228,2.25c-1.872-0.471-2.117-2.241-2.312-3.805c-0.622-4.998-0.583-10.023-0.14-15.026
			c0.374-4.261,1.067-8.492,1.468-12.75c0.129-1.368,0.413-3.337-1.549-3.585c-1.771-0.222-2.204,1.614-2.754,2.955
			c-0.23,0.562-0.38,1.163-0.523,1.759c-2.024,8.397-2.296,16.954-2.09,25.526c0.063,2.664,0.305,5.382,1.522,7.877
			c1.926,3.951,5.583,5.617,9.746,4.313C117.716,189.585,119.938,187.244,121.651,183.921z M183.15,111.366
			c-0.098-0.003-0.197-0.007-0.293-0.012c0-3.055,0.197-6.125-0.05-9.159c-0.312-3.759-1.505-7.188-5.087-9.241
			c-2.38-1.364-5.116-0.413-7.338-0.998c-1.991-0.523-2.877-4.04-5.556-4.816c-1.173-0.339-2.368-0.749-3.595-0.333
			c-1.435,0.486-2.252,0.134-2.732-1.395c-0.33-1.035-1.086-2.15-2.401-1.76c-1.11,0.329-1.071,1.534-1.005,2.509
			c0.682,10.378,2.242,20.625,4.691,30.733c0.114,0.47,0.326,0.926,0.562,1.351c0.668,1.203,1.447,2.509,3.029,2.188
			c1.576-0.32,1.786-1.805,1.944-3.188c0.457-4.01-0.724-7.757-1.878-11.491c-1.017-3.291-1.74-6.625-1.681-10.073
			c0.018-1.048,0.087-2.424,1.447-2.657c1.337-0.23,1.857,0.976,2.281,1.985c0.377,0.897,0.688,1.842,0.865,2.797
			c0.834,4.47,0.869,8.993,0.846,13.523c-0.012,2.189-0.153,4.421,0.789,6.5c0.59,1.304,1.475,2.355,3.044,2.159
			c1.726-0.215,2.016-1.642,1.998-3.031c-0.039-3.054-0.206-6.107-0.299-9.161c-0.084-2.581-0.013-5.153,1.114-7.54
			c0.3-0.631,0.832-1.525,1.352-1.597c1.012-0.14,1.304,0.981,1.565,1.742c0.849,2.478,0.734,5.039,0.582,7.621
			c-0.312,5.237-1.154,10.472-0.376,15.73c0.224,1.512,0.854,2.963,2.643,3.052c1.992,0.097,2.356-1.593,2.509-3.019
			C182.559,119.657,182.819,115.508,183.15,111.366z M117.809,120.403c0.604,0.977,1.062,1.844,1.639,2.623
			c1.085,1.456,2.5,2.545,4.366,1.806c1.956-0.772,1.988-2.615,1.728-4.379c-0.123-0.833-0.299-1.758-0.762-2.425
			c-4.785-6.87-4.817-14.658-4.566-22.545c0.096-2.935-0.14-5.895-1.373-8.625c-1.357-3.011-4.68-4.904-7.042-4.005
			c-3.323,1.265-2.569,4.114-2.18,6.579c0.891,5.666,1.869,11.325,3.723,16.787c1.582,4.663-0.368,8.407-3.358,11.699
			c-2.09,2.304-3.983,1.961-5.478-0.739c-1.827-3.301-2.38-6.943-2.317-10.638c0.102-5.865,0.448-11.725,0.574-17.588
			c0.027-1.204,0.538-3.15-1.289-3.307c-1.713-0.148-1.792,1.774-2.001,3.015c-1.106,6.642-1.687,13.328-1.429,20.075
			c0.186,4.92,0.721,9.78,2.766,14.313c2.664,5.909,8.45,6.892,13.01,2.222C115.252,123.803,116.433,122.094,117.809,120.403z
			 M201.601,155.718c1.136,4.329,0.212,8.434,0.204,12.503c-0.004,2.443-0.404,4.905,0.269,7.31
			c0.392,1.396,1.286,2.461,2.864,2.354c1.417-0.096,2.273-1.135,2.226-2.48c-0.23-6.229,0.821-12.496-0.222-18.674
			c-0.712-4.221-3.463-6.103-7.751-5.916c-0.854,0.039-1.259-0.066-1.726-0.822c-1.752-2.85-4.479-3.059-7.425-2.514
			c-0.699,0.131-1.555,1.177-1.935-0.41c-0.278-1.151-0.48-2.785-2.144-2.277c-1.373,0.42-1.211,2.02-1.092,3.218
			c0.712,6.972,0.027,13.952,0.18,20.926c0.051,2.346,0.287,4.654,1.041,6.865c0.532,1.569,1.497,2.977,3.394,2.808
			c1.854-0.164,2.643-1.608,2.937-3.292c0.571-3.306,0.039-6.585-0.287-9.872c-0.314-3.158-0.595-6.323-0.721-9.49
			c-0.042-1.05,0.287-2.493,1.656-2.441c1.295,0.05,1.035,1.562,1.064,2.379c0.18,5.01,0.138,10.027,0.308,15.038
			c0.072,2.108,0.362,4.557,3.212,4.438c2.712-0.114,2.635-2.633,2.62-4.491c-0.03-3.666-0.432-7.326-0.602-10.992
			C199.603,158.352,199.525,156.718,201.601,155.718z M198.99,113.826c1.388,3.789,0.751,7.323,0.756,10.793
			c0.004,2.325-0.134,4.657,0.757,6.871c0.479,1.197,1.289,2.25,2.677,2.075c1.16-0.145,1.363-1.431,1.399-2.332
			c0.122-3.168,0.23-6.353,0.036-9.513c-0.225-3.657-0.361-7.633-2.934-10.4c-2.967-3.192-6.74-5.61-10.096-8.424
			c-1.584-1.328-3.104-2.109-3.482-4.258c-0.153-0.856-0.628-1.724-1.69-1.563c-1.046,0.16-1.166,1.106-1.202,1.987
			c-0.326,7.603,0.742,15.113,1.62,22.627c0.156,1.339,1.144,2.732,2.641,2.621c1.595-0.118,1.385-1.808,1.412-2.924
			c0.093-3.647,0.035-7.296,0.035-10.946c0.939,0.61,1.193,1.274,1.26,1.956c0.26,2.791,0.331,5.606,0.732,8.377
			c0.293,2.038,1.331,4.104,3.732,3.623c2.206-0.442,1.488-2.706,1.449-4.319C198.043,118.099,197.151,116.039,198.99,113.826z"/>
		<path fill-rule="evenodd" clip-rule="evenodd" fill="#CA008F" d="M245.159,179.339c-0.26,9.778-8.25,18.134-16.62,18.125
			c-5.986-0.009-9.248-3.68-8.462-9.684c0.76-5.795,3.083-10.989,6.28-15.85c2.747-4.184,6.677-5.047,11.201-4.136
			c4.282,0.861,6.189,4.035,7.102,7.955C244.989,177.166,245.067,178.641,245.159,179.339z"/>
		<path fill-rule="evenodd" clip-rule="evenodd" fill="#CA008F" d="M253.612,193.094c0.043,3.51-1.937,5.806-4.664,5.734
			c-2.845-0.075-3.81-1.874-3.75-4.369c0.071-2.914,1.453-4.961,4.521-5.206C252.593,189.022,253.458,190.984,253.612,193.094z"/>
		<path fill-rule="evenodd" clip-rule="evenodd" fill="#FDFCFD" d="M91.74,195.944c-5.215-0.168-6.737-1.438-7.404-6.608
			c-0.439-3.39-0.753-6.814-0.841-10.23c-0.08-3.293-1.483-5.523-4.323-7.081c-3.642-1.999-7.291-4.004-10.792-6.23
			c-4.467-2.836-4.518-7.181-0.355-12.595c2.873-3.739,6.746-4.062,10.426-0.683c2.066,1.898,3.947,4.01,5.819,6.105
			c1.638,1.832,2.314,1.334,3.125-0.771c1.839-4.79,3.854-9.521,5.971-14.197c0.777-1.719,1.684-3.894,4.084-3.606
			c2.168,0.261,2.317,2.509,3.149,4.112c3.618,6.954,0.897,13.344-2.476,19.058c-4.479,7.586-5.783,15.025-2.634,23.285
			c0.595,1.558,0.66,3.36,0.738,5.062C96.396,195.269,95.514,196.066,91.74,195.944z"/>
		<path fill-rule="evenodd" clip-rule="evenodd" fill="#FDFCFD" d="M79.809,110.69c1.25-6.714,2.437-13.181,3.663-19.638
			c0.204-1.077,0.476-2.161,0.882-3.174c1.334-3.322,2.568-3.652,5.458-1.562c6.243,4.515,6.21,4.506,3.983,12.182
			c-1.023,3.522-1.893,7.09-2.82,10.641c-1.579,6.06-1.705,12.057,0.479,18.047c0.795,2.173,1.169,4.496,1.169,6.851
			c-0.003,3.108-1.373,5.369-4.042,6.917c-4.833,2.799-8.283,1.546-8.319-3.878c-0.063-9.134-4.692-15.022-11.707-19.803
			c-2.219-1.513-4.229-3.335-6.409-4.912c-3.792-2.74-4.108-3.841-2.024-7.921c3.14-6.146,5.989-6.537,10.803-1.628
			c2.312,2.356,4.809,4.53,7.246,6.761C78.597,109.965,79.136,110.237,79.809,110.69z"/>
		<path fill-rule="evenodd" clip-rule="evenodd" fill="#FDFCFD" d="M155.638,105.996c-0.213,5.138-0.269,9.183-1.357,13.109
			c-0.398,1.442-0.963,3.094-2.691,3.043c-1.917-0.058-2.945-1.592-3.337-3.397c-0.371-1.711,0.072-3.392,0.362-5.085
			c1.154-6.735,0.688-13.397-1.16-19.957c-0.239-0.841-0.215-2.167-1.51-2.217c-1.22-0.048-2.015,0.846-2.488,1.882
			c-0.894,1.947-1.008,4.03-0.729,6.117c0.439,3.27,1.022,6.523,1.42,9.799c0.204,1.688,0.326,3.429,0.147,5.11
			c-0.188,1.74-0.179,4.119-2.664,4.122c-2.096,0.003-2.509-2.082-2.835-3.755c-1.328-6.845-2.644-13.689-4.596-20.392
			c-0.309-1.056-0.577-2.129-0.987-3.146c-0.404-1.017-0.876-2.217-2.293-1.876c-1.167,0.281-1.2,1.44-1.244,2.408
			c-0.162,3.469,0.672,6.8,1.498,10.125c1.175,4.744,2.548,9.448,3.514,14.233c0.479,2.361,1.68,5.943-1.585,6.646
			c-3.086,0.664-3.14-3.056-3.831-5.248c-3.238-10.279-4.315-21.063-7.254-31.417c-0.269-0.956-0.472-1.928,0.481-2.678
			c0.643-0.505,1.534-0.725,2.021-0.175c1.558,1.76,2.93,0.833,4.677,0.26c3.208-1.053,5.687,0.787,7.688,3.077
			c1.157,1.323,1.651,2.12,3.505,0.462c4.725-4.227,11.126-2.285,13.143,3.736c0.541,1.615,0.972,3.3,1.169,4.986
			C155.139,99.531,155.401,103.314,155.638,105.996z"/>
		<path fill-rule="evenodd" clip-rule="evenodd" fill="#FDFCFD" d="M133.785,146.863c2.356-1.304,4.536-1.854,6.411,0.331
			c1.154,1.345,1.624,0.149,2.204-0.531c4.413-5.181,8.979-2.539,10.067,2.744c2.082,10.097,2.034,20.411,1.863,30.687
			c-0.023,1.513-0.699,3.072-2.429,3.223c-2.099,0.183-2.526-1.654-2.84-3.192c-1.31-6.422-0.341-12.945-0.781-19.407
			c-0.123-1.821-0.395-3.636-0.685-5.44c-0.063-0.41-0.401-0.971-0.75-1.102c-0.742-0.281-1.005,0.46-1.301,0.952
			c-0.998,1.654-1.076,3.521-0.923,5.345c0.311,3.654,0.81,7.292,1.181,10.941c0.123,1.213,0.209,2.45,0.104,3.66
			c-0.161,1.87-0.478,4.004-2.957,3.83c-2.317-0.163-2.646-2.099-2.631-4.104c0.03-4.776,0.003-9.559-1.531-14.162
			c-0.371-1.108-0.673-2.719-2.246-2.392c-1.537,0.32-1.354,1.941-1.146,3.077c1.004,5.409,2.135,10.795,3.211,16.19
			c0.287,1.436,0.64,2.869,0.774,4.321c0.096,1.004-0.269,1.963-1.42,2.28c-1.089,0.3-1.979-0.106-2.5-1.044
			c-0.585-1.062-1.226-2.169-1.471-3.336c-2.084-9.932-4.303-19.849-5.065-30c-0.117-1.569,0.06-3.182,0.263-4.753
			c0.162-1.236,0.655-2.56,2.111-2.618c1.549-0.062,1.839,1.349,2.132,2.549C133.573,145.483,133.645,146.073,133.785,146.863z"/>
		<path fill-rule="evenodd" clip-rule="evenodd" fill="#FDFCFD" d="M160.488,147.961c2.871-2.256,5.489-4.369,8.346-0.64
			c0.397,0.522,0.795,0.101,1.237-0.062c4.976-1.82,7.831-0.54,9.736,4.589c2.293,6.18,2.61,12.665,2.563,19.174
			c-0.016,2.322-0.016,4.672-0.368,6.955c-0.29,1.864-0.676,4.272-3.403,3.867c-2.377-0.355-3.914-1.902-3.887-4.565
			c0.045-4.525,0.087-9.053,0.096-13.579c0.006-2.698-0.177-5.387-0.897-8.003c-0.188-0.684-0.347-1.658-1.185-1.659
			c-1.166,0-1.154,1.124-1.154,1.933c-0.008,4.772,0.036,9.545,0.084,14.319c0.019,1.711,0.072,3.425,0.144,5.136
			c0.074,1.704,0.515,3.824-1.991,3.887c-2.461,0.062-2.201-2.203-2.354-3.83c-0.547-5.847-0.993-11.702-1.534-17.548
			c-0.135-1.446-0.496-2.871-0.831-4.74c-2.087,2.413-1.959,4.93-1.803,7.364c0.251,3.904,0.706,7.796,1.031,11.695
			c0.081,0.972,0.099,1.969-0.027,2.936c-0.212,1.654-0.096,3.881-2.316,4.008c-1.888,0.107-2.294-1.87-2.749-3.41
			c-0.944-3.21-0.879-6.542-1.104-9.826c-0.431-6.345-0.559-12.714-1.97-18.956c-0.135-0.592-0.245-1.223-0.179-1.815
			c0.104-0.952,0.167-2.075,1.372-2.331c1.435-0.305,1.922,0.767,2.271,1.854C159.917,145.637,160.126,146.591,160.488,147.961z"/>
		<path fill-rule="evenodd" clip-rule="evenodd" fill="#FDFCFD" d="M121.651,183.921c-1.713,3.323-3.935,5.664-7.242,6.698
			c-4.163,1.304-7.819-0.362-9.746-4.313c-1.217-2.495-1.459-5.213-1.522-7.877c-0.206-8.572,0.066-17.129,2.09-25.526
			c0.144-0.596,0.293-1.196,0.523-1.759c0.55-1.341,0.983-3.177,2.754-2.955c1.962,0.248,1.678,2.217,1.549,3.585
			c-0.4,4.258-1.094,8.489-1.468,12.75c-0.443,5.003-0.481,10.028,0.14,15.026c0.194,1.563,0.44,3.334,2.312,3.805
			c1.962,0.494,3.226-0.764,4.228-2.25c2.354-3.493,3.334-7.262,2.455-11.485c-0.867-4.183-2.165-8.297-2.174-12.628
			c-0.012-3.838,0.407-7.58,2.527-10.922c0.655-1.03,1.301-2.316,2.679-2.234c1.522,0.091,2.186,1.442,2.682,2.719
			c1.953,5.025,1.893,10.318,1.8,15.565c-0.06,3.408-0.523,6.819-0.978,10.207c-0.311,2.327,0.99,3.904,2.042,5.698
			c1.51,2.578,3.968,4.771,3.651,8.166c-0.153,1.617-0.371,3.288-2.3,3.752c-1.737,0.418-2.715-0.776-3.543-2.041
			C123.322,186.697,122.596,185.454,121.651,183.921z M120.595,150.58c-1.504,3.651-1.357,10.877,0.287,13.906
			C122.072,154.009,122.072,154.009,120.595,150.58z"/>
		<path fill-rule="evenodd" clip-rule="evenodd" fill="#FDFCFD" d="M183.15,111.366c-0.331,4.142-0.592,8.291-1.028,12.422
			c-0.152,1.426-0.517,3.115-2.509,3.019c-1.788-0.088-2.419-1.54-2.643-3.052c-0.778-5.258,0.064-10.493,0.376-15.73
			c0.152-2.582,0.267-5.144-0.582-7.621c-0.262-0.761-0.554-1.882-1.565-1.742c-0.52,0.072-1.052,0.966-1.352,1.597
			c-1.127,2.386-1.198,4.959-1.114,7.54c0.093,3.053,0.26,6.106,0.299,9.161c0.018,1.389-0.272,2.815-1.998,3.031
			c-1.569,0.196-2.454-0.855-3.044-2.159c-0.942-2.08-0.801-4.312-0.789-6.5c0.023-4.53-0.012-9.053-0.846-13.523
			c-0.177-0.955-0.488-1.9-0.865-2.797c-0.424-1.009-0.944-2.216-2.281-1.985c-1.36,0.233-1.43,1.609-1.447,2.657
			c-0.06,3.448,0.664,6.782,1.681,10.073c1.154,3.734,2.335,7.481,1.878,11.491c-0.158,1.383-0.368,2.868-1.944,3.188
			c-1.582,0.321-2.361-0.984-3.029-2.188c-0.235-0.425-0.447-0.881-0.562-1.351c-2.449-10.108-4.01-20.354-4.691-30.733
			c-0.066-0.975-0.105-2.18,1.005-2.509c1.315-0.39,2.071,0.725,2.401,1.76c0.48,1.529,1.298,1.881,2.732,1.395
			c1.227-0.416,2.422-0.006,3.595,0.333c2.679,0.776,3.564,4.293,5.556,4.816c2.222,0.585,4.958-0.366,7.338,0.998
			c3.582,2.053,4.775,5.482,5.087,9.241c0.247,3.034,0.05,6.104,0.05,9.159C182.953,111.359,183.053,111.363,183.15,111.366z"/>
		<path fill-rule="evenodd" clip-rule="evenodd" fill="#FDFCFD" d="M117.809,120.403c-1.375,1.691-2.557,3.4-3.989,4.867
			c-4.56,4.67-10.346,3.687-13.01-2.222c-2.045-4.533-2.581-9.393-2.766-14.313c-0.257-6.748,0.323-13.434,1.429-20.075
			c0.209-1.241,0.288-3.163,2.001-3.015c1.827,0.157,1.315,2.104,1.289,3.307c-0.126,5.864-0.473,11.723-0.574,17.588
			c-0.062,3.695,0.491,7.337,2.317,10.638c1.495,2.7,3.388,3.042,5.478,0.739c2.99-3.292,4.94-7.036,3.358-11.699
			c-1.854-5.462-2.832-11.121-3.723-16.787c-0.389-2.464-1.143-5.314,2.18-6.579c2.362-0.899,5.684,0.994,7.042,4.005
			c1.232,2.73,1.468,5.69,1.373,8.625c-0.251,7.887-0.218,15.675,4.566,22.545c0.463,0.667,0.64,1.592,0.762,2.425
			c0.26,1.764,0.228,3.606-1.728,4.379c-1.866,0.739-3.28-0.35-4.366-1.806C118.87,122.247,118.413,121.379,117.809,120.403z
			 M116.421,100.246c0.257-7.209-0.843-11.39-3.328-13.3C113.069,91.717,114.579,96.013,116.421,100.246z"/>
		<path fill-rule="evenodd" clip-rule="evenodd" fill="#FDFCFD" d="M201.601,155.718c-2.075,1-1.998,2.634-1.929,4.165
			c0.17,3.666,0.571,7.326,0.602,10.992c0.015,1.858,0.092,4.377-2.62,4.491c-2.85,0.119-3.14-2.329-3.212-4.438
			c-0.17-5.011-0.128-10.028-0.308-15.038c-0.029-0.816,0.23-2.329-1.064-2.379c-1.369-0.052-1.698,1.392-1.656,2.441
			c0.126,3.167,0.406,6.332,0.721,9.49c0.326,3.287,0.858,6.566,0.287,9.872c-0.294,1.684-1.082,3.128-2.937,3.292
			c-1.896,0.169-2.861-1.238-3.394-2.808c-0.754-2.211-0.99-4.52-1.041-6.865c-0.152-6.974,0.532-13.954-0.18-20.926
			c-0.119-1.198-0.281-2.798,1.092-3.218c1.663-0.508,1.865,1.126,2.144,2.277c0.38,1.586,1.235,0.541,1.935,0.41
			c2.946-0.545,5.673-0.336,7.425,2.514c0.467,0.756,0.871,0.861,1.726,0.822c4.288-0.187,7.039,1.695,7.751,5.916
			c1.043,6.178-0.009,12.445,0.222,18.674c0.048,1.346-0.809,2.385-2.226,2.48c-1.578,0.107-2.473-0.958-2.864-2.354
			c-0.673-2.404-0.272-4.866-0.269-7.31C201.812,164.151,202.736,160.047,201.601,155.718z"/>
		<path fill-rule="evenodd" clip-rule="evenodd" fill="#FDFCFD" d="M198.99,113.826c-1.839,2.213-0.947,4.273-0.897,6.25
			c0.039,1.613,0.757,3.876-1.449,4.319c-2.401,0.481-3.439-1.584-3.732-3.623c-0.401-2.771-0.473-5.586-0.732-8.377
			c-0.066-0.682-0.32-1.346-1.26-1.956c0,3.649,0.058,7.299-0.035,10.946c-0.027,1.117,0.183,2.806-1.412,2.924
			c-1.497,0.112-2.484-1.281-2.641-2.621c-0.878-7.515-1.946-15.024-1.62-22.627c0.036-0.88,0.156-1.827,1.202-1.987
			c1.062-0.16,1.537,0.707,1.69,1.563c0.379,2.149,1.898,2.931,3.482,4.258c3.355,2.814,7.129,5.231,10.096,8.424
			c2.572,2.767,2.709,6.743,2.934,10.4c0.194,3.161,0.086,6.345-0.036,9.513c-0.036,0.901-0.239,2.188-1.399,2.332
			c-1.388,0.175-2.198-0.878-2.677-2.075c-0.891-2.214-0.753-4.546-0.757-6.871C199.741,121.149,200.378,117.615,198.99,113.826z"/>
		<path fill-rule="evenodd" clip-rule="evenodd" fill="#FDFCFD" d="M107.143,215.357c-0.075,1.035-0.829,1.038-1.576,1.021
			c-0.631-0.013-1.268-0.142-1.274-0.937c-0.006-0.858,0.56-1.328,1.373-1.36C106.491,214.048,107.014,214.509,107.143,215.357z"/>
		<path fill-rule="evenodd" clip-rule="evenodd" fill="#CA008F" d="M120.595,150.58c1.477,3.429,1.477,3.429,0.287,13.906
			C119.238,161.457,119.091,154.231,120.595,150.58z"/>
		<path fill-rule="evenodd" clip-rule="evenodd" fill="#CA008F" d="M116.421,100.246c-1.842-4.232-3.352-8.528-3.328-13.3
			C115.578,88.856,116.678,93.036,116.421,100.246z"/>
	</g>
	<g>
		<path fill="#FFB24B" d="M70.773,225.094v1.853h5.515v-1.853c0-0.548-0.009-0.848-0.026-0.9c-0.053-0.371-0.219-0.556-0.5-0.556
			c-0.123,0-0.228,0-0.315,0h-0.236c-0.771,0-1.156-0.53-1.156-1.59c0-0.573,0.162-1.034,0.486-1.382
			c0.324-0.348,0.748-0.521,1.273-0.521c0.351,0,0.876,0.049,1.576,0.145c0.7,0.097,1.226,0.145,1.576,0.145
			c0.455,0,1.024-0.035,1.707-0.105c1.191-0.122,1.777-0.184,1.76-0.184c0.56,0,1.01,0.18,1.352,0.538
			c0.342,0.359,0.513,0.827,0.513,1.405c0,0.49-0.136,0.901-0.407,1.233c-0.272,0.334-0.609,0.5-1.012,0.5
			c-0.157,0-0.372-0.031-0.643-0.093c-0.272-0.061-0.478-0.091-0.618-0.091c-0.35,0-0.577,0.219-0.683,0.656
			c-0.036,0.175-0.052,0.543-0.052,1.103v7.274c0,1.19,0.236,1.785,0.709,1.785c0.14,0,0.35-0.029,0.63-0.091
			c0.279-0.062,0.49-0.093,0.63-0.093c0.403,0,0.744,0.167,1.024,0.499c0.279,0.333,0.42,0.745,0.42,1.234
			c0,0.578-0.171,1.047-0.513,1.405s-0.792,0.538-1.352,0.538c-0.018,0-0.052,0-0.105,0c-0.035-0.018-0.069-0.026-0.104-0.026
			c-0.351,0-0.875-0.044-1.576-0.131s-1.234-0.132-1.602-0.132c-0.683,0-1.26,0.038-1.733,0.116
			c-0.718,0.115-1.226,0.173-1.523,0.173c-0.508,0-0.924-0.18-1.248-0.538c-0.324-0.358-0.486-0.827-0.486-1.405
			c0-1.067,0.385-1.602,1.156-1.602c0.105,0,0.184,0,0.236,0c0.052,0,0.113,0,0.184,0c0.07,0,0.114,0,0.131,0
			c0.28,0,0.446-0.191,0.5-0.574c0.017-0.191,0.026-0.486,0.026-0.888v-2.583h-5.515v2.583c0,0.592,0,0.896,0,0.914
			c0.053,0.365,0.228,0.548,0.525,0.548c0.018,0,0.061,0,0.131,0c0.07,0,0.123,0,0.158,0c0.053,0,0.131,0,0.236,0
			c0.77,0,1.155,0.534,1.155,1.602c0,0.578-0.162,1.047-0.485,1.405c-0.325,0.358-0.74,0.538-1.248,0.538
			c-0.315,0-0.792-0.049-1.432-0.145c-0.639-0.096-1.125-0.145-1.458-0.145c-0.752,0-1.409,0.038-1.969,0.116
			c-0.84,0.115-1.427,0.173-1.759,0.173c-0.56,0-1.011-0.176-1.353-0.529c-0.342-0.352-0.512-0.819-0.512-1.401
			c0-0.494,0.14-0.908,0.42-1.243c0.28-0.335,0.622-0.503,1.025-0.503c0.14,0,0.345,0.03,0.616,0.093
			c0.271,0.062,0.478,0.091,0.618,0.091c0.472,0,0.709-0.595,0.709-1.785v-7.274c0-1.173-0.237-1.759-0.709-1.759
			c-0.14,0-0.346,0.03-0.618,0.091c-0.271,0.062-0.485,0.093-0.643,0.093c-0.403,0-0.74-0.167-1.012-0.502
			c-0.271-0.335-0.407-0.75-0.407-1.244c0-0.582,0.175-1.049,0.525-1.401s0.805-0.529,1.365-0.529c0.175,0,0.736,0.059,1.681,0.173
			c0.63,0.078,1.26,0.116,1.89,0.116c0.543,0,1.051-0.038,1.524-0.116c0.7-0.114,1.198-0.173,1.497-0.173
			c0.525,0,0.946,0.179,1.26,0.534c0.315,0.356,0.473,0.821,0.473,1.395c0,1.043-0.386,1.564-1.155,1.564h-0.236
			c-0.07,0-0.167,0-0.289,0c-0.297,0-0.472,0.185-0.525,0.556C70.773,224.211,70.773,224.511,70.773,225.094z"/>
		<path fill="#FFB24B" d="M94.828,223.48c-0.578,0-0.963,0.052-1.156,0.157c-0.263,0.157-0.394,0.508-0.394,1.051v1.47
			c0,0.298,0.038,0.521,0.115,0.67s0.276,0.223,0.6,0.223c0.749,0,1.124-0.279,1.124-0.84v-0.342c0-0.105,0-0.236,0-0.394
			c0-0.735,0.442-1.104,1.326-1.104c0.919,0,1.379,0.446,1.379,1.34c0,0.245-0.023,0.517-0.07,0.814
			c-0.093,0.577-0.14,1.112-0.14,1.602c0,0.456,0.035,1.033,0.105,1.733c0.069,0.7,0.105,1.19,0.105,1.47
			c0,1.033-0.464,1.55-1.392,1.55c-0.876,0-1.313-0.446-1.313-1.339v-0.132c0-0.087,0-0.297,0-0.63c0-0.421-0.366-0.63-1.098-0.63
			c-0.493,0-0.74,0.28-0.74,0.84v1.969c0,0.613,0.109,1.029,0.329,1.248c0.218,0.22,0.625,0.328,1.221,0.328h1.523
			c1.12,0,1.904-0.096,2.35-0.288c0.447-0.192,0.669-0.534,0.669-1.025c0-0.244-0.026-0.538-0.078-0.879
			c-0.053-0.342-0.079-0.626-0.079-0.854c0-0.647,0.184-1.155,0.551-1.523c0.368-0.367,0.867-0.552,1.497-0.552
			c1.278,0,1.917,0.701,1.917,2.102c0,0.455-0.026,0.937-0.079,1.443c-0.087,0.842-0.131,1.366-0.131,1.576
			c0,0.193,0.044,0.569,0.131,1.129c0.052,0.333,0.079,0.674,0.079,1.024c0,0.823-0.517,1.234-1.549,1.234
			c-0.333,0-0.884-0.026-1.654-0.079c-1.278-0.087-3.318-0.147-6.119-0.184h-2.338c-0.875,0-1.601,0.026-2.179,0.079l-1.996,0.161
			c-0.018,0-0.053,0.007-0.105,0.022c-0.052,0-0.097,0-0.131,0c-0.543,0-0.984-0.184-1.326-0.551
			c-0.341-0.368-0.513-0.832-0.513-1.392c0-0.491,0.136-0.902,0.407-1.234c0.271-0.333,0.618-0.499,1.038-0.499
			c0.14,0,0.35,0.034,0.63,0.104c0.279,0.07,0.481,0.104,0.604,0.104c0.473,0,0.708-0.595,0.708-1.785v-7.274
			c0-1.173-0.235-1.759-0.708-1.759c-0.105,0-0.315,0.034-0.63,0.105c-0.228,0.052-0.43,0.078-0.604,0.078
			c-0.403,0-0.745-0.166-1.023-0.5c-0.281-0.332-0.421-0.743-0.421-1.233c0-1.278,0.641-1.917,1.923-1.917
			c0.298,0,0.903,0.035,1.818,0.105c1.369,0.104,2.695,0.157,3.976,0.157c0.124,0,1.177-0.026,3.162-0.078
			c1.439-0.035,2.388-0.071,2.844-0.105c0.755-0.054,1.545-0.079,2.371-0.079c0.982,0,1.475,0.43,1.475,1.287
			c0,0.28-0.04,0.691-0.119,1.234c-0.079,0.542-0.118,0.954-0.118,1.233c0,0.28,0.039,0.679,0.118,1.195
			c0.079,0.517,0.119,0.905,0.119,1.168c0,0.508-0.189,0.937-0.565,1.287c-0.376,0.351-0.845,0.525-1.405,0.525
			c-1.312,0-1.969-0.674-1.969-2.021c0-0.229,0.039-0.543,0.119-0.945c0.078-0.403,0.118-0.7,0.118-0.894
			c0-0.385-0.202-0.621-0.604-0.709c-0.14-0.035-0.508-0.052-1.103-0.052H94.828z"/>
		<path fill="#FFB24B" d="M113.682,223.638c-0.56,0-0.84,0.481-0.84,1.443v7.406c0,0.665,0.026,1.094,0.079,1.286
			c0.122,0.456,0.42,0.719,0.893,0.788c0.21,0.035,0.517,0.053,0.919,0.053h1.287c1.417,0,2.126-0.438,2.126-1.313
			c0-0.227-0.035-0.508-0.105-0.84c-0.087-0.402-0.13-0.744-0.13-1.024c0-0.561,0.209-1.028,0.63-1.404
			c0.42-0.377,0.945-0.564,1.576-0.564c1.4,0,2.101,0.691,2.101,2.074c0,0.314-0.035,0.771-0.105,1.365
			c-0.07,0.596-0.104,1.042-0.104,1.34c0,0.35,0.023,0.699,0.069,1.05c0.093,0.7,0.14,1.095,0.14,1.182
			c0,0.964-0.57,1.444-1.711,1.444c-0.58,0-1.432-0.035-2.556-0.105c-1.686-0.104-4.109-0.157-7.27-0.157
			c-0.772,0-1.334,0.016-1.686,0.048l-2.081,0.191c-0.018,0-0.053,0.008-0.105,0.023c-0.053,0-0.098,0-0.132,0
			c-0.544,0-0.988-0.184-1.33-0.551c-0.342-0.368-0.514-0.832-0.514-1.392c0-0.509,0.136-0.924,0.407-1.249
			c0.271-0.323,0.618-0.484,1.038-0.484c0.14,0,0.345,0.034,0.617,0.104s0.478,0.104,0.618,0.104c0.472,0,0.709-0.595,0.709-1.785
			v-7.274c0-1.173-0.237-1.759-0.709-1.759c-0.14,0-0.346,0.03-0.618,0.091c-0.271,0.062-0.485,0.093-0.643,0.093
			c-0.404,0-0.74-0.166-1.012-0.5c-0.271-0.332-0.407-0.743-0.407-1.233c0-1.278,0.648-1.917,1.944-1.917
			c0.244,0,0.998,0.053,2.258,0.157c0.84,0.07,1.602,0.105,2.285,0.105c0.578,0,1.146-0.035,1.708-0.105
			c0.84-0.104,1.444-0.157,1.812-0.157c0.578,0,1.038,0.171,1.378,0.512c0.342,0.342,0.512,0.802,0.512,1.379
			c0,0.508-0.131,0.928-0.394,1.26c-0.263,0.334-0.596,0.5-0.998,0.5c-0.193,0-0.469-0.031-0.828-0.093
			C114.151,223.668,113.875,223.638,113.682,223.638z"/>
		<path fill="#FFB24B" d="M135.792,232.355h-3.492c-0.999,0-1.497,0.596-1.497,1.786c0,0.28,0.149,0.42,0.446,0.42
			c0.088,0,0.218-0.013,0.394-0.039c0.175-0.026,0.306-0.039,0.394-0.039c0.647,0,0.971,0.517,0.971,1.549
			c0,0.561-0.148,1.016-0.446,1.365c-0.298,0.351-0.692,0.525-1.182,0.525c-0.245,0-0.788-0.062-1.628-0.184
			c-0.368-0.053-0.885-0.079-1.549-0.079c-0.718,0-1.278,0.026-1.681,0.079c-0.928,0.122-1.479,0.184-1.654,0.184
			c-0.542,0-0.984-0.166-1.326-0.499c-0.341-0.332-0.512-0.77-0.512-1.312c0-1.226,0.464-1.839,1.392-1.839
			c0.105,0,0.271,0.014,0.499,0.039c0.228,0.027,0.394,0.04,0.499,0.04c0.333,0,0.604-0.185,0.814-0.551
			c0.052-0.105,0.175-0.429,0.368-0.973l3.624-10.32c0.421-1.173,0.893-1.907,1.418-2.206c0.384-0.192,1.234-0.288,2.547-0.288
			c1.471,0,2.398,0.092,2.783,0.275s0.7,0.695,0.945,1.536l3.362,11.188c0.263,0.893,0.569,1.339,0.919,1.339
			c0.104,0,0.289-0.026,0.551-0.079h0.289c0.98,0,1.471,0.578,1.471,1.733c0,0.578-0.175,1.042-0.525,1.392
			c-0.351,0.351-0.806,0.525-1.366,0.525c-0.245,0-0.57-0.026-0.972-0.079c-0.49-0.087-0.814-0.131-0.972-0.131
			c-0.385-0.035-0.884-0.053-1.497-0.053c-0.665,0-1.111,0.018-1.338,0.053c-0.893,0.14-1.453,0.21-1.681,0.21
			c-0.472,0-0.862-0.179-1.168-0.538c-0.307-0.358-0.46-0.81-0.46-1.353c0-1.032,0.333-1.549,0.999-1.549
			c0.087,0,0.218,0.013,0.393,0.039s0.306,0.039,0.394,0.039c0.333,0,0.5-0.184,0.5-0.552c0-0.472-0.097-0.866-0.289-1.182
			C136.335,232.514,136.091,232.355,135.792,232.355z M135.399,228.338l-1.261-5.383l-1.628,5.593
			c-0.018,0.053-0.026,0.114-0.026,0.184c0,0.211,0.219,0.315,0.656,0.315h1.628c0.455,0,0.683-0.122,0.683-0.367
			C135.452,228.696,135.435,228.584,135.399,228.338z"/>
		<path fill="#FFB24B" d="M147.479,234.456c0.472,0,0.709-0.595,0.709-1.785v-7.274c0-1.173-0.237-1.759-0.709-1.759
			c-0.141,0-0.346,0.03-0.618,0.091c-0.271,0.062-0.485,0.093-0.644,0.093c-0.403,0-0.739-0.166-1.011-0.5
			c-0.271-0.332-0.407-0.743-0.407-1.233c0-0.578,0.175-1.041,0.525-1.392c0.35-0.35,0.804-0.525,1.365-0.525
			c0.297,0,0.91,0.053,1.838,0.157c0.613,0.07,1.199,0.105,1.759,0.105c0.21,0,0.7-0.026,1.47-0.078l1.917-0.132
			c0.509-0.035,1.008-0.053,1.497-0.053c3.17,0,5.437,1.339,6.802,4.018c0.771,1.506,1.155,3.125,1.155,4.858
			s-0.367,3.326-1.103,4.779c-0.734,1.454-1.716,2.521-2.94,3.204c-1.086,0.596-2.382,0.893-3.888,0.893
			c-0.595,0-1.103-0.018-1.523-0.052l-1.917-0.158c-0.42-0.035-0.91-0.053-1.47-0.053c-0.7,0-1.286,0.026-1.759,0.079l-1.05,0.104
			c-0.404,0.053-0.666,0.079-0.788,0.079c-0.561,0-1.016-0.175-1.365-0.525c-0.351-0.35-0.525-0.813-0.525-1.392
			c0-0.489,0.136-0.901,0.407-1.234c0.271-0.332,0.608-0.499,1.011-0.499c0.158,0,0.376,0.03,0.657,0.093
			C147.155,234.427,147.357,234.456,147.479,234.456z M154.307,223.532c-0.596,0-0.994,0.092-1.195,0.275s-0.302,0.548-0.302,1.09
			v8.272c0,0.543,0.101,0.91,0.302,1.103c0.201,0.193,0.6,0.289,1.195,0.289c0.963,0,1.829-0.395,2.6-1.182
			c0.894-0.928,1.34-2.302,1.34-4.123c0-2.048-0.446-3.562-1.34-4.543c-0.402-0.438-0.84-0.753-1.313-0.945
			C155.19,223.611,154.762,223.532,154.307,223.532z"/>
		<path fill="#FFB24B" d="M173.949,223.48c-0.578,0-0.963,0.052-1.155,0.157c-0.263,0.157-0.395,0.508-0.395,1.051v1.47
			c0,0.298,0.038,0.521,0.114,0.67s0.276,0.223,0.601,0.223c0.749,0,1.123-0.279,1.123-0.84v-0.342c0-0.105,0-0.236,0-0.394
			c0-0.735,0.442-1.104,1.326-1.104c0.919,0,1.379,0.446,1.379,1.34c0,0.245-0.023,0.517-0.069,0.814
			c-0.094,0.577-0.141,1.112-0.141,1.602c0,0.456,0.034,1.033,0.105,1.733c0.07,0.7,0.104,1.19,0.104,1.47
			c0,1.033-0.464,1.55-1.392,1.55c-0.876,0-1.313-0.446-1.313-1.339v-0.132c0-0.087,0-0.297,0-0.63c0-0.421-0.365-0.63-1.098-0.63
			c-0.494,0-0.74,0.28-0.74,0.84v1.969c0,0.613,0.109,1.029,0.328,1.248c0.22,0.22,0.626,0.328,1.222,0.328h1.523
			c1.119,0,1.903-0.096,2.35-0.288s0.67-0.534,0.67-1.025c0-0.244-0.025-0.538-0.079-0.879c-0.053-0.342-0.079-0.626-0.079-0.854
			c0-0.647,0.185-1.155,0.552-1.523c0.368-0.367,0.867-0.552,1.497-0.552c1.278,0,1.917,0.701,1.917,2.102
			c0,0.455-0.026,0.937-0.079,1.443c-0.088,0.842-0.131,1.366-0.131,1.576c0,0.193,0.043,0.569,0.131,1.129
			c0.053,0.333,0.079,0.674,0.079,1.024c0,0.823-0.517,1.234-1.55,1.234c-0.332,0-0.885-0.026-1.654-0.079
			c-1.278-0.087-3.317-0.147-6.118-0.184h-2.337c-0.876,0-1.603,0.026-2.18,0.079l-1.996,0.161c-0.019,0-0.053,0.007-0.105,0.022
			c-0.052,0-0.096,0-0.131,0c-0.543,0-0.985-0.184-1.327-0.551c-0.341-0.368-0.511-0.832-0.511-1.392
			c0-0.491,0.136-0.902,0.407-1.234c0.271-0.333,0.616-0.499,1.036-0.499c0.141,0,0.35,0.034,0.631,0.104
			c0.279,0.07,0.48,0.104,0.604,0.104c0.472,0,0.708-0.595,0.708-1.785v-7.274c0-1.173-0.236-1.759-0.708-1.759
			c-0.106,0-0.315,0.034-0.631,0.105c-0.228,0.052-0.429,0.078-0.604,0.078c-0.402,0-0.744-0.166-1.023-0.5
			c-0.281-0.332-0.42-0.743-0.42-1.233c0-1.278,0.64-1.917,1.922-1.917c0.299,0,0.904,0.035,1.817,0.105
			c1.369,0.104,2.695,0.157,3.977,0.157c0.124,0,1.178-0.026,3.162-0.078c1.439-0.035,2.387-0.071,2.845-0.105
			c0.755-0.054,1.545-0.079,2.37-0.079c0.982,0,1.475,0.43,1.475,1.287c0,0.28-0.039,0.691-0.118,1.234
			c-0.078,0.542-0.118,0.954-0.118,1.233c0,0.28,0.04,0.679,0.118,1.195c0.079,0.517,0.118,0.905,0.118,1.168
			c0,0.508-0.188,0.937-0.564,1.287s-0.845,0.525-1.404,0.525c-1.313,0-1.97-0.674-1.97-2.021c0-0.229,0.04-0.543,0.118-0.945
			c0.078-0.403,0.118-0.7,0.118-0.894c0-0.385-0.202-0.621-0.604-0.709c-0.141-0.035-0.508-0.052-1.104-0.052H173.949z"/>
		<path fill="#FFB24B" d="M199.868,227.695c-0.508,0.351-1.305,0.649-2.39,0.895c1.26,0.21,2.153,0.583,2.679,1.118
			s0.788,1.329,0.788,2.381c0,0.316,0,0.623,0,0.921v0.315c0,0.72,0.207,1.079,0.624,1.079c0.104,0,0.265-0.022,0.481-0.065
			c0.216-0.044,0.377-0.066,0.481-0.066c0.382,0,0.688,0.162,0.924,0.486c0.233,0.323,0.352,0.748,0.352,1.273
			c0,0.577-0.172,1.037-0.513,1.379c-0.342,0.342-0.792,0.512-1.353,0.512c-0.193,0-0.49-0.022-0.894-0.066
			c-0.402-0.043-0.699-0.064-0.892-0.064c-0.211,0-0.521,0.021-0.933,0.064c-0.411,0.044-0.722,0.066-0.933,0.066
			c-0.647,0-1.169-0.267-1.562-0.801c-0.395-0.534-0.592-1.238-0.592-2.113c0-0.088,0.026-0.149,0.079-0.185v-1.523v-0.183
			c0-0.911-0.232-1.541-0.695-1.892c-0.465-0.351-1.301-0.525-2.509-0.525c-0.49,0-0.797,0.132-0.919,0.395
			c-0.088,0.175-0.132,0.498-0.132,0.972v0.604c0,1.19,0.22,1.785,0.657,1.785c0.122,0,0.311-0.029,0.564-0.091
			c0.254-0.062,0.45-0.093,0.591-0.093c0.367,0,0.679,0.167,0.933,0.499c0.253,0.333,0.38,0.745,0.38,1.234
			c0,1.278-0.612,1.917-1.838,1.917c-0.42,0-0.989-0.044-1.707-0.131s-1.34-0.132-1.864-0.132c-0.561,0-1.208,0.045-1.943,0.132
			s-1.357,0.131-1.864,0.131c-1.278,0-1.918-0.639-1.918-1.917c0-0.489,0.136-0.901,0.407-1.234
			c0.271-0.332,0.609-0.499,1.012-0.499c0.157,0,0.377,0.03,0.656,0.093c0.28,0.062,0.481,0.091,0.604,0.091
			c0.473,0,0.708-0.595,0.708-1.785v-7.274c0-0.56-0.017-0.919-0.052-1.076c-0.088-0.455-0.307-0.683-0.656-0.683
			c-0.141,0-0.347,0.03-0.617,0.091c-0.272,0.062-0.486,0.093-0.644,0.093c-0.402,0-0.74-0.166-1.012-0.5
			c-0.271-0.332-0.407-0.743-0.407-1.233c0-0.561,0.172-1.024,0.513-1.392c0.342-0.368,0.783-0.552,1.326-0.552
			c0.105,0,0.184,0.009,0.236,0.026l1.864,0.185c0.525,0.052,1.086,0.078,1.682,0.078c1.032,0,2.337-0.062,3.913-0.184
			c1.049-0.069,1.828-0.105,2.337-0.105c1.662,0,2.98,0.417,3.952,1.25c0.971,0.833,1.457,1.969,1.457,3.406
			C201.233,226.117,200.778,227.082,199.868,227.695z M193.907,223.638c-0.701,0-1.156,0.044-1.366,0.132
			c-0.385,0.177-0.578,0.555-0.578,1.137v1.587c0,0.405,0.066,0.67,0.197,0.793c0.132,0.123,0.381,0.186,0.748,0.186
			c2.276,0,3.415-0.679,3.415-2.036C196.323,224.236,195.517,223.638,193.907,223.638z"/>
		<path fill="#FFB24B" d="M206.722,234.456c0.351,0,0.569-0.227,0.656-0.683c0.035-0.175,0.053-0.542,0.053-1.103v-7.274
			c0-0.56-0.018-0.919-0.053-1.076c-0.087-0.455-0.306-0.683-0.656-0.683c-0.14,0-0.346,0.03-0.616,0.091
			c-0.272,0.062-0.486,0.093-0.644,0.093c-0.403,0-0.74-0.166-1.012-0.5c-0.271-0.332-0.407-0.743-0.407-1.233
			c0-0.596,0.171-1.063,0.513-1.405c0.342-0.341,0.801-0.512,1.378-0.512c0.263,0,0.876,0.053,1.839,0.157
			c0.647,0.07,1.277,0.105,1.891,0.105c0.49,0,1.195-0.044,2.113-0.132c0.92-0.087,1.527-0.131,1.826-0.131
			c1.277,0,1.917,0.639,1.917,1.917c0,0.49-0.136,0.901-0.407,1.233c-0.271,0.334-0.609,0.5-1.011,0.5
			c-0.141,0-0.351-0.031-0.631-0.093c-0.279-0.061-0.49-0.091-0.63-0.091c-0.473,0-0.709,0.586-0.709,1.759v7.274
			c0,1.19,0.236,1.785,0.709,1.785c0.14,0,0.351-0.029,0.63-0.091c0.28-0.062,0.49-0.093,0.631-0.093
			c0.401,0,0.739,0.167,1.011,0.499c0.271,0.333,0.407,0.745,0.407,1.234c0,0.561-0.171,1.024-0.513,1.392
			c-0.341,0.368-0.774,0.552-1.299,0.552c-0.105,0-0.185-0.009-0.237-0.026l-1.654-0.21c-0.42-0.053-0.884-0.079-1.393-0.079
			c-0.787,0-1.61,0.048-2.468,0.144c-1.033,0.114-1.707,0.172-2.022,0.172c-0.56,0-1.015-0.176-1.365-0.529
			c-0.351-0.352-0.525-0.819-0.525-1.401c0-0.512,0.136-0.93,0.407-1.256s0.617-0.49,1.037-0.49c0.141,0,0.346,0.03,0.618,0.093
			C206.376,234.427,206.582,234.456,206.722,234.456z M206.328,217.466c0-0.35,0.166-0.656,0.499-0.919
			c0.122-0.104,0.438-0.297,0.945-0.578l2.442-1.312c0.56-0.297,1.041-0.447,1.444-0.447c0.42,0,0.787,0.181,1.103,0.539
			c0.315,0.359,0.473,0.783,0.473,1.273c0,0.63-0.577,1.174-1.733,1.629l-2.363,0.945c-0.647,0.263-1.182,0.394-1.602,0.394
			c-0.438,0-0.779-0.271-1.024-0.813C206.39,217.896,206.328,217.659,206.328,217.466z"/>
		<path fill="#FFB24B" d="M228.518,232.355h-3.492c-0.998,0-1.497,0.596-1.497,1.786c0,0.28,0.148,0.42,0.446,0.42
			c0.087,0,0.219-0.013,0.395-0.039c0.175-0.026,0.306-0.039,0.394-0.039c0.647,0,0.972,0.517,0.972,1.549
			c0,0.561-0.149,1.016-0.447,1.365c-0.297,0.351-0.691,0.525-1.181,0.525c-0.245,0-0.788-0.062-1.628-0.184
			c-0.368-0.053-0.885-0.079-1.551-0.079c-0.717,0-1.277,0.026-1.68,0.079c-0.929,0.122-1.479,0.184-1.654,0.184
			c-0.543,0-0.984-0.166-1.326-0.499c-0.342-0.332-0.513-0.77-0.513-1.312c0-1.226,0.464-1.839,1.393-1.839
			c0.104,0,0.271,0.014,0.498,0.039c0.229,0.027,0.395,0.04,0.499,0.04c0.333,0,0.604-0.185,0.814-0.551
			c0.053-0.105,0.175-0.429,0.368-0.973l3.623-10.32c0.42-1.173,0.894-1.907,1.419-2.206c0.384-0.192,1.234-0.288,2.546-0.288
			c1.472,0,2.399,0.092,2.784,0.275s0.7,0.695,0.945,1.536l3.362,11.188c0.263,0.893,0.568,1.339,0.918,1.339
			c0.105,0,0.29-0.026,0.552-0.079h0.289c0.98,0,1.471,0.578,1.471,1.733c0,0.578-0.175,1.042-0.524,1.392
			c-0.351,0.351-0.807,0.525-1.367,0.525c-0.245,0-0.568-0.026-0.971-0.079c-0.49-0.087-0.814-0.131-0.972-0.131
			c-0.386-0.035-0.884-0.053-1.497-0.053c-0.665,0-1.111,0.018-1.34,0.053c-0.892,0.14-1.453,0.21-1.68,0.21
			c-0.474,0-0.863-0.179-1.169-0.538c-0.307-0.358-0.459-0.81-0.459-1.353c0-1.032,0.332-1.549,0.997-1.549
			c0.088,0,0.219,0.013,0.394,0.039c0.176,0.026,0.307,0.039,0.395,0.039c0.332,0,0.499-0.184,0.499-0.552
			c0-0.472-0.097-0.866-0.289-1.182C229.061,232.514,228.815,232.355,228.518,232.355z M228.124,228.338l-1.261-5.383l-1.628,5.593
			c-0.018,0.053-0.026,0.114-0.026,0.184c0,0.211,0.219,0.315,0.657,0.315h1.628c0.455,0,0.683-0.122,0.683-0.367
			C228.177,228.696,228.158,228.584,228.124,228.338z"/>
	</g>
</g>
</svg>
